<svg width="289" height="58" viewBox="0 0 289 58" fill="none" xmlns="http://www.w3.org/2000/svg">
<path d="M203.606 0L238.346 36.3207V35.5337C238.346 25.4222 238.346 15.3108 238.346 5.19927C238.346 4.57374 238.507 4.43249 239.12 4.43922C241.608 4.43922 244.104 4.43922 246.592 4.43922C247.002 4.43922 247.198 4.49302 247.198 4.98403C247.198 22.4718 247.198 39.9707 247.198 57.4808C247.198 57.5212 247.198 57.5615 247.198 57.7566L212.552 21.6646C212.451 21.9187 212.419 22.1946 212.457 22.465C212.457 32.6214 212.457 42.7754 212.457 52.9273C212.457 53.5595 212.283 53.6941 211.684 53.6873C209.168 53.647 206.653 53.6873 204.144 53.6873C203.734 53.6873 203.599 53.5797 203.599 53.156C203.599 35.5741 203.599 17.99 203.599 0.403588C203.599 0.343053 203.599 0.27576 203.64 0.033622" fill="#F15A29"/>
<path d="M196.147 28.8076C196.234 43.1879 185.103 52.3488 175.296 54.0908C170.147 55.0691 164.823 54.4798 160.012 52.3994C155.201 50.319 151.125 46.843 148.311 42.4211C146.22 39.0394 145.002 35.1912 144.767 31.2223C144.403 26.5476 144.995 22.021 147.228 17.8576C151.264 10.2638 157.492 5.44128 166.061 3.88084C172.391 2.80079 178.895 4.11508 184.309 7.56781C189.722 11.0205 193.657 16.3646 195.346 22.5591C195.867 24.6022 196.144 26.6995 196.174 28.8076M153.578 28.626C153.566 29.7349 153.635 30.8432 153.786 31.9419C154.174 34.3994 155.1 36.7408 156.499 38.7986C157.897 40.8563 159.733 42.5796 161.875 43.8451C164.017 45.1105 166.413 45.8869 168.89 46.1186C171.367 46.3504 173.864 46.0317 176.204 45.1855C183.414 42.5556 188.694 35.0561 186.966 25.4916C185.426 17.0706 177.213 10.0217 166.532 12.3556C162.837 13.174 159.535 15.2368 157.18 18.1987C154.824 21.1605 153.557 24.8417 153.591 28.626" fill="#F15A29"/>
<path d="M24.7805 0.295795L27.5651 6.45015L48.4831 52.9742C48.7858 53.6468 48.7858 53.6468 48.0728 53.6468C45.2815 53.6468 42.4902 53.6468 39.6989 53.6468C39.5151 53.6698 39.3292 53.6262 39.1749 53.5237C39.0207 53.4213 38.9082 53.2669 38.8581 53.0886C37.3784 49.6045 35.8583 46.1406 34.3786 42.6632C34.324 42.4748 34.2038 42.3123 34.0397 42.205C33.8756 42.0976 33.6785 42.0526 33.484 42.078C27.453 42.078 21.422 42.078 15.391 42.078C15.1864 42.0549 14.9803 42.1042 14.8083 42.2172C14.6363 42.3303 14.5093 42.5 14.4493 42.6968C12.8889 46.1406 11.2881 49.5709 9.74109 53.0213C9.67512 53.2259 9.53918 53.4008 9.35714 53.5152C9.17511 53.6296 8.9586 53.6762 8.74562 53.6468C6.0552 53.6468 3.33115 53.6468 0.627274 53.6468C-0.112592 53.6468 -0.112588 53.6468 0.190085 52.9742L14.4695 22.3438L24.4375 0.961668L24.7805 0.289062M24.6191 20.3193C22.5408 24.8526 20.5297 29.2447 18.4984 33.6974C22.3457 33.6974 26.0854 33.6974 29.8318 33.6974C30.4439 33.6974 30.4102 33.5359 30.2085 33.0786C28.9171 30.1662 27.6525 27.2403 26.3746 24.3347L24.6191 20.2991" fill="#F15A29"/>
<path d="M85.6648 17.9786C84.9922 17.4405 84.3936 16.9226 83.768 16.4316C80.9969 14.2591 77.9769 12.6045 74.439 12.1068C68.4259 11.2593 63.3948 13.1359 59.4399 17.7499C57.8504 19.575 56.6735 21.7217 55.9898 24.0433C55.3061 26.3649 55.1316 28.8068 55.4783 31.202C56.2921 38.0895 59.9914 42.9188 66.5022 45.246C72.0109 47.2033 77.2639 46.3222 82.026 42.7708C83.2568 41.8561 84.4339 40.8808 85.6042 39.9055C85.7926 40.0737 85.7186 40.2553 85.7186 40.4167C85.7186 43.6497 85.7186 46.8849 85.7186 50.1224C85.7455 50.2867 85.7196 50.4553 85.6447 50.6039C85.5698 50.7526 85.4496 50.8736 85.3016 50.9497C81.0029 53.3963 76.1219 54.6328 71.1769 54.528C65.466 54.4243 59.9598 52.3839 55.5605 48.741C51.1612 45.0981 48.1298 40.0689 46.9631 34.4776C43.8893 19.3305 54.4492 6.63851 66.2668 4.14987C72.7547 2.6412 79.5743 3.68385 85.315 7.06222C85.4444 7.11959 85.5539 7.2142 85.6293 7.33399C85.7048 7.45377 85.7429 7.59331 85.7388 7.73482C85.7388 11.0508 85.7388 14.3734 85.7388 17.6961C85.7259 17.7823 85.7079 17.8676 85.6849 17.9517" fill="#F15A29"/>
<path d="M111.029 33.1998C111.029 39.798 111.029 46.3963 111.029 52.9945C111.029 53.5326 110.887 53.6671 110.356 53.6671C107.888 53.6671 105.419 53.6335 102.957 53.6671C102.359 53.6671 102.184 53.5461 102.184 52.9138C102.184 39.816 102.184 26.7226 102.184 13.6337C102.184 12.6651 102.312 12.7862 101.343 12.7862C98.1684 12.7862 94.9937 12.7862 91.819 12.7862C91.3011 12.7862 91.1935 12.6315 91.2002 12.1136C91.2002 9.72583 91.2002 7.3448 91.2002 4.95705C91.2002 4.46605 91.3482 4.36516 91.8123 4.37189C101.632 4.37189 111.452 4.37189 121.272 4.37189C121.81 4.37189 121.945 4.51314 121.945 5.04449C121.918 7.4031 121.918 9.76621 121.945 12.1338C121.945 12.6584 121.784 12.7593 121.272 12.7526C118.057 12.7526 114.836 12.7526 111.621 12.7526C111.123 12.7526 110.948 12.8804 110.948 13.3848C110.948 19.9831 110.948 26.5813 110.948 33.1863" fill="#F15A29"/>
<path d="M261.322 31.7672C259.237 31.7672 257.152 31.7672 255.06 31.7672C254.616 31.7672 254.482 31.6529 254.489 31.2022C254.489 29.1171 254.489 27.0321 254.489 24.947C254.489 24.4291 254.67 24.3686 255.107 24.3686C259.197 24.3686 263.286 24.3686 267.376 24.3686C267.988 24.3686 268.089 24.1802 268.089 23.6287C268.089 19.6469 268.089 15.6718 268.089 11.6899C268.089 11.1519 268.23 11.0173 268.761 11.0173C270.779 11.0173 272.797 11.0173 274.815 11.0173C275.312 11.0173 275.487 11.1384 275.454 11.6496C275.454 15.6852 275.454 19.6536 275.454 23.6489C275.454 24.2071 275.582 24.3551 276.126 24.3551C280.196 24.3551 284.265 24.3551 288.327 24.3551C288.839 24.3551 289 24.4493 289 25.0277C288.964 27.05 288.964 29.0678 289 31.0812C289 31.673 288.818 31.7538 288.28 31.7538C284.245 31.7538 280.209 31.7538 276.173 31.7538C275.561 31.7538 275.447 31.9421 275.454 32.5003C275.454 36.4754 275.454 40.4573 275.454 44.4391C275.454 44.9099 275.366 45.1117 274.835 45.1117C272.768 45.0758 270.703 45.0758 268.64 45.1117C268.183 45.1117 268.075 44.9839 268.075 44.5467C268.075 40.5111 268.075 36.4755 268.075 32.4398C268.075 31.9421 267.947 31.7672 267.443 31.8076C265.425 31.8076 263.354 31.8076 261.309 31.8076" fill="white"/>
<path d="M128.362 28.9825C128.362 21.0592 128.362 13.1381 128.362 5.21932C128.362 4.60725 128.462 4.38531 129.149 4.39877C131.637 4.44585 134.133 4.39877 136.621 4.39877C137.099 4.39877 137.233 4.51981 137.233 5.00409C137.233 21.0166 137.233 37.0268 137.233 53.0348C137.233 53.4989 137.139 53.6536 136.641 53.6469C134.106 53.6469 131.57 53.6065 129.034 53.6469C128.415 53.6469 128.362 53.4316 128.362 52.9205C128.362 44.9389 128.362 36.9551 128.362 28.969" fill="#F15A29"/>
</svg>
