<svg width="275" height="83" viewBox="0 0 275 83" fill="none" xmlns="http://www.w3.org/2000/svg">
<path d="M97.4201 56.1779C96.3802 55.3763 95.4203 54.5547 95.0149 53.1904C94.718 52.1884 94.022 52.8783 93.622 53.1473C91.8791 54.3196 89.9955 55.1875 87.948 55.5644C78.059 57.385 69.1138 50.7571 68.4885 40.3464C68.2139 35.7464 69.0692 31.538 71.6959 27.7643C75.8224 21.8356 84.2438 19.2135 90.6316 22.1717C91.6863 22.6714 92.7069 23.2404 93.6866 23.8751C94.6473 24.484 94.7227 24.1063 94.705 23.2538C94.6804 22.0607 94.9073 20.9007 95.5933 19.911C96.5055 18.5953 98.0608 18.0827 99.4014 18.5622C100.863 19.0847 102.093 20.9276 102.088 22.6241C102.053 29.5348 101.961 36.4455 101.994 43.3578C102.007 46.0154 102.148 48.6761 102.105 51.3337C102.056 54.278 100.851 55.7324 97.9646 56.2342L97.4201 56.1779ZM76.9261 38.4418C76.9053 43.9027 80.1934 47.5199 85.1483 47.4852C89.6524 47.4544 93.4728 43.3501 93.4651 38.5497C93.4574 33.6939 89.5932 29.5772 85.0322 29.571C80.2296 29.5649 76.9461 33.1574 76.9261 38.4418Z" fill="#FAFBFD"/>
<path d="M271.317 14.7792C273.437 15.8359 273.847 17.6403 273.83 19.8539C273.745 30.2531 273.729 40.6526 273.783 51.0523C273.805 54.7173 271.355 56.2164 268.57 55.7262C266.586 55.3778 265.383 53.7993 265.373 51.4816C265.353 46.5548 265.362 41.6281 265.35 36.7021C265.335 30.9653 265.306 25.2285 265.292 19.4916C265.284 15.9392 266.407 14.8177 269.967 14.7776C270.235 14.7776 270.505 14.7406 270.772 14.7206L271.317 14.7792Z" fill="#FAFBFD"/>
<path d="M169.471 74.8536C167.267 76.7805 165.07 78.6912 162.338 79.9052C157.723 81.957 152.989 82.7331 147.982 81.7974C142.707 80.8116 138.253 78.4145 134.648 74.4197C130.898 70.2621 129.264 65.3454 129.293 59.7982C129.335 51.2535 129.359 42.709 129.366 34.1648C129.373 29.4423 125.952 26.6166 121.367 27.5238C119.004 27.9909 116.863 30.5298 116.856 32.9431C116.839 38.821 116.856 44.6988 116.843 50.5767C116.847 51.3442 116.79 52.1108 116.67 52.869C116.255 55.3447 114.601 56.598 112.075 56.4083C109.817 56.2388 108.532 54.809 108.527 52.3025C108.507 42.265 108.506 32.2278 108.523 22.1909C108.523 20.5661 109.514 19.1271 110.928 18.6037C112.175 18.1413 113.844 18.5713 114.805 19.8077C115.372 20.5376 115.833 20.6177 116.617 20.2385C126.799 15.3125 137.849 22.9748 137.778 33.9967C137.723 42.496 137.778 50.9968 137.685 59.4953C137.629 64.6355 139.685 68.5903 143.938 71.3705C151.574 76.362 162.98 73.3514 166.093 64.2023C167.116 61.1964 166.74 58.0223 166.716 54.9123C166.707 53.8979 165.946 54.2463 165.429 54.4737C162.277 55.8462 159.015 56.2216 155.643 55.5998C150.051 54.5701 145.996 51.3837 143.631 46.3136C141.041 40.7641 141.165 35.0604 144.127 29.6496C146.904 24.5756 151.243 21.6051 157.077 21.0895C161.819 20.6709 166.092 21.8749 169.721 25.0635C173.149 28.0741 175.163 31.9542 175.259 36.42C175.443 44.7304 175.272 53.0517 175.069 61.3644C174.949 66.3089 173.07 70.6629 169.774 74.3757C169.658 74.5052 169.586 74.674 169.494 74.8243L169.471 74.8536ZM166.963 38.451C167.064 36.7276 166.533 35.156 165.732 33.6792C162.841 28.3547 155.055 28.179 151.845 33.3054C150.495 35.4635 150.153 37.7797 150.543 40.186C151.258 44.5794 154.959 48.1519 159.962 47.3603C164.117 46.7021 166.954 43.128 166.963 38.451Z" fill="#FAFBFD"/>
<path d="M46.7654 55.28C45.5009 55.28 44.5556 55.28 43.6119 55.28C41.8721 55.28 40.1507 55.1066 38.5293 56.1418C37.6371 56.7137 36.4903 56.7537 35.382 56.7453C30.7817 56.7106 26.1806 56.7383 21.5796 56.7275C17.7246 56.7191 15.2926 54.6357 14.768 50.8242C14.6365 49.87 14.3065 49.5247 13.3066 49.6002C10.9077 49.7829 8.55718 49.5378 6.3028 48.5767C2.71165 47.0451 0.9395 44.1016 0.330335 40.4736C-0.577261 35.0736 0.283448 30.0058 4.18918 25.8745C5.84132 24.1264 8.16413 23.2646 10.1701 21.9821C11.3822 21.2075 12.6314 20.4937 13.8758 19.7638C14.4912 19.4008 14.6773 18.8713 14.6634 18.1722C14.628 16.4102 14.6311 14.6475 14.6526 12.8847C14.6957 9.31453 17.4216 6.52511 20.9835 6.50199C26.1224 6.46911 31.2619 6.48324 36.4019 6.54439C38.8847 6.5783 40.6122 7.98648 41.7375 10.0968C42.1166 10.8075 42.5189 11.0218 43.2819 11.0549C46.7023 11.2037 50.1189 11.448 53.5385 11.6106C57.7019 11.8087 60.5062 14.1742 62.4952 17.5217C65.6749 22.8746 64.9565 28.0904 60.6324 32.5686C60.1101 33.1081 60.1501 33.4604 60.6485 33.8989C64.2351 37.0514 65.0788 41.1272 63.8951 45.4735C62.5629 50.3664 59.2864 53.6329 54.2531 54.8993C51.6803 55.5475 49.0521 55.1829 46.7654 55.28ZM18.39 35.9592H18.3946C18.3946 39.2141 18.49 42.4737 18.3607 45.7233C18.2769 47.819 20.7051 50.6192 22.9372 50.5475C26.6152 50.4288 30.301 50.5552 33.9837 50.5475C34.8946 50.5536 35.7837 50.2685 36.5219 49.7336C37.1964 49.2472 37.6156 48.8518 36.5988 48.1751C35.6758 47.5585 35.3197 46.5565 35.6081 45.4227C35.8873 44.3236 36.5265 43.5913 37.701 43.401C38.0855 43.3385 38.5655 43.337 38.6239 42.7843C38.7009 42.0768 38.0855 42.1677 37.701 42.0567C36.4042 41.6714 35.5674 40.9253 35.5181 39.4878C35.472 38.1436 36.1881 37.1416 37.5464 36.6197C37.931 36.4718 38.5663 36.6344 38.5978 35.9869C38.6332 35.2439 37.9317 35.3796 37.5133 35.2339C36.2865 34.8077 35.4927 34.0693 35.5135 32.6811C35.5304 31.3099 36.1227 30.3634 37.4864 29.9495C37.9202 29.8177 38.617 29.8986 38.5801 29.1888C38.5478 28.5829 37.8979 28.7101 37.5102 28.5575C36.1027 28.0041 35.4635 27.1131 35.5104 25.698C35.5558 24.41 36.3873 23.4003 37.8094 23.1036C38.5017 22.9586 38.6747 22.6372 38.6632 21.9937C38.6309 20.2317 38.6593 18.4682 38.6447 16.7046C38.6239 14.2343 36.4511 11.8812 33.9529 11.8234C30.3456 11.7386 26.7345 11.7463 23.1264 11.8149C20.9366 11.855 18.7945 13.7703 18.5323 15.7242C18.4915 16.0325 18.3307 16.3724 18.6622 16.5967C18.9937 16.821 19.2353 16.5436 19.5083 16.3909C20.6467 15.7597 21.6619 14.9141 22.9349 14.5157C24.3709 14.0655 25.443 14.5681 25.9153 15.9909C26.506 17.7637 25.9015 19.2066 24.5355 20.3319C22.8679 21.7046 21.175 23.0542 19.4175 24.3067C18.6607 24.8463 18.363 25.4182 18.373 26.3231C18.4123 29.5387 18.39 32.7489 18.39 35.9592ZM44.4833 28.7911C47.2969 28.7248 49.8481 29.0338 52.3717 28.5991C52.8405 28.5155 53.2873 28.3367 53.6847 28.0739C54.0822 27.8111 54.4219 27.4697 54.683 27.0707C55.5898 25.6833 55.8183 24.232 55.1829 22.6958C54.4753 20.9839 53.1216 20.0544 51.3157 19.9912C48.7513 19.9018 46.1808 19.9951 43.6142 19.9496C42.6304 19.9318 42.4259 20.4737 42.5374 21.2329C42.6435 21.9351 41.9597 23.0997 43.5188 23.075C44.4126 23.0604 45.1794 23.3887 45.7355 24.1503C46.8292 25.6448 46.5493 26.9374 44.4833 28.7903V28.7911ZM49.5905 46.5388C50.6396 46.5619 51.9748 46.5958 53.2439 45.9576C54.7438 45.2053 55.7736 43.2414 55.506 41.4255C55.2322 39.5702 53.7285 37.8707 52.0702 37.7643C50.3665 37.6549 48.6513 37.7212 46.9415 37.7212C46.3724 37.7212 46.0378 37.8368 46.1662 38.5991C46.4954 40.5499 45.5447 41.7854 43.6096 42.1022C43.1919 42.1708 42.5874 42.0352 42.582 42.6919C42.5766 43.4387 43.2319 43.3216 43.6919 43.3285C44.9587 43.3478 45.8563 44.1039 46.0947 45.1575C46.4177 46.5881 47.2484 46.6428 48.346 46.5449C48.659 46.5141 48.9751 46.538 49.5905 46.538V46.5388ZM30.0541 53.1627C29.9933 52.5268 29.3995 51.8971 28.5373 51.9172C27.7251 51.9357 26.9421 52.4266 26.9783 53.451C27.0144 54.453 27.589 55.0619 28.6135 55.0426C29.5803 55.0241 30.0856 54.4646 30.0541 53.162V53.1627Z" fill="#FAFBFD"/>
<path d="M179.297 24.662C179.297 19.6428 179.317 14.6243 179.291 9.60587C179.269 5.34275 183.454 4.38853 185.864 5.7235C187.394 6.57135 187.917 7.93947 187.912 9.57042C187.899 13.775 187.853 17.9795 187.823 22.1833C187.814 22.5898 187.83 22.9965 187.87 23.4011C187.927 23.889 188.16 24.0524 188.59 23.6993C195.467 18.0581 206.709 21.6792 210.742 29.6882C213.95 36.0555 213.924 42.56 209.952 48.6175C206.138 54.436 200.426 56.5225 193.672 55.7194C185.844 54.7891 179.64 47.8537 179.489 39.5818C179.398 34.6103 179.472 29.6389 179.472 24.662H179.297ZM187.945 38.7293C187.924 40.7256 188.008 41.6135 189.282 43.5944C191.476 47.0058 195.204 48.4302 199.261 46.8139C204.099 44.887 206.148 38.1813 202.919 33.2731C200.904 30.2108 197.124 28.8889 193.855 29.938C191.037 30.8421 187.596 34.5402 187.945 38.7293Z" fill="#FAFBFD"/>
<path d="M234.499 47.1376C236.254 46.9896 237.558 46.0246 238.713 44.7967C239.606 43.8471 240.398 42.7843 241.778 42.4613C243.348 42.0937 244.949 41.7545 246.203 43.1103C247.499 44.5139 247.302 46.2165 246.686 47.8297C245.756 50.2599 243.833 51.8562 241.73 53.2128C233.51 58.5149 222.79 55.9058 218.062 47.3218C215.408 42.5029 215.179 37.3696 216.909 32.1315C219.425 24.5109 226.788 19.8871 235.488 21.2205C239.552 21.844 242.878 23.9398 245.564 27.0552C246.361 27.9801 246.067 28.7054 245.357 29.5409C242.53 32.8699 239.752 36.2404 236.964 39.6025C236.714 39.9054 236.402 40.1906 236.377 40.6315L236.117 40.9105C234.978 41.7584 234.087 42.8051 233.517 44.1154L233.093 44.5354C232.776 44.6788 232.446 44.8122 232.456 45.2492L232.287 45.5814C231.809 45.7764 231.457 46.0947 231.3 46.6019L231.232 46.6127L231.22 46.6805C230.783 47.1098 231.126 47.2971 231.483 47.3672C232.261 47.5214 233.058 47.7041 233.795 47.2015L234.499 47.1376ZM224.259 38.9566C224.377 39.6611 224.513 40.5537 224.682 41.4393C224.747 41.7769 224.699 42.264 225.118 42.3534C225.537 42.4428 225.835 42.0952 226.091 41.753C228.757 38.1859 231.441 34.6303 234.098 31.0547C234.318 30.7587 234.734 30.4427 234.513 29.988C234.271 29.4901 233.758 29.5856 233.313 29.5702C227.654 29.3806 224.512 33.1288 224.259 38.9566Z" fill="#FAFBFD"/>
<path d="M259.03 27.9517C259.03 35.8135 259.043 43.6754 259.023 51.5372C259.014 54.5817 256.913 56.3267 253.97 55.8111C251.86 55.4404 250.748 54.1825 250.71 51.9819C250.667 49.4977 250.701 47.0128 250.695 44.5278C250.68 37.6618 250.662 30.7961 250.641 23.9306C250.614 17.5178 250.688 11.1012 250.473 4.69455C250.33 0.417555 254.579 -1.00297 257.282 0.70428C258.703 1.60222 259.156 2.93564 259.147 4.51187C259.109 11.513 259.071 18.5141 259.031 25.5153C259.024 26.3254 259.03 27.1385 259.03 27.9517Z" fill="#FAFBFD"/>
<path d="M263.972 5.56779C263.938 2.69745 266.471 0.0806851 269.329 0.0328975C272.369 -0.018744 274.919 2.45852 274.998 5.54005C275.081 8.77265 272.614 11.2437 269.314 11.2245C266.369 11.209 264.009 8.71021 263.972 5.56779Z" fill="#FAFBFD"/>
</svg>
