<svg width="104" height="118" viewBox="0 0 104 118" fill="none" xmlns="http://www.w3.org/2000/svg">
<path d="M3.25511 80.3272L7.32894 78.3635C7.1704 78.2887 7.09273 78.2389 7.00726 78.2145C6.23569 77.9894 5.46733 77.7533 4.68841 77.5554C4.37363 77.4757 4.19671 77.3129 4.05425 77.0292C3.17607 75.2767 2.52765 73.4393 1.97712 71.5645C1.19866 68.9122 0.672032 66.2082 0.349894 63.4609C0.0454362 60.8484 -0.0605651 58.2164 0.03281 55.5878C0.195947 50.9131 0.970275 46.3367 2.29237 41.8516C2.35947 41.6233 2.48308 41.5181 2.69539 41.4503C3.80885 41.0934 4.91957 40.7272 6.03074 40.3633C6.2242 40.2996 6.41537 40.2305 6.70488 40.1327C6.52106 40.0285 6.41307 39.9538 6.29451 39.8989C5.31201 39.4447 4.32859 38.992 3.34426 38.5406C3.20042 38.4742 3.06072 38.3977 2.88196 38.3068C2.96146 37.7474 3.01063 37.1921 3.12276 36.6497C4.88786 28.0996 8.5913 20.5425 14.6081 14.184C16.6631 12.0127 18.9889 10.167 21.4819 8.52007C22.7654 7.6724 24.5079 7.86794 25.3057 9.25798C25.3333 9.3041 25.3801 9.34285 25.467 9.43878C25.513 9.27091 25.5543 9.15469 25.5805 9.03616C25.8925 7.61522 26.4872 6.34416 27.5221 5.30048C28.1856 4.63128 28.96 4.12858 29.8575 3.86662C31.0624 3.51473 32.2802 3.20065 33.503 2.91701C35.3105 2.49702 37.1231 2.10101 38.9407 1.72898C39.6691 1.57909 40.4113 1.50484 41.1516 1.40845C42.2545 1.26455 43.3574 1.12942 44.4603 0.993371C44.7195 0.961549 44.9805 0.942642 45.2741 0.91497C45.366 1.47763 45.4506 2.01768 45.5365 2.55774L45.6487 2.57066C45.8325 2.01445 46.0131 1.45872 46.2001 0.890526L52.2467 0.755399L52.3846 1.2212C52.461 1.16941 52.5343 1.11321 52.6042 1.05287C53.6286 0.0382381 54.8468 -0.187289 56.2103 0.139237C56.9097 0.306651 57.5172 0.642408 58.0618 1.10314C58.8177 1.74236 59.4376 2.5024 59.9992 3.31365C60.0911 3.44324 60.183 3.56914 60.3461 3.79236C60.53 2.86997 60.6899 2.04536 60.8613 1.176C61.2574 1.22212 61.6319 1.25671 62.0023 1.31436C63.4154 1.54127 64.8322 1.75065 66.2374 2.01722C67.1138 2.18371 67.1051 2.22523 67.5398 3.00142C67.7457 3.37037 67.9561 3.73517 68.2603 4.10275L68.7681 2.55913C68.8689 2.57455 68.9686 2.5958 69.0668 2.62278C70.6573 3.16653 72.2781 3.63741 73.8314 4.2734C77.9953 5.97982 81.9377 8.08748 85.3199 11.1203C86.7739 12.4236 88.0941 13.8616 89.3863 15.3236C91.7424 17.9879 93.9087 20.7957 95.6968 23.8816C96.8456 25.8684 97.8185 27.9355 98.3878 30.1736C98.5978 30.9983 98.8106 31.8224 98.8345 32.6821C98.8538 33.3776 98.7982 34.0624 98.5785 34.7247C98.1893 35.8998 97.426 36.7295 96.3268 37.2977C94.3636 38.3124 92.4207 39.3653 90.4727 40.4057C90.3909 40.4491 90.3261 40.5238 90.2498 40.5865C90.3932 40.801 90.5315 40.6741 90.6501 40.6262C91.4773 40.2918 92.3017 39.9501 93.1265 39.6115C93.1821 39.593 93.2364 39.571 93.2892 39.5456C94.4165 38.911 95.5479 39.0982 96.6728 39.5419C97.818 39.9934 98.7366 40.7553 99.5188 41.6925C100.616 43.0073 101.332 44.5279 101.878 46.1379C102.492 47.9518 102.861 49.8205 103.105 51.7184C103.179 52.2863 103.25 52.8541 103.32 53.422C103.33 53.5064 103.331 53.5927 103.339 53.726L100.653 54.1253C100.607 54.3421 100.766 54.4376 100.858 54.5561C101.611 55.532 102.268 56.5789 102.82 57.6821C103.155 58.354 103.279 59.073 103.363 59.8036C103.853 63.9543 103.061 67.8976 101.399 71.6918C100.863 72.9172 100.219 74.0854 99.5151 75.2213C98.7079 76.5215 97.6642 77.6577 96.4385 78.5705C96.3815 78.6134 96.3282 78.6628 96.2234 78.7481C96.6747 79.0474 97.1457 79.2314 97.5914 79.4588C98.0372 79.6862 98.4829 79.9006 98.9292 80.1211L100.341 80.8212C99.8441 82.868 99.3542 84.888 98.8602 86.9228L97.2197 87.4213C97.2266 87.4965 97.2174 87.5449 97.2358 87.5786C97.8093 88.6274 97.8332 89.7384 97.6061 90.8761C97.3304 92.2597 96.7634 93.5285 96.12 94.7686C94.4946 97.9048 92.4064 100.71 90.0651 103.336C88.5548 105.035 86.9596 106.657 85.2859 108.194C84.8742 108.568 84.424 108.897 83.9431 109.175C83.2336 109.591 82.4776 109.649 81.7207 109.259C81.6812 109.241 81.6399 109.227 81.5976 109.217C81.5709 109.216 81.5442 109.219 81.5181 109.224C81.3481 109.538 81.167 109.87 80.9869 110.204C80.2351 111.597 80.2364 111.602 78.8307 112.336C76.3896 113.611 73.8952 114.765 71.2565 115.571C70.3375 115.852 69.3968 116.064 68.4313 116.317L67.9782 115.025C67.821 115.188 67.7112 115.297 67.6073 115.411C67.0734 116.001 66.4962 116.538 65.8211 116.965C65.2274 117.34 64.5854 117.573 63.8874 117.619C62.9035 117.684 62.1282 117.272 61.534 116.501C61.3746 116.294 61.2418 116.067 61.0745 115.814C61.027 115.892 60.984 115.973 60.9458 116.056C60.7721 116.506 60.597 116.956 60.4348 117.41C60.353 117.641 60.2009 117.714 59.9684 117.726C59.0185 117.775 58.0705 117.855 57.1192 117.891C55.7595 117.943 54.3988 117.974 53.0381 117.997C52.6447 118.004 52.2504 117.944 51.8561 117.939C51.5804 117.936 51.3083 117.996 51.0354 117.993C50.4499 117.985 49.8654 117.952 49.2804 117.932C48.2712 117.899 47.2621 117.867 46.2529 117.835C46.1086 117.83 45.9648 117.817 45.775 117.805C45.4377 115.602 45.1023 113.412 44.7673 111.222L44.6753 111.219C44.6436 111.307 44.617 111.396 44.5958 111.487C44.4493 112.34 44.316 113.196 44.1588 114.047C44.0361 114.742 43.8 115.412 43.4599 116.03C42.9084 117.016 42.1272 117.695 40.9783 117.872C40.3079 117.976 39.6668 117.826 39.045 117.595C37.9821 117.202 37.1035 116.523 36.2878 115.751C36.1623 115.632 36.0374 115.513 35.865 115.349C35.7469 115.671 35.6486 115.936 35.5434 116.225C35.434 116.205 35.3361 116.195 35.2428 116.169C31.6708 115.164 28.2141 113.867 24.9528 112.076C23.9335 111.516 23.9239 111.52 23.3476 110.487C22.6693 109.27 22.0149 108.039 21.3486 106.815C21.2866 106.701 21.2204 106.589 21.1239 106.419C20.5844 107.122 20.1997 107.877 19.6777 108.575C19.5371 108.475 19.408 108.385 19.2807 108.292C16.8047 106.494 14.7197 104.296 12.8278 101.907C8.20666 96.0738 5.15118 89.4921 3.60206 82.2001C3.49821 81.7122 3.39573 81.2243 3.29876 80.7349C3.27349 80.6104 3.27073 80.4799 3.25511 80.3272ZM45.5953 35.3644C45.5834 35.56 45.571 35.6909 45.5682 35.8219C45.5466 37.0109 45.5223 38.2003 45.508 39.3897C45.4713 42.5318 45.4161 45.6744 45.4115 48.817C45.4056 53.1347 45.4115 57.4529 45.4644 61.7701C45.5181 66.2483 45.6238 70.7261 45.7245 75.2038C45.7704 77.3175 45.8596 79.4307 45.9345 81.5439C45.9483 81.9345 45.9892 82.3247 46.0186 82.7328C46.1872 82.7476 46.3154 82.767 46.4441 82.7688C48.6531 82.8002 50.8621 82.8251 53.0712 82.861C54.5876 82.8846 55.8647 82.3279 56.9313 81.2612C57.8917 80.2996 58.5493 79.1396 59.03 77.8852C59.433 76.8314 59.7579 75.7476 60.1495 74.6891C61.2804 71.6305 61.8286 68.4602 61.9214 65.2125C61.9826 63.0702 61.9904 60.9234 61.9651 58.782C61.9394 56.6246 61.8594 54.4666 61.773 52.3106C61.6897 50.2271 61.4482 48.1531 61.0506 46.1066C60.6067 43.8209 59.9307 41.6104 58.8673 39.5313C58.3499 38.5199 57.7396 37.5744 56.9175 36.7803C55.8606 35.7573 54.6078 35.2002 53.1254 35.2187C50.7851 35.2494 48.4445 35.2831 46.1036 35.3197C45.9469 35.3206 45.7902 35.346 45.5953 35.3644ZM34.7465 81.9234C34.645 80.6487 34.5337 79.4251 34.4538 78.1997C34.3738 76.9743 34.321 75.7365 34.2617 74.5046C34.202 73.2594 34.1509 72.0105 34.0926 70.7634C34.0347 69.5376 33.9726 68.3122 33.9088 67.0448C34.5131 67.0277 35.053 67.024 35.5916 66.9955C36.4983 66.947 37.154 67.3464 37.5469 68.142C37.777 68.6162 37.9588 69.1125 38.0897 69.6233C38.5832 71.5142 38.6728 73.4476 38.6292 75.3924C38.6224 75.8179 38.6405 76.2434 38.6834 76.6667C38.7712 77.602 38.8626 78.5373 38.9835 79.4685C39.0965 80.3411 39.2532 81.2076 39.3824 82.0779C39.4164 82.3085 39.5289 82.4008 39.7587 82.4123C41.0872 82.4912 42.4149 82.5825 43.7434 82.6646C43.8785 82.6729 44.0154 82.6489 44.1744 82.6383C44.1492 82.5087 44.1363 82.4377 44.1211 82.3671C43.6984 80.4232 43.5531 78.4469 43.4833 76.4638C43.4236 74.7763 43.4121 73.0869 43.3261 71.4013C43.2108 69.1225 42.8032 66.8848 42.254 64.6729C41.9719 63.5374 41.5776 62.4527 40.7219 61.6022C40.704 61.5847 40.7045 61.5487 40.6911 61.5045C41.164 60.6845 41.5045 59.7981 41.7481 58.872C42.532 55.9033 42.8969 52.8764 42.9222 49.8132C42.9351 48.0966 42.8657 46.3777 42.7843 44.6626C42.7136 43.2687 42.5026 41.8856 42.1548 40.5344C41.8358 39.2809 41.3225 38.1233 40.4306 37.1617C39.5937 36.2596 38.5873 35.7832 37.3392 35.9105C36.5121 35.9949 35.6808 36.076 34.8536 36.1752C33.1266 36.3827 31.4004 36.5969 29.675 36.8176C29.5491 36.8333 29.4273 36.8817 29.2853 36.92C29.2394 37.5293 29.1851 38.1131 29.1539 38.6984C29.0335 40.9711 28.8897 43.2434 28.8125 45.5181C28.7233 48.1598 28.6746 50.8034 28.6475 53.4469C28.6282 55.2677 28.6613 57.0904 28.6934 58.9107C28.7192 60.4377 28.7495 61.9657 28.8239 63.4908C28.9345 65.7636 29.0683 68.0353 29.2251 70.3059C29.3265 71.8146 29.4541 73.3212 29.6079 74.8256C29.7853 76.5782 29.999 78.3261 30.2053 80.0754C30.2573 80.5219 30.334 80.9655 30.4002 81.4175C31.8638 81.607 33.2746 81.8146 34.7465 81.9234ZM76.3165 53.0411C76.2246 53.0277 76.1263 53.0046 76.027 53C74.9894 52.9493 73.9522 52.8949 72.9141 52.8552C71.7882 52.8123 70.6624 52.7847 69.536 52.7487C69.093 52.7344 69.0802 52.7178 69.0719 52.2603C69.0719 52.2141 69.0719 52.1722 69.0719 52.1279C69.0486 50.4243 69.0256 48.7208 69.003 47.0174C69.003 46.892 69.0213 46.7665 69.0333 46.6157C69.9524 46.6771 70.8287 46.7352 71.7032 46.7942C72.5777 46.8532 73.4531 46.9275 74.3295 46.9708C75.1953 47.0137 76.0574 47.1608 76.9631 47.1295C76.8124 43.7766 76.6212 40.4837 76.363 37.1552C72.2018 36.5058 68.06 36.0179 63.8561 35.6766C63.8474 35.8662 63.8322 36.0082 63.8359 36.1498C63.8547 36.8688 63.8874 37.5878 63.8993 38.3073C63.9606 42.1549 64.0194 46.0025 64.0758 49.8501C64.1056 52.1122 64.1162 54.3744 64.1291 56.6361C64.1442 59.2063 64.2113 61.778 64.1488 64.3468C64.0569 68.1194 63.8731 71.8897 63.7247 75.6609C63.6971 76.3651 63.6429 77.068 63.607 77.7717C63.5347 79.1947 63.4657 80.6175 63.3998 82.0401C63.4007 82.1598 63.4091 82.2794 63.4251 82.398C63.7541 82.398 64.0335 82.4206 64.3078 82.3943C66.2719 82.2048 68.2369 82.0217 70.1982 81.8044C71.8985 81.6163 73.591 81.3848 75.2881 81.1777C75.5091 81.1509 75.6176 81.0665 75.6465 80.8267C75.8083 79.486 75.9903 78.1481 76.1585 76.8088C76.3892 74.9741 76.6162 73.139 76.8395 71.3035C76.8988 70.8146 76.9314 70.323 76.9838 69.7792C74.2858 69.9942 71.6609 70.2538 69.0016 70.4069C69.0595 68.1425 69.1155 65.937 69.1734 63.6859C70.3862 63.632 71.5681 63.5854 72.7496 63.5254C73.9407 63.465 75.1314 63.3917 76.3069 63.3248C76.4305 62.6455 76.4333 53.5881 76.3165 53.042V53.0411ZM89.5054 60.2772C89.8206 59.6357 90.1354 59.0717 90.3812 58.4786C90.9217 57.1748 91.1023 55.7898 91.1776 54.3938C91.2732 52.6168 91.2047 50.8426 91.0264 49.0707C90.8357 47.1775 90.4428 45.335 89.7829 43.5483C89.2976 42.2353 88.5955 41.062 87.5964 40.0783C86.9784 39.4695 86.261 39.0392 85.3989 38.8672C83.7515 38.5379 82.1068 38.1957 80.4598 37.8668C79.8311 37.7414 79.1983 37.639 78.5104 37.5154C78.5104 37.6999 78.5017 37.841 78.5104 37.9821C78.5706 38.8164 78.6483 39.6498 78.6942 40.485C78.8353 42.8593 78.9851 45.233 79.0949 47.6087C79.1767 49.3838 79.219 51.1599 79.2503 52.9373C79.3344 57.725 79.3638 62.5126 78.9502 67.2902C78.7985 69.0427 78.6689 70.8022 78.4709 72.5519C78.1699 75.2052 77.8179 77.8525 77.4893 80.503C77.4836 80.5951 77.4836 80.6875 77.4893 80.7797C77.5578 80.7967 77.5876 80.8138 77.6138 80.8096C78.8086 80.6081 80.0034 80.4029 81.1983 80.2041C81.4092 80.169 81.4887 80.0487 81.5199 79.8499C81.5875 79.4007 81.673 78.9533 81.7446 78.5046C82.0792 76.4038 82.4491 74.3077 82.7336 72.2005C83.001 70.2234 83.1784 68.2342 83.3912 66.2511C83.4284 65.9011 83.4459 65.5487 83.4679 65.1968C83.478 65.0391 83.5042 64.8993 83.6977 64.8864C84.2666 64.8495 84.8355 64.8025 85.4049 64.7822C85.7532 64.7697 86.0266 64.9542 86.2137 65.2351C86.3414 65.4274 86.4618 65.6437 86.511 65.866C86.6144 66.3369 86.7063 66.8161 86.7371 67.2957C86.846 68.9906 86.6383 70.6647 86.3695 72.3352C86.0524 74.2897 85.7551 76.248 85.4573 78.2057C85.403 78.5627 85.3902 78.9261 85.3553 79.3177C85.4885 79.3177 85.5758 79.3329 85.6553 79.3154C86.6663 79.0899 87.6773 78.8542 88.6911 78.6346C88.9066 78.5885 88.9585 78.4695 88.9884 78.2712C89.2004 76.8793 89.4199 75.4885 89.6469 74.0988C89.9382 72.3338 90.3399 70.5886 90.5104 68.8015C90.6823 66.9987 90.7765 65.1996 90.566 63.3954C90.4364 62.2677 90.2861 61.1443 89.5058 60.2782L89.5054 60.2772ZM27.1857 66.7469C27.131 65.3365 27.0938 64.2795 27.0478 63.2233C26.9476 60.993 26.836 58.7636 26.7399 56.5337C26.643 54.2739 26.5805 52.014 26.4642 49.7541C26.3589 47.6269 26.0579 45.5139 25.5649 43.4422C25.2483 42.1292 24.8825 40.8296 24.2653 39.618C23.9896 39.0779 23.6624 38.5748 23.2084 38.1666C22.537 37.5601 21.7645 37.3092 20.8592 37.4887C20.2119 37.6166 19.5978 37.8769 19.055 38.2533C18.3699 38.7228 17.8115 39.3224 17.3267 39.992C16.3208 41.3821 15.619 42.9321 15.0023 44.5219C13.7041 47.8697 13.1499 51.3693 12.9974 54.9375C12.8867 57.4332 12.962 59.9337 13.2225 62.4181C13.4905 64.9348 13.9426 67.4138 14.6568 69.8433C15.392 72.3435 16.3506 74.7518 17.6654 77.0071C18.1626 77.8594 18.7416 78.6531 19.4576 79.3394C20.2429 80.0948 21.1368 80.6533 22.224 80.865C23.0645 81.0282 23.8058 80.8327 24.3944 80.2193C24.6923 79.8972 24.9458 79.5364 25.1481 79.1466C25.5961 78.31 25.8167 77.394 25.9293 76.456C26.061 75.3487 26.2572 74.25 26.5171 73.1658C26.7693 72.111 27.0446 71.0558 27.0906 69.9642C27.1342 68.7724 27.159 67.5835 27.1857 66.7469ZM69.9859 18.7729C70.0218 18.8495 70.0594 18.9251 70.093 19.0035C71.2046 21.5428 72.2988 24.09 73.4316 26.6201C74.4085 28.8034 75.4613 30.9498 76.6483 33.0275C76.8041 33.3001 76.9737 33.4578 77.311 33.5104C78.5518 33.7032 79.7861 33.943 81.0232 34.1611C81.1694 34.1789 81.3165 34.189 81.4639 34.1916C81.4482 33.943 81.4482 33.7525 81.4225 33.5657C81.1725 31.7486 80.9483 29.9274 80.6592 28.1167C79.925 23.5215 78.8028 18.9974 77.3046 14.5931C76.3624 11.8135 75.2558 9.09279 73.9904 6.44562C73.8943 6.24454 73.8015 6.0679 73.5598 5.98442C72.4109 5.59148 71.2708 5.17964 70.1261 4.77886C70.0558 4.75396 69.9744 4.76179 69.8315 4.74842C72.2239 10.31 73.8507 16.0454 75.1268 21.8901C75.0826 21.8507 75.048 21.8017 75.0257 21.7467C73.5915 18.3846 71.9881 15.1027 70.3195 11.8541C68.9722 9.2317 67.5545 6.64624 66.1763 4.04003C66.0481 3.79744 65.8928 3.66507 65.6161 3.62126C64.8809 3.50412 64.1502 3.35101 63.4159 3.22602C63.0344 3.161 62.648 3.12594 62.2555 3.07614C62.2486 3.17852 62.2353 3.22371 62.245 3.26337C62.2863 3.43401 62.3323 3.6042 62.3805 3.77299C63.897 9.08504 64.9953 14.4875 65.8546 19.9411C66.1448 21.7816 66.4154 23.6253 66.6666 25.4722C66.9359 27.4203 67.18 29.3716 67.429 31.3225C67.4906 31.8054 67.4796 31.8054 67.975 31.8902C68.9827 32.0632 69.9896 32.2393 70.9978 32.4104C71.3517 32.4709 71.7078 32.5197 72.132 32.5843C71.5314 27.9175 70.934 23.324 69.9841 18.7729H69.9859ZM1.63523 57.2292C1.7207 58.7092 1.7832 60.1905 1.8967 61.6682C2.11866 64.559 2.64989 67.3967 3.40905 70.1925C3.91494 72.0466 4.53357 73.8679 5.26146 75.6461C5.34418 75.8495 5.42092 76.0284 5.68286 76.0999C7.37443 76.5611 9.05543 77.0583 10.7502 77.5066C11.7047 77.7593 12.3237 77.3917 12.683 76.4629C12.8774 75.9602 12.9128 75.4367 12.9206 74.9059C12.9321 74.2164 12.9032 73.52 12.9932 72.8402C13.1021 72.0179 13.1472 71.2057 13.0392 70.3848C12.9473 69.6868 12.8541 68.9889 12.7598 68.291C12.536 66.633 12.2731 64.9814 11.8738 63.3562C11.4483 61.6253 10.8941 59.9433 9.95475 58.4145C9.77507 58.1225 9.74888 57.8749 9.85228 57.5525C10.4069 55.8175 10.8435 54.052 11.0976 52.2487C11.2534 51.1451 11.3802 50.035 11.4846 48.9281C11.6316 47.3647 11.7943 45.7999 11.6155 44.2239C11.536 43.5206 11.4161 42.8284 11.0788 42.1947C10.7847 41.6413 10.3477 41.2668 9.70798 41.2299C9.40179 41.2174 9.0957 41.257 8.80268 41.347C7.27563 41.7999 5.75822 42.2851 4.23025 42.7334C3.86262 42.8408 3.68845 43.0345 3.5869 43.4012C2.34425 47.9066 1.68824 52.5546 1.63523 57.2292ZM26.2965 28.0069C26.2965 27.8575 26.2877 27.7976 26.2965 27.7408C26.4895 26.6576 26.684 25.5745 26.8801 24.4913C26.9467 24.1269 26.9504 24.1223 27.3111 24.0536C29.4789 23.6431 31.6468 23.2348 33.8146 22.8286C34.1822 22.7599 34.1928 22.753 34.258 22.4048C34.6618 20.2415 35.0656 18.0779 35.4694 15.914C35.4891 15.8083 35.4721 15.6953 35.4721 15.5339C34.6748 15.6815 33.9152 15.8166 33.1583 15.9642C32.4125 16.1095 31.6717 16.2792 30.924 16.4153C30.1764 16.5513 29.4374 16.7884 28.5896 16.8862C28.983 15.5335 29.3538 14.2573 29.7233 12.9872C29.8993 12.9374 30.0376 12.895 30.1782 12.8585C32.3454 12.3051 34.5319 11.8411 36.7386 11.4805C37.0888 11.4233 37.1825 11.2619 37.2652 10.9663C37.932 8.59387 38.6135 6.22609 39.2904 3.85647C39.3295 3.71812 39.3672 3.58206 39.4177 3.40081C39.2574 3.40865 39.142 3.40082 39.0331 3.42111C35.6437 4.06913 32.3231 5.03781 29.1158 6.31418C28.84 6.42395 28.6507 6.57937 28.5252 6.85424C28.0625 7.86887 27.5602 8.86551 27.1117 9.88521C23.7502 17.4908 21.8132 25.4773 20.8068 33.711C20.7788 33.9384 20.7696 34.1676 20.7498 34.4226C20.8762 34.4143 20.947 34.4157 21.0154 34.4037C21.7208 34.2811 22.4253 34.1528 23.1293 34.0311C26.5704 33.4374 30.0114 32.8443 33.4524 32.2518C33.7833 32.1946 33.7902 32.1891 33.8385 31.833C34.0636 30.1752 34.2876 28.5172 34.5103 26.859C34.5209 26.7783 34.5016 26.6935 34.4928 26.5625C31.743 26.9896 29.0395 27.5052 26.2965 28.0069ZM64.3299 23.5744C64.3372 21.5848 64.0831 19.8129 63.7918 18.0451C63.2978 15.052 62.5142 12.1418 61.33 9.3447C60.5711 7.54572 59.6429 5.8235 58.5581 4.20145C58.0576 3.45523 57.4841 2.76806 56.7323 2.25659C55.3606 1.32313 54.0867 1.55557 53.2007 2.95668C52.8472 3.5303 52.5561 4.14044 52.3327 4.77656C51.142 8.05519 50.563 11.4611 50.313 14.9298C50.1716 16.8342 50.1423 18.7453 50.2252 20.6532C50.2845 21.9445 50.4623 23.2244 50.8346 24.4691C51.3663 26.247 52.2688 27.7717 53.8064 28.8657C54.4738 29.3444 55.2014 29.7321 55.9704 30.0187C57.4501 30.5661 58.9684 30.805 60.5336 30.4854C61.8079 30.2253 62.8028 29.563 63.3603 28.3445C63.5547 27.9342 63.7235 27.5122 63.8658 27.0809C64.2435 25.8781 64.3565 24.6384 64.3299 23.5744ZM91.9754 64.6577C91.9566 64.7854 91.9418 64.856 91.9359 64.9275C91.7829 66.7118 91.6271 68.4957 91.4791 70.2805C91.3366 71.9948 91.2847 73.7109 91.418 75.4289C91.457 75.9316 91.5678 76.4149 91.8095 76.8614C92.3389 77.8382 93.218 78.1693 94.2561 77.7837C95.2813 77.4019 96.1218 76.7525 96.8502 75.9496C98.0845 74.5881 99.0018 73.0261 99.7173 71.3376C100.54 69.396 101.079 67.3713 101.444 65.3001C101.744 63.5905 101.949 61.8725 101.728 60.1315C101.604 59.1588 101.376 58.2309 100.741 57.4432C100.485 57.1259 100.282 56.7666 100.052 56.4286C99.7398 55.9674 99.459 55.4827 99.1038 55.0597C98.7486 54.6368 98.3272 54.2646 97.9177 53.8892C96.9439 52.9968 96.1627 51.9919 95.9789 50.6336C95.893 50.0073 95.8351 49.3732 95.9941 48.7524C96.1375 48.1911 96.5979 48.0067 97.0722 48.3373C97.3148 48.5066 97.5193 48.7598 97.6792 49.0144C97.9945 49.5157 98.1544 50.0848 98.2647 50.6641C98.3432 51.0792 98.4067 51.4975 98.4825 51.948C99.4728 52.0509 100.44 52.2367 101.444 52.2709C101.45 52.1941 101.45 52.1171 101.444 52.0403C101.218 50.7849 101.031 49.5199 100.751 48.2774C100.341 46.4718 99.6286 44.7894 98.4917 43.3085C97.7674 42.3653 96.9237 41.5661 95.8319 41.0625C94.8572 40.6133 94.0925 40.8037 93.4353 41.662C93.0457 42.1693 92.8039 42.7509 92.6422 43.3684C92.2713 44.7779 92.2534 46.214 92.3361 47.6553C92.395 48.681 92.4654 49.7062 92.5475 50.731C92.6854 52.4425 92.826 54.1539 92.9873 55.8631C93.1619 57.7158 93.9344 59.3 95.2115 60.6356C95.6159 61.0585 96.0708 61.4321 96.4922 61.8393C96.9343 62.2664 97.3805 62.6911 97.7946 63.1449C98.1695 63.5563 98.392 64.0558 98.3947 64.6235C98.4007 66.0159 98.1093 67.3344 97.3589 68.5239C97.2316 68.7209 97.0751 68.8972 96.8948 69.0468C96.5115 69.3697 96.1136 69.3051 95.8663 68.8651C95.7271 68.608 95.6308 68.3298 95.581 68.0415C95.4013 67.0503 95.4743 66.0519 95.5382 65.0548C95.5538 64.8112 95.5685 64.5673 95.5874 64.2592L91.9754 64.6577ZM76.0707 7.13096C76.0788 7.19014 76.091 7.24869 76.107 7.30621C76.136 7.37309 76.1686 7.43903 76.2021 7.50406C78.8955 12.7156 80.878 18.1876 82.2313 23.8949C83.0089 27.1938 83.5753 30.5392 83.927 33.9107C84.0244 34.8331 83.904 34.6588 84.7579 34.817C86.4237 35.1255 88.0932 35.4133 89.7581 35.7283C90.9226 35.9483 92.0907 36.1355 93.2764 36.1747C93.905 36.1955 94.5341 36.1489 95.1393 35.9487C96.1044 35.6305 96.7408 34.9802 96.9775 33.9914C97.0809 33.5561 97.1002 33.0925 97.0988 32.642C97.0988 31.8874 96.9104 31.1578 96.6774 30.4453C95.6577 27.3248 94.1669 24.4456 92.2612 21.778C90.2705 18.9915 88.0335 16.4134 85.7146 13.9008C84.5901 12.6805 83.3825 11.5451 82.0144 10.5991C80.242 9.37375 78.384 8.28717 76.4728 7.29791C76.3602 7.24072 76.2403 7.20106 76.0707 7.13096ZM18.7605 22.2784C18.8253 22.1839 18.8524 22.1327 18.8914 22.0889C20.5191 20.1814 21.6818 18.0036 22.5797 15.6746C23.0916 14.3477 23.6072 13.019 23.8517 11.6092C23.9177 11.219 23.9388 10.8226 23.9147 10.4276C23.8797 9.83587 23.5337 9.60435 22.9529 9.73994C22.796 9.77504 22.6448 9.83168 22.5034 9.90827C22.185 10.0868 21.855 10.256 21.5692 10.4797C20.1293 11.6081 18.6961 12.7471 17.2697 13.8967C16.8559 14.224 16.4691 14.5843 16.1131 14.974C10.5908 21.1444 6.80368 28.2339 4.92048 36.3274C4.84879 36.6355 4.79273 36.9468 4.71782 37.3134C4.95127 37.2857 5.12268 37.2742 5.29134 37.2438C6.68528 36.9929 8.07922 36.7395 9.47316 36.4837C10.8803 36.2232 12.2966 36.0013 13.6904 35.6803C16.2955 35.0808 18.1631 33.5902 19.0495 30.9913C19.0638 30.9498 19.0766 30.9074 19.0904 30.8659C19.6589 29.1595 20.0095 27.4028 20.0885 25.6083C20.1451 24.3331 19.9879 23.0952 18.7605 22.2784ZM29.2941 100.857C29.2527 100.646 29.2297 100.519 29.2022 100.394C28.7766 98.4153 28.3502 96.4368 27.9228 94.4582C27.733 93.5875 27.9416 93.7877 27.0428 93.5792C25.3636 93.1906 23.6837 92.8041 22.003 92.4198C21.758 92.3644 21.6455 92.2431 21.6036 91.9825C21.4741 91.1718 21.3105 90.3684 21.1629 89.558C21.1436 89.4506 21.1395 89.3399 21.122 89.1725C22.2709 89.4192 23.3646 89.6697 24.4647 89.8855C25.5722 90.1027 26.6705 90.3771 27.8369 90.5312C27.5846 88.7214 27.3419 86.9832 27.0942 85.2062C25.3121 84.8917 23.5461 84.5716 21.7769 84.2695C20.0146 83.9688 18.2591 83.6266 16.4687 83.3471C16.4687 83.4975 16.46 83.5837 16.4687 83.6677C16.5565 84.3963 16.6401 85.125 16.738 85.8523C17.1954 89.2118 17.9079 92.5314 18.8694 95.7819C20.322 100.717 22.3187 105.416 24.9041 109.862C25.03 110.078 25.1573 110.273 25.3949 110.402C28.1277 111.888 30.9604 113.134 33.934 114.051C34.0678 114.092 34.2065 114.116 34.4101 114.164C34.3476 113.98 34.3145 113.857 34.2658 113.742C33.2242 111.252 32.3051 108.716 31.5086 106.135C31.4199 105.849 31.2788 105.717 30.9875 105.633C29.0657 105.075 27.1521 104.488 25.2326 103.92C24.984 103.846 24.8402 103.719 24.7589 103.466C24.3563 102.21 23.9363 100.959 23.5264 99.7043C23.4928 99.6006 23.4878 99.4876 23.4561 99.3017C25.4063 99.8639 27.2872 100.427 29.2941 100.857ZM31.5141 103.253C31.5679 103.47 31.5936 103.613 31.6391 103.75C31.9479 104.683 32.2393 105.622 32.577 106.544C33.5448 109.185 34.8674 111.626 36.7303 113.746C37.18 114.248 37.6627 114.719 38.1751 115.157C38.7068 115.623 39.3396 115.957 40.023 116.134C40.8235 116.342 41.4342 116.115 41.8717 115.412C42.0324 115.149 42.163 114.869 42.2609 114.577C42.5955 113.596 42.7117 112.579 42.7246 111.544C42.7421 110.114 42.5739 108.702 42.3611 107.293C42.1419 105.842 41.9374 104.387 41.556 102.968C41.2164 101.705 40.8304 100.456 40.2233 99.2939C39.2583 97.4491 37.808 96.0724 36.0488 94.9928C35.4496 94.6271 34.8772 94.2188 34.3361 93.7711C33.6749 93.2176 33.3114 92.4977 33.3711 91.6035C33.4074 91.0422 33.6588 90.8194 34.2208 90.8457C34.8228 90.8738 35.2708 91.1754 35.6192 91.6454C35.9583 92.102 36.1306 92.6305 36.2556 93.1789C36.2869 93.3172 36.3319 93.4505 36.3701 93.5847C37.5846 93.7577 38.7509 93.9869 39.9802 94.0921C39.7596 92.7195 39.5322 91.4222 39.0382 90.188C37.9417 87.4499 35.8581 86.0055 32.9189 85.9451C31.1956 85.9091 30.1566 86.6521 29.7067 88.2828C29.5931 88.708 29.5251 89.1442 29.5041 89.5839C29.4393 90.7798 29.6148 91.9576 29.8524 93.1245C30.2917 95.2824 31.0959 97.2817 32.4718 99.0209C33.3146 100.085 34.3099 100.989 35.3563 101.847C36.0125 102.387 36.643 102.957 37.291 103.507C38.4325 104.479 38.8911 105.758 38.9297 107.213C38.9317 107.534 38.8755 107.854 38.7638 108.155C38.6439 108.492 38.3622 108.592 38.0134 108.514C37.5998 108.421 37.2657 108.188 36.9748 107.889C36.5654 107.465 36.2474 106.962 36.0406 106.409C35.7818 105.725 35.5562 105.026 35.3513 104.323C35.2754 104.061 35.178 103.933 34.8991 103.884C33.9207 103.712 32.9479 103.508 31.9727 103.318C31.8473 103.295 31.7195 103.282 31.5141 103.253ZM62.1498 110.442C62.1498 111.014 62.1259 111.588 62.1563 112.158C62.1926 112.846 62.2381 113.536 62.3511 114.214C62.4173 114.609 62.5882 114.998 62.7766 115.358C62.9991 115.781 63.3892 115.967 63.8795 115.925C64.3358 115.89 64.7702 115.715 65.1231 115.423C65.5913 115.029 66.0509 114.611 66.4456 114.145C67.7025 112.662 68.7364 111.028 69.5801 109.275C71.7469 104.771 73.1692 100.047 73.7303 95.0698C73.8952 93.6078 73.9665 92.143 73.7987 90.676C73.6834 89.6729 73.4132 88.7205 72.8273 87.8798C72.3953 87.2594 71.8213 86.878 71.0677 86.7549C70.5498 86.67 70.0461 86.7235 69.5457 86.837C68.4635 87.0819 67.6041 87.699 66.8689 88.5061C66.1115 89.3362 65.5334 90.2867 65.0661 91.306C64.4476 92.6542 64.0067 94.0776 63.7545 95.5402C63.3869 97.664 63.0698 99.797 62.767 101.931C62.3649 104.753 62.1338 107.59 62.1498 110.442ZM69.542 114.279C69.8007 114.214 70.0094 114.17 70.212 114.108C73.1329 113.219 75.9149 111.999 78.6014 110.552C78.8076 110.443 78.9776 110.276 79.0903 110.071C80.341 107.896 81.4644 105.65 82.4546 103.344C82.5006 103.244 82.5208 103.135 82.576 102.955C81.5944 103.364 80.6794 103.736 79.7728 104.126C78.8767 104.511 77.9884 104.914 77.0279 105.34C77.1175 105.216 77.158 105.155 77.203 105.098C77.9511 104.156 78.6933 103.21 79.4497 102.275C80.7419 100.678 82.0015 99.0577 83.1513 97.3522C84.8787 94.7908 86.0322 92.019 86.3152 88.9124C86.3906 88.0845 86.3754 87.2678 86.0905 86.4773C85.7109 85.4234 84.9996 84.728 83.8673 84.603C81.7796 84.3724 79.9612 84.9576 78.4943 86.5151C77.5293 87.5403 76.9411 88.7819 76.4783 90.0921C75.8451 91.8834 75.528 93.7522 75.1649 95.6094C75.1533 95.7052 75.1475 95.8016 75.1475 95.8981C75.2706 95.8928 75.3933 95.8807 75.5151 95.8617C76.2573 95.7007 77.0026 95.5499 77.7398 95.3668C78.7016 95.1284 78.4681 95.3511 78.7126 94.3937C78.9741 93.3694 79.208 92.3349 79.6657 91.3775C79.8507 90.9963 80.0872 90.6424 80.3683 90.3259C80.6776 89.9773 81.099 89.7997 81.5833 89.808C81.8439 89.8122 82.0456 89.921 82.1619 90.1405C82.2566 90.3181 82.3457 90.5201 82.3563 90.7166C82.3816 91.0822 82.3701 91.4495 82.3218 91.8128C82.1613 92.924 81.7197 93.9752 81.0392 94.8664C80.2709 95.8847 79.4768 96.8841 78.6901 97.8882C76.4783 100.711 74.4508 103.653 72.808 106.853C71.6132 109.178 70.6408 111.603 69.6224 114.007C69.5909 114.096 69.564 114.187 69.542 114.279ZM44.265 30.4079C44.3302 29.7457 44.3973 29.1341 44.4488 28.5217C44.6082 26.6349 44.7553 24.7468 44.9235 22.8605C44.9539 22.5254 45.0264 22.1955 45.139 21.8786C47.3082 15.8002 49.097 9.59184 50.495 3.28966C50.5478 3.04984 50.5837 2.8068 50.6305 2.54576C50.5336 2.52476 50.4353 2.51057 50.3364 2.50332C49.5171 2.51209 48.6977 2.51947 47.8783 2.53976C47.4248 2.55129 47.4225 2.56144 47.2809 3.01295C46.1499 6.67176 45.0191 10.3289 43.8886 13.9843C43.8583 14.0821 43.81 14.1743 43.7705 14.2689C43.685 12.9775 43.6611 11.7009 43.6524 10.4253C43.6441 9.16252 43.6308 7.89931 43.6584 6.63748C43.6859 5.37565 43.7604 4.10091 43.8165 2.79711C42.4415 2.9184 41.1281 3.07383 39.8281 3.30442C39.8033 3.41972 39.7822 3.48889 39.7743 3.56084C39.5634 5.60762 39.46 7.66088 39.4494 9.71734C39.438 11.9795 39.5092 14.2407 39.7518 16.4914C39.9356 18.183 40.1512 19.8715 40.3694 21.559C40.4581 22.2425 40.5693 22.9154 40.443 23.6108C40.3327 24.2159 40.284 24.8326 40.2132 25.445C40.0119 27.1647 39.8128 28.8848 39.6158 30.6053C39.5951 30.7875 39.613 30.9743 39.613 31.2012L44.265 30.4079ZM55.6616 98.8493C55.7691 98.0145 55.8385 97.2536 55.9741 96.5046C56.0779 95.9578 56.225 95.4202 56.4138 94.8968C56.5807 94.4232 56.9147 94.0704 57.4115 93.9131C57.996 93.7286 58.4271 93.9214 58.6523 94.4919C58.7437 94.7234 58.8011 94.967 58.8228 95.2151C58.8829 95.9782 58.8069 96.7459 58.5985 97.4823C58.349 98.3895 57.8458 99.1647 57.3361 99.9363C56.9079 100.585 56.4575 101.22 56.0448 101.878C54.9038 103.7 53.9535 105.614 53.34 107.683C52.5303 110.414 52.3465 113.221 52.3363 116.048C52.3435 116.115 52.359 116.182 52.3823 116.245C53.2095 116.371 58.6059 116.191 59.2065 116.014C59.7731 113.486 60.2859 110.933 60.7331 108.285C59.1431 108.493 57.5916 108.463 56.0458 109.067C56.1652 108.83 56.2296 108.683 56.31 108.546C56.6845 107.916 57.0577 107.285 57.4432 106.661C58.161 105.501 58.9105 104.361 59.6031 103.185C60.4831 101.692 61.2482 100.142 61.7124 98.4573C62.1475 96.8791 62.3745 95.2686 62.4527 93.6369C62.5018 92.6033 62.4127 91.5873 62.0391 90.6054C61.5828 89.4114 60.6862 88.8561 59.4657 88.7242C58.2529 88.5932 57.151 88.952 56.0945 89.4912C55.0568 90.0202 54.2797 90.8093 53.7816 91.876C53.4368 92.6221 53.1875 93.409 53.0394 94.218C52.7527 95.7399 52.7375 97.284 52.6929 98.8244C52.6902 98.9231 52.7159 99.0227 52.7361 99.1823L55.6616 98.8493ZM87.7835 98.6906C87.7088 98.7067 87.635 98.7267 87.5624 98.7506C86.5809 99.2058 85.597 99.6573 84.6214 100.125C84.4964 100.193 84.399 100.303 84.3456 100.435C83.8627 101.695 83.376 102.953 82.9266 104.225C82.6136 105.112 82.3903 106.024 82.3365 106.971C82.3221 107.161 82.3325 107.351 82.3673 107.538C82.4229 107.804 82.5971 107.912 82.8535 107.829C83.0623 107.764 83.2588 107.664 83.4348 107.534C83.8516 107.211 84.2657 106.881 84.6503 106.522C86.721 104.585 88.5904 102.464 90.4065 100.29C92.2015 98.1441 93.7377 95.8243 94.9275 93.2854C95.2619 92.5687 95.5503 91.8313 95.791 91.0777C96.0019 90.4205 96.0851 89.7324 95.9536 89.0341C95.7946 88.1897 95.234 87.7889 94.3756 87.8991C93.3958 88.025 92.6261 88.5282 91.9616 89.2218C91.6634 89.5327 91.3895 89.8675 91.0779 90.2217C91.3785 89.2878 91.6753 88.4 91.9455 87.5039C92.0232 87.2442 92.1542 87.1294 92.4101 87.0565C93.9726 86.6152 95.524 86.1494 97.0836 85.7052C97.3369 85.6333 97.4784 85.5249 97.5432 85.2537C97.7762 84.2538 98.0367 83.2609 98.2808 82.2643C98.3171 82.1144 98.3203 81.9562 98.3437 81.7657C98.1833 81.7823 98.068 81.786 97.9582 81.8067C97.4127 81.9087 96.8677 82.0156 96.3226 82.1199C94.3007 82.5073 92.2773 82.8935 90.2526 83.2784C90.0044 83.3245 89.8849 83.4477 89.8316 83.6995C89.6832 84.3871 89.5127 85.0706 89.3432 85.7536C88.4338 89.4127 87.3354 93.0218 86.0524 96.5664C86.0064 96.6964 85.9743 96.8325 85.9145 97.0326C86.1264 96.9602 86.2638 96.9215 86.3947 96.8671C87.1098 96.5677 87.8156 96.2449 88.5394 95.97C88.9355 95.8197 89.1736 95.5642 89.3868 95.2072C89.6933 94.6944 90.0596 94.2138 90.4323 93.7452C90.6658 93.4587 90.9803 93.2497 91.3343 93.1457C91.7907 93.0041 92.0269 93.1498 92.0379 93.6156C92.0434 93.8462 92.0347 94.0944 91.9621 94.3107C91.7433 94.9628 91.525 95.6191 91.2433 96.2445C90.6069 97.6576 89.7875 98.9604 88.7264 100.094C88.4341 100.401 88.1045 100.67 87.7453 100.894C87.3777 101.124 87.17 100.986 87.2444 100.558C87.3244 100.097 87.4834 99.6531 87.6121 99.203C87.6525 99.0513 87.7072 98.9055 87.7816 98.6902L87.7835 98.6906ZM49.7381 116.286C49.7381 116.082 49.7477 115.937 49.7381 115.795C49.6811 115.093 49.6149 114.392 49.5589 113.69C49.4601 112.461 49.3604 111.231 49.2712 110C49.1266 108.009 48.9869 106.017 48.8521 104.026C48.7772 102.912 48.7142 101.799 48.6504 100.684C48.5327 98.6176 48.418 96.5507 48.3062 94.4836C48.3002 94.3738 48.3268 94.2627 48.3425 94.1146L51.5951 94.5357C51.5726 92.78 51.5951 91.0874 51.5381 89.3704L40.4347 87.4877C40.6433 89.3929 40.8396 91.2322 41.0652 93.0617C41.1799 93.097 41.2963 93.1264 41.414 93.1498C42.3104 93.2771 43.2076 93.402 44.1055 93.5243C44.4842 93.5755 44.4846 93.5704 44.5191 93.9463C44.6409 95.2616 44.7548 96.5751 44.8867 97.8919C45.0705 99.717 45.2643 101.541 45.4681 103.364C45.6464 104.968 45.8205 106.573 46.0356 108.173C46.3288 110.354 46.6564 112.53 46.9749 114.708C47.0461 115.196 47.1389 115.681 47.2281 116.206L49.7381 116.286ZM19.0661 106.001L19.146 105.926C17.982 104.421 16.9001 102.853 15.9049 101.23C14.5649 99.0314 13.3315 96.6595 13.2924 96.197C14.686 96.8426 16.08 97.4883 17.4742 98.134C17.5412 98.1608 17.6102 98.1822 17.6805 98.1981C17.6944 98.1988 17.708 98.1944 17.7187 98.1856C17.7353 98.1703 17.7507 98.1536 17.7646 98.1358C17.7325 98.0247 17.698 97.8992 17.6599 97.7747C17.0671 95.84 16.4651 93.908 15.8893 91.9682C15.7951 91.6509 15.6494 91.4817 15.3378 91.3765C13.9381 90.9075 12.5475 90.408 11.1505 89.933C10.9083 89.8504 10.7599 89.7305 10.6937 89.4663C10.4639 88.5559 10.2116 87.6519 9.97268 86.7452C9.952 86.6677 9.96992 86.5801 9.96992 86.4459C10.1997 86.5026 10.3927 86.5469 10.5852 86.6009C12.1615 87.0408 13.7375 87.4813 15.3135 87.9222C15.4453 87.9591 15.5832 87.9715 15.7555 88.0015C15.7362 87.8083 15.728 87.6787 15.7096 87.55C15.5138 86.1849 15.3144 84.8202 15.1214 83.4546C15.0717 83.1022 15.058 83.0741 14.6995 83.0105C13.9514 82.8772 13.2023 82.7499 12.4546 82.6143C10.1263 82.1925 7.79797 81.7701 5.46963 81.3474C5.37772 81.3303 5.27755 81.3538 5.1452 81.3608C5.2008 81.6375 5.24446 81.881 5.29868 82.1222C6.83815 88.9613 9.77783 95.1376 14.0359 100.687C15.4403 102.517 16.9136 104.284 18.7288 105.731L19.0661 106.001Z" fill="white"/>
<path d="M99.8955 97.3573C99.4934 97.1267 99.0854 96.8924 98.6778 96.6577L98.5996 96.7393C98.7177 96.9132 98.8345 97.088 98.9535 97.2614C99.0863 97.4546 99.2292 97.6414 99.351 97.8411C99.4066 97.9334 99.4231 98.0468 99.4576 98.151C99.3386 98.181 99.2173 98.2433 99.1005 98.235C98.7789 98.2115 98.4632 98.157 98.1442 98.1174C98.0127 98.0977 97.879 98.0968 97.7472 98.1146C98.0905 98.4835 98.5698 98.644 98.9659 98.9646L98.8147 99.2252C98.4774 99.0241 98.1539 98.8322 97.8313 98.6385C97.5087 98.4448 97.1838 98.2479 96.8727 98.0602C96.8897 97.7991 97.0106 97.7175 97.2247 97.7429C97.6452 97.7922 98.0661 97.8351 98.4866 97.884L99.0215 97.9435C98.9613 97.8051 98.9369 97.7129 98.8869 97.6391C98.6148 97.2397 98.3418 96.8403 98.0569 96.4492C97.9237 96.2647 97.8942 96.1102 98.1295 95.9235C98.7219 96.2823 99.334 96.6475 99.9392 97.0234C100.104 97.1258 100.031 97.2411 99.8955 97.3573Z" fill="white"/>
<path d="M91.1339 106.931L90.4905 106.384L90.7249 106.111L92.524 107.719C92.5268 108.01 92.3186 107.945 92.1633 107.955C92.0226 108.586 91.7497 108.849 91.2524 108.831C90.8223 108.816 90.3876 108.453 90.3104 108.043C90.2134 107.543 90.4335 107.223 91.1339 106.931ZM91.2221 107.223C91.1424 107.219 91.0628 107.232 90.9883 107.261C90.9138 107.289 90.8459 107.333 90.7888 107.389C90.7317 107.445 90.6867 107.512 90.6565 107.586C90.6263 107.66 90.6116 107.74 90.6132 107.82C90.6164 108.174 90.962 108.509 91.3237 108.509C91.3998 108.51 91.4755 108.495 91.5461 108.467C91.6167 108.438 91.6809 108.396 91.7349 108.342C91.789 108.288 91.8317 108.223 91.8607 108.153C91.8896 108.082 91.9042 108.006 91.9036 107.93C91.9027 107.747 91.8313 107.571 91.7043 107.439C91.5773 107.307 91.4046 107.23 91.2221 107.223Z" fill="white"/>
<path d="M93.61 106.231C93.6422 106.451 93.6422 106.451 93.456 106.625L91.5802 105.103L91.7682 104.865L92.4735 105.369C92.497 104.986 92.5912 104.674 92.8871 104.508C93.0516 104.419 93.2358 104.374 93.4225 104.376C93.8448 104.383 94.2561 104.773 94.3296 105.192C94.4133 105.666 94.201 105.973 93.61 106.231ZM94.019 105.401C94.0231 105.041 93.689 104.694 93.3297 104.688C93.1685 104.689 93.0142 104.754 92.9003 104.868C92.7864 104.982 92.7222 105.137 92.7217 105.299C92.7245 105.66 93.0618 105.98 93.4372 105.977C93.7731 105.976 94.0148 105.736 94.019 105.402V105.401Z" fill="white"/>
<path d="M85.278 113.263C85.425 113.58 85.5707 113.898 85.7196 114.214C85.778 114.337 85.8372 114.449 85.7063 114.57C85.5753 114.69 85.4724 114.645 85.352 114.57C84.897 114.281 84.4412 113.994 83.9844 113.709C84.0648 113.499 84.1705 113.456 84.3304 113.568C84.5579 113.728 84.7858 113.888 85.0156 114.044C85.1418 114.14 85.2898 114.202 85.4462 114.225C85.3221 113.953 85.1977 113.682 85.073 113.411C85.0276 113.303 84.9769 113.197 84.9209 113.094C84.8065 112.901 84.9021 112.795 85.1112 112.687L86.3519 113.527C86.3023 113.349 86.289 113.255 86.2504 113.174C86.1125 112.882 85.9723 112.592 85.8239 112.305C85.7371 112.137 85.7614 112.028 85.9935 111.964C86.2168 112.481 86.448 113.001 86.6653 113.526C86.7315 113.687 86.7136 113.695 86.4356 113.891L85.3547 113.186L85.278 113.263Z" fill="white"/>
<path d="M101.27 94.8964C101.156 95.157 101.156 95.157 100.639 95.18C100.547 95.341 100.451 95.5204 100.342 95.692C100.207 95.905 100.12 96.1001 100.367 96.3044C100.512 96.4234 100.471 96.5595 100.293 96.6974C100.094 96.4727 99.8918 96.2468 99.6915 96.0194C99.4295 95.7233 99.1671 95.4281 98.9103 95.1293C98.6828 94.8669 98.6851 94.865 98.9199 94.5187L101.27 94.8964ZM100.378 95.0832L99.1635 94.8743C99.4227 95.2709 99.6538 95.5508 99.9906 95.7966L100.378 95.0832Z" fill="white"/>
<path d="M103.24 90.9168C103.094 91.1912 103.094 91.1912 102.608 91.2216C102.526 91.3821 102.442 91.5661 102.342 91.7405C102.204 91.9775 102.15 92.1901 102.406 92.393C102.534 92.494 102.502 92.6236 102.37 92.756C102.294 92.7011 102.221 92.6421 102.152 92.5794C101.717 92.1471 101.284 91.7128 100.853 91.2765C100.629 91.0482 100.633 91.0459 100.834 90.6843L103.24 90.9168ZM101.971 91.9429C102.101 91.6436 102.196 91.4269 102.316 91.1501L101.188 91.0371L101.162 91.1225L101.971 91.9429Z" fill="white"/>
<path d="M90.6886 109.207C90.7805 109.799 90.571 110.181 90.0912 110.339C89.6606 110.481 89.1505 110.238 88.9327 109.786C88.7379 109.383 88.8799 108.899 89.2719 108.63C89.6395 108.377 90.077 108.456 90.4639 108.873L89.5255 109.901C89.673 110.099 89.8472 110.127 90.0365 110.064C90.142 110.032 90.2365 109.971 90.3095 109.888C90.3825 109.805 90.4312 109.703 90.4501 109.594C90.4823 109.444 90.4359 109.259 90.6886 109.207ZM90.0912 108.956C89.6831 108.74 89.4685 108.765 89.276 108.989C89.0834 109.212 89.0899 109.386 89.31 109.689L90.0912 108.956Z" fill="white"/>
<path d="M97.2196 100.689C97.2458 100.481 97.3377 100.412 97.5146 100.399C97.6281 100.388 97.7356 100.343 97.823 100.269C98.0068 100.111 98.0389 99.8344 97.9181 99.6753C97.7885 99.5047 97.5679 99.4973 97.3349 99.6693C97.1824 99.7818 97.0486 99.9206 96.8933 100.028C96.6337 100.207 96.4338 100.205 96.204 100.046C95.9742 99.8874 95.8869 99.631 95.9614 99.3497C96.091 98.8581 96.4407 98.6118 96.9264 98.6828C96.9604 98.8613 96.8726 98.93 96.7072 98.9793C96.5696 99.0182 96.4434 99.09 96.3396 99.1887C96.1865 99.3437 96.1907 99.5789 96.3203 99.7039C96.4714 99.8501 96.6419 99.8321 96.7986 99.7219C96.9774 99.5955 97.135 99.4396 97.3161 99.3179C97.6185 99.114 97.8735 99.1403 98.0973 99.3963C98.1734 99.4836 98.2268 99.5885 98.2526 99.7016C98.3781 100.295 97.8441 100.81 97.2196 100.689Z" fill="white"/>
<path d="M88.0844 111.297L87.0812 112.261C87.2191 112.491 87.4029 112.51 87.5867 112.457C87.8105 112.394 87.9778 112.242 88.0104 112.002C88.0329 111.835 88.0564 111.695 88.2402 111.633C88.3872 112.099 88.1919 112.505 87.7397 112.699C87.311 112.884 86.8073 112.69 86.5449 112.241C86.3055 111.83 86.4218 111.327 86.8239 111.035C87.226 110.744 87.6717 110.83 88.0844 111.297ZM87.6478 111.366C87.3404 111.118 87.1525 111.11 86.9264 111.303C86.7003 111.497 86.6764 111.718 86.8896 112.071L87.6478 111.366Z" fill="white"/>
<path d="M102.639 87.9217C102.673 88.1039 102.558 88.1726 102.419 88.2446C101.946 88.4982 101.771 88.9068 101.943 89.3233C102.117 89.7467 102.657 90.0151 103.106 89.8966C103.533 89.7859 103.816 89.2905 103.677 88.8649C103.616 88.6771 103.539 88.5093 103.746 88.3672C104.089 88.7611 104.084 89.3533 103.736 89.797C103.567 90.0119 103.329 90.1615 103.063 90.2204C102.796 90.2792 102.518 90.2437 102.275 90.1198C101.747 89.8615 101.497 89.2979 101.652 88.7159C101.787 88.21 102.183 87.889 102.639 87.9217Z" fill="white"/>
<path d="M81.5093 116.627L82.0236 117.376L81.7851 117.59L80.4175 115.688C80.7268 115.477 80.9887 115.268 81.2782 115.111C81.6059 114.932 81.9317 115.026 82.1288 115.306C82.3319 115.594 82.3067 115.905 82.0369 116.178C81.8839 116.332 81.7069 116.46 81.5093 116.627ZM80.8361 115.71L81.3462 116.388C81.5204 116.258 81.6706 116.168 81.7943 116.05C81.9781 115.874 81.9905 115.694 81.8554 115.504C81.7272 115.323 81.5282 115.265 81.3168 115.376C81.1656 115.456 81.0323 115.571 80.8361 115.71Z" fill="white"/>
<path d="M83.5621 116.084C83.0566 116.084 82.5869 115.594 82.6003 115.085C82.6127 114.594 83.0864 114.148 83.5841 114.157C84.0818 114.167 84.5115 114.627 84.5129 115.138C84.5142 115.649 84.0768 116.085 83.5621 116.084ZM84.199 115.198C84.2031 114.837 83.8686 114.476 83.5225 114.47C83.2114 114.464 82.9251 114.729 82.9109 115.034C82.8953 115.38 83.284 115.797 83.62 115.794C83.9242 115.791 84.1953 115.512 84.199 115.198Z" fill="white"/>
<path d="M94.4785 102.444C94.5622 102.577 94.649 102.707 94.7276 102.842C95.0893 103.463 95.4468 104.085 95.8098 104.705C95.9045 104.867 95.9702 105.016 95.7413 105.169C95.6573 105.037 95.5598 104.926 95.5084 104.796C95.3751 104.458 95.1154 104.321 94.7818 104.243C94.3273 104.138 93.8811 103.999 93.4032 103.868C93.4643 103.664 93.5305 103.538 93.7681 103.621C94.0576 103.722 94.3526 103.805 94.6476 103.889C94.7524 103.918 94.8636 103.925 95.0585 103.956C94.803 103.541 94.5939 103.191 94.3779 102.849C94.2809 102.691 94.2488 102.556 94.4785 102.444Z" fill="white"/>
<path d="M97.3901 101.435L97.1929 101.699L95.2932 100.395L95.4729 100.122L97.3901 101.435Z" fill="white"/>
<path d="M94.9624 100.844L96.8222 102.156C96.6843 102.438 96.6779 102.448 96.4706 102.305C95.9192 101.926 95.3774 101.538 94.8062 101.135C94.8526 101.048 94.8953 100.971 94.9624 100.844Z" fill="white"/>
<path d="M87.698 110.215L88.1116 110.055L88.2825 109.653C88.4663 109.716 88.572 109.791 88.4471 109.97C88.2522 110.25 88.3749 110.462 88.5753 110.667C88.7885 110.885 88.9957 111.108 89.237 111.362L89.0343 111.55L87.698 110.215Z" fill="white"/>
<path d="M101.224 92.6942L100.546 94.0215C100.471 93.8716 100.396 93.7877 100.414 93.7476C100.566 93.4174 100.728 93.0913 100.906 92.7745C100.932 92.7279 101.052 92.7343 101.224 92.6942Z" fill="white"/>
<path d="M50.7509 46.559C51.5041 46.5724 52.2215 46.481 52.9246 46.6452C53.6097 46.8053 54.1221 47.2379 54.5357 47.795C55.0412 48.4729 55.367 49.2422 55.6597 50.0267C56.1652 51.3835 56.4143 52.7985 56.537 54.2346C56.7746 57.0161 56.792 59.8063 56.7778 62.5947C56.7681 64.4464 56.6179 66.2935 56.0026 68.0617C55.799 68.6577 55.5495 69.2369 55.2563 69.794C54.7204 70.7952 53.8776 71.3201 52.7159 71.273C52.2068 71.2527 51.6953 71.2698 51.1305 71.2698C51.114 71.0614 51.0846 70.8649 51.0846 70.6675C51.0597 68.0986 51.0551 65.5293 51.0133 62.9605C50.9375 58.3517 50.8401 53.7435 50.7528 49.1347C50.7385 48.3862 50.7293 47.6377 50.7201 46.8892C50.7192 46.8034 50.7358 46.7172 50.7509 46.559Z" fill="white"/>
<path d="M33.3651 56.3239C33.3568 52.9613 33.3586 49.6167 33.4409 46.2772C33.5659 46.2394 33.6334 46.2039 33.7028 46.2002C34.4036 46.1601 35.1049 46.1245 35.8061 46.089C36.4569 46.0558 36.9288 46.3565 37.2689 46.8901C37.5993 47.4081 37.7367 47.9933 37.8327 48.5906C37.8544 48.706 37.8698 48.8226 37.8787 48.9397C37.9641 50.76 38.0496 52.5831 37.6489 54.3786C37.5515 54.8126 37.3451 55.235 37.1218 55.6238C36.859 56.085 36.4114 56.3294 35.8838 56.3502C35.109 56.3802 34.3329 56.3714 33.5572 56.3769C33.514 56.3783 33.4731 56.3553 33.3651 56.3239Z" fill="white"/>
<path d="M83.6829 56.6177C83.6075 53.5097 83.5331 50.4487 83.4591 47.3938C83.4945 47.3707 83.5198 47.3403 83.5414 47.3421C84.1939 47.409 84.852 47.4445 85.4958 47.5598C86.0077 47.652 86.3726 48.0109 86.6502 48.4453C86.9496 48.9178 87.1448 49.4492 87.2227 50.0037C87.4663 51.6506 87.5495 53.3035 87.2839 54.9551C87.2226 55.3011 87.1108 55.6361 86.9521 55.9494C86.6878 56.4881 86.2324 56.7265 85.6249 56.6905C84.9843 56.6532 84.3423 56.6416 83.6829 56.6177Z" fill="white"/>
<path d="M22.6219 65.141C22.6559 66.7552 22.6293 68.2393 22.3683 69.7068C22.2896 70.1683 22.1478 70.6167 21.9469 71.0392C21.5333 71.8791 20.7521 72.0225 20.0168 71.4386C19.6303 71.1301 19.3693 70.7233 19.1542 70.2856C18.4976 68.9482 18.0514 67.5392 17.7605 66.0795C17.4043 64.291 17.2219 62.4822 17.1392 60.6619C17.079 59.342 17.0123 58.0211 17.0123 56.7007C17.0123 54.6857 17.1575 52.6791 17.6722 50.7213C17.8683 49.9701 18.1075 49.231 18.3887 48.5076C18.5566 48.0856 18.7904 47.6931 19.0812 47.3449C19.5867 46.7352 20.2466 46.7601 20.6951 47.415C20.9607 47.8173 21.1671 48.256 21.3081 48.7174C21.7055 49.9784 21.943 51.2846 22.0149 52.6053C22.1302 54.5538 22.1812 56.506 22.2741 58.4564C22.3462 59.9664 22.4432 61.4754 22.5236 62.9849C22.5645 63.7454 22.5934 64.5087 22.6219 65.141Z" fill="white"/>
<path d="M6.33671 70.2137C5.88636 68.1793 5.54447 66.163 5.26782 64.0885C5.68141 64.0779 6.04307 64.0682 6.40519 64.0599C6.53707 64.0567 6.6708 64.0733 6.79993 64.0544C7.54209 63.9456 7.98554 64.3482 8.31182 64.9422C8.59704 65.4734 8.78608 66.0511 8.87016 66.6486C8.9927 67.46 9.09779 68.2736 9.18541 69.0893C9.21022 69.3171 9.1707 69.5588 9.12199 69.7861C9.02273 70.2524 8.82513 70.4184 8.35869 70.3912C7.70109 70.352 7.04992 70.2778 6.33671 70.2137Z" fill="white"/>
<path d="M5.34004 49.3105C5.89424 49.2257 6.46775 49.126 7.04447 49.0559C7.15571 49.0404 7.26888 49.0638 7.36495 49.1222C7.46102 49.1806 7.53414 49.2704 7.57202 49.3765C7.66807 49.6191 7.76411 49.8764 7.78296 50.1328C7.87073 51.3236 7.81834 52.5098 7.53204 53.6739C7.45576 53.9838 7.32525 54.2836 7.19107 54.5746C7.13894 54.6971 7.05286 54.8021 6.94305 54.877C6.83324 54.9519 6.70432 54.9935 6.57161 54.9971C6.02016 55.034 5.46595 55.0856 4.91726 55.1308C4.77618 54.6014 5.09005 50.2394 5.34004 49.3105Z" fill="white"/>
<path d="M54.2301 16.9596C54.1818 15.0747 54.2301 13.4476 54.5687 11.8454C54.6772 11.3325 54.8206 10.8146 55.0361 10.3396C55.4846 9.35078 56.2888 9.23685 56.9892 10.0753C57.3402 10.4959 57.6215 10.9931 57.8517 11.4939C58.4358 12.7645 58.7901 14.1131 59.0438 15.486C59.4114 17.4646 59.654 19.4579 59.6651 21.4728C59.6697 22.3104 59.5938 23.1442 59.3613 23.9545C59.308 24.1526 59.2408 24.3467 59.16 24.5352C58.7561 25.434 58.0112 25.7564 57.0668 25.4576C56.4322 25.2565 55.9938 24.8193 55.6468 24.275C55.1924 23.562 54.9359 22.7679 54.7356 21.9529C54.4824 20.9231 54.3859 19.8716 54.3146 18.8168C54.2673 18.1149 54.2498 17.4102 54.2301 16.9596Z" fill="white"/>
<path d="M84.2045 17.1334C85.8868 17.774 87.1584 18.8232 88.2218 20.1524C90.0719 22.4644 91.3678 25.0522 92.0704 27.9337C92.2303 28.5909 92.3429 29.2573 92.2083 29.9376C92.1792 30.1109 92.1375 30.2818 92.0837 30.4491C91.8811 31.0219 91.4675 31.3281 90.854 31.3253C90.5766 31.3202 90.3009 31.2813 90.0328 31.2096C89.4814 31.0712 88.9405 30.8867 88.3877 30.7511C88.1432 30.6916 88.0637 30.5616 88.0228 30.3361C87.4464 27.1311 86.6265 23.9752 85.5702 20.8959C85.1906 19.789 84.7697 18.6918 84.3681 17.5905C84.3189 17.4563 84.272 17.3216 84.2045 17.1334Z" fill="white"/>
<path d="M10.1119 32.345C10.1289 32.149 10.1234 32.0327 10.151 31.9253C10.446 30.776 10.7516 29.6295 11.0411 28.4792C11.105 28.2251 11.2282 28.0849 11.4823 27.9987C12.2699 27.7321 13.0479 27.4342 13.8315 27.1542C13.9819 27.0986 14.1378 27.0592 14.2965 27.0366C14.8319 26.966 15.1159 27.1685 15.1522 27.7127C15.1701 28.0929 15.1446 28.4738 15.0764 28.8482C14.961 29.5547 14.6857 30.1972 14.2032 30.7391C13.9169 31.0619 13.5833 31.3363 13.1725 31.4622C12.1863 31.768 11.1877 32.0392 10.1119 32.345Z" fill="white"/>
<path d="M13.0892 22.8748C13.1352 22.7203 13.1549 22.6092 13.2018 22.5114C13.7533 21.3473 14.3047 20.1819 14.8778 19.0266C14.9724 18.8482 15.1138 18.6993 15.2868 18.5958C15.8759 18.2426 16.4816 17.9183 17.0826 17.584C17.1323 17.553 17.1848 17.527 17.2393 17.506C17.4232 17.4461 17.6433 17.2487 17.7963 17.4498C17.8988 17.5849 17.9181 17.8464 17.8712 18.0235C17.5495 19.2277 17.0509 20.3479 16.1709 21.2519C15.9359 21.4925 15.6635 21.6932 15.3644 21.8463C14.688 22.1909 13.989 22.492 13.2965 22.8084C13.2286 22.834 13.1594 22.8562 13.0892 22.8748Z" fill="white"/>
<path d="M65.5431 106.155C65.5596 104.096 65.8491 102.063 66.1947 100.04C66.4704 98.4223 66.7921 96.8113 67.1262 95.2054C67.2527 94.618 67.4316 94.0432 67.6606 93.4879C67.8348 93.0586 68.0926 92.6578 68.3564 92.2736C68.5035 92.0738 68.6934 91.9096 68.912 91.793C69.4487 91.4965 69.9464 91.6621 70.1578 92.2413C70.2985 92.6411 70.3824 93.0587 70.4068 93.4819C70.5033 94.9398 70.3273 96.3806 70.0755 97.8144C69.6973 99.9663 69.2819 102.11 68.6656 104.208C68.3849 105.165 68.0811 106.117 67.6142 107.001C67.4166 107.376 67.1841 107.731 66.9198 108.062C66.7714 108.247 66.5435 108.385 66.3261 108.492C66.061 108.623 65.8666 108.553 65.7581 108.278C65.6481 108.007 65.5784 107.722 65.5513 107.43C65.5178 107.008 65.5431 106.58 65.5431 106.155Z" fill="white"/>
</svg>
