<svg width="322" height="39" viewBox="0 0 322 39" fill="none" xmlns="http://www.w3.org/2000/svg">
<path d="M0 37.3764C0.657624 34.2272 1.28469 31.1944 1.92637 28.1643C2.91679 23.4744 3.91917 18.7884 4.91025 14.0984C5.77601 9.99529 6.63336 5.88946 7.48229 1.78098C7.5992 1.21238 7.86491 0.922086 8.47869 0.923417C13.4494 0.934736 18.4221 0.856833 23.3901 0.970021C25.3391 1.01463 27.302 1.3735 29.2178 1.78165C32.3471 2.44745 34.2057 4.56339 34.7425 7.63211C35.3968 11.3733 34.421 15.0359 30.804 17.2817C30.248 17.6272 29.6223 17.8603 28.8876 18.2138C29.2198 18.4229 29.435 18.5693 29.6602 18.6998C32.0263 20.0701 33.1854 22.1294 33.2877 24.8639C33.4611 29.4846 31.6775 33.1079 27.8374 35.6467C25.8101 36.9876 23.4446 37.3991 21.0812 37.4284C14.384 37.5129 7.68556 37.475 0.987764 37.479C0.707444 37.4803 0.431773 37.4237 0 37.3764ZM9.29973 31.1711C13.1432 31.032 16.802 31.0419 20.4322 30.7257C23.8571 30.4274 25.4015 28.5039 25.266 25.2721C25.1877 23.4078 24.1454 21.9044 22.2768 21.7519C18.6825 21.4596 15.0636 21.4629 11.4128 21.3424C10.706 24.6422 10.0351 27.7642 9.30238 31.1711H9.29973ZM12.6211 15.6265C15.8527 15.6265 18.915 15.6764 21.9739 15.5938C22.8229 15.5712 23.6977 15.2423 24.4981 14.9041C26.1781 14.1937 26.9752 12.2308 26.5766 10.0337C26.3242 8.64613 25.2156 7.71866 23.3782 7.65208C20.5624 7.55087 17.7412 7.57884 14.9227 7.5895C14.6836 7.5895 14.2771 7.83518 14.2332 8.03159C13.6699 10.5317 13.1598 13.0438 12.6177 15.6265H12.6211Z" fill="white"/>
<path d="M44.4879 26.1769C44.5424 27.1829 44.4746 28.1131 44.662 28.9893C45.1409 31.2237 46.603 32.6326 48.5718 32.9302C51.4103 33.3596 53.6369 32.4761 54.8299 30.267C55.2949 29.4014 55.8495 29.1604 56.7563 29.1943C58.3399 29.2543 59.9275 29.2023 61.5131 29.219C61.8764 29.219 62.2385 29.3128 62.6941 29.3768C61.7941 32.576 60.1307 35.0248 57.3076 36.5355C53.2257 38.7187 48.9 39.0456 44.5172 37.7194C40.584 36.5296 38.293 33.6912 37.5716 29.6844C36.8323 25.577 37.3517 21.5975 39.3578 17.8902C42.5197 12.0464 48.9797 9.22872 55.4795 10.5663C62.0491 11.9186 64.8616 17.6572 64.115 23.5589C64.0107 24.3879 64.1077 25.5976 63.6261 25.9352C62.9957 26.3773 61.8831 26.1662 60.9777 26.1682C55.9027 26.1816 50.8277 26.1749 45.7527 26.1749L44.4879 26.1769ZM57.0326 21.4423C57.3216 18.6652 55.9744 16.3003 53.6967 15.8588C51.1259 15.3608 48.7811 15.9321 47.04 18.056C46.2536 19.0161 45.5747 20.0747 45.4637 21.4423H57.0326Z" fill="white"/>
<path d="M151.23 35.469C151.643 34.9417 152.075 34.4283 152.464 33.883C152.708 33.5402 152.836 33.1047 153.114 32.7991C153.287 32.6074 153.641 32.5794 153.911 32.4782C153.978 32.7758 154.199 33.1693 154.085 33.3564C153.05 35.0489 151.914 36.6748 150.153 37.7048C148.374 38.7448 146.766 37.8739 146.872 35.8299C146.948 34.4057 147.35 32.9962 147.633 31.586C147.736 31.078 147.92 30.5873 148.076 30.0546C146.424 31.8297 144.894 33.628 143.197 35.248C141.553 36.8193 139.667 38.0717 137.252 38.1016C134.887 38.1302 132.91 36.6309 132.193 34.3611C131.502 32.1733 131.728 30.0247 132.459 27.9201C134.385 22.3546 137.972 18.2259 143.292 15.6818C146.329 14.229 149.257 14.0093 151.854 16.9143C152.923 13.0925 153.98 9.41058 154.971 5.71068C155.226 4.75591 154.67 4.16268 153.661 4.12006C153.133 4.09743 152.598 4.17533 152.078 4.12006C151.821 4.09143 151.588 3.85773 151.344 3.71725C151.543 3.47955 151.707 3.09539 151.953 3.03147C152.765 2.82107 153.605 2.7172 154.437 2.58804C156.069 2.33436 157.701 2.08468 159.337 1.85165C159.531 1.82368 159.741 1.90958 160.074 1.96417C159.421 4.23591 158.787 6.45372 158.147 8.66953C155.82 16.7227 153.495 24.7763 151.172 32.8304C150.945 33.6241 150.895 34.469 150.762 35.2899L151.23 35.469ZM150.373 19.431C150.597 17.0234 147.955 15.4661 145.728 16.3856C144.493 16.8963 143.265 17.6193 142.288 18.5228C140.089 20.5542 138.528 23.0903 137.353 25.8388C136.485 27.8701 136.062 30.0074 136.303 32.2305C136.544 34.4537 138.405 35.6261 140.5 34.8458C141.125 34.6098 141.711 34.2823 142.24 33.8737C144.91 31.8044 146.753 29.0526 148.39 26.1557C149.492 24.2095 150.284 22.1415 150.373 19.431Z" fill="white"/>
<path d="M81.0479 1.98953C78.8923 9.55312 76.754 17.0568 74.6151 24.5604L74.7998 24.667C75.6029 23.6456 76.3468 22.5703 77.2203 21.6142C78.8558 19.8252 80.4892 18.0189 82.2728 16.3856C83.4751 15.2837 84.9996 14.6545 86.714 14.6985C88.3083 14.7371 89.6481 15.8131 89.6574 17.4123C89.666 18.8325 89.5119 20.3106 89.1061 21.6655C87.8838 25.7496 86.4915 29.783 85.2042 33.8498C85.0886 34.2147 85.254 34.6688 85.2885 35.0809C85.6525 34.9277 86.1062 34.8632 86.364 34.6035C87.0057 33.9563 87.5337 33.196 88.1621 32.5335C88.3727 32.3125 88.7494 32.2505 89.0503 32.1154C89.0669 32.4483 89.2336 32.9243 89.0748 33.0975C87.6965 34.5942 86.3308 36.1169 84.8149 37.4658C83.8457 38.3314 82.381 38.336 81.6643 37.7541C80.64 36.9225 80.6015 35.8313 80.9622 34.6728C82.3974 30.0294 83.8338 25.3865 85.2713 20.744C85.4041 20.3106 85.537 19.8505 85.529 19.4058C85.519 18.9217 85.4944 18.2579 85.1969 18.0076C84.8886 17.7512 84.1905 17.7412 83.7574 17.8964C81.2757 18.7699 79.6947 20.7593 78.1835 22.7488C76.8012 24.5691 75.3936 26.4194 74.358 28.4414C73.1949 30.7118 72.3958 33.1753 71.5116 35.5816C70.7072 37.7714 71.4107 37.4385 68.9874 37.4831C68.369 37.4951 67.7506 37.4831 66.9946 37.4831C67.9047 34.2613 68.7443 31.2492 69.6065 28.2437C71.7215 20.8679 73.8403 13.4934 75.9629 6.1202C76.3561 4.7473 75.5145 3.82317 74.0923 4.01159C73.9183 4.03423 73.7356 4.12677 73.5755 4.09415C73.171 4.01159 72.7784 3.87643 72.3798 3.76124C72.698 3.47095 72.9823 2.98425 73.3404 2.92099C75.658 2.51086 77.9902 2.1886 80.3205 1.8557C80.5058 1.82973 80.7151 1.92494 81.0479 1.98953Z" fill="white"/>
<path d="M116.805 14.6726C115.822 18.1907 114.917 21.4326 114.015 24.6744L114.177 24.755C115.445 23.171 116.68 21.5591 117.988 20.0104C119.793 17.8725 121.678 15.8158 124.47 14.9283C127.72 13.8936 129.917 16.1594 129.216 18.9598C128.352 22.4053 127.202 25.7783 126.16 29.1793C125.655 30.8311 125.101 32.4684 124.627 34.1289C124.539 34.4371 124.723 34.8233 124.781 35.1735C125.113 35.0504 125.546 35.0184 125.763 34.786C126.433 34.067 126.996 33.248 127.658 32.5223C127.861 32.2979 128.25 32.2433 128.554 32.1108C128.558 32.4377 128.703 32.8931 128.542 33.0716C127.232 34.5324 125.87 35.9459 124.509 37.36C124.344 37.5318 124.108 37.6537 123.882 37.7455C122.909 38.1397 121.897 38.4267 120.99 37.663C120.083 36.8993 120.092 35.856 120.379 34.828C120.881 33.0303 121.424 31.2446 121.987 29.4656C122.889 26.6119 123.829 23.7702 124.733 20.9166C124.902 20.3839 124.993 19.8193 125.086 19.264C125.285 18.0656 124.539 17.4171 123.394 17.8192C121.468 18.4977 120.031 19.8719 118.748 21.3833C114.961 25.8442 111.957 30.7359 110.64 36.5251C110.479 37.2276 110.161 37.5398 109.419 37.4992C108.48 37.4486 107.535 37.4872 106.42 37.4872C107.043 35.2794 107.616 33.2593 108.182 31.2386C109.318 27.2018 110.467 23.1677 111.584 19.1255C112.074 17.3485 111.412 16.6447 109.617 16.9517C109.409 16.9876 109.18 17.0635 108.992 17.0103C108.734 16.9377 108.507 16.7586 108.267 16.6254C108.432 16.3744 108.555 15.9596 108.772 15.903C109.55 15.694 110.357 15.5901 111.157 15.4736C112.952 15.2086 114.748 14.9622 116.805 14.6726Z" fill="white"/>
<path d="M104.063 14.7981L101.111 24.7567C100.241 27.696 99.3694 30.6353 98.4974 33.5746C98.4675 33.6758 98.4157 33.7837 98.427 33.8822C98.4781 34.3143 98.5479 34.7438 98.611 35.1746C99.0494 35.0314 99.6074 35.0108 99.901 34.7211C100.6 34.0367 101.143 33.1951 101.816 32.4794C102.033 32.2483 102.527 32.0299 102.773 32.1245C103.341 32.3435 103.087 32.7637 102.825 33.1452C101.447 35.1426 99.8864 36.9549 97.5774 37.8917C96.6381 38.2719 95.6171 38.3238 94.7875 37.5868C93.9691 36.8624 93.7824 35.9309 94.1232 34.8829C94.256 34.4834 94.2979 34.054 94.4195 33.6499C95.7679 29.1667 97.1197 24.6836 98.4748 20.2005C98.6369 19.6612 98.7611 19.1093 98.8734 18.5573C99.1105 17.4121 98.6043 16.8049 97.4087 16.8369C96.9204 16.8495 96.4342 17.0166 95.9473 17.0086C95.6982 17.004 95.4524 16.7696 95.2059 16.6391C95.3933 16.3941 95.5381 15.9959 95.7759 15.932C96.5185 15.7323 97.2944 15.6511 98.059 15.5325C99.7608 15.2662 101.462 14.9999 103.167 14.7529C103.396 14.7182 103.639 14.7728 104.063 14.7981Z" fill="white"/>
<path d="M102.801 4.95318C104.29 4.94452 105.399 6.04244 105.404 7.53052C105.408 8.97865 104.239 10.1645 102.816 10.1558C101.418 10.1478 100.209 8.90408 100.234 7.49723C100.258 6.12699 101.433 4.95917 102.801 4.95318Z" fill="white"/>
<path d="M172.425 24.8652C173.483 24.8652 174.543 24.8172 175.594 24.8971C175.894 24.9204 176.368 25.28 176.419 25.5503C177.185 29.6437 178.699 31.1324 182.9 31.6564C184.877 31.9034 186.839 31.7596 188.665 30.8202C190.51 29.8707 191.384 27.8866 190.827 26.047C190.487 24.9211 189.593 24.4251 188.631 24.0895C186.377 23.3025 184.093 22.6041 181.82 21.873C179.879 21.2492 177.915 20.6926 176.001 19.9928C172.68 18.7784 170.271 16.6444 169.751 12.9545C169.167 8.80322 170.268 5.27176 173.819 2.72571C176.037 1.13575 178.556 0.376066 181.199 0.129051C184.992 -0.227822 188.717 0.0857705 192.171 1.95669C195.758 3.90086 197.411 7.01684 197.726 10.9811C197.78 11.6682 197.566 11.9325 196.855 11.9205C194.812 11.8866 192.767 11.9338 190.724 11.8806C190.415 11.8726 189.887 11.535 189.845 11.2853C189.187 7.3411 186.569 6.67995 183.848 6.5135C182.46 6.42894 180.981 6.78514 179.642 7.23789C178.176 7.73459 177.491 9.02027 177.51 10.5749C177.529 12.093 178.619 12.856 179.848 13.2575C182.349 14.0751 184.896 14.7436 187.43 15.4633C190.552 16.3502 193.624 17.3356 196.221 19.4075C197.892 20.7392 198.784 22.5269 199.003 24.5829C199.639 30.5705 197.359 34.6512 191.786 36.7612C185.882 38.997 179.904 38.8745 174.227 35.8777C170.796 34.066 168.966 31.0292 168.415 27.1696C168.012 24.3505 168.282 24.9218 170.523 24.8672C171.156 24.8505 171.791 24.8639 172.425 24.8652Z" fill="white"/>
<path d="M276.482 37.2412C274.328 37.2412 272.22 37.2605 270.115 37.2106C269.909 37.2059 269.583 36.7971 269.54 36.5388C269.451 35.9921 269.513 35.4209 269.513 34.7318C269.278 34.8649 269.109 34.9149 269.009 35.0261C266.625 37.7039 263.562 38.2752 260.182 37.945C254.526 37.3923 251.015 32.9854 250.07 27.8007C249.353 23.8564 249.579 19.9821 251.332 16.3162C254.1 10.5163 260.915 8.30714 266.553 11.3798C267.455 11.8712 268.224 12.6076 269.14 13.294V10.1361C269.14 7.379 269.162 4.62122 269.128 1.86478C269.117 0.999225 269.412 0.666311 270.293 0.689614C272.054 0.738218 273.817 0.722244 275.579 0.695612C276.273 0.685625 276.602 0.888691 276.601 1.6557C276.584 13.3553 276.579 25.0551 276.583 36.7552C276.58 36.8564 276.54 36.9582 276.482 37.2412ZM257.069 23.9896C257.491 25.6541 257.718 27.3093 258.335 28.8034C259.233 30.9766 261.111 31.9473 263.409 31.9227C265.684 31.8974 267.54 30.9906 268.484 28.7834C269.841 25.6122 269.87 22.3917 268.456 19.2404C267.603 17.3395 266.095 16.2762 263.926 16.1324C261.422 15.9666 259.395 16.7616 258.363 19.0813C257.694 20.584 257.496 22.2965 257.069 23.9896Z" fill="white"/>
<path d="M307.302 10.0132C314.201 10.0079 318.772 13.0293 320.679 18.7193C322.228 23.342 321.928 27.9115 319.413 32.19C316.557 37.0544 310.792 38.7016 305.875 38.0584C302.346 37.5963 299.332 36.2068 297.092 33.3518C294.418 29.9428 293.789 25.9879 294.274 21.8373C294.775 17.5435 296.766 14.074 300.567 11.8329C302.836 10.4952 305.326 9.94661 307.302 10.0132ZM301.473 23.9952L301.772 24.0618C301.683 26.0359 301.931 27.9454 302.973 29.6645C304.162 31.6267 305.941 32.4609 308.213 32.3624C310.295 32.2699 311.789 31.2838 312.81 29.4948C314.023 27.3682 314.118 25.0338 313.873 22.7135C313.725 21.2885 313.325 19.9013 312.693 18.6161C311.569 16.3823 309.527 15.6866 307.109 15.879C304.947 16.0541 303.456 17.2366 302.699 19.1474C302.09 20.6835 301.867 22.3733 301.473 23.9945V23.9952Z" fill="white"/>
<path d="M238.417 34.0448C236.867 35.8831 235.219 37.1301 233.103 37.7067C230.455 38.4258 227.872 38.2966 225.381 37.1641C222.498 35.8524 220.997 33.4222 220.907 30.3808C220.727 24.1322 220.816 17.8763 220.771 11.623C220.766 10.9139 221.053 10.6968 221.712 10.7042C223.578 10.7255 225.446 10.7401 227.313 10.6982C228.132 10.6802 228.309 11.0351 228.302 11.7808C228.277 16.6565 228.257 21.5329 228.314 26.4079C228.328 27.5152 228.58 28.6384 228.858 29.7196C229.1 30.6678 229.814 31.2244 230.779 31.4907C234.897 32.6226 237.928 30.2603 238.051 25.6196C238.168 21.1713 238.094 16.7171 238.105 12.2655C238.109 10.7128 238.11 10.7115 239.699 10.7108C241.289 10.7101 242.87 10.7354 244.455 10.7002C245.24 10.6828 245.576 10.8959 245.573 11.7761C245.541 19.9376 245.539 28.0995 245.567 36.2619C245.567 36.9716 245.398 37.2872 244.637 37.2713C242.876 37.2333 241.117 37.236 239.353 37.2713C238.599 37.2859 238.357 36.9697 238.405 36.2559C238.451 35.6194 238.417 34.9829 238.417 34.0448Z" fill="white"/>
<path d="M212.212 10.7082C213.668 10.7082 215.034 10.7468 216.397 10.6935C217.244 10.6609 217.632 10.9113 217.581 11.8208C217.523 12.8421 217.535 13.8714 217.581 14.8948C217.614 15.6618 217.36 15.9714 216.556 15.9408C215.154 15.8868 213.748 15.9261 212.216 15.9261C212.216 16.3463 212.216 16.6878 212.216 17.0294C212.221 21.0589 212.22 25.0857 212.234 29.1178C212.24 31.016 212.884 31.6732 214.753 31.7278C215.246 31.7418 215.755 31.807 216.23 31.7131C217.333 31.4947 217.661 31.9235 217.589 32.9935C217.51 34.1919 217.612 35.3984 217.541 36.5962C217.521 36.9118 217.166 37.4617 216.95 37.4724C214.144 37.5716 211.317 37.9384 208.555 37.0882C206.151 36.3492 205.101 34.8011 204.908 31.6172C204.695 28.1304 204.811 24.6263 204.789 21.1241C204.781 19.6746 204.764 18.2252 204.799 16.7764C204.814 16.1412 204.617 15.8809 203.957 15.9148C203.078 15.9601 202.195 15.9048 201.314 15.9321C200.671 15.9521 200.338 15.7783 200.372 15.0393C200.425 13.8754 200.406 12.709 200.379 11.5405C200.365 10.9412 200.62 10.7035 201.189 10.7089C202.071 10.7162 202.954 10.6649 203.832 10.7215C204.571 10.7701 204.819 10.5218 204.803 9.77073C204.759 7.79261 204.822 5.81117 204.772 3.83305C204.751 3.03874 204.999 2.78906 205.79 2.8117C207.583 2.86363 209.386 2.85697 211.182 2.8117C211.956 2.79372 212.245 3.04739 212.229 3.8417C212.187 6.09746 212.212 8.3519 212.212 10.7082Z" fill="white"/>
<path d="M281.99 24.0432C281.99 20.0177 282.016 15.9916 281.971 11.9668C281.961 10.992 282.265 10.6544 283.24 10.6897C284.962 10.753 286.69 10.7357 288.415 10.6957C289.248 10.6764 289.617 10.9161 289.614 11.8276C289.589 19.9505 289.589 28.0733 289.614 36.1962C289.614 37.0617 289.287 37.2881 288.498 37.2728C286.668 37.2373 284.837 37.2373 283.005 37.2728C282.224 37.2895 281.969 37.0125 281.975 36.2262C282.007 32.1647 281.99 28.104 281.99 24.0432Z" fill="white"/>
<path d="M285.819 7.19465C284.833 7.19465 283.846 7.172 282.861 7.20329C282.222 7.22393 281.977 6.96293 281.985 6.33241C282.005 4.77886 282.005 3.2253 281.985 1.67175C281.976 1.01127 282.216 0.695019 282.905 0.701011C284.841 0.718988 286.778 0.713666 288.715 0.705677C289.338 0.705677 289.604 0.995294 289.6 1.61183C289.59 3.20045 289.59 4.78952 289.6 6.37903C289.605 6.95562 289.362 7.21261 288.777 7.20063C287.791 7.17932 286.805 7.19398 285.819 7.19465Z" fill="white"/>
</svg>
