<svg width="106" height="106" viewBox="0 0 106 106" fill="none" xmlns="http://www.w3.org/2000/svg">
<path d="M106 53.0175C105.964 82.3472 82.1749 106.282 52.436 105.997C23.4857 105.721 -0.301058 82.1377 0.00213425 52.3945C0.297517 23.4113 23.912 -0.308452 53.6028 0.00303316C82.6012 0.306708 105.961 23.8293 106 53.0175ZM53.0001 104.441C81.2451 104.498 104.173 81.5639 104.445 53.5371C104.723 24.9613 81.7022 1.88205 53.6666 1.54622C24.9126 1.20211 1.83782 24.3682 1.54244 52.4157C1.23971 81.2257 24.6337 104.526 53.0001 104.441Z" fill="#F15A2B"/>
<path d="M92.0904 53.0271C92.1552 74.6014 74.4777 92.2182 52.7848 92.1135C31.3377 92.0096 13.6607 74.4153 13.8853 52.5604C14.1044 31.2301 31.6418 13.6385 53.4762 13.8866C74.7299 14.131 92.1722 31.5145 92.0904 53.0271ZM90.5708 52.9991C90.5441 32.3805 73.9834 15.6416 53.4146 15.4275C32.4209 15.2093 15.619 32.0437 15.4265 52.6105C15.229 73.6628 32.1682 90.4407 52.7334 90.5717C73.6688 90.7049 90.5556 73.768 90.5708 52.9977V52.9991Z" fill="#F15A2B"/>
<path d="M3.27582 51.5757C3.24826 50.7258 3.86796 49.9604 4.68566 49.778C5.72983 49.5451 6.45842 50.0454 7.05653 51.465C7.43966 50.6891 7.98035 50.1226 8.77003 49.8759C9.55971 49.6292 10.3443 49.677 11.0848 50.0927C12.2057 50.7231 12.7414 52.0223 12.4056 53.3119C12.1028 54.4733 11.0003 55.3209 9.76918 55.3388C8.17651 55.3623 7.38912 54.6171 6.79927 52.5442L5.38576 54.1002H6.97982C6.97982 54.4843 6.99452 54.8091 6.9688 55.1312C6.96282 55.2079 6.8227 55.3347 6.74323 55.3356C5.58697 55.3489 4.43071 55.3448 3.2354 55.3448C3.2354 54.9286 3.21105 54.5523 3.24872 54.1825C3.26205 54.0548 3.41364 53.9243 3.52894 53.8269C4.11511 53.333 4.7169 52.8584 5.29618 52.3567C5.45099 52.2231 5.5617 52.0292 5.66368 51.8468C5.83366 51.5436 5.73581 51.2385 5.45834 51.1117C5.2553 51.0198 4.81107 51.0263 4.74538 51.1425C4.36501 51.8188 3.77655 51.4673 3.27582 51.5757ZM9.67271 54.1099C10.5322 54.1149 11.2672 53.4042 11.2805 52.5566C11.2939 51.709 10.5589 50.9762 9.70532 50.9693C8.85179 50.9624 8.1099 51.6741 8.09474 52.5244C8.08004 53.361 8.82056 54.1048 9.67271 54.1099Z" fill="#F15A2B"/>
<path d="M77.6938 12.1578C77.6938 14.233 76.1181 15.8033 74.0252 15.8088C71.958 15.8147 70.3749 14.2201 70.3735 12.1362C70.3735 10.0766 71.9772 8.47739 74.0486 8.47693C76.1025 8.47601 77.6919 10.0803 77.6938 12.1578ZM74.0477 14.1866C75.1539 14.1815 76.1007 13.231 76.0869 12.138C76.0731 11.0451 75.1052 10.0803 74.0275 10.0964C72.9282 10.112 71.9704 11.08 71.9864 12.1578C72.0034 13.2696 72.9401 14.1916 74.0477 14.1866Z" fill="#F15A2B"/>
<path d="M63.8931 98.8328L66.0026 101.044C65.3769 101.173 64.8256 101.305 64.2666 101.389C64.1402 101.408 63.9624 101.285 63.8531 101.18C63.4732 100.813 63.0997 100.44 62.7506 100.046C62.5567 99.827 62.3394 99.822 62.1603 99.9685C62.0634 100.048 62.0372 100.28 62.0611 100.428C62.1337 100.885 62.2448 101.335 62.3496 101.82L61.0849 102.109C60.8015 102.175 60.7289 102.018 60.677 101.774C60.3021 100.008 59.9144 98.2448 59.5317 96.4811C59.4297 96.012 59.3305 95.5425 59.217 95.011C60.4114 94.7583 61.5415 94.3177 62.7602 94.8134C64.329 95.452 64.9092 97.1105 64.0438 98.5701C63.9987 98.6495 63.9546 98.7267 63.8931 98.8328ZM61.6054 98.3385C62.4392 98.1327 62.9192 97.5538 62.7828 96.9855C62.6514 96.4384 61.9384 96.1218 61.1726 96.3102C61.3146 96.975 61.4565 97.6416 61.6077 98.3385H61.6054Z" fill="#F15A2B"/>
<path d="M71.5561 92.8783L68.7281 94.0329C68.8797 94.4128 69.0157 94.7546 69.171 95.1442C69.8274 94.8809 70.443 94.6512 71.0439 94.3866C71.3608 94.2488 71.5349 94.28 71.6456 94.6347C71.7563 94.9894 71.9213 95.3326 72.0816 95.7373L69.7975 96.6773C69.9496 97.0609 70.0902 97.4174 70.251 97.8258L73.083 96.6975C73.2921 97.2028 73.4896 97.6829 73.705 98.2044L69.3474 99.9676L66.5911 93.1388L70.9382 91.3715L71.5561 92.8783Z" fill="#F15A2B"/>
<path d="M31.5861 97.8231C31.1833 97.6117 30.8511 97.4041 30.4905 97.258C30.14 97.1156 30.0311 96.8905 30.1515 96.5569C30.2718 96.2234 30.162 96.0323 29.8455 95.8853C29.3825 95.6702 28.9318 95.4258 28.489 95.1718C28.2327 95.0243 28.0222 94.983 27.833 95.2554C27.5776 95.6229 27.2882 95.6289 26.9253 95.3872C26.6161 95.181 26.2688 95.0312 25.8824 94.8268L31.5237 89.4755C31.9201 89.6813 32.3207 89.8568 32.6795 90.0948C32.7961 90.1719 32.8756 90.4251 32.8504 90.5771C32.498 92.696 32.1255 94.8111 31.7561 96.9268C31.707 97.2056 31.6504 97.4845 31.5861 97.8231ZM30.8396 92.5609L30.7418 92.5076L29.3825 93.794L30.5245 94.3958C30.6398 93.7251 30.74 93.143 30.8396 92.5609Z" fill="#F15A2B"/>
<path d="M51.8003 10.8916C52.1049 10.1106 52.3709 9.43063 52.6359 8.74977C53.2524 7.16708 53.8762 5.5876 54.4762 3.99848C54.6002 3.67 54.7707 3.57811 55.1074 3.60568C56.2099 3.69481 56.2099 3.68286 56.5035 4.74365C57.0464 6.71364 57.5874 8.68423 58.1265 10.6554C58.1646 10.7933 58.1889 10.9384 58.2316 11.1328C57.6873 11.1066 57.1948 11.0956 56.706 11.0469C56.6142 11.0381 56.4814 10.8842 56.4695 10.7845C56.407 10.264 56.1313 10.089 55.6205 10.1198C55.1878 10.1459 54.7477 10.1032 54.3145 10.0568C53.9833 10.0219 53.7995 10.1432 53.7329 10.4597C53.6576 10.8162 53.4509 10.9357 53.0838 10.9003C52.6869 10.8617 52.2822 10.8916 51.8003 10.8916ZM55.333 6.71088L55.2186 6.69664L54.5391 8.43232H55.8089C55.6467 7.84197 55.4896 7.2755 55.333 6.70858V6.71088Z" fill="#F15A2B"/>
<path d="M45.4971 11.5311C44.9523 11.669 44.4782 11.8068 43.9949 11.8881C43.8842 11.9065 43.6802 11.7457 43.621 11.6194C43.429 11.2109 43.1689 11.1448 42.7578 11.2922C42.3453 11.4346 41.9213 11.5408 41.4904 11.6097C41.1137 11.674 40.9161 11.8615 40.9529 12.2354C40.9919 12.6264 40.8031 12.7569 40.4526 12.8161C40.0704 12.8809 39.6979 12.9999 39.2628 13.1106C39.2968 12.5864 39.3221 12.1118 39.3593 11.6405C39.5086 9.73528 39.668 7.831 39.8086 5.92533C39.838 5.53115 39.9785 5.32028 40.3915 5.22839C41.3916 5.0065 41.3861 4.98674 41.9456 5.87709C43.0353 7.61063 44.1254 9.3434 45.216 11.0754C45.295 11.1994 45.3717 11.3285 45.4971 11.5311ZM41.149 10.0096L42.3995 9.69209C42.0384 9.12839 41.7201 8.63038 41.4013 8.13008L41.2951 8.17602C41.2492 8.7558 41.2032 9.33007 41.149 10.0096Z" fill="#F15A2B"/>
<path d="M57.3005 102.663C56.7529 102.663 56.2697 102.69 55.7928 102.645C55.6665 102.634 55.4984 102.418 55.4588 102.267C55.3518 101.859 55.1373 101.716 54.7142 101.759C54.2634 101.8 53.8101 101.808 53.3581 101.782C52.9906 101.766 52.7866 101.907 52.7356 102.266C52.6814 102.649 52.4765 102.787 52.0874 102.75C51.6983 102.713 51.3102 102.742 50.86 102.742C51.1595 101.814 51.4462 100.93 51.7305 100.044C52.1899 98.6118 52.6562 97.1812 53.1008 95.7437C53.1927 95.4487 53.3305 95.3495 53.642 95.3454C54.8102 95.3297 54.8102 95.3173 55.1887 96.4287C55.8478 98.3656 56.5062 100.303 57.1641 102.24C57.2045 102.351 57.238 102.465 57.3005 102.663ZM54.7156 100.137C54.4992 99.5132 54.3021 98.9467 54.1051 98.3798L53.9897 98.3927C53.8092 98.9642 53.6291 99.5362 53.4385 100.138L54.7156 100.137Z" fill="#F15A2B"/>
<path d="M36.1721 99.6171L34.6277 99.0832C35.4357 96.7549 36.2314 94.4615 37.0509 92.1001C37.7809 92.3877 38.5127 92.5935 39.1641 92.9491C40.454 93.6548 40.9773 95.3096 40.4366 96.7163C39.9133 98.0799 38.4497 98.9013 37.022 98.6054C36.6797 98.5347 36.4868 98.5857 36.4078 98.95C36.3596 99.1692 36.2608 99.3708 36.1721 99.6171ZM37.1276 96.9065C37.9049 97.1647 38.6372 96.8027 38.9137 96.0699C39.1903 95.3372 38.8443 94.5768 38.0482 94.252C37.7411 95.1396 37.4342 96.0251 37.1276 96.9084V96.9065Z" fill="#F15A2B"/>
<path d="M44.5958 100.757C44.5467 101.019 44.4814 101.251 44.464 101.486C44.4387 101.819 44.2871 101.884 43.9835 101.808C43.5957 101.713 43.1984 101.657 42.7891 101.581C43.1887 99.2463 43.581 96.969 43.9655 94.6898C44.0115 94.4142 44.1553 94.3425 44.4065 94.3908C44.8489 94.4758 45.2945 94.5447 45.7351 94.6384C47.3241 94.9774 48.3375 96.4035 48.1634 98.0459C48.0003 99.5813 46.6474 100.761 45.057 100.756L44.5958 100.757ZM45.3616 96.262C45.1994 97.2162 45.0437 98.135 44.8871 99.0584C45.7534 99.1503 46.3718 98.6863 46.5266 97.9026C46.669 97.1794 46.2055 96.4871 45.3616 96.262Z" fill="#F15A2B"/>
<path d="M44.7213 4.16158C45.2073 4.10277 45.669 4.021 46.133 4.00676C46.2658 4.00262 46.4702 4.1648 46.5308 4.30078C47.0605 5.48103 47.5649 6.6723 48.078 7.86035C48.1375 8.017 48.2395 8.15397 48.3725 8.25591C48.531 7.53738 48.6908 6.81931 48.8475 6.10032C49.0009 5.39466 49.1405 4.68623 49.311 3.987C49.3436 3.85285 49.4759 3.66173 49.5866 3.6429C50.0561 3.56296 50.5348 3.53861 51.0865 3.48669C50.8894 4.37291 50.7089 5.18654 50.5265 6.002C50.1686 7.6017 49.8021 9.19909 49.458 10.8015C49.4024 11.0607 49.2972 11.141 49.0445 11.1603C47.812 11.2522 47.812 11.2605 47.3117 10.1239C46.4567 8.1824 45.6024 6.24059 44.7489 4.29848C44.7362 4.25361 44.727 4.20784 44.7213 4.16158Z" fill="#F15A2B"/>
<path d="M36.4736 7.41709C36.2696 7.90591 36.0739 8.3736 35.8658 8.87069C35.1588 8.69244 34.45 8.66395 33.9006 9.16931C33.5634 9.47942 33.2611 9.90438 33.1196 10.3349C32.8155 11.2486 33.3594 12.2617 34.2681 12.6751C35.2479 13.1212 36.2241 12.7633 36.9895 11.6488L38.4089 12.2474C38.0672 13.7947 35.8644 14.8661 34.1004 14.3649C33.6139 14.2285 33.1605 13.9938 32.7683 13.6753C32.3761 13.3568 32.0533 12.9612 31.8199 12.5131C31.5865 12.0649 31.4475 11.5737 31.4114 11.0697C31.3753 10.5657 31.4429 10.0596 31.6101 9.58279C32.3015 7.60729 34.5249 6.5883 36.4736 7.41709Z" fill="#F15A2B"/>
<path d="M73.2351 90.2009L74.6592 89.384L77.5188 94.3457L79.869 93.013L80.6936 94.4312L76.9097 96.6088L73.2351 90.2009Z" fill="#F15A2B"/>
<path d="M69.0777 12.2014C68.9068 12.7325 68.7511 13.2172 68.5765 13.7593L64.431 12.4311L66.682 5.41675L68.2439 5.90787C67.9876 6.71552 67.7386 7.49745 67.4914 8.27892C67.1993 9.19775 66.9163 10.1166 66.6062 11.0267C66.5143 11.3023 66.5855 11.4016 66.8423 11.4801C67.5732 11.7048 68.299 11.9492 69.0777 12.2014Z" fill="#F15A2B"/>
<path d="M62.0914 4.41103C61.7331 6.29786 61.389 8.1121 61.0294 10.0058C61.6514 10.1317 62.2591 10.2654 62.8706 10.3734C63.6896 10.5208 63.6933 10.5112 63.5458 11.3078C63.4971 11.5711 63.4338 11.8315 63.3685 12.1348L59.111 11.3211C59.3113 10.2783 59.5037 9.27856 59.6953 8.27887C59.9379 7.01042 60.1914 5.74335 60.4142 4.47122C60.468 4.16295 60.6058 4.09633 60.8713 4.15238C61.265 4.23554 61.6582 4.31915 62.0914 4.41103Z" fill="#F15A2B"/>
<path d="M96.2367 54.1127H97.8298V55.3472C96.6814 55.3472 95.5385 55.3472 94.3969 55.3439C94.3226 55.3447 94.2504 55.3197 94.1925 55.2732C93.9986 55.0894 94.1465 54.0328 94.368 53.8623C94.9279 53.4309 95.4898 53.0018 96.0309 52.5479C96.2229 52.3867 96.3713 52.1657 96.5137 51.9548C96.7361 51.6254 96.6754 51.3231 96.3575 51.0879C96.0732 50.8775 95.742 50.9579 95.4953 51.279C95.3074 51.5243 94.5857 51.6971 94.3307 51.5142C94.2389 51.4472 94.1929 51.2234 94.2205 51.0911C94.4042 50.2417 95.2931 49.6715 96.2652 49.7588C97.0866 49.8309 97.8014 50.5812 97.8693 51.4021C97.9259 52.0913 97.6429 52.6352 97.2129 53.1222C96.9285 53.442 96.6125 53.7328 96.2367 54.1127Z" fill="#F15A2B"/>
<path d="M99.4446 51.8077L99.2011 52.2267L98.1794 51.4108C98.6154 50.8765 98.9737 50.2747 99.4882 49.8745C99.7639 49.6609 100.308 49.7881 100.729 49.7877C100.762 49.7877 100.825 49.9912 100.825 50.1006C100.831 51.7264 100.825 53.3523 100.833 54.9782C100.833 55.2511 100.735 55.3687 100.466 55.3522C100.346 55.3421 100.225 55.3429 100.105 55.3544C99.7069 55.4031 99.5773 55.2322 99.5884 54.839C99.6118 54.012 99.5966 53.1851 99.5944 52.3549C99.5944 52.1946 99.5787 52.0333 99.57 51.8739L99.4446 51.8077Z" fill="#F15A2B"/>
<path d="M78.1914 29.182L75.8618 31.7088C74.6762 32.9952 73.4846 34.2765 72.309 35.5716C72.0646 35.8403 71.8037 35.9602 71.4403 35.9465C70.8711 35.9244 70.3006 35.9405 69.6414 35.9405C69.7447 36.1615 69.8053 36.308 69.8788 36.4458C71.0631 38.6814 72.2676 40.9068 73.4303 43.1533C74.8232 45.8386 75.5816 48.732 76.1315 51.6861C76.646 54.4504 76.8955 57.2409 76.7632 60.0512C76.5597 64.3591 75.5963 68.4433 72.8584 71.9073C70.6474 74.7038 67.8383 76.8011 64.72 78.488C61.9265 79.9995 58.9502 80.9864 55.7947 81.3773C51.3929 81.9222 47.1831 81.1701 43.153 79.3715C39.3401 77.6694 36.0179 75.2763 33.3199 72.0824C31.3087 69.7008 30.2453 66.8643 29.6655 63.8299C29.2459 61.6058 29.1011 59.3386 29.2346 57.0792C29.5589 51.3094 30.8328 45.7973 33.7678 40.7432C34.5993 39.3112 35.3471 37.831 36.1313 36.3719C36.2071 36.2313 36.2691 36.0829 36.3665 35.8711C35.6774 35.8711 35.06 35.8955 34.4481 35.8587C34.2184 35.8445 33.9327 35.7494 33.7825 35.5886C31.8131 33.4872 29.863 31.3674 27.9093 29.2514C27.8909 29.2311 27.8854 29.1994 27.8413 29.0998C28.2984 29.0998 28.7247 29.0998 29.1515 29.0998C30.1009 29.0961 31.051 29.0916 32.0019 29.0864C35.6963 29.0699 39.3911 29.0607 43.0854 29.029C43.4947 29.0253 43.5944 29.1563 43.5907 29.5426C43.5673 31.5485 43.577 33.5547 43.5499 35.561C43.5457 35.8661 43.4438 36.1821 43.3307 36.4711C41.869 40.1984 40.4973 43.9546 39.3649 47.799C38.589 50.4333 38.5348 53.1071 38.6409 55.8112C38.7121 57.6222 38.8812 59.4176 39.3061 61.1809C39.974 63.953 41.0876 66.4982 43.2324 68.4691C45.2702 70.3412 47.5846 71.7424 50.3823 72.0626C53.4463 72.4132 56.492 72.3874 59.3471 70.938C63.4921 68.8348 65.8207 65.3901 66.767 60.9227C67.4519 57.6711 67.6177 54.3316 67.2581 51.0282C67.0573 49.1492 66.4822 47.2858 65.885 45.4784C64.89 42.466 63.7355 39.506 62.6652 36.5198C62.5254 36.1417 62.4479 35.7434 62.4355 35.3405C62.4079 33.4109 62.4208 31.4814 62.4075 29.5486C62.4052 29.2638 62.441 29.1053 62.7888 29.1062C67.8726 29.1203 72.9553 29.1284 78.037 29.1305C78.0637 29.1287 78.0903 29.1466 78.1914 29.182Z" fill="#F15A2B"/>
</svg>
