<svg width="205" height="66" viewBox="0 0 205 66" fill="none" xmlns="http://www.w3.org/2000/svg">
<path d="M85.9685 65.7453C81.4347 62.2381 75.7138 60.6533 70.4014 60.8278C68.825 60.8877 67.2804 61.3026 65.8824 62.0416C64.4844 62.7806 63.2689 63.8248 62.326 65.0965C60.2222 60.7349 55.6349 58.0279 48.2581 58.0369C36.3179 58.0605 24.0674 63.6259 14.6937 63.5341C5.70654 63.4553 -0.426132 57.5939 0.543864 47.2783C2.25133 29.1936 18.3164 13.022 29.9643 5.78526C36.6645 1.62164 42.1074 0.421342 45.5767 0.855621C48.1003 1.16773 50.9512 4.22795 48.6979 8.66421C45.3841 15.185 41.4806 14.5977 41.8623 11.4748C42.0905 9.44498 43.5001 8.176 44.538 7.48922C45.2048 7.04355 46.3091 6.93736 46.8925 6.91786C47.4851 6.43857 48.1846 2.86232 43.5188 4.00239C38.853 5.14246 33.0068 9.71785 27.3289 15.6245C21.651 21.5311 12.6291 32.7558 9.74833 44.5773C8.39787 50.0651 8.28907 60.076 20.9553 60.0785C31.6994 60.0766 48.0587 52.9398 62.5997 53.2108C68.2445 53.3146 73.0483 54.9188 76.6952 57.3856C80.2982 59.8219 84.5602 63.3334 85.9796 65.7292M91.8274 32.9711L94.0284 32.9909C94.0284 32.9909 81.801 49.2705 75.6278 48.4732C72.1849 48.0306 73.5284 43.6247 73.5284 43.6247C73.5284 43.6247 68.2051 49.4628 63.823 48.2464C59.8309 47.1403 62.9662 40.2047 62.9662 40.2047C62.4889 40.3988 52.9351 50.5267 46.9354 48.0208C40.6529 45.4077 44.6291 36.8824 46.0505 34.3419C47.252 32.1861 48.5556 30.0745 48.5556 30.0745C48.5556 30.0745 47.5411 30.3618 46.9194 30.5003C46.2977 30.6387 45.3461 30.8183 45.3461 30.8183C45.3461 30.8183 41.8986 35.907 39.8416 38.4487C37.7846 40.9903 29.1806 49.6992 24.631 47.9033C20.0814 46.1073 21.7245 39.3856 24.742 34.0487C29.6523 25.403 40.5759 14.8247 46.5562 16.4739C52.5947 18.1456 46.7396 28.386 46.7396 28.386C46.7396 28.386 47.9506 28.5558 51.0454 26.5269C55.5017 23.5875 61.6646 15.6511 67.641 16.6384C70.4464 17.1017 72.8824 20.1173 68.8348 25.7811C67.5387 27.601 65.48 29.218 64.1041 27.5887C63.2602 26.5841 64.2039 24.7571 65.2525 23.5106C66.7732 21.7457 68.6388 22.0018 68.6388 22.0018C68.6388 22.0018 69.8116 19.6449 67.2787 19.6737C65.2149 19.6987 59.6446 24.5785 56.3468 29.5367C53.3132 34.0844 48.6634 41.8362 52.6327 43.5706C56.2814 45.1628 64.0736 36.496 67.7267 31.9448C71.3797 27.3937 79.6823 17.0859 86.0334 16.721C88.2232 16.5995 89.3784 18.6486 89.3784 18.6486L90.1963 17.4706L96.5141 17.528C96.5141 17.528 83.0999 37.8857 82.0418 39.4225C81.2231 40.6356 80.0514 43.3525 82.8607 41.841C85.6701 40.3295 91.826 32.9731 91.826 32.9731M42.9033 30.4494C41.7872 30.078 40.7286 29.5529 39.758 28.8892C38.8238 28.2034 38.0873 27.2825 37.6227 26.2189C37.5811 26.1128 37.5106 26.1974 37.4386 26.2841C37.3667 26.3707 37.0162 26.8073 34.5052 30.1858C31.9941 33.5642 28.1426 40.5192 31.1899 41.7442C33.1393 42.5218 36.7753 38.9267 38.7708 36.5502C40.2852 34.6937 41.693 32.7526 42.9875 30.7365C43.0929 30.5336 43.0118 30.4802 42.9009 30.4359M46.2093 19.5763C44.6458 18.277 40.1859 21.2554 39.9507 24.3375C39.6948 27.5002 43.4715 28.4359 43.9603 28.4635C44.0756 28.4987 44.1996 28.4932 44.3117 28.4478C44.4239 28.4024 44.5172 28.32 44.5763 28.2142C45.1046 27.3154 45.5813 26.3874 46.0042 25.4347C46.6998 23.863 47.6666 20.799 46.2133 19.5791M77.1783 36.9217C79.9989 33.3484 87.971 20.7861 87.971 20.7861C87.971 20.7861 87.9226 19.9033 87.1059 19.8589C86.1278 19.8003 84.4924 20.1228 80.9495 24.2516C77.4066 28.3804 74.6659 31.6855 72.5833 35.1061C70.3005 38.8448 69.2369 41.4824 70.322 42.212C70.6874 42.4135 71.1172 42.465 71.5213 42.3559C72.2877 42.1665 73.3273 41.4007 74.7915 39.8193C75.4766 39.0835 76.2603 38.0866 77.1783 36.9217ZM107.047 17.6347L101.039 17.5817L97.2316 23.2015L103.239 23.2545L107.047 17.6347ZM182.743 60.4141C182.449 60.4104 182.157 60.4655 181.884 60.5762C181.611 60.6869 181.362 60.8509 181.153 61.0587C180.717 61.468 180.452 62.0263 180.41 62.6215C180.384 62.9114 180.416 63.2033 180.504 63.4799C180.593 63.7565 180.736 64.0123 180.925 64.232C181.11 64.4454 181.339 64.6157 181.596 64.731C181.854 64.8463 182.134 64.9037 182.416 64.8994C182.71 64.9033 183.003 64.8488 183.276 64.739C183.549 64.6292 183.799 64.4662 184.009 64.2595C184.458 63.8428 184.729 63.2693 184.766 62.659C184.796 62.3728 184.765 62.0838 184.675 61.8112C184.584 61.5386 184.437 61.2887 184.243 61.0782C184.059 60.8626 183.83 60.6906 183.571 60.5744C183.313 60.4582 183.032 60.4007 182.749 60.406M185.119 62.6608C185.075 63.3654 184.761 64.0271 184.242 64.5071C183.998 64.7515 183.709 64.9452 183.39 65.0768C183.072 65.2084 182.731 65.2753 182.387 65.2737C182.059 65.2771 181.735 65.2095 181.437 65.0756C181.138 64.9417 180.872 64.7446 180.658 64.4978C180.433 64.2484 180.263 63.9542 180.16 63.6343C180.057 63.3143 180.022 62.9759 180.057 62.6408C180.076 62.2941 180.164 61.9545 180.316 61.6418C180.468 61.329 180.68 61.0494 180.941 60.8195C181.18 60.5783 181.466 60.3878 181.78 60.2596C182.095 60.1314 182.431 60.068 182.77 60.0734C183.099 60.0704 183.425 60.1385 183.725 60.273C184.025 60.4075 184.292 60.6053 184.508 60.8529C184.733 61.0972 184.903 61.3868 185.008 61.7024C185.112 62.0181 185.149 62.3528 185.115 62.6843M183.282 62.1093C183.297 62.0308 183.291 61.9497 183.264 61.8746C183.237 61.7995 183.191 61.7332 183.129 61.6827C182.946 61.5998 182.746 61.5627 182.546 61.5745L182.118 61.5743L182.042 62.6145L182.486 62.6258C182.643 62.6306 182.801 62.6106 182.952 62.5666C183.042 62.5311 183.119 62.4698 183.174 62.3907C183.229 62.3115 183.259 62.218 183.261 62.1218M181.64 61.2335L182.614 61.242C182.868 61.2361 183.121 61.2712 183.363 61.3461C183.474 61.4095 183.567 61.5001 183.634 61.6095C183.701 61.7189 183.739 61.8436 183.745 61.9721C183.751 62.1005 183.725 62.2286 183.668 62.3443C183.612 62.4601 183.527 62.5598 183.422 62.6343C183.301 62.711 183.165 62.7615 183.024 62.7825C183.115 62.7885 183.204 62.8165 183.282 62.8639C183.36 62.9114 183.425 62.977 183.472 63.0553C183.55 63.1926 183.59 63.3482 183.587 63.5063L183.573 63.71C183.568 63.7721 183.576 63.8458 183.57 63.9187C183.563 63.9915 183.56 64.0482 183.575 64.068L183.59 64.1108L183.142 64.0967L183.144 64.0684C183.13 64.0587 183.13 64.0587 183.133 64.0371L183.129 63.9452L183.147 63.7111C183.169 63.3853 183.104 63.156 182.93 63.0619C182.764 62.9899 182.583 62.9589 182.402 62.9716L182.014 62.9693L181.928 64.0971L181.437 64.0945L181.64 61.2335ZM196.443 8.32093C191.795 11.2133 185.433 13.8182 179.571 13.1719C177.964 14.7605 176.219 16.5839 174.469 18.5814C184.571 20.7498 194.017 14.2997 199.208 8.7795C201.097 6.79892 202.751 4.60693 204.139 2.24738C201.808 4.55344 199.226 6.59076 196.443 8.32093ZM175.344 56.0455C174.396 57.4483 173.223 60.1165 176.16 58.4679C179.726 56.4663 185.162 48.9044 185.162 48.9044L187.358 48.9235C185.117 52.0817 182.662 55.0813 180.008 57.9007C176.245 61.8199 171.765 65.3722 168.796 64.9947C165.358 64.5461 166.793 59.854 166.793 59.854C166.793 59.854 161.395 65.26 157.992 64.8416C153.381 64.2773 155.229 58.3749 155.229 58.3749C155.229 58.3749 149.485 64.9808 145.923 64.7348C140.321 64.3574 142.253 57.3137 144.173 52.3998C145.197 49.7677 146.134 47.6866 146.134 47.6866C146.134 47.6866 145.568 47.8341 144.358 48.0088C143.729 48.089 142.582 48.1418 142.582 48.1418C142.582 48.1418 139.939 52.3732 137.88 54.9134C135.821 57.4536 127.224 66.1789 122.66 64.3698C118.463 62.6998 120.398 55.9053 123.311 50.516C127.567 42.6545 138.736 31.4001 144.599 32.9326C150.662 34.5264 143.78 46.0758 143.78 46.0758C143.781 46.0902 143.787 46.104 143.796 46.1153C143.805 46.1268 143.816 46.1353 143.83 46.1401C143.958 46.1935 144.272 46.227 145.032 46.0841C145.822 45.9319 146.597 45.7075 147.347 45.4135C147.347 45.4135 154.534 32.084 162.047 23.3897C169.561 14.6953 184.364 -0.271052 189.474 3.42588C190.72 4.33237 189.9 7.41834 187.859 11.1496C187.045 11.4061 186.217 11.6167 185.38 11.7804C186.724 9.58638 187.657 7.71933 187.972 6.43585C189.109 1.91041 178.144 11.3581 170.058 21.558C165.177 27.7039 160.767 34.2088 156.863 41.017C158.257 40.1956 159.593 39.2789 160.862 38.2735C163.411 36.3025 166.96 33.2078 170.837 29.4093C173.884 26.4578 176.763 23.3377 179.461 20.0638C180.263 20.0269 181.049 19.9493 181.823 19.839C178.868 23.5542 175.682 27.0795 172.285 30.3941C169.141 33.413 165.724 36.6584 162.789 39.0236C160.176 41.1533 157.432 43.1161 154.574 44.9002C154.574 44.9002 147.175 58.1391 150.6 59.0326C152.623 59.5466 157.128 53.173 157.128 53.173C157.128 53.173 163.03 44.9244 166.501 41.2125C171.213 36.1701 175.188 33.2613 178.937 33.2193C181.114 33.2015 182.232 35.5986 182.232 35.5986L183.377 33.9828L189.693 34.0388C189.693 34.0388 176.4 54.5019 175.342 56.0441M140.416 47.6296C139.406 47.1242 138.473 46.4767 137.646 45.7067C136.813 44.9329 136.137 44.004 135.657 42.9712C135.598 42.8683 135.539 42.9457 135.471 43.0351C135.403 43.1245 135.132 43.349 132.609 46.7313C130.086 50.1136 126.134 57.1081 129.181 58.3331C131.143 59.1014 134.74 55.5361 136.736 53.1596C138.094 51.4941 139.349 49.7465 140.493 47.9267C140.593 47.723 140.511 47.6716 140.401 47.6341M144.018 41.9146C144.71 40.3522 145.677 37.2829 144.223 36.065C142.659 34.7568 138.214 37.7396 137.965 40.8241C137.708 43.9888 140.605 45.439 141.308 45.6423C141.718 45.7577 141.856 45.7465 142.08 45.403C142.807 44.2872 143.455 43.1215 144.018 41.9146ZM180.603 37.8973C180.696 37.7613 180.771 37.6135 180.826 37.4579C180.826 37.4579 180.779 36.5676 179.962 36.5286C178.989 36.4708 177.636 36.654 173.859 40.6054C170.715 43.8634 167.959 47.4768 165.649 51.3719C163.368 55.1155 162.351 57.9037 163.443 58.6355C163.811 58.8309 164.24 58.8769 164.642 58.7638C165.44 58.5878 166.369 57.8459 167.834 56.2624C168.529 55.5214 169.3 54.4655 170.226 53.294C172.757 50.0746 179.304 39.9468 180.598 37.9053M196.421 8.33207C191.773 11.2244 185.411 13.8293 179.549 13.183C177.941 14.7716 176.197 16.595 174.447 18.5925C184.549 20.761 193.994 14.3108 199.185 8.79061C201.074 6.81003 202.729 4.61804 204.116 2.25849C201.785 4.56455 199.204 6.60189 196.421 8.33207ZM167.046 15.7139C162.379 13.1176 159.078 9.96497 155.528 7.98407C152.144 6.09166 149.918 5.30894 147.055 5.66398C146.649 5.73287 146.247 5.83036 145.854 5.9557C145.854 5.9557 146.954 11.1134 140.488 19.7033C133.938 28.4134 128.595 28.3261 127.241 25.8867C125.838 23.327 128.267 18.1662 132.046 13.5867C136.004 8.80481 142.623 4.85532 142.623 4.85532C142.623 4.85532 140.693 3.56886 135.528 6.41086C130.497 9.18278 121.678 15.7979 113.14 27.023C104.602 38.2482 102.618 44.4449 101.152 49.3209C99.6858 54.1969 100.318 59.4314 105.588 59.4885C110.858 59.5456 117.592 51.3228 119.535 48.4558C123.139 43.1285 125.853 34.9379 121.387 36.0326C119.193 36.5674 117.254 39.0069 115.991 41.363C115.183 42.8731 114.532 44.4619 114.048 46.1042C114.048 46.1042 112.18 46.7578 109.586 48.618C108.054 49.7171 106.613 50.939 105.278 52.2716C105.278 52.2716 105.572 48.3639 109.063 42.0642C112.555 35.7645 118.337 32.9178 121.51 32.6826C124.365 32.4652 127.868 34.983 124.078 44.0982C120.289 53.2134 110.225 64.234 100.52 64.2955C91.5551 64.3508 86.5568 52.5429 100.512 32.1541C115.957 9.59878 132.657 2.78434 137.976 2.04736C143.295 1.31038 144.819 3.71335 144.819 3.71335C148.025 2.4155 151.48 1.863 154.923 2.09759C161.306 2.60991 165.937 7.31278 172.223 10.6473C170.386 12.3409 168.638 14.0724 167.056 15.7032M143.849 6.58545C143.849 6.58545 139.979 8.09719 135.262 12.999C130.544 17.9008 127.592 23.4462 129.374 24.945C130.044 25.5111 131.694 25.6144 134.93 22.8462C137.447 20.6889 140.071 17.8493 141.99 13.7925C144.308 8.9055 143.846 6.65429 143.848 6.59963" fill="white"/>
</svg>
