<svg width="181" height="83" viewBox="0 0 181 83" fill="none" xmlns="http://www.w3.org/2000/svg">
<g clip-path="url(#clip0_102_988)">
<path d="M20.0654 9.49487C20.6653 9.61366 21.1801 9.94175 21.7381 10.1645C23.2456 10.7662 24.7425 11.3962 26.2528 11.9909C27.644 12.5389 29.0409 13.0734 30.447 13.5818C32.2112 14.2182 33.9803 14.8454 35.7814 15.3764C37.2931 15.8219 38.8027 16.2737 40.3513 16.5749C40.6839 16.6393 41.0285 16.676 41.3589 16.7291C41.9014 16.816 42.4417 16.9412 42.9898 17.0161C43.1635 17.0402 43.3514 17.0953 43.5117 17.0543C43.7067 17.0041 43.8357 17.1088 43.996 17.1427C44.4058 17.2283 44.8256 17.3251 45.2397 17.3188C45.6269 17.3131 45.9842 17.4418 46.3636 17.4468C46.9189 17.4574 47.4731 17.5025 48.0228 17.5818C48.661 17.6702 49.3048 17.7056 49.9437 17.7812C50.3635 17.8307 50.7847 17.8753 51.2059 17.8993C52.8793 17.9941 54.5534 18.0662 56.2304 18.0718C58.0676 18.0768 59.9034 18.0428 61.7207 17.7501C62.193 17.6744 62.6858 17.6087 63.1198 17.3909C63.4034 17.2495 63.687 17.1265 63.9777 17.0119C64.0756 16.9723 64.1905 16.8436 64.2855 16.9412C64.3805 17.0388 64.2756 17.1597 64.2458 17.2693C64.0827 17.8639 63.6828 18.3094 63.275 18.74C62.0817 20.0022 60.5806 20.8125 59.0383 21.5592C57.472 22.3084 55.8283 22.8848 54.1365 23.2781C52.8169 23.5928 51.4852 23.6515 50.1387 23.6147C49.5715 23.5991 49.0269 23.5001 48.4419 23.3736C48.7404 24.1514 49.0092 24.8924 49.307 25.6193C49.5247 26.1468 49.7033 26.6969 49.865 27.2329C50.0813 27.9463 50.2515 28.6866 50.406 29.4248C50.5322 30.0287 50.623 30.6417 50.7818 31.2371C51.0591 32.2765 51.1364 33.3534 51.2151 34.4041C51.3321 36.0071 51.3661 37.627 51.2059 39.2434C51.0875 40.4398 50.9222 41.6235 50.7046 42.8057C50.5195 43.8239 50.1983 44.7976 49.8842 45.7755C49.246 47.7723 48.2533 49.6008 47.1592 51.3778C45.7267 53.7174 44.0134 55.8741 42.0574 57.8002C40.8078 59.0256 39.4446 60.1301 37.9859 61.0988C36.7804 61.9013 35.4956 62.5342 34.1682 63.0836C32.955 63.5863 31.6786 63.9179 30.4264 64.3125C30.3016 64.3521 30.1478 64.3429 30.057 64.4765C31.8932 64.3825 33.714 64.0931 35.4885 63.6132C37.1953 63.1642 38.8871 62.6622 40.5116 61.9657C41.7028 61.4559 42.9168 60.9864 44.047 60.3514C44.6143 60.0332 45.2064 59.7617 45.7488 59.3742C46.1629 59.0779 46.6706 58.8566 47.1337 58.5964C48.1682 58.0215 49.1446 57.3541 50.1018 56.6682C50.8698 56.1174 51.6852 55.6075 52.3673 54.9627C52.9885 54.373 53.7507 53.965 54.323 53.3081C54.5804 53.0118 54.9718 52.8011 55.2809 52.5155C55.9865 51.8642 56.7438 51.2611 57.3777 50.5441C58.0811 49.7479 58.893 49.055 59.5382 48.2036C59.9495 47.6606 60.4501 47.1861 60.8762 46.653C61.3726 46.0343 61.798 45.3611 62.3072 44.7545C63.0871 43.8246 63.7622 42.8227 64.4011 41.8003C64.9364 40.9447 65.4739 40.0884 65.9787 39.2109C66.7694 37.8356 67.5479 36.4533 68.2478 35.0327C68.6427 34.2295 69.0221 33.4156 69.3497 32.5841C69.5092 32.1782 69.6489 31.7356 69.8241 31.3587C70.0999 30.7655 70.375 30.1651 70.6225 29.5592C71.1351 28.3069 71.5542 27.0186 71.9641 25.7296C72.2477 24.8337 72.5313 23.9322 72.7256 23.0151C72.9199 22.098 73.1369 21.1689 73.2567 20.2313C73.4694 18.5703 73.6311 16.908 73.4425 15.2329C73.2829 13.8187 73.0525 12.4215 72.4725 11.0964C72.1422 10.3664 71.758 9.66187 71.323 8.98859C71.1394 8.69586 70.8607 8.46252 70.6324 8.19736C69.5986 6.99531 68.2542 6.27055 66.8147 5.67377C65.8823 5.2877 64.9123 5.11729 63.9224 4.96174C62.1696 4.68597 60.4104 4.63293 58.6469 4.70011C57.2373 4.75385 55.8234 4.78213 54.4201 4.96103C53.421 5.0883 52.417 5.17952 51.42 5.31457C50.7378 5.39857 50.0603 5.51657 49.3899 5.66811C49.2261 5.70771 49.0446 5.67377 48.8227 5.67377C49.0446 5.46164 49.3077 5.41002 49.5225 5.35275C50.8031 5.01193 52.1014 4.739 53.3806 4.39394C53.7975 4.28152 54.24 4.30484 54.6335 4.13302C55.1661 3.89968 55.7539 4.00363 56.3055 3.81201C56.597 3.7109 56.9969 3.76251 57.3273 3.68756C58.1747 3.49524 59.0397 3.52493 59.892 3.41392C60.772 3.29937 61.6569 3.28311 62.5419 3.25058C63.4268 3.21805 64.3145 3.24492 65.1995 3.27745C66.2929 3.31775 67.3749 3.46483 68.4612 3.6119C69.3646 3.73564 70.2431 3.95272 71.1195 4.18394C73.7864 4.89103 76.1767 6.08176 78.1025 8.10544C78.7047 8.74931 79.2644 9.43143 79.7781 10.1475C80.1496 10.6552 80.39 11.2598 80.6772 11.8268C81.3153 13.0847 81.6465 14.4346 81.8975 15.8127C82.0939 16.8945 82.0875 17.9827 82.1272 19.0731C82.1442 19.5412 82.0875 20.0107 82.0563 20.4604C82.0075 21.003 81.9277 21.5425 81.8174 22.0761C81.5188 23.7231 81.0879 25.3435 80.529 26.9217C79.5483 29.644 78.272 32.2291 76.8148 34.735C75.5718 36.8733 74.1246 38.8637 72.5965 40.8011C71.3911 42.3306 70.0708 43.761 68.7356 45.178C67.7167 46.2592 66.6538 47.2929 65.5746 48.3118C64.7996 49.043 63.9862 49.7338 63.202 50.4543C62.5071 51.0907 61.7782 51.6945 61.0379 52.2708C59.5815 53.4057 58.108 54.5243 56.5814 55.5687C55.3703 56.3974 54.145 57.2053 52.9055 57.9926C52.2191 58.4267 51.5235 58.8411 50.8223 59.2554C48.8404 60.4172 46.7968 61.4636 44.7448 62.4925C43.2352 63.2483 41.6709 63.8847 40.1032 64.5084C38.105 65.3024 36.0614 65.9621 34.0101 66.6063C32.7912 66.9895 31.5382 67.2533 30.2917 67.5368C29.5372 67.7086 28.7693 67.8288 28.0227 68.0063C27.2973 68.1789 26.5584 68.2312 25.8337 68.386C25.365 68.4857 24.8694 68.4914 24.3865 68.5324C23.0839 68.6399 21.78 68.7106 20.4738 68.7063C19.6591 68.7014 18.843 68.736 18.0318 68.6717C17.4851 68.6279 16.9334 68.5564 16.386 68.4829C15.684 68.3882 14.9927 68.2545 14.2999 68.1166C13.5655 67.9724 12.8397 67.7876 12.1259 67.563C11.1046 67.2418 10.1091 66.8442 9.14778 66.3737C7.92108 65.7705 6.72841 65.0783 5.67898 64.2043C4.99614 63.6386 4.30054 63.061 3.73753 62.3475C3.305 61.8002 2.81574 61.2869 2.46758 60.6866C1.98044 59.8458 1.51742 58.9895 1.19124 58.0661C0.986321 57.487 0.758708 56.9185 0.593494 56.3238C0.484296 55.9314 0.461605 55.5298 0.367298 55.138C0.300645 54.8602 0.251009 54.5794 0.138266 54.3164C0.0673588 54.1538 0.195701 54.0131 0.162375 53.8476C-0.0702021 52.6901 0.0205598 51.5142 0.0141781 50.3489C0.0141781 49.7274 0.171592 49.1073 0.208464 48.4836C0.247463 47.8218 0.499185 47.2038 0.554493 46.5498C0.634619 45.6129 1.03028 44.7672 1.31959 43.8925C1.69965 42.7414 2.11375 41.6044 2.66328 40.5148C2.97528 39.8968 3.3362 39.2993 3.5943 38.6573C3.80702 38.1291 4.14738 37.6857 4.4303 37.2042C4.97416 36.28 5.63076 35.4322 6.22001 34.5392C6.63056 33.9177 7.0709 33.3103 7.51336 32.7184C7.84308 32.2786 8.18131 31.8169 8.60321 31.4301C9.02511 31.0433 9.39099 30.5745 9.75049 30.1178C9.98732 29.8158 10.2468 29.5302 10.5042 29.2551C11.4537 28.244 12.389 27.2173 13.4114 26.2747C14.0695 25.6674 14.7984 25.1279 15.4025 24.4724C15.828 24.0092 16.3378 23.6331 16.8065 23.2548C17.4227 22.7598 17.9843 22.1736 18.6841 21.7699C18.9645 21.6193 19.209 21.4102 19.401 21.1569C19.5258 20.9822 19.7633 20.9497 19.9108 20.8132C20.6426 20.1316 21.4935 19.6041 22.2699 18.9804C23.0464 18.3568 23.8107 17.7494 24.6389 17.2127L24.6808 17.2721C23.6172 18.4035 22.5316 19.5157 21.5396 20.7114C20.3455 22.1517 19.1472 23.5871 18.0651 25.1215C17.0206 26.6064 16.0052 28.104 15.0905 29.6695C14.1049 31.3559 13.1952 33.0812 12.4535 34.8892C12.0124 35.964 11.5508 37.0338 11.2183 38.1474C10.7609 39.6825 10.3256 41.2261 10.0979 42.8142C9.85331 44.5233 9.70511 46.2386 9.79729 47.9654C9.84693 48.9001 9.90862 49.8363 10.0745 50.7583C10.2107 51.5135 10.3461 52.2758 10.5837 53.0019C10.7794 53.5994 10.9744 54.204 11.2275 54.7887C11.4345 55.2667 11.6161 55.7631 11.855 56.2284C12.5251 57.5365 13.3661 58.735 14.419 59.7589C15.4149 60.7407 16.55 61.5714 17.7879 62.2245C18.946 62.8332 20.1643 63.3204 21.4233 63.6782C21.8835 63.8083 22.3337 63.9788 22.7968 64.082C23.213 64.1746 23.6207 64.3083 24.0426 64.3733C24.2901 64.4108 24.539 64.2319 24.7297 64.2375C25.0431 64.251 25.297 64.1485 25.5636 64.065C26.7686 63.6818 27.9314 63.1772 29.0338 62.5589C29.8239 62.1293 30.586 61.6503 31.3156 61.125C32.1778 60.4971 32.9209 59.7369 33.6711 58.9853C34.6084 58.0337 35.4302 56.9754 36.1196 55.8324C36.372 55.4202 36.6507 55.015 36.8549 54.5596C37.0159 54.1976 37.2888 53.8398 37.4597 53.4573C37.9178 52.4356 38.3964 51.4195 38.7361 50.3497C38.8399 49.999 38.92 49.6419 38.9757 49.2805C39.0112 49.0741 39.1963 48.8202 39.2594 48.5819C39.4607 47.7822 39.7004 46.9768 39.7557 46.1623C39.782 45.7918 39.9762 45.4552 39.9032 45.0352C39.8585 44.7778 39.9833 44.3769 40.0791 44.0488C40.1783 43.7073 40.1705 43.3417 40.2095 42.9882C40.2563 42.5639 40.2996 42.1397 40.3343 41.7154C40.4527 40.2963 40.5421 38.8715 40.4173 37.4488C40.335 36.5204 40.2265 35.592 40.0074 34.6834C39.8543 34.0471 39.7238 33.4057 39.5033 32.7743C39.3423 32.3211 39.2509 31.8148 39.1076 31.3361C38.8531 30.4876 38.4638 29.6914 38.1426 28.8691C37.8414 28.073 37.486 27.2983 37.079 26.5505C36.445 25.4135 35.8204 24.273 35.0936 23.1862C34.5582 22.3858 34.064 21.5542 33.4676 20.7977C32.8713 20.0411 32.231 19.3036 31.5801 18.5781C31.1546 18.1065 30.7384 17.6285 30.264 17.2141C29.6798 16.7036 29.1075 16.1775 28.507 15.6819C27.7979 15.0943 27.0243 14.5951 26.3039 14.0238C25.8713 13.6808 25.375 13.4008 24.9431 13.0628C23.8668 12.232 22.7393 11.474 21.6502 10.6587C21.1234 10.267 20.554 9.93184 20.064 9.48992L20.0654 9.49487Z" fill="#F15A2B"/>
<path d="M111.528 82.1528V81.7745C111.528 73.7486 111.525 65.7229 111.521 57.6975C111.521 57.3906 111.577 57.2867 111.915 57.2881C115.4 57.3037 118.884 57.2994 122.369 57.3015C123.229 57.3015 124.065 57.4635 124.905 57.6325C125.619 57.7739 126.263 58.0772 126.899 58.4046C128.523 59.239 129.435 60.5746 129.755 62.3579C129.869 62.9943 129.949 63.6392 129.925 64.26C129.887 65.0654 129.688 65.8551 129.34 66.5828C128.357 68.6729 126.676 69.9131 124.485 70.5184C122.35 71.1074 120.163 71.2495 117.961 71.2326C117.49 71.2326 117.49 71.2283 117.49 71.6879C117.49 75.0296 117.486 78.372 117.497 81.7137C117.497 82.0072 117.442 82.0871 117.135 82.0517C115.308 81.8396 113.482 81.8983 111.658 82.1111C111.613 82.1212 111.57 82.1351 111.528 82.1528ZM117.49 64.2593C117.49 65.8248 117.49 67.3905 117.49 68.9565C117.49 69.0873 117.406 69.2817 117.68 69.2732C119.137 69.228 120.573 69.1445 121.833 68.2522C122.6 67.7127 123.156 67.0558 123.44 66.1649C123.728 65.2492 123.756 64.3123 123.643 63.3698C123.488 62.0857 123.061 60.9211 122.041 60.0521C121.403 59.5112 120.702 59.1576 119.819 59.234C119.149 59.2927 118.472 59.2849 117.8 59.2814C117.552 59.2814 117.487 59.3486 117.489 59.5953C117.499 61.1516 117.493 62.7058 117.493 64.2593H117.49Z" fill="#F15A2B"/>
<path d="M103.897 82.0391C103.314 82.0235 102.791 82.0271 102.266 81.962C101.161 81.8255 100.051 81.8913 98.9579 82.0483C98.4615 82.119 97.9574 81.9952 97.4688 82.172C97.1852 82.276 97.0576 82.0794 96.9937 81.8319C96.6711 80.5917 96.1825 79.4066 95.7748 78.1947C95.387 77.0435 94.9076 75.9228 94.468 74.7893C94.3971 74.6147 94.2943 74.5376 94.0808 74.5397C91.1632 74.5704 88.2456 74.5916 85.328 74.6034C85.138 74.6034 85.0529 74.6507 84.977 74.8459C84.3034 76.5712 83.5724 78.2753 82.9916 80.0352C82.8075 80.5966 82.6553 81.1679 82.5357 81.7463C82.4825 82.0066 82.3655 82.0292 82.1521 82.0207C81.7039 81.9959 81.2487 81.933 80.8048 81.9846C80.0958 82.0674 79.3817 81.9521 78.6776 82.0815C78.5819 82.0992 78.4542 82.1261 78.5514 81.9062C78.7336 81.496 78.9116 81.0852 79.1059 80.6801C79.2768 80.3265 79.4115 79.9532 79.571 79.5926C79.7129 79.28 79.8426 78.9562 79.9965 78.662C80.2135 78.2498 80.3602 77.8065 80.5978 77.402C80.8105 77.0428 80.9523 76.6384 81.1126 76.2523C81.3771 75.6159 81.6926 74.9972 81.955 74.3573C82.0812 74.0497 82.2216 73.7322 82.3761 73.4282C82.5804 73.028 82.7271 72.5988 82.9434 72.2056C83.1306 71.8655 83.2072 71.4816 83.4192 71.1514C83.6149 70.848 83.7184 70.4945 83.8695 70.1664C84.0644 69.7421 84.2651 69.3179 84.4502 68.8936C84.6019 68.5401 84.7806 68.2014 84.9132 67.8394C85.033 67.5141 85.2025 67.2065 85.3457 66.889C85.5308 66.4789 85.7088 66.066 85.8946 65.6559C86.0364 65.3476 86.1725 65.0336 86.3243 64.7367C86.537 64.3195 86.671 63.8691 86.9199 63.4681C87.1326 63.1203 87.2617 62.7208 87.4163 62.346C87.6829 61.7054 88.0097 61.0916 88.2671 60.4446C88.3884 60.1364 88.533 59.8196 88.6869 59.5155C88.8847 59.1252 89.0117 58.696 89.2329 58.3213C89.4541 57.9465 89.5165 57.5017 89.7824 57.151C89.8116 57.1078 89.8533 57.0745 89.902 57.0557C89.9507 57.0368 90.004 57.0334 90.0547 57.0457C90.7 57.1326 91.3311 57.2543 91.9969 57.0619C92.199 57.0033 92.4932 57.0506 92.7428 57.0372C92.8804 57.0294 92.913 57.1199 92.9598 57.2189C93.164 57.6509 93.3477 58.095 93.5576 58.5214C93.7986 59.0121 94.017 59.5177 94.2312 60.0147C94.5063 60.6511 94.7942 61.291 95.0643 61.9338C95.2678 62.4195 95.5033 62.8961 95.7025 63.3812C95.8897 63.8344 96.1216 64.2686 96.2832 64.7345C96.4541 65.2295 96.7016 65.6969 96.9129 66.177C97.1242 66.6571 97.3454 67.1528 97.5511 67.647C97.6468 67.8818 97.7567 68.113 97.8694 68.3357C98.2835 69.1545 98.6239 70.008 98.9976 70.8424C99.3713 71.6767 99.7329 72.5259 100.095 73.3695C100.307 73.8701 100.529 74.3785 100.766 74.8735C101.05 75.466 101.297 76.0868 101.565 76.6928C101.793 77.2054 102.023 77.7202 102.243 78.2335C102.437 78.6889 102.637 79.1528 102.835 79.606C103.052 80.1052 103.239 80.6221 103.506 81.1043C103.66 81.3765 103.708 81.706 103.897 82.0391ZM93.5441 72.3873L89.9278 64.0317L86.1569 72.3873H93.5441Z" fill="#F15A2B"/>
<path d="M155.594 82.1792C156.244 80.7169 156.87 79.2872 157.514 77.866C158.105 76.5593 158.719 75.2646 159.317 73.96C159.724 73.0684 160.105 72.1661 160.509 71.2731C161.017 70.1531 161.552 69.0451 162.046 67.9194C162.513 66.8587 163.021 65.8123 163.464 64.7375C163.813 63.8975 164.23 63.0864 164.613 62.2627C164.825 61.8087 165.078 61.3675 165.217 60.8923C165.412 60.227 165.775 59.6394 166.046 59.0136C166.287 58.4571 166.519 57.8823 166.815 57.3456C166.906 57.1801 166.975 57.1377 167.178 57.161C168.039 57.2705 168.912 57.2636 169.771 57.1405C170.1 57.0896 170.138 57.3873 170.207 57.5704C170.42 58.1184 170.682 58.641 170.916 59.1769C171.116 59.6316 171.302 60.0919 171.498 60.548C171.588 60.7566 171.684 60.9638 171.778 61.1702C172.171 62.0329 172.549 62.9033 172.941 63.7659C173.229 64.4023 173.502 65.0486 173.771 65.6949C173.972 66.1764 174.196 66.6509 174.413 67.1274C174.581 67.4987 174.743 67.8769 174.903 68.2538C175.157 68.8541 175.44 69.4424 175.7 70.0385C175.974 70.6685 176.25 71.3 176.521 71.9328C176.734 72.4348 176.993 72.9227 177.186 73.4269C177.364 73.8936 177.577 74.3496 177.777 74.8015C178.003 75.3113 178.226 75.8317 178.462 76.338C178.753 76.9658 179.029 77.6107 179.299 78.2542C179.505 78.7385 179.732 79.22 179.937 79.703C180.129 80.1527 180.367 80.5854 180.514 81.0578C180.609 81.3597 180.771 81.6439 180.926 81.9225C181.023 82.0958 181.048 82.1799 180.802 82.1636C180.213 82.124 179.624 82.0929 179.036 82.0449C178.298 81.9921 177.557 81.9994 176.82 82.0668C176.214 82.1177 175.605 82.1417 174.998 82.1771C174.951 82.1771 174.903 82.1771 174.856 82.1771C174.643 82.1707 174.377 82.3362 174.228 82.1891C174.079 82.042 174.08 81.779 174.008 81.569C173.535 80.1972 173.073 78.8212 172.58 77.4559C172.264 76.5784 171.899 75.7185 171.564 74.8474C171.501 74.6812 171.415 74.6261 171.233 74.6275C168.279 74.6539 165.325 74.6732 162.369 74.6855C162.214 74.6855 162.149 74.73 162.095 74.8736C161.386 76.7325 160.56 78.5455 159.989 80.4546C159.86 80.8874 159.753 81.3272 159.657 81.7684C159.602 82.0159 159.515 82.1219 159.223 82.1156C158.269 82.0901 157.315 82.1014 156.361 82.1092C156.114 82.1127 155.861 82.1544 155.594 82.1792ZM167.02 64.128C165.777 66.8856 164.564 69.5817 163.344 72.2764C163.263 72.4553 163.268 72.5176 163.49 72.5154C165.759 72.4942 168.024 72.4744 170.291 72.4709C170.612 72.4709 170.602 72.3761 170.496 72.135C169.792 70.5323 169.095 68.9296 168.403 67.3268C167.95 66.2825 167.5 65.2381 167.02 64.128Z" fill="#F15A2B"/>
<path d="M151.841 57.3101C151.521 58.3778 151.349 58.6727 151.896 60.4164C151.267 60.4164 150.647 60.3273 150.025 60.2884C148.926 60.2177 147.834 60.0918 146.732 60.0451C145.51 59.9928 144.288 59.9568 143.066 59.9165C142.711 59.9051 142.648 60.0098 142.65 60.3407C142.667 62.6946 142.663 65.0485 142.65 67.4024C142.65 67.6732 142.711 67.7559 142.996 67.7559C145.347 67.7722 147.696 67.7906 150.042 67.5777C150.565 67.5304 151.093 67.4448 151.627 67.4915C151.544 68.1123 151.422 68.7077 151.556 69.3299C151.595 69.5137 151.574 69.7542 151.592 69.9663C151.605 70.1077 151.734 70.329 151.655 70.3806C151.524 70.4648 151.312 70.4634 151.143 70.4407C150.403 70.341 149.654 70.3538 148.919 70.2908C147.767 70.1925 146.617 70.1742 145.464 70.1614C144.649 70.1522 143.833 70.1614 143.019 70.1402C142.727 70.131 142.648 70.2067 142.649 70.5044C142.66 74.1996 142.656 77.8956 142.656 81.5908C142.656 82.1515 142.58 82.1791 142.018 82.0787C141.372 81.9611 140.718 81.8937 140.062 81.8772C139.063 81.8567 138.08 81.9663 137.098 82.0971C136.81 82.1352 136.754 82.0518 136.754 81.7768C136.762 75.2923 136.764 68.8076 136.76 62.3227C136.76 60.7452 136.76 59.1684 136.76 57.5908C136.76 57.3851 136.778 57.284 137.036 57.2847C141.927 57.2932 146.818 57.2955 151.709 57.2917C151.741 57.2974 151.776 57.3038 151.841 57.3101Z" fill="#F15A2B"/>
<path d="M72.5285 65.5711C72.5285 68.1604 72.5171 70.7498 72.5356 73.3392C72.5412 74.0788 72.5469 74.8177 72.432 75.5467C72.0662 77.8801 70.965 79.7574 68.9696 81.0874C68.4015 81.4533 67.8049 81.7732 67.1856 82.0441C65.9369 82.6147 64.6202 82.8785 63.2502 82.969C62.5323 83.0201 61.8114 83.0092 61.0953 82.9364C60.4686 82.8634 59.8509 82.7272 59.2518 82.5299C58.4888 82.2866 57.7606 81.943 57.0118 81.6545C56.9693 81.6423 56.9299 81.6214 56.896 81.5931C56.862 81.5648 56.8344 81.5298 56.8149 81.4902C56.7953 81.4507 56.7843 81.4076 56.7824 81.3635C56.7805 81.3195 56.7879 81.2755 56.804 81.2345C56.9166 80.8852 57.0022 80.5277 57.06 80.1654C57.0983 79.9426 57.1515 79.8783 57.3692 79.9851C57.8485 80.2198 58.3704 80.352 58.8837 80.4631C59.3851 80.5705 59.885 80.7084 60.4274 80.6815C60.6926 80.6688 61.0138 80.8548 61.3258 80.835C62.1944 80.7819 63.0545 80.6561 63.8225 80.2212C64.3346 79.9325 64.753 79.5033 65.0279 78.9845C65.4068 78.2897 65.6703 77.5382 65.8079 76.7593C65.9497 75.9391 66.0419 75.1189 66.0043 74.2845C65.9901 73.9678 65.9752 73.6481 65.9752 73.3328C65.9752 68.1548 65.9795 62.9761 65.9624 57.7981C65.9624 57.4064 66.0958 57.3512 66.4191 57.3887C67.6859 57.5335 68.9624 57.5761 70.236 57.516C70.8267 57.4884 71.4322 57.5414 72.013 57.3342C72.2874 57.2359 72.5292 57.4474 72.5292 57.7352L72.5285 65.5711Z" fill="#F15A2B"/>
<path d="M37.4612 0C38.946 0.0113134 40.3748 0.62294 41.6376 1.64892C43.2685 2.97542 44.4668 4.6392 45.3411 6.53136C45.8176 7.56371 46.0757 8.65263 46.024 9.81366C45.9975 10.5606 45.8118 11.2933 45.4794 11.9632C45.1284 12.6703 44.6051 13.2176 44.0364 13.7373C43.5153 14.2132 42.8544 14.3178 42.1928 14.4649C41.3356 14.6565 40.4747 14.5731 39.6359 14.4762C38.9942 14.4055 38.3709 14.117 37.7654 13.825C36.8465 13.3779 36.0201 12.7626 35.329 12.0113C34.7724 11.4142 34.2689 10.77 33.8243 10.0859C33.3102 9.2989 32.9217 8.45959 32.5338 7.61109C32.3264 7.16946 32.187 6.69913 32.1204 6.216C32.0667 5.6713 32.0648 5.12274 32.1147 4.57768C32.2254 3.1126 32.8649 1.89711 33.9647 0.971537C34.5596 0.469505 35.3545 0.264453 36.1288 0.108186C36.5139 0.0296997 36.9017 0.00777796 37.4612 0Z" fill="#F15A2B"/>
<path d="M20.0636 9.49619L19.9995 9.45518L20.0241 9.4375L20.065 9.49478L20.0636 9.49619Z" fill="#F15A2B"/>
<path d="M24.7113 17.1533L24.7917 17.1462L24.7452 17.1971L24.7113 17.1533Z" fill="#F15A2B"/>
<path d="M24.6354 17.2106L24.7112 17.1541L24.7453 17.1972L24.6744 17.2679L24.6354 17.2106Z" fill="#F15A2B"/>
</g>
<defs>
<clipPath id="clip0_102_988">
<rect width="181" height="83" fill="white"/>
</clipPath>
</defs>
</svg>
