<svg width="92" height="62" viewBox="0 0 92 62" fill="none" xmlns="http://www.w3.org/2000/svg">
<path d="M17.1164 32.0626C17.231 32.2507 17.4384 32.1464 17.6088 32.1677C17.7791 32.189 17.9564 32.1733 18.1313 32.1752C18.2133 32.1813 18.2955 32.1832 18.3777 32.1808C18.6323 32.1577 18.8859 32.1227 19.1417 32.0982C19.3597 32.0769 19.5764 32.1187 19.7912 31.9862C19.8955 31.9222 20.0847 32.005 20.2348 32.0049C20.6921 32.0048 21.1496 31.9958 21.6072 31.9928C22.135 31.9908 22.6634 31.9955 23.1909 31.987C23.873 31.974 24.5549 31.9415 25.2358 31.9329C25.5836 31.9285 25.9332 31.9765 26.2794 31.9662C26.9256 31.9473 27.5713 31.9005 28.2175 31.8722C28.4759 31.8607 28.7346 31.8665 28.9937 31.8646C29.9933 31.8631 30.9929 31.8594 31.9922 31.8639C32.2734 31.8653 32.5545 31.9034 32.836 31.9041C33.2605 31.9034 33.6838 31.8883 34.1078 31.8784C34.1903 31.8762 34.2725 31.8687 34.3548 31.8684C35.3324 31.8622 36.3076 31.8522 37.2841 31.852C37.7043 31.852 38.1249 31.8881 38.5447 31.8786C39.0388 31.8678 39.5319 31.8217 40.0253 31.799C40.1631 31.7923 40.3017 31.814 40.44 31.8135C41.1095 31.8096 41.7788 31.8053 42.4484 31.7958C42.9185 31.7893 43.3885 31.7746 43.8588 31.7632C44.6711 31.7439 45.4834 31.7223 46.2958 31.7057C46.7542 31.6962 47.213 31.6973 47.6716 31.6894C48.5535 31.6747 49.4354 31.6494 50.3166 31.6442C50.7498 31.6413 51.183 31.6714 51.6158 31.6833C51.8503 31.6908 52.0856 31.6884 52.3206 31.6923C53.6146 31.7134 54.9068 31.7895 56.2036 31.7142C56.8819 31.6747 57.5683 31.7208 58.2464 31.7725C58.7193 31.8091 59.1838 31.7875 59.6546 31.7662C60.36 31.734 61.0688 31.7538 61.7757 31.7728C62.9396 31.8041 64.1028 31.861 65.2668 31.8889C65.6534 31.8981 66.0423 31.8239 66.4281 31.8351C67.3572 31.8599 68.2853 31.8292 69.2151 31.8693C70.1352 31.909 71.0404 32.0497 71.9541 32.1236C72.6105 32.1772 73.2584 32.2976 73.9129 32.3523C74.5924 32.4094 75.2747 32.4405 75.9565 32.4508C76.4386 32.4582 76.7904 32.6544 76.9254 33.0643C77.0605 33.4742 76.8528 33.8975 76.4454 34.0794C76.0943 34.236 75.7415 34.2245 75.3736 34.1486C74.891 34.0492 74.4031 33.975 73.9166 33.8949C73.6968 33.8588 73.4682 33.858 73.255 33.7998C72.8879 33.6993 72.5218 33.6331 72.1406 33.6811C72.129 33.6827 72.1172 33.6825 72.1056 33.6804C71.516 33.5512 70.9152 33.5518 70.3169 33.5237C69.7187 33.4956 69.1289 33.3745 68.5241 33.4332C68.2818 33.4564 68.032 33.3988 67.7854 33.38C66.7055 33.2964 65.6255 33.2282 64.5458 33.3784C64.5226 33.3828 64.499 33.3851 64.4754 33.3855C63.9958 33.3699 63.5171 33.3369 63.0367 33.3417C62.2858 33.3499 61.5441 33.1656 60.784 33.2872C60.4565 33.3394 60.1056 33.2481 59.7655 33.22C59.6485 33.2103 59.5302 33.1746 59.4156 33.1846C58.309 33.2833 57.2046 33.2001 56.0995 33.1658C55.9585 33.1613 55.8183 33.1355 55.6779 33.1176C55.6079 33.1088 55.532 33.0719 55.4692 33.0881C54.8861 33.2397 54.2984 32.9965 53.7148 33.1164C53.543 33.1535 53.368 33.1745 53.1923 33.1791C53.0184 33.1818 52.844 33.1519 52.6702 33.1339C52.6001 33.1265 52.5314 33.1019 52.4613 33.1039C51.8147 33.129 51.1696 33.1584 50.5237 33.1867C50.5004 33.1879 50.4756 33.201 50.4542 33.1968C49.8108 33.0701 49.1623 33.1964 48.5156 33.1621C48.0947 33.1397 47.67 33.1855 47.2472 33.1932C46.8697 33.1996 46.4934 33.1944 46.1162 33.1972C45.987 33.1938 45.8577 33.1998 45.7294 33.2154C45.4146 33.2631 45.0943 33.2618 44.78 33.2116C44.5943 33.1859 44.4055 33.1918 44.2217 33.2291C43.5689 33.358 42.9169 33.3354 42.2604 33.2747C42.0288 33.2523 41.7952 33.2583 41.5649 33.2927C41.0643 33.3687 40.5556 33.3733 40.0539 33.3064C39.9837 33.2978 39.9065 33.2721 39.8435 33.2912C39.2519 33.471 38.6535 33.318 38.0613 33.3451C37.7565 33.3583 37.4613 33.4136 37.1523 33.3472C37.003 33.3153 36.8315 33.4059 36.6695 33.4101C36.3994 33.4164 36.1283 33.3863 35.858 33.3922C35.483 33.4002 35.108 33.4286 34.7331 33.4468C34.6858 33.4493 34.6343 33.4612 34.592 33.4471C34.0868 33.2762 33.5643 33.4176 33.0514 33.3624C32.7887 33.3341 32.517 33.4014 32.2481 33.4063C31.6869 33.4171 31.1256 33.4193 30.5643 33.4174C30.4122 33.4168 30.2599 33.389 30.1078 33.3738C30.0378 33.3668 29.9601 33.336 29.8992 33.3566C29.402 33.5231 28.8958 33.3936 28.3946 33.4117C27.9639 33.4275 27.5296 33.4827 27.1029 33.4481C26.4158 33.3921 25.7443 33.4708 25.0699 33.5654C24.9764 33.5772 24.8823 33.5832 24.7881 33.5834C23.9188 33.5954 23.0494 33.6044 22.1801 33.6175C21.4635 33.6281 20.7476 33.6202 20.0345 33.6688C19.7025 33.6913 19.3504 33.6195 19.0317 33.7947C18.9846 33.8217 18.9023 33.7923 18.8372 33.7833C18.7004 33.7648 18.5646 33.7308 18.4271 33.7237C18.2246 33.7129 18.0295 33.7449 17.8168 33.6917C17.6041 33.6385 17.3167 33.6598 17.133 33.7691C16.9281 33.8908 16.7195 33.8779 16.536 33.876C16.0814 33.8695 15.624 33.9549 15.1793 33.903C14.7966 33.8547 14.408 33.8813 14.0352 33.9814C13.9883 33.9879 13.9407 33.9857 13.8946 33.975C13.2698 33.8966 12.656 33.9968 12.0391 34.0782C11.8426 34.1036 11.6398 34.0604 11.4404 34.0642C10.9259 34.0742 10.4113 34.0932 9.89682 34.1085C9.86166 34.1092 9.82045 34.1229 9.79193 34.1091C9.44596 33.9496 9.09655 34.0693 8.75033 34.1021C8.52095 34.1239 8.29482 34.1833 8.06549 34.2017C7.94399 34.2111 7.8161 34.145 7.6947 34.1552C7.1116 34.2035 6.52132 34.1954 5.95202 34.3631C5.8973 34.3836 5.83848 34.3906 5.78052 34.3835C5.23907 34.2529 4.70071 34.2774 4.15575 34.3973C4.01602 34.4232 3.87257 34.421 3.73378 34.3907C3.33054 34.3092 2.91348 34.3265 2.51814 34.4412C2.35119 34.4891 2.15036 34.4022 1.96361 34.386C1.81834 34.3724 1.6644 34.3557 1.51779 34.3736C1.1771 34.4174 0.587752 34.1586 0.426793 33.8787C0.373915 33.7821 0.357784 33.6695 0.381384 33.5618C0.404985 33.4541 1.01148 33.3351 1.09993 33.2694C1.39078 33.0498 1.14516 32.9419 1.53331 32.987C1.72387 33.0094 1.95324 32.9121 2.12879 32.8078C2.44301 32.6209 2.78486 32.6195 3.1202 32.6069C3.7986 32.581 4.47767 32.5872 5.15726 32.5835C5.28654 32.5828 5.41583 32.5949 5.54506 32.604C5.6155 32.6085 5.68562 32.631 5.75537 32.6236C6.09047 32.5861 6.42492 32.5408 6.75933 32.4978C6.81744 32.4905 6.8794 32.4616 6.93246 32.4739C7.43546 32.5891 7.93529 32.4833 8.43745 32.4615C8.70651 32.4495 8.97657 32.4699 9.24618 32.4713C9.56402 32.4732 9.88289 32.4743 10.1995 32.469C10.2928 32.4673 10.3996 32.4643 10.4762 32.4225C10.6632 32.3178 10.8612 32.3222 11.0583 32.3251C11.7029 32.3354 12.3473 32.37 12.9916 32.3673C13.5459 32.3646 14.1 32.3155 14.6543 32.3011C15.0522 32.291 15.4458 32.2418 15.8508 32.289C16.1787 32.3294 16.5234 32.2539 16.8582 32.2099C16.9504 32.1984 17.0305 32.1139 17.1164 32.0626Z" fill="#F26837"/>
<path d="M75.8083 26.5411C75.8283 26.4731 75.8519 26.4061 75.879 26.3405C76.0204 26.0457 76.2949 25.9361 76.5845 26.0874C77.0017 26.3058 77.4534 26.2458 77.8933 26.2783C78.0454 26.2894 78.1432 26.1833 78.2299 26.0587C78.5901 25.5369 79.1021 25.5478 79.4426 26.0793C79.5612 26.2646 79.7136 26.3751 79.9337 26.4455C80.6055 26.6608 81.3033 26.6451 81.9906 26.7193C82.4689 26.7706 82.9475 26.823 83.4263 26.8662C83.8682 26.9058 84.311 26.9333 84.753 26.9669C84.8117 26.9708 84.87 26.9779 84.9278 26.9883C85.2509 27.048 85.5784 27.0801 85.907 27.0841C86.3033 27.0911 86.6972 27.1945 87.0933 27.2469C87.4315 27.2909 87.7713 27.3231 88.1105 27.3603C88.4319 27.3957 88.753 27.4363 89.0751 27.4653C89.4387 27.4983 89.8006 27.5198 90.1634 27.5454C90.5086 27.5697 90.8331 27.6814 90.9821 28.0015C91.1432 28.3473 91.2198 28.7325 90.8955 29.0545C90.7568 29.1936 90.593 29.302 90.4525 29.4367C90.2913 29.5907 90.1414 29.7563 89.9908 29.9208C89.9434 29.9721 89.9203 30.0493 89.8675 30.0908C89.4651 30.4087 89.0652 30.7301 88.6508 31.0321C87.956 31.5389 87.2463 32.0243 86.5522 32.5322C86.0473 32.9004 85.5085 33.2063 84.9611 33.5024C84.757 33.6131 84.5688 33.7546 84.3783 33.8886C84.1374 34.0578 83.8963 34.2269 83.6652 34.4089C83.4535 34.5752 83.2698 34.7804 83.0475 34.929C82.5908 35.2349 82.2783 35.6863 81.8747 36.0398C81.4377 36.4218 81.1454 36.8991 80.8292 37.3661C80.6721 37.599 80.5229 37.8373 80.3652 38.0696C80.3199 38.1367 80.2649 38.2309 80.1999 38.2451C79.8946 38.312 79.5781 38.4128 79.277 38.3868C79.0691 38.3688 78.8604 38.1851 78.6846 38.0344C78.5206 37.894 78.5907 37.6717 78.6354 37.4981C78.7061 37.2249 78.6342 36.9839 78.5361 36.746C78.4422 36.5175 78.312 36.3044 78.2167 36.0768C78.1551 35.9137 78.1054 35.7463 78.0679 35.576C78.0474 35.4967 78.0658 35.4039 78.0337 35.3321C77.9095 35.0523 77.9386 34.7611 77.9258 34.4672C77.9058 34.0843 77.9695 33.7163 78.04 33.3458C78.163 32.6975 78.3247 32.0555 78.4002 31.4003C78.5105 30.441 78.564 29.4747 78.6306 28.5105C78.6625 28.0538 78.5138 27.9296 78.0634 27.9239C77.7478 27.9198 77.4325 27.8692 77.1185 27.8289C76.9205 27.8031 76.726 27.7526 76.5284 27.7224C76.1574 27.6669 75.8876 27.4564 75.7611 27.1202C75.6972 26.9511 75.7571 26.7354 75.7608 26.5406L75.8083 26.5411ZM88.5716 28.9881C88.4488 28.9449 88.3965 28.9144 88.3426 28.9075C87.9566 28.8703 87.5698 28.8437 87.1841 28.8033C86.8263 28.7659 86.4695 28.7019 86.1128 28.6742C85.821 28.6504 85.5344 28.6441 85.2404 28.5946C84.5249 28.4748 83.8001 28.4043 83.0766 28.34C82.2127 28.2633 81.3467 28.2126 80.4814 28.1524C80.1731 28.1309 80.1201 28.1833 80.101 28.5005C80.0668 29.0767 80.0829 29.6623 79.9812 30.2248C79.8289 31.0829 79.8221 31.9314 79.9253 32.7886C79.9358 32.882 79.9521 32.9748 79.9741 33.0662C80.1223 33.657 80.2707 34.2475 80.426 34.8363C80.4506 34.9303 80.5134 35.014 80.5677 35.1208C80.6522 35.0682 80.7091 35.0473 80.7467 35.0079C80.9659 34.7774 81.1661 34.5266 81.4 34.3132C81.7649 33.9802 82.1412 33.6577 82.5323 33.3569C82.867 33.099 83.2268 32.8762 83.5796 32.6416C83.9907 32.3671 84.4055 32.0971 84.8169 31.8227C85.5699 31.3201 86.33 30.8292 87.0703 30.3071C87.5201 29.9887 87.9387 29.6236 88.3648 29.2716C88.4415 29.2136 88.4847 29.1124 88.5716 28.9881Z" fill="#F26837"/>
</svg>
