<svg width="327" height="76" viewBox="0 0 327 76" fill="none" xmlns="http://www.w3.org/2000/svg">
<g clip-path="url(#clip0_102_1033)">
<path d="M76.1558 -9.45815e-05C76.6753 0.322287 77.2716 0.211409 77.8322 0.278486C79.7216 0.502306 81.5616 0.863702 83.1922 1.9212C84.5764 2.81784 85.6326 4.03619 86.5212 5.39553C90.4336 11.3782 94.3355 17.3672 98.2269 23.3627C98.7465 24.1608 99.264 24.9595 99.8424 25.8514H99.3078C91.708 25.8514 84.1081 25.8498 76.5083 25.8466C73.5285 25.8404 70.7499 25.1389 68.3513 23.2744C67.6325 22.7071 67.0118 22.0257 66.5139 21.2573C61.859 14.237 57.2011 7.21916 52.5403 0.203874C52.4938 0.135428 52.4383 0.0669814 52.387 -0.00146484H73.3443C74.0686 0.0464475 74.7921 0.27232 75.5164 -0.00146484L76.1558 -9.45815e-05Z" fill="#F15A2B"/>
<path d="M327 57.9118C325.021 57.9118 323.041 57.8987 321.062 57.9165C320.685 57.92 320.5 57.8166 320.377 57.4491C319.954 56.1835 319.487 54.9323 319.054 53.6701C318.943 53.3484 318.794 53.2102 318.421 53.2136C316.101 53.2341 313.781 53.2341 311.46 53.2136C311.08 53.2102 310.943 53.3731 310.819 53.6749C310.294 54.948 309.744 56.2109 309.229 57.4874C309.096 57.8139 308.927 57.922 308.573 57.9172C306.892 57.8967 305.211 57.8967 303.529 57.9172C303.079 57.9234 303.055 57.8057 303.187 57.4169C306.033 49.0993 308.868 40.7778 311.692 32.4525C311.825 32.0623 312.026 32.0035 312.382 32.0062C314.149 32.0213 315.916 32.0336 317.682 31.9994C318.139 31.9905 318.293 32.1575 318.427 32.5545C321.182 40.7224 323.947 48.8892 326.721 57.0548C326.789 57.2601 326.778 57.5155 326.995 57.6571L327 57.9118ZM312.124 48.3142H317.402L314.966 40.3443L312.124 48.3142Z" fill="#F15A2B"/>
<path d="M59.5473 32.0329C58.8757 32.703 58.2836 33.2718 57.7175 33.8645C56.4935 35.1465 55.4543 36.5675 54.5193 38.0706C47.7977 48.8762 41.0337 59.6551 34.3697 70.4956C32.648 73.2957 30.2371 74.8508 27.1135 75.5148C25.4801 75.8625 23.8277 75.9672 22.1628 75.9693C14.9856 75.9788 7.80837 75.9788 0.631136 75.9693C0.425773 75.9693 0.13963 76.074 0.033525 75.8933C-0.103384 75.6654 0.174542 75.4826 0.290915 75.2971C8.0491 62.9357 15.8125 50.5764 23.5812 38.2191C23.7284 37.985 23.8852 37.7571 24.0248 37.5189C26.01 34.1431 29.0083 32.4874 32.8842 32.2485C34.7763 32.1315 36.667 32.0322 38.5659 32.0322H59.5473V32.0329Z" fill="#F15A2B"/>
<path d="M99.7848 32.0979C97.2828 35.8624 94.8513 39.5195 92.4232 43.1773C90.1595 46.5887 87.9169 50.0151 85.6305 53.4121C84.0985 55.6893 81.8128 56.8344 79.2225 57.4668C78.1049 57.7314 76.9598 57.8612 75.8114 57.8536C68.2512 57.8499 60.6907 57.8499 53.1296 57.8536H52.5046C53.411 56.4538 54.281 55.1034 55.1573 53.7571C58.6758 48.3516 62.1974 42.948 65.7218 37.5462C66.6706 36.0965 67.7933 34.7995 69.2959 33.8741C70.91 32.8796 72.7186 32.4607 74.558 32.3546C82.9183 31.8727 91.2876 32.2676 99.7848 32.0979Z" fill="#F15A2B"/>
<path d="M252.733 43.2744C251.289 46.8959 249.917 50.3373 248.543 53.7788C248.049 55.0191 247.54 56.2545 247.065 57.5023C246.946 57.8117 246.797 57.9301 246.465 57.913C245.829 57.8822 245.077 58.0978 244.583 57.8281C244.088 57.5584 244.059 56.7268 243.841 56.1395C242.289 51.968 240.748 47.7927 239.217 43.6139C239.158 43.4578 239.097 43.3031 238.977 42.991C238.697 44.6255 238.442 46.1012 238.192 47.5769C237.633 50.8833 237.078 54.1916 236.527 57.5016C236.474 57.8226 236.352 57.9178 236.035 57.9123C234.501 57.8979 232.968 57.902 231.435 57.9123C231.161 57.9123 231.011 57.9075 231.066 57.542C232.337 49.166 233.595 40.7882 234.84 32.4085C234.901 31.9979 235.093 32.0102 235.388 32.0109C237.049 32.017 238.711 32.028 240.371 32.0033C240.762 31.9979 240.908 32.1279 241.029 32.4893C242.497 36.8699 243.978 41.2465 245.47 45.6194C245.535 45.811 245.603 46.0013 245.715 46.3202C245.841 46.0157 245.92 45.8329 245.992 45.6461C247.607 41.2719 249.217 36.8959 250.823 32.5181C250.96 32.1423 251.111 31.9951 251.53 32.002C253.148 32.0307 254.767 32.028 256.386 32.002C256.808 31.9958 256.944 32.0971 257.002 32.5427C257.99 40.1448 258.994 47.7453 260.014 55.3442C260.105 56.0389 260.187 56.7357 260.288 57.4284C260.337 57.7549 260.307 57.9219 259.894 57.9164C258.233 57.8925 256.571 57.9007 254.91 57.9123C254.605 57.9123 254.461 57.8507 254.422 57.5078C253.916 53.0757 253.401 48.6451 252.875 44.2162C252.844 43.965 252.799 43.7145 252.733 43.2744Z" fill="#F15A2B"/>
<path d="M293.617 48.054C293.617 42.8377 293.624 37.8227 293.605 32.8076C293.605 32.3025 293.686 32.1163 294.248 32.1334C295.737 32.1793 297.228 32.1663 298.719 32.1382C299.152 32.13 299.244 32.2696 299.243 32.6755C299.232 40.9014 299.232 49.1272 299.243 57.3531C299.243 57.798 299.13 57.9253 298.68 57.9178C297.02 57.8913 295.359 57.8913 293.698 57.9178C293.205 57.9267 292.9 57.7864 292.607 57.3702C289.3 52.6584 285.979 47.9557 282.646 43.2621C282.515 43.0786 282.377 42.9014 282.149 42.5961V43.349C282.149 47.9828 282.136 52.6166 282.166 57.2498C282.17 57.8384 281.996 57.9342 281.462 57.924C279.844 57.8884 278.225 57.8986 276.608 57.9205C276.203 57.926 276.065 57.835 276.066 57.4024C276.079 49.1555 276.079 40.9087 276.066 32.6618C276.066 32.2285 276.203 32.1382 276.608 32.1444C278.205 32.1663 279.802 32.1663 281.4 32.1444C281.761 32.1396 281.971 32.2607 282.181 32.5489C285.824 37.5185 289.475 42.4829 293.134 47.4421C293.253 47.6016 293.384 47.7583 293.617 48.054Z" fill="#F15A2B"/>
<path d="M177.749 47.3354L185.731 57.7919C185.6 57.9973 185.412 57.9014 185.262 57.9021C183.155 57.9096 181.047 57.8987 178.94 57.9151C178.584 57.9151 178.369 57.8083 178.157 57.5209C175.844 54.3723 173.523 51.2279 171.192 48.0876C171.122 48.0074 171.059 47.9216 171.004 47.8309C170.854 47.5366 170.586 47.5571 170.34 47.6023C170.021 47.6632 170.163 47.9446 170.163 48.1273C170.154 51.1663 170.144 54.2053 170.168 57.2437C170.173 57.7515 170.08 57.9363 169.522 57.922C167.905 57.8809 166.286 57.8925 164.668 57.9172C164.25 57.924 164.136 57.8104 164.137 57.3922C164.149 49.1047 164.149 40.817 164.137 32.5291C164.137 32.1136 164.244 32 164.665 32.0027C168.242 32.0233 171.818 32.0027 175.394 32.0294C177.243 32.0445 178.946 32.5619 180.46 33.6721C182.017 34.8118 182.754 36.4032 183.138 38.2204C183.48 39.8398 183.655 41.4483 183.031 43.0472C182.184 45.2177 180.377 46.2642 178.354 47.0671C178.176 47.1355 177.989 47.1814 177.806 47.2403C177.796 47.2437 177.79 47.269 177.749 47.3354ZM172.299 37.0164V37.0459C171.725 37.0459 171.15 37.0548 170.575 37.0418C170.314 37.0356 170.195 37.102 170.196 37.3936C170.205 39.3913 170.205 41.389 170.196 43.3867C170.196 43.6653 170.283 43.7536 170.561 43.7461C171.348 43.7248 172.135 43.7611 172.922 43.7153C173.82 43.6619 174.69 43.4647 175.463 42.9671C176.663 42.1944 177.286 40.6879 176.977 39.1745C176.696 37.7933 175.608 37.373 174.4 37.18C173.708 37.0719 173 37.0698 172.299 37.0164Z" fill="#F15A2B"/>
<path d="M141.825 44.9426C141.825 40.8406 141.832 36.7393 141.816 32.638C141.816 32.1753 141.884 31.9946 142.418 31.9973C147.548 32.0211 152.679 32.0211 157.81 31.9973C158.365 31.9973 158.467 32.1609 158.453 32.6695C158.415 33.9857 158.421 35.3047 158.453 36.6216C158.463 37.0576 158.316 37.1397 157.915 37.1377C154.807 37.1219 151.699 37.1479 148.591 37.1123C147.98 37.1055 147.856 37.2965 147.876 37.855C147.917 39.0015 147.912 40.1507 147.876 41.2971C147.863 41.7585 148.013 41.8516 148.449 41.8488C151.472 41.8303 154.496 41.8488 157.519 41.829C157.966 41.829 158.141 41.8974 158.127 42.4025C158.087 43.8892 158.096 45.3779 158.122 46.8646C158.131 47.3108 158.001 47.4347 157.554 47.432C154.552 47.4128 151.55 47.432 148.548 47.4101C148.032 47.406 147.854 47.5237 147.874 48.0665C147.918 49.213 147.919 50.3629 147.874 51.5086C147.853 52.061 148.047 52.163 148.559 52.1589C151.645 52.1356 154.733 52.1589 157.819 52.1363C158.303 52.1329 158.47 52.2335 158.456 52.7523C158.418 54.2814 158.427 55.8119 158.456 57.3416C158.463 57.766 158.383 57.92 157.908 57.918C152.714 57.9002 147.519 57.9002 142.325 57.918C141.872 57.918 141.819 57.7578 141.82 57.3704C141.83 53.2301 141.825 49.0863 141.825 44.9426Z" fill="#F15A2B"/>
<path d="M228.585 57.9069C226.531 57.9069 224.512 57.9001 222.492 57.9145C222.169 57.9145 222.116 57.7283 222.036 57.5038C221.584 56.2245 221.115 54.9514 220.674 53.6708C220.561 53.3409 220.407 53.2156 220.039 53.2184C217.718 53.2375 215.396 53.2341 213.075 53.2184C212.749 53.2184 212.592 53.3156 212.467 53.6229C211.948 54.8987 211.378 56.1554 210.869 57.434C210.717 57.8173 210.522 57.9241 210.125 57.9186C208.482 57.8953 206.846 57.9008 205.206 57.9145C204.814 57.9145 204.636 57.9104 204.806 57.4135C207.662 49.0936 210.502 40.7691 213.328 32.4401C213.447 32.0883 213.615 32.0028 213.962 32.0062C215.772 32.0233 217.583 32.0206 219.393 32.0062C219.704 32.0062 219.877 32.0555 219.992 32.3943C222.827 40.81 225.671 49.2227 228.524 57.6325C228.548 57.7091 228.559 57.792 228.585 57.9069ZM219.025 48.3286C218.215 45.6777 217.427 43.1006 216.586 40.3464C215.595 43.1232 214.674 45.7064 213.738 48.3286H219.025Z" fill="#F15A2B"/>
<path d="M118.159 44.8974C118.159 40.7961 118.168 36.6948 118.147 32.5935C118.147 32.1205 118.253 31.9966 118.736 32.0001C122.185 32.0268 125.635 31.9761 129.082 32.0363C131.906 32.0856 134.421 32.9802 136.407 35.0959C137.665 36.4402 138.375 37.9966 138.299 39.8714C138.26 40.8262 138.238 41.7797 138.156 42.7345C137.976 44.8091 136.944 46.3259 135.207 47.3841C133.24 48.5812 131.056 49.0952 128.781 49.2321C127.464 49.3088 126.143 49.3163 124.823 49.3142C124.38 49.3142 124.253 49.4381 124.257 49.8858C124.279 52.3498 124.257 54.8139 124.277 57.278C124.281 57.7502 124.196 57.9344 123.661 57.9214C122.023 57.8817 120.383 57.8871 118.744 57.9214C118.265 57.9309 118.145 57.8125 118.148 57.3314C118.168 53.1856 118.159 49.0411 118.159 44.8974ZM124.183 40.8379C124.183 41.8153 124.194 42.7927 124.177 43.7694C124.171 44.1007 124.222 44.2656 124.618 44.2561C125.767 44.228 126.917 44.2656 128.065 44.2348C129.261 44.2027 130.307 43.7756 131.133 42.8892C131.883 42.0856 132.164 41.1452 131.878 40.0699C131.524 38.7345 130.478 38.1329 129.277 37.7886C127.703 37.3361 126.06 37.5613 124.45 37.5189C124.092 37.51 124.185 37.7797 124.184 37.9693C124.177 38.9255 124.181 39.8817 124.181 40.8379H124.183Z" fill="#F15A2B"/>
<path d="M192.824 47.7625C192.824 44.575 192.813 41.3868 192.836 38.1999C192.839 37.7304 192.736 37.5983 192.25 37.6065C190.356 37.638 188.461 37.6065 186.568 37.6277C186.188 37.6311 186.054 37.5476 186.061 37.139C186.086 35.5876 186.086 34.0361 186.061 32.4847C186.054 32.074 186.191 32.0001 186.567 32.0007C192.89 32.0108 199.213 32.0096 205.536 31.9973C205.97 31.9973 206.004 32.1602 206.001 32.5127C205.985 34.0425 205.979 35.573 206.001 37.1027C206.008 37.5182 205.896 37.6339 205.476 37.6284C203.581 37.6051 201.686 37.6352 199.794 37.6065C199.324 37.5997 199.198 37.7064 199.199 38.191C199.219 44.5449 199.206 50.8994 199.225 57.2533C199.225 57.7701 199.123 57.9316 198.576 57.9186C196.831 57.8789 195.085 57.8899 193.339 57.9145C192.917 57.92 192.815 57.8009 192.817 57.3881C192.832 54.1828 192.824 50.974 192.824 47.7625Z" fill="#F15A2B"/>
<path d="M264.311 44.9693C264.311 40.8488 264.318 36.7284 264.301 32.6079C264.301 32.1541 264.378 31.9871 264.884 31.9981C266.585 32.0343 268.288 32.022 269.99 32.0035C270.368 31.9994 270.498 32.0809 270.498 32.4895C270.485 40.7943 270.485 49.0991 270.498 57.4039C270.498 57.8516 270.338 57.9187 269.947 57.9139C268.287 57.8954 266.627 57.8844 264.968 57.9187C264.448 57.9296 264.292 57.8119 264.296 57.2664C264.322 53.1699 264.311 49.0692 264.311 44.9693Z" fill="#F15A2B"/>
</g>
<defs>
<clipPath id="clip0_102_1033">
<rect width="327" height="76" fill="white"/>
</clipPath>
</defs>
</svg>
