<svg width="116" height="88" viewBox="0 0 116 88" fill="none" xmlns="http://www.w3.org/2000/svg">
<path d="M23.5345 10.8236C25.1678 9.74526 25.7799 11.3435 26.5511 12.1047C32.6644 18.1392 38.7071 24.2472 44.804 30.2989C45.4349 30.9254 46.0156 32.1415 47.087 31.6215C47.8974 31.23 47.6842 30.0483 47.6881 29.2081C47.72 20.9115 47.7276 12.6145 47.7109 4.31692C47.707 0.208855 47.8747 0.00602723 51.8648 0.00132872C56.3071 -0.00415288 60.7509 0.0796373 65.1886 0.00132872C67.4121 -0.0386086 68.2734 0.818081 68.2523 3.06867C68.1739 11.3655 68.2099 19.6638 68.2523 27.9614C68.2585 29.1728 67.6833 30.8588 68.8338 31.4774C70.1662 32.1971 70.7736 30.3341 71.7783 29.7257C72.0252 29.5769 72.2674 29.4211 72.512 29.2684C74.0403 29.0115 74.9196 27.8643 76.0435 26.9481C78.5429 24.9121 80.4521 22.4336 82.2728 19.8455C82.986 18.833 84.0441 19.1031 85.0003 19.1188C86.9298 19.1509 88.3304 18.5706 89.0264 16.5597C89.6895 14.6395 90.8651 14.5479 92.8668 15.2135C96.8819 16.5503 99.7771 19.4093 103.034 21.7766C104.334 22.7218 104.539 24.3733 103.733 25.6826C103.045 26.8009 101.96 27.7413 100.352 26.4931C99.6227 25.9269 98.4792 25.9857 97.8554 26.2323C98.9142 25.6638 100.442 25.9974 100.986 27.1979C101.507 28.3576 100.409 29.6677 99.2465 30.1666C97.7378 30.815 96.6476 32.1877 94.9484 32.4657C94.377 32.5597 93.8903 32.9426 93.616 33.5025C91.8651 37.1243 89.1487 38.6552 85.7918 37.4767C88.1227 37.6544 88.274 38.082 87.4063 40.84C86.7441 42.9457 85.7824 44.663 83.7815 45.6278C82.7344 46.1321 82.6302 47.0099 82.7313 47.8909C82.8629 49.0358 83.8285 49.1658 84.7816 49.1869C89.4504 49.2934 94.1082 48.7241 98.7692 48.8612C102.089 48.959 105.412 48.9019 108.735 49.1744C113.166 49.537 114.794 51.1415 115.211 55.6208C115.487 58.5965 114.758 61.5558 115.436 64.5518C115.765 65.9998 114.385 66.4892 113.039 66.6818C108.903 67.2746 104.72 67.0569 100.595 67.0225C93.7971 66.9669 86.9965 67.0162 80.199 66.916C78.3391 66.8886 77.4754 65.9363 77.8391 64.2081C78.0907 63.0115 78.1753 62.1674 77.0005 61.4234C76.4855 61.0977 76.1031 60.3819 76.1235 59.6693C76.2105 56.6677 74.3679 54.9912 72.0668 53.5691C71.4225 53.1713 70.8277 52.6247 70.4664 51.9293C70.0745 51.1736 68.9772 50.4712 69.873 49.5111C70.6309 48.6967 71.6451 48.3937 72.5848 49.1008C71.9962 48.804 71.3465 48.3365 70.5518 49.0648C68.3486 51.0843 66.4857 49.5816 65.0475 48.1251C63.2887 46.3412 62.0246 44.6646 59.3049 46.8776C57.8903 48.0287 55.7616 46.8142 53.9096 47.2629C52.281 47.6544 50.5637 47.8792 49.4759 49.1227C47.7626 51.0804 44.7836 50.7962 43.2388 52.9598C42.575 53.8901 41.5631 54.5706 41.8131 55.9543C41.8688 56.2629 41.9057 56.8737 41.5867 57.0389C38.2306 58.7821 38.5872 62.5142 37.0926 65.2456C36.5518 66.2347 35.4797 66.472 34.3738 66.6262C31.0428 67.0898 27.7056 66.8032 24.3715 66.8612C17.7198 66.9857 11.0674 66.7547 4.4188 66.999C2.19765 67.0773 1.25007 66.194 1.35509 63.7985C1.50479 60.4101 1.55102 57.0021 1.23125 53.6059C0.898156 50.0702 1.72347 49.0883 5.25192 48.9857C11.8213 48.8009 18.3947 48.9489 24.9664 48.9027C27.2001 48.887 29.4471 48.8659 31.6934 49.0303C33.1574 49.1368 34.4208 48.4923 33.5093 46.6208C32.8549 45.2785 33.4944 43.963 33.4309 42.5276C33.5187 42.2762 32.9505 42.4313 33.333 42.4931C33.4735 42.515 33.4997 42.6072 33.4114 42.7695C32.3737 44.7069 30.6165 44.8134 29.3154 42.9606C28.7817 42.2002 28.5591 41.107 27.8036 40.6247C25.2399 38.9872 25.4312 37.4203 27.4673 36.0045C27.4266 36.0624 27.1131 36.3733 26.8576 36.6568C26.3678 37.2002 25.9477 37.3616 25.2901 37.3028C24.544 37.2394 24.0878 36.7312 23.6591 36.2441C22.4937 34.9183 21.1103 33.8345 19.8273 32.6419C18.495 31.3968 17.1485 30.1211 16.7707 28.1728C16.4016 26.2605 16.654 24.1901 14.454 22.8839C13.4061 22.2574 14.4218 19.6732 16.0215 19.3655C17.8986 19.006 18.8132 17.9473 19.4746 16.3827C19.9661 15.2182 20.7522 14.0843 21.8408 13.6724C23.359 13.1063 23.0117 11.7813 23.5345 10.8236ZM112.721 68.0671C102.274 67.9888 91.8267 68.1125 81.3817 68.0021C78.952 67.9763 78.0899 68.7547 77.6518 71.1619C75.7919 81.4375 67.7867 88.1313 57.873 87.9982C47.7822 87.8619 39.9431 81.111 38.2957 70.887C37.9414 68.6881 37.1255 67.9896 34.953 68.0076C24.6035 68.0937 14.2517 67.9528 3.90385 68.1C0.996917 68.1407 -0.0987473 67.201 0.00705919 64.3052C0.168512 59.8651 0.163803 55.4132 0.0595644 50.9708C-7.02057e-07 48.5338 1.0126 47.804 3.34034 47.8291C11.6583 47.9191 19.9771 47.8854 28.2958 47.8291C29.4785 47.8204 31.1745 48.396 31.7114 47.0561C32.1769 45.8933 30.6267 45.1681 29.8445 44.3788C23.9953 38.4704 18.1877 32.5158 12.1873 26.7594C10.1025 24.7601 10.235 23.4798 12.2837 21.6615C16.1766 18.2042 19.4096 14.0499 23.5345 10.8212C23.7696 11.1258 24.1333 11.3976 24.2266 11.7421C24.5683 13.0045 26.6005 13.6255 25.9257 15.0781C25.1749 16.692 23.7437 15.3467 22.5948 15.3498C21.0719 15.3498 20.927 16.7304 20.6965 17.8557C20.2569 19.9966 20.4559 22.7257 16.7778 21.2582C15.7856 20.8666 15.6069 21.8604 16.023 22.4853C17.4416 24.6176 17.8476 27.1658 18.9911 29.3913C20.354 32.0421 23.7093 32.7171 25.1577 35.3428C25.2251 35.4657 25.7659 35.49 25.9375 35.3616C26.4195 35.0013 26.1585 34.5197 26.0253 34.053C25.8003 33.2637 24.3974 32.2519 26.0096 31.7265C27.1225 31.3623 27.5544 32.6662 27.8663 33.5628C28.1155 34.2801 28.5254 35.2378 28.2535 35.7883C26.8937 38.5464 29.368 39.9888 30.1948 41.9747C30.43 42.5487 30.9613 42.923 31.6016 42.5706C32.242 42.2183 32.0891 41.6137 31.8752 41.0413C31.6738 40.5009 31.4049 39.9637 31.3305 39.4038C31.2372 38.7171 31.3595 37.8909 32.1503 37.7555C33.1629 37.5824 32.9411 38.5471 33.1613 39.1423C34.0893 41.656 34.9734 44.1955 36.1035 46.6192C36.562 47.602 37.3207 48.4023 36.6819 49.5166C35.9703 50.757 34.7962 51.2034 33.456 50.9316C24.9131 49.1994 16.2871 50.3553 7.70348 50.1368C2.89751 50.0146 2.29559 50.8948 2.50485 55.7601C2.59968 57.981 2.58323 60.2065 2.5895 62.4297C2.5895 64.5346 3.53 65.7139 5.72451 65.7085C14.2413 65.686 22.7557 65.6646 31.2678 65.6442C34.6473 65.6442 36.5973 63.8196 37.711 60.8001C38.9956 57.324 40.777 54.0953 42.8054 51.0013C42.9621 50.7586 43.1604 50.2848 43.2756 50.3044C47.9468 51.1071 49.0801 43.5628 54.4903 45.6153C55.5006 45.9982 59.2595 47.5283 58.4264 43.1877C58.2821 42.4359 59.3363 42.1697 59.9884 42.5033C61.918 43.5002 64.2794 43.8463 65.3735 46.1407C66.4481 48.3937 68.054 49.2104 70.5863 48.1869C71.6741 47.7468 73.0472 48.0139 74.2911 47.952C74.9917 47.9191 76.0114 47.2926 76.1721 48.4814C76.3076 49.4994 75.2488 49.7609 74.4901 50.2002C73.4336 50.8126 71.6099 48.9269 71.3136 50.8009C71.0581 52.4179 73.6366 51.9324 74.0026 52.6137C75.0693 54.5957 77.2897 55.97 77.4269 58.3584C77.5052 59.667 77.7921 60.5792 78.9081 61.2394C79.543 61.6153 79.9921 62.2323 79.6441 62.9402C78.5649 65.1329 79.902 65.4132 81.5627 65.4915C91.3298 65.9544 101.098 65.811 110.866 65.5777C113.516 65.5142 114.528 64.5307 114.565 61.5518C114.682 52.0883 113.522 50.5722 104.063 50.1376C98.3554 49.8745 92.6591 50.2089 86.9596 50.5918C85.1993 50.7108 82.783 51.4939 81.9005 49.0178C81.0117 46.5252 82.5275 45.0475 84.6977 44.0734C85.0112 43.934 85.197 43.5252 85.396 43.2903C85.2252 42.4728 84.6703 42.6685 84.2204 42.6474C83.5189 42.6153 82.6764 42.5362 82.5832 41.7617C82.4578 40.7288 83.4696 40.9982 84.0589 40.8784C85.0527 40.6779 86.2488 40.3788 86.0419 39.2245C85.7762 37.7453 84.5033 38.6615 83.6451 38.7006C82.7869 38.7398 81.5384 39.0397 81.4302 37.9958C81.2892 36.6254 82.7187 36.8784 83.5981 36.7915C85.2267 36.6302 86.9118 36.8698 88.4628 36.1822C90.2749 35.3796 92.043 34.6074 91.3134 31.9536C90.9011 30.4555 91.7766 30.1345 93.1701 30.5636C95.1906 31.1846 96.947 30.1298 98.7292 29.4289C99.2779 29.2143 99.7395 28.739 99.5632 28.0663C99.3868 27.3936 98.7629 27.3177 98.1633 27.3059C96.6632 27.277 95.1616 27.9919 93.5729 27.0413C95.5448 25.8197 97.6485 25.2081 100.041 25.5894C100.91 25.7273 102.085 26.3882 102.332 24.8204C102.519 23.638 102.559 22.4132 100.743 22.4712C100.143 22.49 99.462 22.2026 99.3022 21.6482C98.3374 18.2934 94.9523 18.5409 92.6881 17.1415C91.3134 16.2918 90.4677 16.8447 90.3258 18.4007C90.1009 20.8549 89.3273 22.3529 86.4557 21.1063C85.8075 20.8251 84.8701 21.2574 84.1749 21.028C82.3386 20.4265 81.9232 21.2527 81.9804 22.8525C82.0737 25.4446 81.0619 27.1861 78.2239 27.2378C77.3234 27.2535 77.1455 27.7578 76.8265 28.3976C75.3374 31.3835 75.1673 31.4007 72.5112 29.2629C78.1495 22.8909 84.45 17.1705 90.3893 11.0953C91.4082 10.0522 92.4036 10.1846 93.3966 11.1947C97.1233 14.9872 100.825 18.8063 104.622 22.5276C106.268 24.1399 105.361 25.165 104.157 26.3608C98.3269 32.1509 92.5125 37.958 86.7143 43.7821C86.1657 44.3302 85.5959 44.8573 85.099 45.4477C84.6287 46.0037 83.6561 46.4547 84.0989 47.3271C84.5057 48.1305 85.4815 47.8212 86.2151 47.8236C94.8238 47.8565 103.433 47.84 112.04 47.8894C115.831 47.9105 115.959 48.0632 115.98 51.8149C116.006 56.1634 115.911 60.5135 115.997 64.8612C116.045 67.2355 115.093 68.0828 112.721 68.0655V68.0671ZM77.4245 64.5667C75.9612 55.5933 67.6699 48.3976 58.54 48.3412C48.6467 48.2809 40.1806 55.154 38.5653 64.3717C38.1248 66.8878 38.6343 67.9199 41.3939 67.8416C46.9068 67.685 52.4267 67.7946 57.9436 67.7977C63.4604 67.8009 68.978 67.75 74.494 67.8236C76.8539 67.8557 77.8407 67.1227 77.4245 64.5667ZM14.5801 24.8244C14.4892 24.7774 14.2886 24.9395 14.1373 25.0084C14.2157 25.165 14.2518 25.3858 14.3725 25.4602C14.4508 25.5088 14.6609 25.3443 14.8223 25.2699C14.7471 25.1141 14.7048 24.8909 14.5801 24.8259V24.8244Z" fill="white"/>
</svg>
