<svg width="183" height="62" viewBox="0 0 183 62" fill="none" xmlns="http://www.w3.org/2000/svg">
<g clip-path="url(#clip0_102_975)">
<path d="M103.201 26.6006L107.795 15.1036C106.323 14.3334 104.68 13.9487 103.018 13.9856C98.9026 13.9856 95.9437 15.9528 93.2646 21.962V14.5929H84.6568L70.6693 49.6H83.1774L90.8598 30.2502C95.4434 18.7048 102.459 23.4455 103.201 26.6274" fill="#F15A2B"/>
<path d="M34.9097 38.9145C39.3426 27.7938 22.5737 20.543 25.5649 13.1148C26.4095 11.0024 28.1257 9.82532 30.9125 9.82532C35.0495 9.82532 39.2081 12.846 40.9189 19.2261L46.0566 6.39073C42.7158 3.54738 39.0198 2.15527 32.5049 2.15527C23.7358 2.15527 16.5376 5.79411 13.5518 13.2492C8.76911 25.1547 25.269 32.4807 22.5199 39.3499C21.5139 41.8546 19.4965 42.9242 16.5322 42.9242C12.5565 42.9242 7.69853 38.9092 5.48204 32.642L0 46.3158C3.26555 49.6752 7.96752 50.8308 13.6271 50.8308C24.2684 50.8308 31.6602 47.0683 34.9097 38.9145Z" fill="#F15A2B"/>
<path d="M60.0873 14.6091H47.52L28.5776 62.0162H41.075L57.5103 20.8548C62.7395 20.8548 64.8968 25.0258 61.4806 33.5289C59.0651 39.5489 55.0679 45.4828 47.3156 49.7398C59.2103 49.7398 69.2921 45.4667 74.4137 32.7012C79.5353 19.9357 71.0083 14.6253 60.0873 14.6253" fill="#F15A2B"/>
<path d="M119.61 15.3401C124.279 15.3401 128.067 11.9055 128.067 7.67005C128.067 3.43459 124.301 0 119.61 0C114.918 0 111.152 3.43459 111.152 7.67005C111.152 11.9055 114.918 15.3401 119.61 15.3401Z" fill="#F15A2B"/>
<path d="M169.889 13.9856C158.027 13.9856 150.07 21.231 145.777 31.9272C141.925 41.5376 145.465 50.1106 156.434 50.1106C160.548 50.1315 164.595 49.0695 168.168 47.0314C171.741 44.9934 174.713 42.0511 176.786 38.5007C172.881 41.4193 167.963 43.752 163.724 43.752C157.989 43.752 156.246 38.0062 158.732 31.8035C161.755 24.2786 166.048 18.5059 169.249 18.5059C173.408 18.5059 169.604 29.2074 159.297 34.2169C170.96 34.2169 177.443 31.2876 180.181 24.4667C182.451 18.8069 177.701 13.991 169.906 13.991" fill="#F15A2B"/>
<path d="M152.26 14.5016H145.46L149.887 3.4668H143.749C139.666 12.1635 132.295 16.9525 124.306 18.1511L122.644 22.2092H129.885L118.959 49.6215H131.456L142.377 22.2092H149.182L152.26 14.5016Z" fill="#F15A2B"/>
<path d="M110.077 16.2539L96.7722 49.5786H109.27L121.718 18.4039C117.724 18.5918 113.74 17.856 110.077 16.2539Z" fill="#F15A2B"/>
<path d="M181.241 43.9348C181.773 44.2409 182.215 44.6823 182.521 45.2141C182.831 45.7549 182.994 46.3673 182.994 46.9905C182.994 47.6137 182.831 48.2261 182.521 48.7669C182.215 49.2987 181.773 49.7401 181.241 50.0462C180.701 50.3596 180.087 50.5247 179.463 50.5247C178.838 50.5247 178.225 50.3596 177.685 50.0462C177.157 49.7341 176.717 49.2941 176.404 48.7669C176.094 48.2261 175.931 47.6137 175.931 46.9905C175.931 46.3673 176.094 45.7549 176.404 45.2141C176.711 44.6823 177.152 44.2409 177.685 43.9348C178.226 43.6251 178.839 43.4622 179.463 43.4622C180.086 43.4622 180.699 43.6251 181.241 43.9348ZM180.87 49.4603C181.301 49.2173 181.655 48.8578 181.892 48.4229C182.132 47.9848 182.258 47.493 182.258 46.9932C182.26 46.4932 182.134 46.001 181.892 45.5635C181.649 45.1316 181.297 44.7717 180.87 44.5207C180.442 44.2717 179.955 44.1453 179.46 44.1552C178.968 44.1538 178.484 44.2797 178.056 44.5207C177.628 44.7703 177.274 45.1305 177.034 45.5635C176.792 46.001 176.666 46.4932 176.668 46.9932C176.667 47.493 176.793 47.9848 177.034 48.4229C177.275 48.8544 177.628 49.2129 178.056 49.4603C178.48 49.7126 178.966 49.841 179.46 49.8312C179.957 49.8524 180.448 49.7231 180.87 49.4603ZM180.87 46.9717C180.772 47.1308 180.63 47.2578 180.461 47.3372L181.262 48.5519H180.245L179.53 47.4447H178.992V48.5519H178.077V45.3646H179.96C180.098 45.36 180.235 45.385 180.362 45.4379C180.489 45.4907 180.604 45.5702 180.697 45.671C180.792 45.7685 180.865 45.8839 180.914 46.0103C180.963 46.1368 180.987 46.2718 180.982 46.4073C181.002 46.6025 180.962 46.7989 180.87 46.9717ZM179.008 46.6653H179.81C179.85 46.6699 179.891 46.6626 179.927 46.6445C179.963 46.6264 179.994 46.5981 180.014 46.5632C180.041 46.5383 180.062 46.5083 180.077 46.4751C180.091 46.4419 180.099 46.4061 180.1 46.3697C180.104 46.3327 180.099 46.2953 180.083 46.2613C180.068 46.2273 180.044 46.1979 180.014 46.1762C179.963 46.1231 179.894 46.0906 179.82 46.0848H179.019L179.008 46.6653Z" fill="#F15A2B"/>
</g>
<defs>
<clipPath id="clip0_102_975">
<rect width="183" height="62" fill="white"/>
</clipPath>
</defs>
</svg>
