<svg width="227" height="78" viewBox="0 0 227 78" fill="none" xmlns="http://www.w3.org/2000/svg">
<path d="M226.674 20.4506C226.627 20.5896 226.56 20.7249 226.535 20.8676C226.264 22.4171 225.293 23.2849 223.848 23.7163C221.397 24.448 219.002 24.14 216.672 23.2453C215.484 22.7891 214.361 22.1576 213.107 21.5557L214.644 19.4852C215.428 19.9311 216.14 20.3681 216.881 20.7512C218.585 21.6326 220.387 22.06 222.312 21.8481C222.435 21.8374 222.558 21.8197 222.679 21.7953C223.457 21.6196 224.14 21.0063 224.144 20.4003C224.149 19.5847 223.533 19.2042 222.897 19.0098C221.365 18.5406 219.807 18.1631 218.258 17.7498C217.592 17.5719 216.901 17.4562 216.264 17.2074C214.756 16.6195 213.832 15.2271 213.944 13.83C214.061 12.388 215.343 10.9405 216.805 10.5793C219.656 9.8739 222.323 10.464 224.996 11.7454C224.648 12.4231 224.315 13.0731 223.99 13.705C222.567 13.323 221.207 12.8971 219.819 12.6062C218.826 12.3984 217.792 12.34 216.992 13.2177C216.391 13.8754 216.411 14.2788 217.113 14.8108C218.067 15.5333 219.164 15.8767 220.341 15.9891C221.771 16.1256 223.189 16.3008 224.476 17.0159C225.515 17.593 226.43 18.2803 226.676 19.5551L226.674 20.4506Z" fill="white"/>
<path d="M56.6629 64.0066C55.856 64.0066 55.1672 64.0174 54.478 64.0066C49.1964 63.912 43.9097 63.8676 38.6285 63.6953C35.4742 63.5922 32.4428 62.9374 29.9726 60.7376C29.4224 60.2488 28.9566 59.6672 28.4153 59.0897C27.9315 59.5411 27.535 59.9031 27.1448 60.2761C25.0116 62.3129 22.4416 63.4606 19.5407 63.5212C13.124 63.6562 6.70357 63.6277 0.284987 63.6635C0.24024 63.6635 0.195493 63.6317 0.0894943 63.5914C0.0766571 63.3781 0.0498826 63.1389 0.0495158 62.8997C0.0304435 45.4953 0.0139383 28.0909 7.90139e-07 10.6863C-0.00183309 5.52307 3.18876 1.40325 8.05294 0.269305C8.83784 0.0862921 9.66676 0.0145781 10.4737 0.0138386C22.377 -0.00218272 34.2805 -0.00454018 46.1841 0.006798C52.1464 0.0141925 56.6567 4.58508 56.6592 10.6101C56.6671 28.1392 56.668 45.668 56.6622 63.1966L56.6629 64.0066ZM55.6858 62.7692V35.8626C55.6858 27.8048 55.7045 19.7471 55.6788 11.6893C55.6605 5.81071 51.2372 1.13631 45.4667 1.09786C34.0553 1.0217 22.6432 1.02096 11.2303 1.09564C5.51302 1.13261 0.976726 5.75897 0.963522 11.5C0.92501 28.3616 0.951418 45.2232 0.938581 62.0845C0.938581 62.628 1.07612 62.8239 1.64133 62.8184C4.778 62.7888 7.91577 62.8272 11.0521 62.7762C13.4937 62.737 15.9078 62.5688 18.2988 61.8774C21.1663 61.0481 22.6613 59.154 22.8505 56.3179C23.0966 52.6284 23.0886 48.9234 23.1905 45.2225C23.2272 43.8915 22.6404 42.9709 21.4557 42.3616C20.0942 41.662 18.6979 40.9906 17.4578 40.1063C16.4741 39.4038 15.5953 38.4795 14.8695 37.5056C14.1018 36.4745 14.0039 35.1945 14.206 33.8032C15.1504 35.1172 16.356 35.8737 17.7512 36.3025C19.0221 36.693 20.3157 37.0157 21.6097 37.323C22.8311 37.6128 24.1218 37.6975 25.2775 38.1427C26.3958 38.573 27.3835 39.3483 28.3793 39.9428C29.0762 39.4755 29.7929 38.8108 30.6383 38.4721C31.7918 38.0103 33.0341 37.7541 34.2551 37.4864C37.2043 36.8398 40.2702 36.4948 42.4786 33.8609C42.7052 35.7835 42.2523 37.404 40.9561 38.6577C40.0758 39.5081 39.0316 40.2016 37.9962 40.8631C36.9989 41.5001 35.9184 42.0044 34.8757 42.569C33.9954 43.0456 33.5186 43.7798 33.5094 44.7932C33.487 47.3528 33.4056 49.9143 33.4804 52.4713C33.5326 54.1339 33.7104 55.7902 34.0123 57.4256C34.3581 59.3145 35.4024 60.7572 37.2582 61.4689C39.1391 62.1902 41.0797 62.6609 43.1003 62.689C47.027 62.7444 50.954 62.7718 54.8807 62.808C55.1232 62.8091 55.3634 62.784 55.6858 62.7692ZM35.0917 61.8297C34.6688 61.4556 34.3794 61.1975 34.0878 60.9424C32.7462 59.767 31.8978 58.3092 31.7614 56.5131C31.6469 55.0046 31.6099 53.4877 31.597 51.974C31.5736 49.2151 31.589 46.4555 31.597 43.6963C31.5992 42.9568 31.1349 42.7646 30.5356 42.7461C29.8354 42.7246 29.4496 43.0419 29.4525 43.6615C29.4708 47.5636 29.4279 51.4682 29.5548 55.367C29.6693 58.8542 31.7324 61.24 35.0917 61.8297ZM21.6805 61.7824C24.5601 61.4345 26.8238 59.1766 26.994 56.0617C27.2214 51.8986 27.1514 47.7189 27.1723 43.5462C27.1723 43.3099 26.892 42.9568 26.6588 42.8559C25.7264 42.4536 25.0816 42.9239 25.0816 43.9569C25.0777 47.4863 25.0777 51.0156 25.0816 54.5447C25.089 57.3827 24.2824 59.8317 21.8709 61.5424C21.814 61.5813 21.781 61.6519 21.6805 61.7824Z" fill="white"/>
<path d="M139.638 18.454C139.03 18.3608 138.488 18.2122 137.945 18.2062C135.599 18.1796 133.253 18.1937 130.908 18.1963C130.667 18.1963 130.427 18.2162 130.153 18.2288V21.9198H141.665V24.0956H127.79V10.9911H141.681V13.2656H130.18V15.8356H131.744C134.04 15.8356 136.337 15.8274 138.633 15.8437C138.994 15.8463 139.377 15.9006 139.71 16.0334C140.427 16.3192 140.524 16.6497 140.183 17.3614C140.012 17.7193 139.835 18.0742 139.658 18.4288C139.636 18.4724 139.596 18.5046 139.638 18.454Z" fill="white"/>
<path d="M144.846 56.8198V59.3964H145.681C148.225 59.3964 150.769 59.3897 153.312 59.4045C153.673 59.4067 154.058 59.4526 154.391 59.5842C155.117 59.8722 155.211 60.1946 154.867 60.9126C154.675 61.313 154.475 61.7094 154.293 62.078C153.934 61.9689 153.614 61.7896 153.293 61.787C150.506 61.7648 147.718 61.7741 144.866 61.7741V65.4887H156.352V67.6271H142.496V54.5389H156.34V56.8209L144.846 56.8198Z" fill="white"/>
<path d="M145.895 18.9005V24.0737H143.735V11.1333C144.707 11.0291 145.702 10.9178 146.698 10.8165C148.735 10.6095 150.77 10.2967 152.809 10.2316C155.54 10.1443 157.7 11.5571 157.604 14.6069C157.561 15.9679 156.849 16.9332 155.724 17.6205C155.496 17.7599 155.25 17.8704 154.892 18.0575C156.957 19.5893 158.102 21.6756 158.932 24.121C158.034 24.121 157.229 24.148 156.428 24.0992C156.26 24.0892 156.068 23.8248 155.958 23.6359C155.387 22.6528 154.902 21.6132 154.267 20.6752C153.443 19.4577 152.302 18.8029 150.751 18.8816C149.158 18.9633 147.558 18.9005 145.895 18.9005ZM145.906 16.5783C148.306 16.5783 150.625 16.6075 152.943 16.5535C153.399 16.5428 153.882 16.2662 154.294 16.0155C155.059 15.5508 155.411 14.8435 155.252 13.9262C155.105 13.0814 154.429 12.7801 153.748 12.711C152.705 12.6048 151.641 12.62 150.592 12.6858C149.028 12.7838 147.469 12.9709 145.905 13.1202L145.906 16.5783Z" fill="white"/>
<path d="M132.438 38.5858C132.059 39.7556 131.726 40.8156 131.371 41.8678C131.039 42.8546 130.671 43.8296 130.344 44.8175C130.218 45.1964 130.041 45.3857 129.611 45.3506C129.079 45.3074 128.542 45.3403 128.012 45.3403L131.93 31.7271C133.368 35.7016 135.028 39.5463 138.156 42.5182C140.04 41.1432 141.742 38.2438 144.49 31.7563C145.798 36.282 147.097 40.7816 148.413 45.3392C147.833 45.3392 147.218 45.3868 146.618 45.3129C146.412 45.2878 146.152 44.9916 146.071 44.7635C145.365 42.7803 144.694 40.7845 143.966 38.6575C143.798 38.9304 143.661 39.1363 143.541 39.3519C142.288 41.6072 140.712 43.5933 138.783 45.3044C138.329 45.7074 138.045 45.6741 137.612 45.2889C135.702 43.5944 134.146 41.6212 132.894 39.3962C132.764 39.1626 132.632 38.9293 132.438 38.5858Z" fill="white"/>
<path d="M93.4469 67.6205V55.335C94.815 55.2041 96.161 55.0721 97.5056 54.9468C99.0039 54.807 100.5 54.6163 102.002 54.5479C105.523 54.3881 107.998 56.6922 108.494 59.9014C109.011 63.2681 106.939 66.6164 103.819 67.507C103.489 67.6009 103.143 67.6778 102.804 67.6793C99.842 67.6926 96.8803 67.6878 93.9186 67.6841C93.7733 67.6841 93.6299 67.6464 93.4469 67.6205ZM95.6476 65.505C95.8229 65.5449 95.941 65.5948 96.0569 65.5952C98.0287 65.6 100.003 65.6654 101.972 65.583C104.608 65.4721 106.56 63.013 106.253 60.3492C106.139 59.362 105.771 58.5264 104.959 57.9412C103.884 57.1673 102.697 56.7581 101.354 56.8856C99.9319 57.0219 98.5087 57.1507 97.0846 57.272C95.6479 57.3955 95.6476 57.3906 95.6476 58.8773V65.505Z" fill="white"/>
<path d="M138.071 61.743V54.391H140.504V68.225C137.34 64.158 133.641 60.8128 129.228 57.9581V58.9124C129.228 61.5966 129.212 64.2808 129.239 66.9646C129.245 67.5476 129.087 67.7728 128.49 67.7159C127.957 67.6652 127.416 67.7051 126.835 67.7051V53.7196C130.938 55.8329 134.663 58.3977 138.071 61.743Z" fill="white"/>
<path d="M77.7618 53.6885C81.9537 55.8724 85.6695 58.4209 89.0695 61.7706V54.3762H91.4572V68.1909C88.2736 64.1272 84.5941 60.799 80.2478 57.9832V67.6862C79.4776 67.6862 78.7947 67.7184 78.1183 67.6588C77.9844 67.647 77.7838 67.2851 77.7794 67.081C77.7497 65.639 77.7636 64.1971 77.7636 62.7552C77.7636 60.0454 77.7636 57.3357 77.7636 54.6261L77.7618 53.6885Z" fill="white"/>
<path d="M91.1851 14.4062V24.1033H88.8138V10.1807C92.9258 12.3066 96.6412 14.8669 100.053 18.2199V10.8133H102.433V24.6409C99.2457 20.5636 95.5651 17.2431 91.1851 14.4062Z" fill="white"/>
<path d="M170.204 55.2945L169.19 57.2654C167.847 56.8957 166.556 56.509 165.246 56.1969C164.728 56.0731 164.139 55.991 163.638 56.1152C163.077 56.2542 162.52 56.5777 162.068 56.9519C161.575 57.3586 161.674 57.8596 162.189 58.2637C163.238 59.0878 164.449 59.4524 165.752 59.5618C167.315 59.693 168.818 59.9962 170.183 60.851C171.395 61.6101 172.004 62.619 171.809 64.0805C171.61 65.5676 170.878 66.6353 169.448 67.13C167.756 67.7153 166.028 67.7985 164.265 67.4628C162.151 67.0605 160.226 66.2279 158.39 65.0082L159.872 63.0013C161.509 64.0539 163.124 65.0348 165.028 65.2936C165.877 65.409 166.748 65.3945 167.607 65.3727C167.934 65.3642 168.288 65.2248 168.576 65.0514C169.59 64.4469 169.603 63.4431 168.609 62.8117C168.293 62.6185 167.95 62.4744 167.592 62.3843C165.852 61.9243 164.105 61.4936 162.363 61.0403C161.983 60.9416 161.6 60.8292 161.245 60.6628C159.913 60.0384 159.025 58.653 159.141 57.4296C159.281 55.9644 160.486 54.5217 161.892 54.1568C164.79 53.4044 167.507 53.9934 170.204 55.2945Z" fill="white"/>
<path d="M172.669 11.7142C172.669 11.7812 172.678 11.8104 172.669 11.83C172.371 12.4282 172.207 13.2893 171.728 13.5433C171.302 13.7681 170.529 13.2952 169.902 13.1687C168.746 12.9362 167.587 12.7099 166.423 12.5306C166.124 12.4847 165.722 12.5273 165.499 12.7007C165.049 13.0497 164.526 13.4616 164.362 13.9577C164.279 14.2047 164.858 14.7863 165.247 15.0595C166.425 15.8891 167.83 15.9712 169.205 16.1202C170.486 16.2512 171.72 16.6767 172.812 17.364C174.014 18.119 174.526 19.1605 174.335 20.5728C174.147 21.9681 173.472 23.013 172.146 23.5132C170.685 24.0698 169.109 24.2496 167.561 24.036C165.17 23.7121 163.006 22.8326 160.929 21.4679L162.391 19.4714C162.937 19.7945 163.455 20.1114 163.982 20.4124C165.872 21.4916 167.875 22.0909 170.073 21.8447C170.172 21.8336 170.27 21.8232 170.367 21.8032C171.165 21.6391 171.797 21.066 171.871 20.4482C171.936 19.8737 171.461 19.2411 170.613 18.99C169.077 18.5349 167.517 18.1563 165.969 17.7415C165.279 17.5566 164.566 17.4261 163.909 17.158C162.481 16.5746 161.559 15.1534 161.685 13.8657C161.831 12.3546 163.054 10.9478 164.515 10.5844C167.388 9.86894 170.076 10.4605 172.669 11.7142Z" fill="white"/>
<path d="M89.5683 33.03L88.5685 34.9736C87.3614 34.6294 86.1925 34.2712 85.0107 33.9698C84.4606 33.8324 83.8965 33.7601 83.3298 33.7543C82.9494 33.7498 82.4932 33.8075 82.2027 34.0201C81.7853 34.3255 81.3026 34.7577 81.2073 35.2125C81.1471 35.5001 81.6819 36.0114 82.053 36.2747C83.1372 37.0444 84.4191 37.2093 85.7061 37.3221C87.0999 37.4441 88.4082 37.8227 89.6123 38.5751C90.8315 39.3367 91.3945 40.3745 91.1865 41.8287C90.983 43.251 90.289 44.2862 88.9239 44.7865C87.1901 45.4239 85.4123 45.5159 83.6056 45.1588C81.5253 44.748 79.6184 43.9294 77.7739 42.7064L79.1199 40.891C80.8218 41.5998 82.3703 42.3736 84.0014 42.8746C84.9579 43.1682 86.0476 43.0835 87.0742 43.0524C87.4758 43.0402 87.9273 42.7811 88.2523 42.5086C88.9459 41.9277 88.9015 41.1643 88.1716 40.633C87.8516 40.4028 87.4932 40.2322 87.1135 40.1294C85.3774 39.6611 83.635 39.2136 81.8862 38.787C80.2973 38.4002 79.0286 37.6364 78.6171 35.9312C78.2239 34.3026 79.5142 32.3264 81.2087 31.8554C83.7751 31.1411 87.1659 31.6051 89.5683 33.03Z" fill="white"/>
<path d="M117.894 67.8279C116.817 67.5961 115.696 67.4878 114.672 67.1099C111.67 66.0008 110.198 63.5388 110.491 60.3518C110.744 57.6228 113.004 55.3269 115.981 54.7922C118.37 54.363 120.598 54.7305 122.572 56.2249C125.522 58.4577 125.776 63.0411 123.089 65.5955C121.645 66.9691 119.902 67.6242 117.894 67.8279ZM117.556 65.5726C118.844 65.5904 119.903 65.2595 120.883 64.5344C123.259 62.7731 123.192 59.3864 120.751 57.713C119.476 56.8387 118.063 56.6286 116.577 56.8693C113.756 57.3267 112.111 59.9894 113.004 62.6126C113.593 64.3429 115.44 65.5438 117.556 65.573V65.5726Z" fill="white"/>
<path d="M195.343 67.63C194.466 67.63 193.754 67.6577 193.048 67.6108C192.861 67.5986 192.582 67.389 192.528 67.2119C192.019 65.5662 190.928 65.1414 189.28 65.2549C187.046 65.4091 184.792 65.3104 182.547 65.2811C182.006 65.2738 181.645 65.4191 181.453 65.933C181.433 65.9783 181.41 66.0221 181.383 66.0639C181.093 66.5748 180.904 67.3915 180.49 67.5298C179.767 67.7716 178.906 67.5971 177.951 67.5971C180.307 62.8025 182.985 58.3829 186.613 54.395C190.281 58.3292 192.919 62.8173 195.343 67.63ZM186.678 57.521C185.255 59.3937 183.898 61.0937 182.913 63.1039H190.516L186.678 57.521Z" fill="white"/>
<path d="M202.693 10.8488C206.336 14.82 209.002 19.2522 211.389 24.0867C210.483 24.0867 209.75 24.1115 209.022 24.0671C208.864 24.0575 208.64 23.8249 208.585 23.6504C208.079 22.0606 207.049 21.5855 205.401 21.7075C203.141 21.875 200.859 21.7685 198.587 21.736C198.034 21.7279 197.696 21.9042 197.504 22.4059C197.485 22.452 197.462 22.4964 197.436 22.5387C197.143 23.0459 196.945 23.8553 196.529 23.9928C195.803 24.2327 194.941 24.0597 194.001 24.0597C196.371 19.2714 199.033 14.8307 202.693 10.8488ZM202.74 13.9637C201.328 15.8378 199.965 17.5285 198.974 19.5727H206.581C205.257 17.6406 204.039 15.8615 202.74 13.9637Z" fill="white"/>
<path d="M126.109 45.3039C125.871 45.3317 125.797 45.3365 125.724 45.349C124.251 45.6004 123.091 45.2969 122.612 43.6594C122.444 43.0826 121.989 42.9569 121.397 42.9628C118.707 42.9954 116.017 42.9954 113.326 42.9628C112.776 42.9566 112.489 43.1558 112.234 43.6243C111.222 45.4903 111.207 45.4829 108.738 45.3036C111.074 40.5312 113.763 36.0775 117.413 32.0974C121.074 36.0634 123.734 40.5219 126.109 45.3039ZM117.465 35.2046C116.049 37.1105 114.656 38.7942 113.711 40.8177H121.315L117.465 35.2046Z" fill="white"/>
<path d="M82.6945 11.6785L84.681 11.047C84.7544 11.1106 84.8318 11.1461 84.8593 11.2049C86.0528 13.7293 86.7522 16.3921 86.7232 19.185C86.6843 22.9329 82.9909 25.6551 79.1676 24.8584C75.6279 24.1189 73.4621 21.4628 73.454 17.8414C73.4496 15.8079 73.454 13.7744 73.454 11.6948H75.7592C75.7592 11.9458 75.7592 12.2072 75.7592 12.4682C75.7621 14.3826 75.7254 16.2978 75.7779 18.2104C75.8512 20.8676 78.1619 22.8903 80.7928 22.6663C82.9968 22.4781 84.6608 20.3895 84.29 17.9889C84.0003 16.1126 83.4211 14.2813 82.963 12.432C82.9058 12.1961 82.8013 11.9717 82.6945 11.6785Z" fill="white"/>
<path d="M125.811 11.0862C123.464 15.9103 120.873 20.3892 117.177 24.2483C113.498 20.4313 110.899 15.9595 108.551 11.1139C109.435 11.1139 110.209 11.0769 110.972 11.1427C111.148 11.1583 111.312 11.5243 111.449 11.7495C113.048 14.3967 114.634 17.052 116.241 19.6941C116.469 20.069 116.79 20.3869 117.137 20.818C117.638 20.1895 118.159 19.659 118.541 19.0408C120.022 16.6405 121.486 14.227 122.895 11.7831C123.198 11.2577 123.486 11.0189 124.081 11.0762C124.593 11.1254 125.114 11.0862 125.811 11.0862Z" fill="white"/>
<path d="M194.959 13.0775L193.79 14.6525C192.533 14.2373 191.351 13.8273 190.155 13.4624C189.784 13.3492 189.377 13.3592 188.871 13.2993V24.1244C188.153 24.1244 187.539 24.1669 186.939 24.0941C186.793 24.0764 186.588 23.6822 186.585 23.4586C186.556 21.4454 186.566 19.4315 186.566 17.418C186.566 16.0793 186.566 14.7401 186.566 13.3178C184.774 13.2993 183.268 14.0203 181.697 14.7416L180.465 13.0982C184.429 10.4011 190.597 10.1485 194.959 13.0775Z" fill="white"/>
<path d="M93.1935 32.327H95.4246V43.2564H106.758V45.3295H93.1946L93.1935 32.327Z" fill="white"/>
<path d="M44.0818 66.5209C43.8529 67.1513 43.4553 67.778 44.0935 68.4113C44.1856 68.5026 44.2094 68.6831 44.2274 68.8269C44.4779 70.8522 45.5676 70.8393 47.0937 70.5091C47.5339 70.4145 47.9293 70.1183 48.4244 69.8762C47.7594 69.0698 46.9536 68.9237 45.9986 68.9888C46.0598 68.6561 46.1115 68.3773 46.1687 68.0678C46.91 67.975 47.6197 67.809 48.3254 67.826C48.7677 67.8368 49.3674 68.0039 49.5933 68.3204C49.791 68.5973 49.5658 69.1807 49.5174 69.7427C50.0892 70.0385 50.5715 69.5981 51.0579 69.1053C51.2376 68.9234 51.4844 68.8095 51.7892 68.7773C51.9728 68.4032 52.1562 68.0291 52.3394 67.6552L52.5789 67.7177C52.3808 68.5108 52.6486 69.136 53.0876 69.7663C53.2281 69.9678 52.9776 70.4448 52.895 70.8537C52.6706 70.725 52.6104 70.7117 52.5888 70.6755C51.7995 69.3378 51.8039 69.3445 50.4542 70.1265C50.2051 70.2703 49.8633 70.4736 49.641 70.4034C48.8297 70.1464 48.2935 70.6396 47.634 70.918C46.9745 71.1964 46.1973 71.2822 45.4737 71.2741C44.4577 71.2622 43.9424 70.6237 43.9054 69.5952C43.8966 69.3434 43.8401 69.0938 43.8056 68.8432L43.6193 68.8394C43.5712 69.0454 43.4979 69.2487 43.4799 69.4569C43.3937 70.447 43.2991 71.4375 43.2503 72.4302C43.1329 74.8127 44.2886 76.2831 46.6224 76.7619C48.0965 77.0643 51.1862 76.5441 52.2759 75.8098C51.2992 75.1687 50.1798 75.198 49.2042 75.7747C49.3326 75.0416 50.1097 74.4714 50.8913 74.5546C51.1114 74.5779 51.326 74.6448 51.5361 74.7129C52.4237 75.0009 53.3084 75.297 54.1439 75.5736C51.5284 76.8776 48.7424 78.0541 45.5859 77.2884C43.532 76.7904 42.6726 75.6246 42.6334 73.4872C42.6073 72.0749 42.6286 70.6618 42.6286 69.1215L41.474 70.4984L41.3119 70.3978C41.7696 69.7323 42.2776 69.092 42.666 68.3862C42.8921 67.9611 43.0108 67.4864 43.0119 67.0041C43.009 66.1734 43.3787 65.726 44.1592 65.5142C44.1225 65.8706 44.0906 66.2074 44.0572 66.5446L44.0818 66.5209ZM47.8346 68.2375C47.8159 68.3152 47.798 68.3924 47.7778 68.4701C48.073 68.6302 48.3551 68.8324 48.6694 68.9319C48.8161 68.9785 49.0263 68.8269 49.2078 68.7651C49.0978 68.6091 49.0149 68.3518 48.8777 68.3178C48.5443 68.2353 48.1838 68.2575 47.8346 68.2375Z" fill="white"/>
<path d="M24.2946 68.1448C25.1184 68.0912 25.3722 68.3943 25.4103 69.014C25.5292 70.9332 26.7733 71.6989 28.58 70.941C29.2527 70.6585 29.8612 70.2208 30.408 69.9058C30.6281 70.1686 30.8555 70.6711 31.099 70.6781C31.38 70.6866 31.68 70.2659 31.9602 70.0181C32.3057 69.7128 32.6388 69.3941 33.0873 69.2074C33.1944 68.8682 33.3018 68.5289 33.4094 68.1895L33.6184 68.2139C33.4284 68.9785 34.5856 69.7032 33.5297 70.5461C33.4306 70.4182 33.3488 70.3043 33.259 70.1971C32.7602 69.6033 32.5955 69.6181 32.1744 70.271C32.0134 70.5202 31.8553 70.779 31.6529 70.9916C30.9828 71.6941 30.4462 71.6161 29.9719 70.6981C29.6745 70.846 29.3737 70.9964 29.0744 71.1484C28.7443 71.3159 28.4307 71.5229 28.0871 71.649C26.277 72.3145 25.2068 71.5972 25.0872 69.6669C25.0601 69.2284 25.1664 68.6609 24.3643 68.7966C24.3643 70.6526 24.1901 72.5056 24.4149 74.308C24.6254 75.9951 25.7247 77.3283 27.9305 76.8591C28.7432 76.6868 29.5333 76.4062 30.3952 76.1567L30.8324 76.7031L31.3987 75.4975L31.6217 76.3393L31.7926 76.4047L32.3523 75.2349C32.6677 76.2983 32.2837 76.7856 31.3363 76.7508C30.7678 76.7305 30.1883 76.8532 29.6224 76.9582C28.8247 77.1061 28.0416 77.3464 27.2402 77.4607C25.2915 77.7391 24.5154 77.2052 23.9392 75.1022C23.4154 77.2255 21.7686 77.2156 20.2714 77.4766L20.1445 77.2292C20.6881 76.973 21.2082 76.6255 21.7804 76.478C23.3058 76.0849 23.7188 75.6971 23.7753 74.0884C23.8325 72.4617 23.7881 70.8278 23.7881 68.9888C22.7861 70.1782 21.3989 70.8375 21.6153 72.6491C21.7829 74.0507 21.4525 75.4072 20.3158 76.6499C21.1535 73.7516 20.8931 70.9613 20.9353 68.1917C20.9481 67.3469 21.2287 66.6511 21.7763 66.1771C21.7088 67.6515 21.6384 69.1911 21.5676 70.7306L21.7613 70.8086C22.2084 70.2474 22.6144 69.6451 23.1143 69.1367C23.6278 68.6151 23.9172 68.0727 23.9212 67.3147C23.9242 66.5146 24.5143 66.0795 25.158 65.6913C24.88 66.4851 24.6152 67.2356 24.2946 68.1448Z" fill="white"/>
<path d="M178.435 24.1152H176.319V11.1072H178.435V24.1152Z" fill="white"/>
<path d="M75.7434 67.701C75.1379 67.701 74.5983 67.7051 74.0592 67.6985C73.9168 67.6966 73.7753 67.6615 73.6132 67.6374V54.6724H75.7434V67.701Z" fill="white"/>
<path d="M173.813 54.6448H175.92V67.6557H173.813V54.6448Z" fill="white"/>
<path d="M104.431 11.0793H106.551V24.091H104.431V11.0793Z" fill="white"/>
<path d="M75.753 45.3517H73.6345V32.3434H75.753V45.3517Z" fill="white"/>
<path d="M32.2177 77.5657C33.9389 76.1046 34.2236 74.1787 34.3009 72.177C34.3578 70.7144 34.3332 69.2466 34.4385 67.788C34.5093 66.8057 34.9201 66.2991 35.8227 65.6847C35.8385 65.7556 35.8836 65.8377 35.8594 65.8717C34.9831 67.1384 34.9762 68.5519 35.0653 70.0208C35.2043 72.3112 35.259 74.6105 33.7684 76.5933C35.3697 77.101 37.8059 76.3216 37.9067 74.104C37.9881 72.319 37.9757 70.5291 37.9988 68.743C38.0142 67.52 38.3601 66.4448 39.3313 65.6407C39.3845 65.5967 39.4519 65.57 39.7391 65.4059C38.4848 67.2844 38.9157 69.2026 38.8497 71.0586C38.8204 71.8779 38.8097 72.6976 38.7884 73.5172C38.7367 75.5271 37.7013 76.5689 35.6488 77.2392C35.3185 77.3418 34.9774 77.4048 34.6325 77.4271C33.8293 77.4892 33.0227 77.521 32.2177 77.5657Z" fill="white"/>
<path d="M18.5271 65.8463C17.7686 67.2428 17.9534 68.7472 17.938 70.2279C17.9255 71.4691 17.8764 72.7095 17.8559 73.9506C17.8214 76.0315 16.1782 77.1133 14.8061 77.3806C13.9695 77.5433 13.1039 77.5558 12.0626 77.6538C14.5347 75.2166 13.9977 72.2385 14.0634 69.409C14.0946 68.0643 14.1342 66.7595 15.445 65.8966C14.2662 67.6986 14.7848 69.6948 14.7346 71.6236C14.6909 73.3613 14.7306 75.1094 13.6559 76.6293C15.5195 77.0659 16.9639 76.142 17.1036 74.3093C17.2426 72.5061 17.2026 70.6889 17.229 68.8773C17.2477 67.6931 17.5188 66.6216 18.5271 65.8463Z" fill="white"/>
<path d="M0.195607 72.9338C0.12702 71.6527 0.363223 70.409 1.17196 69.3801C1.4056 69.0824 1.89341 68.8802 2.2778 68.8573C2.45348 68.8465 2.72966 69.352 2.8419 69.6662C3.22408 70.7384 3.82486 71.0712 4.89988 70.6881C5.3158 70.5403 5.71082 70.3273 6.10217 70.1191C6.49352 69.911 6.8625 69.6755 7.31253 69.4082C7.2953 69.7087 7.28173 69.9398 7.25789 70.3543C7.99144 70.0766 8.63219 69.833 9.3199 69.5727C9.29129 69.7675 9.26819 69.9254 9.23334 70.1642L10.9392 70.0045L11.2007 68.4886L11.5 68.5197C11.5312 68.9235 11.5459 69.3298 11.599 69.7309C11.6522 70.1321 11.8595 70.1916 12.2923 70.2485C13.3585 70.3894 13.306 69.8178 13.2433 69.1024C13.2305 68.9567 13.4021 68.7944 13.4887 68.6395L13.7454 68.7249C13.6589 69.2425 13.6255 69.7753 13.4703 70.2704C13.3284 70.7244 12.9701 70.7809 12.4683 70.7617C11.5415 70.7266 10.6176 70.2171 9.6566 70.8024C9.15118 71.11 8.81558 70.683 8.72792 70.189C7.94852 70.2386 7.3107 71.5625 6.44584 70.3739C5.69175 70.69 4.91418 71.0763 4.09847 71.3429C2.94496 71.7219 2.32988 71.2645 2.17913 70.0441C2.15566 69.8526 2.01225 69.6744 1.92239 69.4928C1.74634 69.6108 1.49106 69.688 1.4089 69.8533C1.06523 70.5332 0.758609 71.2335 0.469589 71.9397C0.33975 72.2536 0.284367 72.6007 0.195607 72.9338Z" fill="white"/>
<path d="M40.9774 65.4794C40.2071 68.0497 40.6223 70.525 40.4566 72.9637C40.403 73.7523 40.3744 74.5657 40.1518 75.3125C39.9262 76.0701 39.4751 76.7593 39.0214 77.4355C39.8767 74.3158 39.653 71.1354 39.7692 67.9853C39.8048 67.0241 40.0945 66.1981 40.9774 65.4794Z" fill="white"/>
<path d="M54.3849 77.4433C55.1423 75.1118 55.1089 72.7038 55.1885 70.3076C55.223 69.2687 55.1962 68.2169 55.3601 67.1975C55.4533 66.6178 55.8755 66.0917 56.2481 65.5889C55.7299 68.2727 56.0101 70.9569 55.9004 73.62C55.841 75.0686 55.4397 76.3918 54.3849 77.4433Z" fill="white"/>
<path d="M19.8419 65.7882C19.7685 68.38 19.6922 71.1266 19.6068 73.8733C19.5664 75.1674 19.2103 76.3545 18.4056 77.4042C18.5684 76.0458 18.7896 74.7255 18.8714 73.3968C18.9814 71.6117 18.9759 69.82 19.0328 68.0317C19.068 66.9214 19.2609 66.4637 19.8419 65.7882Z" fill="white"/>
<path d="M4.6413 77.3547C5.46067 76.9639 6.28812 76.6189 7.06605 76.1838C7.7897 75.7789 8.18142 75.0994 8.36591 74.2804C8.42496 74.0176 8.63256 73.7887 8.7723 73.5447L8.99236 73.6397C8.93185 74.1451 8.86106 74.6498 8.81338 75.1556C8.70334 76.3132 9.38481 76.9395 10.5244 76.7531C11.068 76.6644 11.3951 76.3897 11.3181 75.8041C11.2513 75.2968 11.4916 75.1903 11.9156 75.2595C12.1745 76.1815 11.5855 77.0977 10.531 77.4205C9.45964 77.7481 8.61715 77.1547 8.19792 75.6872C7.42293 77.2164 6.3347 77.9873 4.6413 77.3547Z" fill="white"/>
<path d="M54.5063 65.9878C54.3893 67.3595 54.273 68.7814 54.1443 70.2026C54.0816 70.8937 54.0478 71.5935 53.9066 72.2698C53.7067 73.2259 53.0579 73.8496 52.1641 74.2729C53.6972 72.4557 53.4419 70.2429 53.5475 68.1244C53.5941 67.1898 53.9107 66.4474 54.5063 65.9878Z" fill="white"/>
<path d="M0.8396 76.8976C2.66688 76.434 4.77071 76.7065 5.98254 74.5683C5.4155 74.4474 4.975 74.3217 5.03589 73.6836C5.08907 73.129 5.38322 72.8702 5.90111 72.892C6.419 72.9138 6.59799 73.2214 6.54957 73.7465C6.40617 75.2623 4.70836 76.963 3.18954 77.01C2.40794 77.0329 1.62303 76.9386 0.8396 76.8976Z" fill="white"/>
<path d="M6.21405 68.2812L5.09905 68.5182C5.10675 68.5825 5.11446 68.6468 5.12253 68.7112C5.68113 68.8154 6.34022 68.9396 6.72424 68.4246C7.12769 67.8819 7.56012 67.7266 8.16677 67.7717C8.32595 67.7835 8.4932 67.6926 8.65678 67.6489C8.64309 67.5619 8.62976 67.4749 8.61681 67.3879L7.38847 67.5661C7.37637 67.4944 7.3639 67.4223 7.35179 67.3506C7.78716 67.2766 8.22032 67.1798 8.65898 67.1421C8.78772 67.131 9.04153 67.284 9.04373 67.3661C9.0474 67.5336 8.96084 67.8061 8.83797 67.8575C7.83667 68.276 6.83647 68.7211 5.79373 69.0077C5.40861 69.1138 4.91346 68.8169 4.46967 68.7034C4.68203 68.0486 5.2597 68.2771 5.70387 68.1943C5.86525 68.164 6.03653 68.1895 6.20305 68.1895L6.21405 68.2812Z" fill="white"/>
<path d="M5.06458 66.1733C5.14307 66.4088 5.20909 66.6055 5.27511 66.8018L5.46987 66.8599L5.94668 65.6635C6.33363 66.5977 6.06001 67.0251 5.124 67.071C5.01397 67.0762 4.91237 67.1494 4.80271 67.1667C4.5577 67.2063 4.31012 67.23 4.06365 67.2603C4.04935 67.0044 3.99983 66.7427 4.03137 66.4946C4.05632 66.2983 4.18139 66.1149 4.36844 65.9444V67.0026L4.54963 67.068L5.06458 66.1733Z" fill="white"/>
<path d="M27.941 65.9046V66.9398L28.1215 66.9979L28.6137 66.1257L28.8569 66.7195L29.0487 66.7638L29.4859 65.6151C29.9205 66.3586 29.615 66.9461 28.8448 67.0201C28.4824 67.057 28.1332 67.2334 27.5886 67.4072C27.6205 66.867 27.6505 66.3653 27.6803 65.8639L27.941 65.9046Z" fill="white"/>
<path d="M31.1419 66.2222C31.5593 66.0636 31.9675 65.8647 32.3988 65.77C32.5331 65.7404 32.8834 66.0188 32.868 66.1105C32.8129 66.4359 32.6428 66.7416 32.499 67.0973C32.3493 66.7076 32.2826 66.2617 32.148 66.2399C31.8736 66.1952 31.5611 66.379 31.2677 66.4684L31.1419 66.2222Z" fill="white"/>
<path d="M44.0594 66.5465C44.5095 66.5132 44.9599 66.4611 45.4103 66.4614C45.5159 66.4614 45.7136 66.6463 45.707 66.7361C45.6945 66.9021 45.564 67.0593 45.4503 67.2844L44.9735 66.8278L44.4292 67.2796C44.2968 66.9923 44.1886 66.7572 44.0804 66.5217L44.0594 66.5465Z" fill="white"/>
<path d="M41.5888 74.2009C41.4876 74.121 41.2048 73.9791 41.2221 73.8981C41.3185 73.4226 41.4847 72.9619 41.6255 72.4961L42.0213 72.6133C41.8918 73.0902 41.762 73.5672 41.5888 74.2009Z" fill="white"/>
<path d="M32.2459 73.342C32.4139 73.0092 32.561 72.6606 32.7649 72.3511C32.8144 72.2772 33.0513 72.3263 33.2025 72.3189C33.1581 72.4568 33.1504 72.6277 33.0624 72.7256C32.8621 72.9475 32.6222 73.1368 32.3985 73.3394L32.2459 73.342Z" fill="white"/>
<path d="M11.6801 66.1985C11.9867 65.6695 12.3872 65.5234 12.8273 65.7704C12.944 65.8362 12.8805 66.2278 12.794 66.5261C12.6557 65.6026 12.0828 66.1852 11.6801 66.1985Z" fill="white"/>
<path d="M50.745 72.4546C50.924 72.0945 51.0872 71.724 51.2977 71.3824C51.3362 71.3195 51.5677 71.3772 51.71 71.3794C51.6696 71.5177 51.666 71.6874 51.5812 71.7861C51.37 72.0353 51.1217 72.2531 50.8884 72.4834L50.745 72.4546Z" fill="white"/>
<path d="M28.8646 14.9842C29.0517 15.0925 29.1801 15.1509 29.2908 15.2334C31.4123 16.8169 33.5355 18.3975 35.643 19.9995C35.8161 20.1311 36.0142 20.4509 35.9669 20.6151C35.8026 21.183 35.8095 21.7642 36.3461 21.9779C36.7863 22.1531 37.3599 21.9945 37.8738 21.9671C37.9504 21.9631 38.0205 21.8666 38.0821 21.8233C39.9526 23.1639 40.2981 24.6425 39.017 26.0644C38.5145 26.622 37.88 27.127 37.2084 27.4483C36.0116 28.0199 34.7397 28.4314 33.501 28.9146C33.1904 29.0359 32.8867 29.176 32.6208 29.2892C32.6208 29.4441 32.6013 29.5054 32.6237 29.5372C33.4805 30.7492 33.3998 31.0941 32.0626 31.7948C31.4504 32.1153 30.7862 32.3512 30.2158 32.7324C29.5157 33.2001 28.8892 33.7791 28.2198 34.3189C27.8285 33.4556 26.9185 32.9413 25.966 32.4732C25.3461 32.1686 24.719 31.8743 24.1288 31.5145C23.3039 31.0098 23.2541 30.6017 23.8354 29.8138C23.9205 29.6984 23.9997 29.5786 24.1578 29.352C23.7785 29.1871 23.4642 29.0167 23.1308 28.9105C21.4587 28.3807 19.7807 27.8657 18.3602 26.7728C17.6369 26.2164 17.0786 25.5494 16.9363 24.5914C16.732 23.2172 17.5936 22.5044 18.5689 21.8226C19.1594 22.2785 19.799 22.4027 20.4057 21.9387C20.9536 21.5198 20.8645 20.9478 20.5443 20.3367L27.7115 14.9786C27.7595 15.1609 27.8024 15.2474 27.8024 15.3343C27.8072 17.9191 27.8178 20.5041 27.7925 23.0889C27.7903 23.3392 27.6092 23.6305 27.4324 23.8283C26.8455 24.4757 26.8173 25.3313 27.4067 25.8866C27.6595 26.1307 27.997 26.2656 28.347 26.2623C28.6971 26.2589 29.032 26.1177 29.2802 25.8688C29.867 25.2939 29.8208 24.458 29.2134 23.8147C29.033 23.6239 28.8518 23.334 28.8492 23.0881C28.8232 20.5034 28.8331 17.9183 28.8349 15.3336C28.8331 15.2441 28.8485 15.1539 28.8646 14.9842Z" fill="white"/>
<path d="M28.3314 35.6194C29.3767 33.1833 31.3786 32.4767 33.522 31.9739C34.6957 31.6974 35.8796 31.4334 37.0284 31.067C39.3919 30.3127 40.9191 28.8486 40.9797 26.0805C41.1095 26.2853 41.2657 26.4787 41.3659 26.6976C42.1438 28.3983 42.4919 30.1944 42.3866 32.0564C42.3609 32.5145 42.1379 33.0287 41.8504 33.3925C40.4225 35.1986 38.3854 35.8523 36.2387 36.252C35.1233 36.4594 34.0014 36.6313 32.8842 36.8273C31.1556 37.1308 29.5234 37.6388 28.3325 39.134C26.7396 37.1619 24.4623 36.9593 22.2576 36.5526C20.9262 36.3067 19.6069 35.9947 18.2839 35.7022C18.0913 35.6578 17.9046 35.5903 17.7279 35.5011C14.3671 33.8462 13.8958 32.9015 14.4126 29.6875C14.6147 28.4305 14.9378 27.2226 15.715 25.9692C15.7741 26.3741 15.825 26.6192 15.8434 26.8662C15.9802 28.5876 16.8417 29.8979 18.3884 30.5109C20.0969 31.1886 21.9044 31.6234 23.6854 32.1007C25.6356 32.6257 27.3712 33.4103 28.3314 35.6194Z" fill="white"/>
<path d="M34.7903 8.05114L33.9734 7.99864C34.436 6.34117 34.8845 4.73473 35.3573 3.04028C35.7431 3.80265 36.0542 4.49921 36.4386 5.15325C36.8229 5.80729 37.2788 6.42251 37.7417 7.11278C38.9154 5.91562 39.6178 4.57204 40.2285 3.07762L41.6123 7.95168H40.7757C40.5732 7.1187 40.3763 6.30864 40.139 5.33183L37.7762 8.30144L35.4926 5.39505C35.2535 6.29754 35.032 7.13755 34.7903 8.05114Z" fill="white"/>
<path d="M48.2117 20.2139H53.2366C53.2366 21.3009 53.3209 22.3657 53.2131 23.4105C53.1031 24.4786 51.856 25.3637 50.7242 25.3427C49.4085 25.3179 48.3214 24.4731 48.2268 23.2766C48.1487 22.2743 48.2117 21.2602 48.2117 20.2139ZM49.092 21.0576C49.0553 21.2073 49.0021 21.3249 49.001 21.4428C48.997 21.912 48.9948 22.3827 49.0172 22.8511C49.066 23.8671 49.7251 24.499 50.7612 24.5437C51.6627 24.5829 52.4117 23.9488 52.5019 22.9909C52.5606 22.3623 52.5129 21.7234 52.5129 21.059L49.092 21.0576Z" fill="white"/>
<path d="M50.5286 41.9281H48.9148V45.1525H48.1335V41.1036H53.1521V45.1577L52.4322 45.2146V41.9577H51.1947C51.1947 42.4565 51.2016 42.9456 51.1925 43.434C51.1859 43.7808 51.2361 44.1598 51.1132 44.4633C51.0182 44.697 50.6577 45.0157 50.4769 44.9809C50.0668 44.9 50.2201 44.5742 50.2935 44.226C50.4472 43.5109 50.4516 42.7656 50.5286 41.9281Z" fill="white"/>
<path d="M48.3665 29.8599C48.3749 27.4589 50.2832 26.1283 52.1876 27.1953C53.2648 27.7991 53.7625 29.39 53.3458 30.8977C52.9791 32.2261 52.0529 32.9134 50.7348 32.8365C49.3146 32.7537 48.361 31.5551 48.3665 29.8599ZM52.6944 29.8203C52.7113 28.4409 51.9242 27.5195 50.7945 27.6001C49.8248 27.6693 49.257 28.4568 49.1961 29.8185C49.1422 31.0142 49.6451 31.7984 50.569 31.9603C51.882 32.1895 52.6743 31.3917 52.6937 29.8203H52.6944Z" fill="white"/>
<path d="M48.6361 18.346L51.6 14.1537L51.403 13.9319L47.996 14.9486C47.7595 14.2913 47.8816 13.9452 48.5737 13.7785C50.0078 13.4332 51.4221 13.0061 53.022 12.7351L50.5921 17.4779H53.3389C53.369 17.8074 53.3906 18.041 53.4185 18.3471L48.6361 18.346Z" fill="white"/>
<path d="M6.98569 37.9719H7.775V42.0274H2.76373V37.9752H3.48298V41.1752H4.66107C4.69774 40.3784 4.68197 39.5854 4.78027 38.809C4.8749 38.0606 5.23837 37.949 5.65283 38.325C5.556 39.3085 5.46944 40.201 5.37078 41.1848L6.98459 41.278L6.98569 37.9719Z" fill="white"/>
<path d="M5.51044 33.2898L7.6315 32.2372C7.8259 32.7859 7.87944 33.0787 7.36706 33.2643C5.8475 33.8141 5.56582 34.349 5.86951 36.0631C6.31588 36.0631 6.78058 36.0823 7.24309 36.0579C7.78408 36.0298 7.9693 36.2461 7.77125 36.8576C6.35035 36.8576 4.90195 36.8691 3.45466 36.8395C3.30795 36.8365 3.07871 36.6058 3.0402 36.4439C2.89789 35.8435 2.77502 35.2308 2.72844 34.6164C2.67232 33.874 2.76328 33.1212 3.56909 32.7995C4.32208 32.4986 5.02813 32.6243 5.51044 33.2898ZM5.067 36.0257C5.067 35.3233 5.067 34.7605 5.067 34.1967C5.067 33.6821 4.79229 33.4092 4.30301 33.3959C3.78622 33.3819 3.44915 33.6621 3.43375 34.1886C3.42128 34.6027 3.52874 35.0186 3.54782 35.4353C3.56946 35.9159 3.80896 36.0783 4.26083 36.0302C4.49813 36.0065 4.73984 36.0272 5.067 36.0272V36.0257Z" fill="white"/>
<path d="M53.1547 38.0209C53.344 38.7751 53.0851 38.9426 52.4945 38.9267C51.1268 38.8898 49.7573 38.9153 48.1739 38.9153C48.9001 38.2742 49.4862 37.7976 50.0236 37.2707C50.5609 36.7439 51.0579 36.1616 51.5721 35.6022C51.5457 35.5319 51.5189 35.4617 51.4925 35.3911C50.5275 35.3911 49.5622 35.3744 48.5975 35.3981C48.1028 35.4103 47.9788 35.2162 48.1479 34.7404H53.2905C52.3368 35.9068 51.5028 36.9258 50.6064 38.0209H53.1547Z" fill="white"/>
<path d="M2.59064 54.7164L5.34146 51.4425H2.75569V50.6243H7.61217L4.31118 53.8235L4.45789 54.066C5.40821 54.066 6.35889 54.0797 7.30884 54.0601C7.76988 54.0509 7.96061 54.2017 7.79005 54.7164H2.59064Z" fill="white"/>
<path d="M33.0833 7.98303H32.1128C32.1032 6.95372 31.3869 6.94003 30.591 7.0051C30.101 7.04503 29.6007 6.96813 29.1147 7.03209C28.8774 7.06352 28.5341 7.25393 28.4688 7.44951C28.2712 8.04366 27.9084 8.12574 27.2974 7.95678C27.9047 6.05048 28.8811 4.37711 30.1582 2.76697C31.5439 4.31056 32.5096 5.9917 33.0833 7.98303ZM28.8287 6.29857H31.6334C31.1511 5.43156 30.7447 4.69988 30.3379 3.96931L30.0647 3.99002C29.6737 4.71726 29.2838 5.44561 28.8272 6.29857H28.8287Z" fill="white"/>
<path d="M48.1112 60.7112V59.8394C49.0567 59.3532 49.0567 59.3532 49.0567 58.1978C49.0567 57.7009 49.0886 57.1995 49.0384 56.7089C49.0182 56.5108 48.8458 56.2002 48.6932 56.1665C48.0826 56.0312 48.0576 55.646 48.1468 55.1609C49.4961 55.348 52.0661 56.7507 53.1584 57.909C51.6894 59.209 49.9641 60.0139 48.1112 60.7112ZM52.0023 57.9335L49.7496 56.6243V59.2227L52.0023 57.9335Z" fill="white"/>
<path d="M7.63594 20.5669L2.59497 17.8073C4.24143 16.2914 5.99609 15.5106 7.85307 14.7937V15.6759C6.89102 16.1535 6.89102 16.1535 6.89102 17.31C6.89102 17.7326 6.91376 18.1571 6.88515 18.5778C6.85398 19.0322 6.98088 19.2866 7.44889 19.4652C7.68362 19.5546 7.78999 19.9828 7.95467 20.2608L7.63594 20.5669ZM6.22642 16.2863L3.95241 17.5829L6.22642 18.9139V16.2863Z" fill="white"/>
<path d="M7.42296 13.7414L6.92891 13.3347C7.24433 12.4322 7.59277 11.6243 7.7846 10.7806C7.84952 10.4952 7.51722 10.1181 7.36647 9.78238C7.10166 9.99941 6.77963 10.1735 6.58304 10.4416C6.16271 11.0169 5.87039 11.6987 5.40018 12.2215C5.15298 12.4962 4.53386 12.7472 4.27381 12.6185C3.90924 12.4374 3.56117 11.9194 3.49221 11.4979C3.32826 10.4948 3.75813 9.61453 4.38935 8.78931L4.88266 9.13906C4.84599 9.23075 4.81774 9.29324 4.79647 9.35832C4.59144 9.98315 4.3534 10.6009 4.20743 11.2398C4.17075 11.394 4.40475 11.6938 4.58447 11.7837C4.69157 11.8369 5.0037 11.6569 5.1064 11.5023C5.46217 10.9673 5.74862 10.3854 6.09669 9.84412C6.42019 9.34019 6.76349 8.81111 7.50364 9.02C8.25444 9.23149 8.57023 9.80679 8.60581 10.5277C8.66449 11.7301 8.15944 12.7387 7.42296 13.7414Z" fill="white"/>
<path d="M7.08212 31.5528L6.33573 31.1421C6.81254 30.2606 7.19179 29.3855 6.88589 28.4135C6.7986 28.1362 6.48244 27.9329 6.27374 27.6933C6.07605 27.9177 5.81417 28.1114 5.69314 28.3721C5.36304 29.0845 5.17635 29.8772 4.7762 30.5413C4.23704 31.4327 3.26031 31.297 2.87336 30.2976C2.47357 29.265 2.70978 28.2641 3.20346 27.2574L3.65203 27.4892C3.56694 28.195 3.43783 28.825 3.44186 29.4543C3.44186 29.702 3.74152 29.9482 3.90474 30.1937C4.10206 30.0088 4.37861 29.8562 4.48131 29.6262C4.73255 29.0639 4.87999 28.4549 5.114 27.8833C5.32379 27.372 5.58714 26.8636 6.26457 26.9058C6.96145 26.9487 7.40158 27.3494 7.60001 28.0042C7.97118 29.245 7.67373 30.3889 7.08212 31.5528Z" fill="white"/>
<path d="M52.7472 51.0551C52.2495 50.9811 52.2125 50.78 52.3405 50.3311C52.4927 49.7995 52.5033 49.2138 52.4872 48.6541C52.4824 48.4829 52.2125 48.2403 52.0188 48.183C51.9037 48.149 51.6238 48.3779 51.5527 48.5465C51.2959 49.1606 51.1125 49.8069 50.8624 50.4261C50.6467 50.9648 50.3815 51.5013 49.6674 51.4458C48.9735 51.3919 48.5407 50.9826 48.3507 50.3237C47.9997 49.107 48.2891 47.9797 48.862 46.8147L49.5618 47.1645C49.3689 47.7401 49.1341 48.2596 49.0318 48.8045C48.9584 49.2024 48.9951 49.6501 49.1019 50.0439C49.166 50.2823 49.4536 50.4605 49.6406 50.6657C49.8398 50.4776 50.1035 50.323 50.2227 50.093C50.3903 49.7699 50.4259 49.3798 50.5642 49.0375C50.7296 48.6275 50.8778 48.1797 51.1562 47.8544C51.4001 47.57 51.8494 47.2314 52.1435 47.2839C52.5008 47.3471 52.8903 47.7386 53.0883 48.0895C53.4749 48.7757 53.2835 50.0224 52.7472 51.0551Z" fill="white"/>
<path d="M20.8161 3.45622L20.549 3.89654C19.8349 3.80559 19.2092 3.66917 18.5846 3.67471C18.3392 3.67656 18.096 3.99416 17.851 4.16793C18.0454 4.36389 18.2064 4.63673 18.4412 4.74137C19.0251 5.00017 19.6515 5.15989 20.2439 5.40687C20.7343 5.61096 21.1575 5.89342 21.1175 6.55079C21.075 7.24476 20.6891 7.65627 20.0876 7.86369C18.8545 8.28887 17.7128 7.93024 16.5299 7.37454L16.8079 6.80073C17.7549 6.94566 18.6051 7.1394 19.4626 7.17046C19.7528 7.18155 20.0587 6.78705 20.3572 6.5789C20.1005 6.35891 19.8705 6.07496 19.5753 5.9315C18.9363 5.62131 18.2182 5.45383 17.6211 5.08632C17.3056 4.89259 16.9242 4.31212 17.0104 4.0633C17.1571 3.64551 17.5972 3.18927 18.0183 3.04212C18.9415 2.7175 19.8624 2.98297 20.8161 3.45622Z" fill="white"/>
<path d="M2.74872 59.7801V58.9386C3.58754 59.0417 4.40508 59.2155 5.22482 59.2262C6.37907 59.2418 7.0444 58.6979 7.0334 57.9041C7.02129 57.0146 6.30681 56.4622 5.12359 56.5424C4.34346 56.5949 3.57213 56.7794 2.76229 56.9103V56.023C3.79696 55.9557 4.84228 55.8011 5.87989 55.8418C7.06164 55.8865 7.89495 56.84 7.88212 57.9211C7.86891 59.0336 7.05247 59.9413 5.85935 59.9757C4.84154 60.0052 3.8186 59.8544 2.74872 59.7801Z" fill="white"/>
<path d="M2.8715 42.9323C4.65953 43.4624 6.3192 44.1546 7.82298 45.4135C6.32543 46.7223 4.61919 47.4632 2.79814 48.0074C2.56121 47.3826 2.81098 47.1353 3.38315 46.9245C4.41013 46.5463 5.39712 46.0538 6.40099 45.6094C6.40429 45.4952 6.40796 45.3809 6.41126 45.2667C5.39199 44.826 4.38518 44.3505 3.34721 43.9597C2.85719 43.776 2.63676 43.5626 2.8715 42.9323Z" fill="white"/>
<path d="M21.8819 7.92653C21.8819 6.33487 21.864 4.80089 21.908 3.26802C21.9127 3.10127 22.2777 2.94526 22.4757 2.78406L22.6657 2.93897V7.14753H26.2297C26.2444 7.4385 26.2546 7.64888 26.2686 7.92617L21.8819 7.92653Z" fill="white"/>
<path d="M3.78999 22.5528C3.22258 23.2498 4.48393 23.9604 3.41331 24.5142C2.51911 22.9514 2.58439 21.4411 3.39534 19.8557L3.99208 20.1478C3.8252 20.6565 3.66968 21.132 3.47199 21.7346H7.82452V22.5532L3.78999 22.5528Z" fill="white"/>
<path d="M47.5673 12.561C47.4158 12.3196 47.3135 12.1565 47.1722 11.9325L51.4679 9.1488C51.6117 9.35733 51.7412 9.54404 51.893 9.76329L47.5673 12.561Z" fill="white"/>
<path d="M53.2057 53.069V53.7592C51.5864 53.7592 49.9733 53.7714 48.361 53.7348C48.2366 53.7319 48.12 53.3851 47.9164 53.0693L53.2057 53.069Z" fill="white"/>
<path d="M14.7584 7.94008V2.96546L15.4579 2.92517C15.4579 4.55195 15.4729 6.10848 15.4355 7.66575C15.4315 7.824 15.1142 7.97484 14.9422 8.12939L14.7584 7.94008Z" fill="white"/>
<path d="M7.82525 25.4148V26.0703H2.78647C2.76777 25.8736 2.7498 25.6703 2.72412 25.4137L7.82525 25.4148Z" fill="white"/>
<path d="M2.78287 48.8582H7.67347C7.89647 49.3613 7.77616 49.5817 7.20876 49.5739C5.90634 49.5566 4.60465 49.554 3.30113 49.5762C2.81405 49.5847 2.59472 49.4456 2.78287 48.8582Z" fill="white"/>
</svg>
