<svg width="287" height="57" viewBox="0 0 287 57" fill="none" xmlns="http://www.w3.org/2000/svg">
<path d="M244.583 23.8257C244.583 18.7605 244.543 13.6954 244.601 8.64355C244.628 6.51085 245.682 5.64177 247.717 5.82572C249.58 5.99367 250.362 7.25996 250.242 9.29135C250.024 12.9649 249.976 16.6492 249.87 20.3307C249.835 21.3971 249.814 22.4634 249.739 23.5298C249.649 24.7801 249.915 25.004 251.07 24.4362C253.31 23.3405 255.79 22.8271 258.281 22.9433C262.517 23.1032 265.518 24.9454 267.647 28.7816C270.427 33.7961 268.977 43.6491 264.403 47.52C262.226 49.3238 259.754 50.7371 257.097 51.6974C256.338 51.9853 255.295 51.5721 254.396 51.4175C253.832 51.3215 253.294 51.0789 252.733 50.9563C251.916 50.7777 251.421 51.0816 251.464 51.98C251.506 52.8784 251.277 53.8834 250.343 53.9714C249.92 53.9936 249.497 53.9289 249.1 53.7812C248.703 53.6336 248.34 53.4062 248.034 53.113C246.302 51.1616 245.639 48.7143 245.413 46.1497C245.099 42.4362 244.716 38.7253 244.572 35.0064C244.428 31.2875 244.54 27.5419 244.54 23.8284L244.583 23.8257ZM263.741 35.6382L263.522 35.5502C263.397 34.4839 263.347 33.4175 263.131 32.3858C262.703 30.3198 260.854 28.6536 258.914 28.4936C256.385 28.2738 253.844 28.7533 251.567 29.8799C250.439 30.4291 249.684 31.3328 249.819 32.7377C249.992 34.5425 250.24 36.3446 250.264 38.1521C250.288 40.0475 251.011 41.1485 252.557 42.4175C254.486 44.017 256.346 44.1397 258.459 43.8731C260.031 43.6758 261.628 43.108 262.213 41.4951C262.887 39.6103 263.235 37.5976 263.73 35.6382H263.741Z" fill="#F26837"/>
<path d="M36.2381 18.683C36.0864 22.5538 34.1946 25.0544 32.2096 27.515C30.1741 30.0396 27.9683 32.3749 25.2729 34.225C23.6391 35.3447 22.9766 36.723 23.6072 38.8983C24.2059 40.9564 24.754 42.9691 25.9247 44.7846C26.8374 46.1975 28.261 46.5547 29.7271 46.4481C30.8845 46.3654 32.0526 45.9469 33.1409 45.4937C34.623 44.8725 36.5122 45.2591 37.2545 46.5067C37.7388 47.3198 37.1002 49.0233 35.9747 49.8711C34.8101 50.7894 33.4723 51.4626 32.0416 51.8501C30.6109 52.2377 29.1168 52.3316 27.649 52.1264C24.0622 51.6492 21.5131 49.5378 19.8182 46.4641C18.5383 44.1421 17.5485 41.6655 17.3143 38.9623C17.2798 38.5731 16.9445 38.1625 16.6571 37.8506C16.0318 37.1655 15.3267 36.5657 14.6908 35.8805C13.0943 34.1237 13.2699 31.9324 15.2229 30.5888C16.1915 29.9276 16.5055 29.1812 16.5533 28.0669C16.7344 23.8117 17.9384 19.6634 20.063 15.9745C22.0745 12.5088 25.3846 10.2055 29.8042 11.5491C31.1346 11.9543 32.2176 13.2206 33.3697 14.1483C34.019 14.6815 34.5538 15.3373 35.1764 15.8972C35.5711 16.2361 35.875 16.6684 36.0604 17.155C36.2458 17.6415 36.3069 18.1668 36.2381 18.683ZM23.2001 27.6243C23.7562 27.3337 24.1234 27.2404 24.3469 27.0085C25.5975 25.6969 26.9039 24.4226 28.0055 22.991C28.6228 22.1913 28.9581 21.1249 29.2588 20.1412C29.3785 19.7413 29.0858 18.8083 28.9395 18.8083C28.3328 18.7683 27.5532 18.8083 27.1248 19.1602C26.4676 19.7067 25.9806 20.4931 25.5283 21.2582C24.456 23.1377 23.2905 25.0224 23.2081 27.6243H23.2001Z" fill="#F26837"/>
<path d="M161.557 36.7819C161.946 32.7058 162.065 28.8269 162.755 25.0521C163.313 21.9756 165.016 19.2804 167.278 17.0544C169.242 15.1083 173.204 14.6338 176.016 16.0201C179.85 17.9128 182.344 21.0852 184.054 24.9001C185.369 27.8625 185.978 31.0905 185.835 34.3293C185.76 36.51 184.853 38.3681 183.913 40.2209C182.051 43.8838 179.856 47.3148 176.673 49.9753C175.465 51.002 174.15 51.8958 172.751 52.6412C169.292 54.4433 163.454 52.1853 162.667 46.8749C162.156 43.4652 161.903 40.0183 161.557 36.7819ZM167.267 37.4537C167.496 40.4208 167.446 42.7188 167.893 44.9181C168.531 48.0452 169.755 48.4291 172.344 46.627C176.037 44.0384 178.273 40.3062 180.114 36.3367C181.492 33.3403 181.567 30.1599 179.438 27.5127C178.153 25.9131 176.333 24.6548 174.545 23.5938C173.286 22.85 171.495 23.9404 170.742 25.6812C169.932 27.5078 169.241 29.385 168.672 31.3009C168.047 33.5322 167.635 35.8275 167.267 37.4537Z" fill="#F26837"/>
<path d="M230.017 20.1708C230.22 19.8848 230.407 19.5885 230.579 19.2831C231.377 17.6702 232.441 17.0517 234.078 17.281C235.408 17.465 236.52 18.8112 236.834 20.3254C237.396 23.026 236.821 25.6758 236.228 28.2164C235.083 33.0199 235.412 38.0578 237.172 42.6708C237.543 43.8097 237.766 44.9914 237.838 46.1871C237.965 47.5787 236.547 48.4557 235.411 47.6107C234.376 46.8761 233.514 45.9222 232.888 44.8168C231.896 42.9001 231.223 40.818 230.409 38.8079C230.331 38.6133 230.22 38.4347 229.988 37.9869C229.291 38.8799 228.759 39.6797 228.112 40.3675C226.755 41.8097 225.451 43.3319 223.921 44.5716C221.668 46.4057 219.254 46.0378 217.144 44.0704C214.96 42.0363 214.239 39.5384 214.138 36.6726C214.018 33.2763 213.989 29.8373 215.529 26.7822C216.837 24.2278 218.457 21.8458 220.351 19.691C222.453 17.2757 227.2 17.5289 229.477 19.8349C229.647 19.9634 229.827 20.0758 230.017 20.1708ZM220.194 36.0221C220.236 36.9472 220.194 37.8882 220.345 38.7893C220.486 39.6317 221.056 39.9329 221.774 39.3038C222.493 38.6746 223.302 38.0428 223.834 37.2537C225.614 34.6225 227.293 31.922 228.993 29.2348C229.27 28.7305 229.493 28.199 229.661 27.6486C230.033 26.6382 229.661 25.9558 228.732 25.4759C227.668 24.9427 224.824 25.6039 223.863 26.7289C221.585 29.4001 220.146 32.4098 220.194 36.0221Z" fill="#F26837"/>
<path d="M143.661 49.5271C140.13 49.7937 137.421 47.8742 134.936 45.2617C133.4 43.6622 132.086 41.9427 131.594 39.7833C130.628 35.5312 130.077 31.3858 132.161 27.1124C134.821 21.6554 138.89 17.7285 143.961 14.7294C145.763 13.6631 147.745 12.8633 149.985 12.9486C153.471 13.0899 155.451 15.4892 154.74 18.8909C154.389 20.5784 153.357 21.1035 151.813 20.3358C150.483 19.6693 149.153 19.7706 147.865 20.4051C144.155 22.2285 140.835 24.6065 138.488 28.0455C137.11 30.0662 135.912 32.2042 136.492 34.9767C136.961 37.2081 137.24 39.4794 138.767 41.2442C141.574 44.4886 145.132 45.195 149.086 42.6891C151.172 41.3562 153.245 40.0072 155.411 38.8236C156.161 38.4789 157.008 38.4082 157.805 38.6237C159.439 39.0635 159.902 40.5617 158.95 41.972C157.633 43.8994 155.685 45.0777 153.772 46.264C152.987 46.7519 152.114 47.1065 151.345 47.6156C149.075 49.1165 146.587 49.687 143.661 49.5271Z" fill="#F26837"/>
<path d="M52.304 22.8201C53.5812 22.8201 54.6987 22.7001 55.7631 22.8601C56.5248 22.9817 57.2368 23.3162 57.8172 23.8251C58.4133 24.3583 58.5064 25.1847 57.6762 25.7579C56.3458 26.6856 55.0154 27.6587 53.6211 28.4851C52.594 29.0902 52.0246 29.818 52.139 31.039C52.5275 35.0965 52.8761 39.1539 53.2885 43.2087C53.3813 43.8676 53.5761 44.508 53.8659 45.1068C54.5737 46.7063 55.5209 46.837 56.6704 45.5493C57.6416 44.459 58.6155 43.3713 59.5601 42.257C60.1854 41.5239 61.0209 41.1906 61.7925 41.6652C62.3247 41.9931 62.6785 42.7662 62.8701 43.414C63.546 45.696 62.4657 47.5114 60.9836 49.047C59.9554 50.0849 58.8035 50.992 57.5538 51.7475C55.1431 53.2484 51.8144 52.4326 49.9359 50.2546C47.2458 47.1275 46.8839 43.3233 46.5354 39.5005C46.4103 38.1329 46.3757 36.7573 46.2693 35.387C46.2028 34.486 45.5987 34.6779 45.0027 34.7686C43.4781 34.9951 40.2611 32.7052 39.9472 31.1989C39.6811 29.9193 40.1787 29.1276 41.4958 28.5064C42.7233 27.944 43.9166 27.3093 45.0692 26.6056C45.2564 26.4579 45.409 26.2708 45.5161 26.0575C45.6232 25.8442 45.6823 25.61 45.6892 25.3713C45.5908 22.9054 45.4231 20.4395 45.2156 17.9789C45.1517 17.1951 44.8005 16.4353 44.7499 15.6516C44.6063 13.5029 45.04 12.8311 46.8972 12.0127C47.6343 11.6946 48.4506 11.6087 49.2375 11.7663C50.0245 11.9239 50.7451 12.3176 51.3035 12.8951C52.634 14.228 52.634 15.9075 52.5594 17.6137C52.4849 19.3198 52.3945 21.058 52.304 22.8201Z" fill="#F26837"/>
<path d="M86.6312 39.4317C84.9123 39.3144 83.4675 39.1011 82.0307 39.1358C77.7042 39.2424 73.4469 35.7368 73.6225 31.5061C73.7422 28.6376 73.3724 25.7131 73.8194 22.9086C74.2238 20.3814 75.3041 17.9261 76.3472 15.5508C77.2279 13.5434 80.3703 12.2478 82.4857 12.765C82.9362 12.923 83.3448 13.1819 83.6804 13.5221C84.2445 14.0153 84.7021 14.6444 85.3008 15.0843C86.115 15.6788 86.6445 16.3132 86.4902 17.4036C86.4425 17.8957 86.2383 18.3594 85.9078 18.7266C85.5773 19.0937 85.1379 19.3448 84.6542 19.443C81.6582 20.2427 80.1149 22.5034 79.5987 25.2253C79.1863 27.3393 79.4949 29.6319 79.7211 31.8206C79.8488 33.0416 81.2111 33.7587 82.8342 33.8147C84.8245 33.884 86.8255 33.956 88.8051 33.9613C92.2642 33.9773 94.1268 37.2697 92.5489 40.7726C90.3271 45.7258 86.7749 49.658 83.095 53.4995C81.6422 55.0164 79.5588 55.4936 78.2896 54.8005C76.9166 54.0487 76.5015 53.0436 77.1321 51.5854C78.3298 48.8629 80.0879 46.4247 82.2914 44.4302C83.5899 43.2279 84.8352 41.9643 86.0645 40.698C86.3039 40.4314 86.3784 40.0022 86.6312 39.4317Z" fill="#F26837"/>
<path d="M6.4422 17.9685C6.72159 20.6343 7.18989 23.3002 7.24045 25.9794C7.31495 30.5381 7.13668 35.0994 7.03291 39.658C6.96107 42.8571 6.81738 46.0348 6.74288 49.2258C6.72425 50.1083 7.06483 50.6521 8.1398 50.4255C8.74001 50.2767 9.36997 50.3007 9.95715 50.4948C11.6015 51.1853 11.8889 52.7421 10.4893 53.8271C9.28159 54.7642 7.94429 55.5203 6.51938 56.0718C4.84572 56.7116 1.95873 54.7095 1.14186 52.6062C0.152031 50.0496 0.447373 47.4344 0.56711 44.7792C0.785297 39.9619 0.833201 35.1287 0.793289 30.3061C0.761359 26.4699 0.489953 22.6364 0.324982 18.8029C0.210567 16.1663 0.0323001 13.5298 0.000370329 10.8933C-0.0209162 9.27773 0.878427 8.08341 1.93211 7.98744C3.61641 7.83282 5.45238 8.90717 5.7158 10.4507C6.14153 12.9326 6.37037 15.4492 6.68434 17.9498L6.4422 17.9685Z" fill="#F26837"/>
<path d="M204.42 34.4408C204.253 30.6339 203.973 26.8297 203.939 23.0229C203.889 17.5276 203.946 12.0332 204.109 6.53977C204.157 4.94025 204.689 3.34073 205.104 1.76253C205.242 1.18806 205.595 0.688782 206.091 0.368168C206.586 0.0475537 207.186 -0.0698207 207.765 0.0403681C208.862 0.267896 209.834 0.898413 210.49 1.80784C210.913 2.46898 210.458 3.67396 210.418 4.64434C210.24 9.19587 210.063 13.7456 209.886 18.2936C209.83 19.7545 209.694 21.2261 209.731 22.671C209.827 26.6698 209.997 30.6393 210.13 34.6248C210.245 38.3383 210.33 42.0519 210.439 45.7654C210.463 46.5492 210.49 47.365 209.553 47.6102C208.616 47.8555 207.597 47.9541 207.065 46.9438C206.331 45.5522 205.469 44.1339 205.165 42.6277C204.633 39.9618 204.466 37.1947 204.149 34.4728L204.42 34.4408Z" fill="#F26837"/>
<path d="M197.603 11.2477C197.396 19.3492 197.047 26.3632 197.1 33.3744C197.135 37.7918 197.806 42.2038 198.098 46.6238C198.149 47.3809 197.952 48.3699 197.473 48.8818C197.082 49.2977 195.906 49.4896 195.427 49.2017C194.538 48.6685 193.516 47.8208 193.245 46.8984C192.545 44.6555 192.111 42.3381 191.952 39.9938C191.686 34.6834 191.71 29.3596 191.579 24.0412C191.51 21.3327 191.337 18.6295 191.263 15.9236C191.223 14.4654 191.318 13.0045 191.3 11.5462C191.3 10.6212 191.207 9.68012 191.106 8.77372C190.986 7.68871 190.84 6.59304 191.944 5.90791C193.048 5.22278 194.054 5.65998 195.041 6.28113C197.311 7.69671 197.521 9.99736 197.603 11.2477Z" fill="#F26837"/>
<path d="M63.6736 9.27002C67.2365 9.80319 69.3571 11.3121 67.436 14.7724C67.1939 15.2069 67.1699 15.7801 67.1061 16.2973C66.8959 18.446 66.7149 20.5973 66.526 22.7487C66.4169 23.9857 65.5335 24.6628 64.5544 25.0413C64.1339 25.204 63.1095 24.8281 62.9419 24.4442C62.1312 22.6538 61.4785 20.7957 60.9915 18.8912C60.6613 17.4619 60.5847 15.9856 60.7653 14.5298C60.9835 13.0615 61.4325 11.6371 62.0958 10.3097C62.3645 9.73922 63.3038 9.49395 63.6736 9.27002Z" fill="#F26837"/>
<path d="M285.578 17.0807C285.472 23.4848 284.966 29.8759 284.061 36.2164C284.057 36.4312 284.028 36.6449 283.976 36.8535C283.649 37.7066 283.495 38.7463 282.241 38.7196C281.691 38.7287 281.159 38.5239 280.756 38.1481C280.353 37.7723 280.111 37.2548 280.081 36.7042C279.934 34.7048 279.956 32.6894 279.977 30.682C280.038 24.3639 280.206 18.0484 280.161 11.733C280.147 10.1335 279.807 8.47528 278.452 7.24098C277.425 6.30259 277.423 4.84169 278.266 3.77534C278.931 2.94359 280.624 2.65301 281.613 3.35147C282.981 4.31119 284.2 5.50283 284.439 7.25165C284.886 10.528 285.216 13.807 285.578 17.0807Z" fill="#F26837"/>
<path d="M283.62 44.4111C286.094 44.6057 287.273 45.8294 286.906 48.2367C286.687 49.4955 286.268 50.7107 285.663 51.8356C284.899 53.3152 283.186 53.5631 281.832 52.566C279.647 50.9665 279.397 46.9011 281.472 45.1549C282.023 44.699 282.899 44.6484 283.62 44.4111Z" fill="#F26837"/>
</svg>
