<svg width="879" height="434" viewBox="0 0 879 434" fill="none" xmlns="http://www.w3.org/2000/svg">
<path d="M494.074 226.392C495.287 230.806 496.176 235.303 496.733 239.846C496.733 243.288 496.733 246.573 496.733 249.389C496.914 252.948 497.545 256.469 498.61 259.87C500.051 263.276 501.253 266.779 502.208 270.351C502.208 272.072 502.208 273.167 502.208 274.732C502.057 278.941 501.101 283.083 499.392 286.934C497.672 293.817 499.392 294.912 496.264 302.578C495.829 304.272 495.307 305.943 494.699 307.583C492.765 316.096 492.028 324.836 492.509 333.552C492.509 340.592 492.509 350.76 485.313 356.862C478.117 362.963 471.234 368.438 467.166 371.254C463.908 373.457 460.916 376.029 458.249 378.919C456.188 380.76 454.444 382.926 453.087 385.333C450.897 389.244 444.952 391.278 443.075 395.345C442.637 396.436 441.939 397.403 441.041 398.161C438.666 400.752 435.554 402.554 432.124 403.324C415.432 413.739 397.3 421.645 378.309 426.789C362.1 431.785 345.209 434.213 328.249 433.985C314.483 432.734 300.403 432.421 286.793 429.918C271.377 427.184 256.931 420.501 244.868 410.52C237.666 404.921 232.486 397.127 230.115 388.318C227.743 379.51 228.309 370.169 231.727 361.711C235.588 348.43 240.184 335.373 245.494 322.602C250.004 310.747 258.757 300.99 270.054 295.225C271.775 295.225 272.87 292.253 274.591 291.47C276.312 290.688 281.944 288.342 283.664 289.593C285.385 290.845 289.766 296.789 288.827 298.98C284.29 309.617 291.486 318.378 291.643 328.077C291.877 332.037 291.877 336.007 291.643 339.966C290.861 351.699 291.643 360.929 306.348 361.085C317.299 361.085 328.406 363.901 339.356 364.37C346.498 364.249 353.616 363.516 360.632 362.18C379.772 358.683 398.179 351.965 415.072 342.313C418.615 340.728 421.93 338.676 424.928 336.212C432.369 329.768 438.362 321.824 442.514 312.899C446.667 303.975 448.883 294.273 449.019 284.431C448.558 271.309 447.146 258.239 444.795 245.321C442.319 232.277 439.134 219.378 435.253 206.681C432.863 208.259 430.613 210.038 428.526 212C416.254 224.594 401.424 234.41 385.036 240.785C370.518 247.091 354.872 250.39 339.044 250.484C324.28 251.627 309.55 247.889 297.118 239.846C287.637 233.262 279.73 224.661 273.965 214.66C263.559 197.775 257.437 178.602 256.131 158.811C253.743 143.285 253.218 127.53 254.567 111.88C255.506 107.03 254.567 101.868 255.349 96.2359C257.817 87.3502 261.446 78.8291 266.143 70.8931C268.177 66.1999 266.143 66.6691 268.021 63.3839C269.898 60.0987 272.088 54.3105 285.542 40.7004C291.497 34.2234 297.986 28.2579 304.94 22.8665C308.819 20.2347 312.529 17.361 316.047 14.2624C318.081 12.698 319.332 10.0386 321.523 8.94354C334.203 1.2101 347.431 -5.587 361.101 -11.3934C368.456 -14.7096 376.405 -16.5023 384.471 -16.6636C392.537 -16.8249 400.552 -15.3515 408.033 -12.332C418.074 -8.31091 429.279 -8.31091 439.32 -12.332C444.754 -13.992 450.537 -14.1409 456.049 -12.7629C461.562 -11.3849 466.594 -8.53191 470.608 -4.51013C475.585 0.573818 479.611 6.50795 482.497 13.0111C490.617 27.2209 493.496 43.8287 490.632 59.9425C490.632 61.194 490.632 62.6019 490.632 63.8534C490.632 73.2397 490.632 82.6258 490.632 92.012C490.632 94.9844 487.503 97.644 486.721 100.773C485 107.343 484.844 114.539 482.497 120.953C479.703 131.195 479.703 141.999 482.497 152.241C484.218 163.348 485.157 174.611 486.408 185.875C486.585 187.595 487.006 189.28 487.66 190.881C490.085 198.304 491.3 206.068 491.258 213.877C491.123 215.909 491.123 217.947 491.258 219.978C491.66 222.314 492.627 224.516 494.074 226.392ZM319.02 189.629V190.881C321.835 192.445 324.495 194.323 327.311 195.574C332.429 198.682 338.035 200.903 343.893 202.144C357.999 203.873 372.249 200.366 383.941 192.289C386.288 190.568 389.104 189.316 391.45 187.596C400.833 180.706 409.816 173.29 418.357 165.381C421.306 162.471 423.491 158.878 424.719 154.922C425.947 150.965 426.18 146.766 425.397 142.698C425.658 134.53 424.763 126.367 422.738 118.45C419.723 109.649 417.524 100.59 416.167 91.3864C416.167 90.1349 416.167 88.1012 416.167 84.0338C416.167 79.9664 416.167 76.6811 415.229 71.988C415.402 71.1626 415.402 70.3105 415.229 69.4852C414.69 64.2065 413.749 58.9767 412.413 53.8414C411.707 50.8991 409.92 48.33 407.407 46.6451C404.189 44.6499 400.477 43.5928 396.691 43.5928C392.904 43.5928 389.193 44.6499 385.975 46.6451C366.905 53.2462 349.501 63.923 334.976 77.9327C334.037 79.1842 332.317 79.4971 331.378 80.5921C325.572 85.1794 320.321 90.4296 315.734 96.2359C310.33 103.353 305.861 111.134 302.437 119.389C304.002 130.026 304.627 138.787 304.94 145.044C304.877 150.28 305.244 155.512 306.035 160.688C307.941 168.749 310.997 176.494 315.109 183.685C316.22 185.786 317.53 187.777 319.02 189.629Z" fill="#F26837"/>
<path d="M815.053 81.8423C815.053 84.3453 811.455 86.5355 810.986 89.1949C810.593 93.5141 810.593 97.8601 810.986 102.179C811.38 105.714 811.38 109.282 810.986 112.817C808.327 121.265 804.728 129.556 801.6 138.003C798.471 146.451 797.22 150.362 794.717 156.463C793.266 158.758 791.532 160.861 789.554 162.721C781.827 171.867 774.669 181.48 768.122 191.505C763.585 199.327 755.294 201.83 749.819 208.244C744.74 214.082 739.02 219.33 732.767 223.888C724.163 230.458 714.777 236.09 705.547 241.878C698.528 246.568 691.153 250.7 683.489 254.237C658.772 263.936 633.586 272.853 606.678 264.562C592.843 260.852 579.979 254.179 568.977 245.007C552.668 231.949 540.853 214.117 535.186 194.008C531.802 180.353 530.277 166.303 530.649 152.239C530.101 145.68 530.101 139.087 530.649 132.528C532.877 120.23 535.961 108.103 539.879 96.2346C542.512 90.3102 545.707 84.6524 549.422 79.3392C554.016 70.3738 559.243 61.7479 565.066 53.5271C573.667 43.1497 582.86 33.2777 592.599 23.9603C597.344 19.0961 602.587 14.7441 608.242 10.9759C615.595 6.28281 623.886 2.68471 631.239 -2.00843C636.807 -5.19824 641.782 -9.32635 645.944 -14.2106C653.748 -23.305 664.482 -29.391 676.293 -31.4188C680.83 -32.5139 685.523 -35.1733 690.216 -31.4188C690.618 -31.2618 691.065 -31.2618 691.468 -31.4188C702.888 -37.207 711.022 -27.6643 720.565 -25.0048C732.428 -21.123 743.616 -15.4233 753.73 -8.10949C756.191 -6.25589 758.175 -3.84278 759.518 -1.06984C762.65 4.5575 767.88 8.71871 774.067 10.5067C777.343 11.2272 780.58 12.1148 783.766 13.1661C784.353 13.3905 784.868 13.7717 785.254 14.2682C785.641 14.7646 785.883 15.3572 785.956 15.9818C786.895 25.5246 793.621 30.3743 800.348 35.6932C803.321 38.1962 804.259 43.0456 806.293 46.8001C806.905 48.5291 807.925 50.0854 809.265 51.337C813.349 60.9761 815.322 71.3773 815.053 81.8423ZM645.788 64.4777C643.004 66.2656 639.846 67.3897 636.558 67.763C630.144 67.763 627.015 65.8857 622.635 67.763C618.255 69.6402 620.601 69.6401 616.847 74.0204C612.158 80.012 606.371 85.0556 599.795 88.882C598.7 88.882 597.605 91.5414 595.102 92.3236C592.599 93.1058 594.32 94.6702 593.538 95.7653C592.726 97.1475 591.665 98.3673 590.409 99.3633C585.596 105.047 582.104 111.727 580.184 118.923C578.263 126.118 577.962 133.65 579.302 140.976C580.772 144.279 581.57 147.842 581.648 151.457C581.716 154.569 581.13 157.66 579.927 160.531V161.782C579.927 164.285 579.927 166.788 579.927 169.448C580.376 175.233 581.212 180.982 582.43 186.656L587.906 195.416C590.219 196.742 592.417 198.26 594.476 199.953C597.136 202.3 599.169 204.959 601.672 207.462C603.632 209.439 605.78 211.22 608.086 212.781C610.489 214.828 613.176 216.514 616.064 217.787C622.862 220.079 630.014 221.139 637.184 220.916C658.928 222.324 675.198 209.965 692.562 200.735C703.19 194.377 713.24 187.101 722.599 178.99C727.7 174.776 732.364 170.059 736.522 164.911C741.215 159.435 745.126 153.334 749.193 147.546C753.843 141.731 758.027 135.559 761.708 129.087C764.695 125.173 766.777 120.645 767.805 115.831C768.832 111.016 768.781 106.033 767.653 101.241L764.368 92.1673C764.368 91.2286 763.585 89.977 764.368 89.3513C767.34 83.7195 764.368 80.9037 759.518 78.4007C758.735 77.4605 758.102 76.4052 757.641 75.2719C756.899 73.0187 755.789 70.9039 754.356 69.0143C747.316 62.9132 739.963 57.1252 732.611 51.337C730.214 49.273 727.708 47.3405 725.102 45.5486C721.347 43.3585 718.218 39.7605 713.212 41.012C711.648 41.012 712.274 39.1348 710.866 37.8833C709.187 36.4 707.004 35.6163 704.765 35.6932C703.044 35.6932 701.949 36.7881 699.915 39.4475C697.979 42.2698 695.172 44.3796 691.922 45.4534C688.673 46.5271 685.161 46.5056 681.925 45.3922C680.502 44.9264 678.968 44.9264 677.545 45.3922C675.514 46.1978 673.884 47.7719 673.008 49.7725L645.788 64.4777Z" fill="#F26837"/>
<path d="M109.85 -41.4293C113.642 -42.331 117.357 -43.5341 120.957 -45.0273C122.895 -45.9226 124.731 -47.0241 126.433 -48.3126C130.875 -49.1237 135.373 -49.5943 139.886 -49.7205C145.533 -49.6482 151.151 -48.9132 156.625 -47.5303C166.362 -45.696 175.898 -42.9192 185.097 -39.2391C198.566 -35.5367 210.509 -27.6477 219.2 -16.7121C223.1 -12.4515 225.644 -7.1267 226.508 -1.41558C227.371 4.29555 226.516 10.1346 224.05 15.3578C222.532 17.4628 221.466 19.8598 220.921 22.3974C219.766 34.1276 215.44 45.3222 208.406 54.7802C199.817 68.3654 188.847 80.2893 176.024 89.9787C163.604 99.4629 150.173 107.543 135.976 114.07C128.546 116.975 120.912 119.328 113.135 121.11C101.782 124.543 89.9501 126.128 78.0933 125.803C75.0587 125.084 71.8982 125.084 68.8635 125.803C62.2931 128.306 59.4772 134.876 55.4098 144.732C55.4098 144.732 52.1246 160.376 49.4651 173.673C48.9132 175.563 48.9132 177.571 49.4651 179.461C49.6772 181.623 50.0433 183.766 50.5603 185.875C52.0006 192.337 54.5977 198.484 58.2259 204.022C63.6771 212.308 70.8213 219.346 79.1885 224.672C94.6474 235.092 113.559 239.076 131.908 235.779C140.748 232.747 148.738 227.652 155.217 220.917C163.561 212.397 173.295 205.361 184.002 200.111C186.963 198.752 190.218 198.155 193.469 198.373C196.72 198.592 199.865 199.619 202.618 201.362C203.781 202.265 204.607 203.532 204.964 204.96C206.513 208.433 207.718 212.048 208.563 215.755C208.85 218.012 208.293 220.297 206.998 222.169C198.825 233.122 189.997 243.571 180.56 253.456C171.235 263.736 160.232 272.358 148.021 278.956C135.946 285.92 122.012 288.98 108.129 287.716C96.237 286.313 84.6301 283.094 73.7131 278.174C67.3654 274.329 60.2735 271.876 52.9068 270.977C52.9068 270.977 51.4988 270.977 51.186 270.195C33.2923 255.196 16.7508 238.654 1.75176 220.761C-0.282816 218.004 -1.86695 214.941 -2.94143 211.687C-5.48384 204.762 -7.67671 197.713 -9.51179 190.568C-11.9312 185.199 -13.5645 179.508 -14.3613 173.673C-13.7552 170.152 -13.3377 166.601 -13.11 163.035C-14.0931 156.631 -13.8275 150.097 -12.3278 143.793C-9.19904 135.033 -9.19894 125.177 -6.85238 116.104C-4.50581 107.03 -1.06414 96.7054 2.22105 87.1627C4.25475 80.9052 7.85281 77.7764 8.32212 71.5189C8.3642 68.5697 8.94748 65.6533 10.0429 62.9148C10.9936 60.8415 12.2025 58.8967 13.641 57.1267C15.2695 55.1181 17.0474 53.2354 18.9598 51.4949C23.6529 45.3938 27.7205 38.8234 32.1007 32.4094C35.1171 27.634 38.4077 23.0376 41.9562 18.6431C51.7679 5.84957 62.6538 -6.08325 74.4953 -17.025C84.7652 -27.1614 96.7309 -35.4209 109.85 -41.4293ZM79.5014 66.8257C79.6423 67.9128 80.0245 68.9547 80.62 69.875C81.2155 70.7952 82.0092 71.5708 82.9431 72.1448C84.9768 72.1448 87.1668 71.3626 87.949 71.3626C101.769 73.4104 115.871 70.5898 127.841 63.3841C133.44 59.7798 139.296 56.5906 145.362 53.8416C156.524 48.133 165.809 39.3359 172.113 28.4985C172.729 27.9725 173.166 27.2683 173.364 26.4831C173.563 25.6979 173.513 24.8704 173.221 24.1149C172.929 23.3594 172.41 22.7132 171.735 22.2654C171.06 21.8177 170.263 21.5904 169.453 21.6152C159.603 18.0148 148.797 18.0148 138.948 21.6152C136.936 22.8993 134.784 23.9493 132.534 24.7441C120.617 30.1988 109.76 37.7195 100.464 46.9583C92.955 53.2158 86.3847 60.2553 79.5014 66.8257Z" fill="#F26837"/>
<path d="M876.857 250.485C876.298 251.958 875.505 253.331 874.51 254.552C866.532 263.469 854.799 262.218 843.223 263.626C841.061 263.635 838.909 263.898 836.809 264.408C834.376 265.747 831.612 266.363 828.841 266.182C826.07 266.001 823.408 265.03 821.171 263.385C818.934 261.74 817.215 259.489 816.216 256.899C815.216 254.308 814.98 251.485 815.533 248.764C815.533 244.384 813.187 239.534 812.717 233.12C812.318 227.413 812.687 221.678 813.812 216.069C814.183 213.845 814.868 211.685 815.846 209.655C819.288 204.649 826.171 203.553 831.49 201.05C834.082 199.911 836.955 199.57 839.741 200.072C842.528 200.573 845.102 201.895 847.134 203.866C849.438 205.813 852.418 206.769 855.425 206.526C857.387 205.972 859.468 206.003 861.413 206.614C863.358 207.226 865.083 208.391 866.375 209.967C868.492 211.795 870.29 213.963 871.694 216.381C872.278 217.669 872.648 219.042 872.789 220.449C875.136 233.746 880.611 241.411 876.857 250.485Z" fill="#F26837"/>
</svg>
