<svg width="1080" height="1080" viewBox="0 0 1080 1080" fill="none" xmlns="http://www.w3.org/2000/svg">
<rect width="1080" height="1080" rx="540" fill="#F26837"/>
<path d="M844.178 582.515C844.614 584.099 844.934 585.712 845.134 587.342C845.134 588.577 845.134 589.755 845.134 590.766C845.2 592.043 845.426 593.306 845.809 594.526C846.327 595.748 846.76 597.005 847.103 598.287C847.103 598.904 847.103 599.297 847.103 599.858C847.049 601.369 846.705 602.855 846.091 604.236C845.472 606.706 846.091 607.098 844.966 609.849C844.809 610.457 844.622 611.056 844.403 611.645C843.708 614.699 843.443 617.835 843.616 620.962C843.616 623.487 843.616 627.136 841.028 629.324C838.44 631.513 835.965 633.478 834.502 634.488C833.331 635.278 832.255 636.201 831.296 637.238C830.555 637.899 829.928 638.676 829.439 639.539C828.652 640.943 826.514 641.672 825.839 643.132C825.682 643.523 825.431 643.87 825.108 644.142C824.254 645.072 823.135 645.718 821.901 645.994C815.899 649.731 809.379 652.567 802.55 654.413C796.721 656.205 790.647 657.077 784.549 656.995C779.598 656.546 774.535 656.434 769.641 655.536C764.098 654.555 758.903 652.157 754.565 648.576C751.975 646.567 750.113 643.771 749.26 640.61C748.407 637.45 748.611 634.099 749.84 631.064C751.228 626.299 752.881 621.615 754.79 617.033C756.412 612.78 759.559 609.279 763.622 607.211C764.241 607.211 764.635 606.144 765.254 605.864C765.872 605.583 767.897 604.741 768.516 605.19C769.135 605.639 770.71 607.772 770.373 608.558C768.741 612.374 771.329 615.517 771.385 618.997C771.469 620.418 771.469 621.842 771.385 623.263C771.104 627.472 771.385 630.784 776.673 630.84C780.611 630.84 784.605 631.85 788.543 632.019C791.111 631.975 793.67 631.712 796.193 631.233C803.076 629.978 809.695 627.568 815.77 624.105C817.044 623.536 818.236 622.8 819.314 621.916C821.989 619.604 824.145 616.754 825.638 613.552C827.131 610.35 827.928 606.869 827.977 603.338C827.811 598.63 827.303 593.941 826.458 589.306C825.568 584.627 824.422 579.999 823.026 575.443C822.167 576.009 821.358 576.648 820.608 577.351C816.195 581.87 810.862 585.392 804.969 587.679C799.748 589.941 794.122 591.125 788.43 591.159C783.121 591.569 777.825 590.228 773.354 587.342C769.945 584.98 767.101 581.894 765.028 578.306C761.286 572.248 759.085 565.369 758.615 558.268C757.757 552.698 757.568 547.046 758.053 541.431C758.39 539.691 758.053 537.838 758.334 535.818C759.221 532.63 760.527 529.573 762.216 526.725C762.947 525.042 762.216 525.21 762.891 524.031C763.566 522.853 764.353 520.776 769.191 515.893C771.333 513.569 773.666 511.429 776.167 509.495C777.562 508.55 778.896 507.519 780.161 506.408C780.892 505.846 781.342 504.892 782.13 504.499C786.69 501.725 791.446 499.286 796.362 497.203C799.007 496.013 801.865 495.37 804.766 495.312C807.666 495.254 810.548 495.783 813.238 496.866C816.849 498.309 820.878 498.309 824.489 496.866C826.443 496.271 828.523 496.217 830.505 496.712C832.487 497.206 834.297 498.23 835.74 499.673C837.53 501.497 838.978 503.626 840.015 505.959C842.935 511.057 843.97 517.015 842.941 522.797C842.941 523.246 842.941 523.751 842.941 524.2C842.941 527.567 842.941 530.935 842.941 534.302C842.941 535.369 841.815 536.323 841.534 537.446C840.915 539.803 840.859 542.385 840.015 544.686C839.011 548.361 839.011 552.237 840.015 555.911C840.634 559.896 840.972 563.937 841.422 567.978C841.485 568.595 841.637 569.2 841.872 569.774C842.744 572.437 843.181 575.223 843.165 578.025C843.117 578.754 843.117 579.485 843.165 580.214C843.31 581.052 843.658 581.842 844.178 582.515ZM781.23 569.325V569.774C782.242 570.336 783.199 571.009 784.211 571.458C786.052 572.573 788.068 573.37 790.174 573.816C795.246 574.436 800.371 573.178 804.575 570.28C805.419 569.662 806.431 569.213 807.275 568.596C810.649 566.124 813.88 563.463 816.951 560.626C818.011 559.582 818.797 558.293 819.239 556.873C819.68 555.453 819.764 553.947 819.483 552.487C819.576 549.557 819.254 546.628 818.526 543.788C817.442 540.63 816.651 537.38 816.163 534.078C816.163 533.629 816.163 532.899 816.163 531.44C816.163 529.981 816.163 528.802 815.826 527.118C815.888 526.822 815.888 526.516 815.826 526.22C815.632 524.326 815.294 522.45 814.813 520.608C814.56 519.552 813.917 518.63 813.013 518.026C811.856 517.31 810.521 516.931 809.16 516.931C807.798 516.931 806.464 517.31 805.306 518.026C798.449 520.394 792.191 524.225 786.968 529.251C786.63 529.7 786.011 529.812 785.674 530.205C783.586 531.851 781.698 533.735 780.048 535.818C778.105 538.371 776.498 541.163 775.267 544.125C775.829 547.941 776.054 551.084 776.167 553.329C776.144 555.208 776.276 557.085 776.561 558.942C777.246 561.834 778.345 564.613 779.823 567.193C780.223 567.946 780.694 568.661 781.23 569.325Z" fill="white"/>
<path d="M98.9226 563.32C98.9226 562.253 99.2039 561.58 99.2601 561.355C100.458 555.583 102.981 550.165 106.629 545.528L109.217 542.497C110.905 540.42 112.536 538.231 114.28 536.211C116.694 533.144 119.286 530.22 122.043 527.455C125.025 524.705 125.193 525.098 128.287 522.179C129.566 520.89 130.981 519.742 132.506 518.756C133.583 518.102 134.712 517.539 135.882 517.072C146.014 513.759 156.56 511.87 167.215 511.459C167.665 511.459 169.24 511.459 169.747 510.842C170.253 510.224 169.747 509.382 169.353 507.586C169.136 506.417 168.985 505.237 168.903 504.05C168.903 502.311 168.228 499.111 166.99 492.376L166.034 483.564C166.034 482.386 166.034 480.534 165.584 478.232C164.796 471.16 164.571 470.375 164.234 466.558C164.234 464.594 164.234 462.517 164.234 460.553C164.13 459.028 163.942 457.51 163.671 456.006C163.334 454.042 162.94 452.077 162.602 450.394C162.037 449.376 161.398 448.4 160.69 447.475C159.834 446.532 158.913 445.651 157.933 444.837C156.199 443.365 154.65 441.687 153.32 439.842C152.076 436.581 151.299 433.161 151.014 429.683C150.784 428.438 150.982 427.153 151.577 426.035C152.743 424.488 154.414 423.396 156.302 422.948C158.357 422.026 160.65 421.768 162.859 422.211C165.068 422.654 167.083 423.775 168.622 425.417C171.005 427.734 172.649 430.702 173.347 433.949C174.753 439.561 175.203 438.495 176.778 444.669C177.924 448.906 178.621 453.252 178.86 457.634C178.86 458.027 178.86 458.027 178.86 459.43C178.86 459.43 178.86 464.706 179.366 468.803C179.872 472.9 180.435 474.416 182.404 485.641C183.191 490.019 183.979 494.341 184.654 498.718C185.329 503.096 185.61 506.464 186.117 510.28C186.089 510.598 186.089 510.917 186.117 511.235C186.095 514.586 186.397 517.931 187.017 521.225C187.692 525.322 188.198 535.313 188.536 544.798C188.536 550.074 188.536 555.406 188.536 560.682C188.009 564.176 188.811 567.74 190.786 570.673C191.854 571.963 192.811 571.627 193.43 572.749C194.723 575.219 191.517 577.127 190.617 583.02C190.578 585.599 190.219 588.163 189.548 590.653C188.987 591.685 188.498 592.754 188.085 593.853C187.823 594.765 187.348 595.603 186.698 596.297C186.048 596.991 185.243 597.521 184.348 597.844C183.453 598.167 182.494 598.274 181.55 598.156C180.606 598.038 179.703 597.698 178.916 597.164C177.747 596.516 176.417 596.214 175.081 596.293C173.746 596.373 172.462 596.831 171.378 597.613C165.753 600.812 160.408 603.843 154.502 606.481C146.05 610.585 136.637 612.312 127.275 611.476C123.871 611.218 120.51 610.559 117.261 609.512C115.5 608.559 113.965 607.238 112.761 605.639C109.048 601.766 105.392 597.894 101.51 593.965C101.144 593.417 100.878 592.809 100.723 592.169C100.441 591.271 100.216 590.373 99.9914 589.475L98.6413 584.816C97.7005 577.674 97.7953 570.435 98.9226 563.32ZM172.728 556.248C173.056 554.094 173.169 551.913 173.066 549.737C173.066 547.604 173.066 545.528 172.616 543.451C172.476 541.55 172.137 539.669 171.603 537.839C171.049 536.432 170.138 535.194 168.959 534.246C166.653 532.563 163.896 533.461 158.271 534.246C155.005 534.924 151.818 535.94 148.764 537.277C146.521 538.181 144.357 539.27 142.295 540.533C138.976 542.609 135.825 544.798 132.675 547.099C129.332 549.362 126.138 551.837 123.112 554.508C120.701 556.612 118.781 559.218 117.486 562.141C115.368 568.513 115.647 575.437 118.274 581.617C119.707 585.271 122.004 588.525 124.968 591.103C125.186 591.428 125.468 591.705 125.796 591.917C126.125 592.13 126.494 592.273 126.881 592.337C130.887 593.347 135.051 593.575 139.144 593.011C140.622 592.498 142.149 592.141 143.701 591.944C147.704 591.442 151.546 590.062 154.952 587.903C159.508 585.602 163.952 583.076 168.34 580.495C170.448 578.847 171.999 576.594 172.784 574.04C174.697 568.427 171.828 566.07 172.728 556.248Z" fill="white"/>
<path d="M959.613 530.655C959.613 531.553 958.319 532.338 958.15 533.293C958.009 534.842 958.009 536.401 958.15 537.951C958.292 539.219 958.292 540.499 958.15 541.768C957.194 544.798 955.9 547.773 954.775 550.804C953.65 553.835 953.2 555.238 952.3 557.427C951.778 558.25 951.155 559.005 950.443 559.672C947.665 562.954 945.091 566.402 942.737 569.999C941.105 572.806 938.124 573.704 936.155 576.005C934.329 578.099 932.272 579.982 930.023 581.617C926.929 583.975 923.554 585.995 920.235 588.072C917.711 589.754 915.059 591.237 912.303 592.506C903.415 595.986 894.358 599.185 884.682 596.21C879.707 594.879 875.081 592.485 871.125 589.194C865.261 584.51 861.012 578.112 858.974 570.897C857.757 565.998 857.209 560.957 857.343 555.912C857.146 553.558 857.146 551.193 857.343 548.84C858.144 544.427 859.253 540.076 860.662 535.818C861.608 533.693 862.757 531.663 864.093 529.757C865.745 526.54 867.625 523.445 869.719 520.496C872.811 516.773 876.117 513.231 879.619 509.888C881.326 508.143 883.211 506.581 885.245 505.229C887.889 503.546 890.87 502.255 893.514 500.571C895.516 499.426 897.305 497.945 898.802 496.193C901.608 492.93 905.468 490.747 909.715 490.019C911.347 489.626 913.034 488.672 914.722 490.019C914.867 490.075 915.027 490.075 915.172 490.019C919.279 487.942 922.204 491.366 925.635 492.32C929.901 493.713 933.924 495.758 937.561 498.382C938.446 499.047 939.16 499.913 939.643 500.908C940.769 502.927 942.649 504.42 944.874 505.061C946.052 505.32 947.216 505.638 948.362 506.015C948.573 506.096 948.758 506.232 948.897 506.411C949.036 506.589 949.123 506.801 949.15 507.025C949.487 510.449 951.906 512.189 954.325 514.097C955.394 514.995 955.731 516.735 956.463 518.082C956.683 518.703 957.049 519.261 957.531 519.71C959 523.168 959.71 526.9 959.613 530.655ZM898.746 524.425C897.745 525.066 896.609 525.469 895.427 525.603C893.12 525.603 891.995 524.93 890.42 525.603C888.845 526.277 889.689 526.277 888.339 527.848C886.653 529.998 884.572 531.808 882.207 533.18C881.813 533.18 881.42 534.134 880.519 534.415C879.619 534.696 880.238 535.257 879.957 535.65C879.665 536.146 879.283 536.583 878.832 536.941C877.101 538.98 875.846 541.377 875.155 543.958C874.464 546.54 874.356 549.242 874.838 551.87C875.367 553.056 875.653 554.334 875.682 555.631C875.706 556.747 875.495 557.856 875.063 558.886V559.335C875.063 560.233 875.063 561.131 875.063 562.085C875.224 564.161 875.525 566.224 875.963 568.259L877.932 571.402C878.764 571.878 879.554 572.423 880.294 573.03C881.251 573.872 881.982 574.826 882.882 575.724C883.587 576.433 884.359 577.073 885.189 577.632C886.053 578.367 887.019 578.972 888.057 579.429C890.502 580.251 893.074 580.631 895.652 580.551C903.471 581.056 909.322 576.622 915.566 573.311C919.387 571.03 923.001 568.419 926.367 565.509C928.201 563.997 929.878 562.305 931.373 560.458C933.061 558.493 934.467 556.304 935.93 554.228C937.602 552.141 939.107 549.927 940.43 547.605C941.504 546.201 942.253 544.576 942.622 542.849C942.992 541.121 942.973 539.334 942.568 537.614L941.387 534.359C941.387 534.022 941.105 533.573 941.387 533.349C942.455 531.328 941.387 530.318 939.643 529.42C939.361 529.083 939.133 528.704 938.968 528.297C938.701 527.489 938.302 526.73 937.786 526.052C935.255 523.863 932.611 521.787 929.967 519.71C929.105 518.97 928.204 518.276 927.267 517.633C925.917 516.848 924.792 515.557 922.991 516.006C922.429 516.006 922.654 515.332 922.148 514.883C921.544 514.351 920.759 514.07 919.954 514.097C919.335 514.097 918.941 514.49 918.21 515.444C917.514 516.457 916.504 517.214 915.336 517.599C914.167 517.984 912.904 517.977 911.741 517.577C911.229 517.41 910.677 517.41 910.165 517.577C909.435 517.866 908.849 518.431 908.534 519.149" fill="white"/>
<path d="M706.019 486.426C707.382 486.103 708.718 485.671 710.013 485.136C710.709 484.814 711.37 484.419 711.982 483.957C713.579 483.666 715.196 483.497 716.819 483.452C718.85 483.478 720.87 483.741 722.839 484.238C726.34 484.896 729.769 485.892 733.077 487.212C737.92 488.541 742.215 491.371 745.34 495.294C746.743 496.823 747.657 498.733 747.968 500.782C748.279 502.832 747.971 504.926 747.084 506.8C746.538 507.556 746.155 508.416 745.959 509.326C745.544 513.535 743.988 517.551 741.459 520.944C738.37 525.818 734.425 530.096 729.814 533.573C725.348 536.975 720.518 539.874 715.413 542.216C712.741 543.258 709.996 544.103 707.2 544.742C703.117 545.974 698.863 546.542 694.599 546.426C693.508 546.168 692.371 546.168 691.28 546.426C688.917 547.324 687.905 549.681 686.442 553.217C686.442 553.217 685.261 558.83 684.304 563.6C684.106 564.278 684.106 564.999 684.304 565.677C684.381 566.452 684.512 567.221 684.698 567.978C685.216 570.296 686.15 572.502 687.455 574.489C689.415 577.462 691.984 579.987 694.993 581.897C700.552 585.636 707.352 587.065 713.95 585.882C717.129 584.795 720.003 582.967 722.332 580.55C725.333 577.494 728.833 574.969 732.683 573.086C733.748 572.598 734.918 572.384 736.087 572.462C737.256 572.541 738.387 572.909 739.377 573.535C739.796 573.858 740.093 574.313 740.221 574.826C740.778 576.071 741.211 577.368 741.515 578.698C741.618 579.508 741.418 580.328 740.952 580.999C738.014 584.929 734.839 588.678 731.445 592.225C728.092 595.913 724.136 599.006 719.745 601.373C715.402 603.872 710.392 604.97 705.4 604.516C701.123 604.013 696.95 602.858 693.024 601.093C690.741 599.713 688.191 598.833 685.542 598.511C685.542 598.511 685.036 598.511 684.923 598.23C678.489 592.849 672.541 586.914 667.147 580.494C666.415 579.505 665.846 578.406 665.459 577.239C664.545 574.754 663.757 572.225 663.097 569.662C662.227 567.735 661.639 565.694 661.353 563.6C661.571 562.337 661.721 561.063 661.803 559.784C661.449 557.486 661.545 555.142 662.084 552.88C663.209 549.737 663.209 546.201 664.053 542.946C664.897 539.69 666.134 535.986 667.316 532.562C668.047 530.317 669.341 529.195 669.51 526.95C669.525 525.892 669.735 524.845 670.128 523.863C670.47 523.119 670.905 522.421 671.422 521.786C672.008 521.065 672.647 520.39 673.335 519.766C675.022 517.577 676.485 515.219 678.06 512.918C679.145 511.205 680.328 509.556 681.604 507.979C685.132 503.389 689.047 499.108 693.305 495.182C696.998 491.545 701.301 488.582 706.019 486.426ZM695.105 525.266C695.156 525.656 695.293 526.03 695.508 526.36C695.722 526.69 696.007 526.968 696.343 527.174C697.074 527.174 697.862 526.894 698.143 526.894C703.113 527.628 708.184 526.616 712.488 524.031C714.501 522.738 716.607 521.594 718.788 520.608C722.802 518.559 726.141 515.403 728.408 511.515C728.629 511.326 728.786 511.074 728.858 510.792C728.929 510.51 728.911 510.213 728.806 509.942C728.701 509.671 728.515 509.439 728.272 509.279C728.029 509.118 727.743 509.036 727.451 509.045C723.91 507.754 720.024 507.754 716.482 509.045C715.758 509.506 714.985 509.883 714.175 510.168C709.89 512.125 705.986 514.823 702.643 518.138C699.943 520.383 697.58 522.909 695.105 525.266Z" fill="white"/>
<path d="M473.013 531.664C472.946 532.374 472.946 533.088 473.013 533.797C473.567 536.449 473.98 539.128 474.251 541.823C474.926 545.528 475.601 549.12 476.389 553.049C476.271 554.168 476.271 555.297 476.389 556.416C476.53 557.151 476.756 557.867 477.064 558.549L476.557 561.355C477.007 562.59 477.457 563.937 477.964 565.284C478.47 566.631 478.639 566.519 478.808 567.136C479.201 568.764 479.483 570.392 479.876 571.963C480.166 572.75 480.505 573.519 480.889 574.264L485.108 583.132L488.427 590.765C488.315 591.491 488.315 592.229 488.427 592.954C488.645 594.261 489.003 595.541 489.496 596.771C490.565 599.521 492.196 600.139 495.121 599.297C496.113 598.951 497.166 598.817 498.213 598.904C499.26 598.991 500.276 599.297 501.197 599.802C503.334 600.98 501.928 603.057 503.053 604.46C503.433 605.068 503.585 605.79 503.482 606.499C503.379 607.208 503.028 607.858 502.491 608.333C500.915 610.017 499.903 612.093 498.44 613.946C496.816 615.819 494.532 616.998 492.061 617.238C489.59 617.479 487.121 616.762 485.164 615.236C482.341 613.25 479.67 611.055 477.176 608.67C476.252 607.467 475.496 606.146 474.926 604.741C473.97 603.169 473.07 602.44 472.113 600.7C471.663 599.94 471.304 599.13 471.045 598.286C469.132 594.358 467.163 590.597 465.419 586.724C463.675 582.852 462.831 579.54 461.65 575.948C460.75 573.366 460.075 570.728 459.231 568.146C459.231 567.305 458.162 566.014 457.712 566.07C456.765 566.268 455.924 566.808 455.35 567.585C454 569.101 452.874 570.841 451.524 572.3C446.477 578.451 440.037 583.318 432.735 586.5C431.553 587.201 430.202 587.572 428.826 587.572C427.45 587.572 426.099 587.201 424.916 586.5C424.185 585.995 422.835 586.5 421.71 586.5C419.006 586.339 416.416 585.36 414.284 583.693C412.148 582.447 410.337 580.717 408.996 578.642C407.695 576.259 406.53 573.805 405.508 571.29C403.448 567.883 402.233 564.034 401.964 560.064C402.011 559.635 402.011 559.202 401.964 558.773C401.964 555.967 401.964 553.161 401.964 550.354C401.964 549.793 401.964 549.232 402.246 548.671C402.583 545.64 403.427 542.721 403.708 539.634C404.076 535.922 404.888 532.266 406.127 528.746C408.357 523.034 411.449 517.697 415.297 512.918C415.297 512.918 417.041 510.505 419.966 507.305C421.029 506.085 422.196 504.958 423.453 503.938C423.95 503.357 424.561 502.882 425.247 502.545C425.934 502.207 426.683 502.012 427.447 501.973C429.292 501.791 431.076 501.217 432.679 500.29C437.317 498.099 442.593 497.66 447.53 499.055C449.443 499.504 450.793 499.392 451.862 497.596C452.358 496.876 453.097 496.359 453.943 496.136C457.881 495.519 461.819 494.958 465.757 494.509C467.157 494.414 468.555 494.717 469.79 495.382C471.024 496.048 472.044 497.049 472.732 498.269C474.632 501.297 475.445 504.879 475.039 508.428C475.039 513.648 474.476 518.924 474.082 524.143C473.868 524.97 473.586 525.777 473.238 526.557C473.031 527.461 472.9 528.381 472.845 529.307C473.126 530.037 473.07 530.71 473.013 531.664ZM421.935 565.34C423.169 566.206 424.353 567.143 425.479 568.146C427.673 570.392 429.191 570.841 431.892 569.213C434.305 567.849 436.551 566.21 438.586 564.33C441.54 561.583 444.198 558.536 446.518 555.237C448.874 552.955 450.622 550.123 451.604 546.996C452.586 543.87 452.772 540.549 452.143 537.333C451.749 533.573 451.131 529.812 450.849 526.108C450.89 524.021 450.467 521.951 449.612 520.046C448.88 518.699 448.149 517.913 446.799 518.194C443.311 519.036 439.88 519.878 436.448 520.944C435.211 521.281 435.829 521.393 433.354 522.853C431.947 523.54 430.686 524.493 429.641 525.659L428.854 526.669C427.663 528.149 426.731 529.819 426.097 531.608C426.097 532.282 426.097 532.282 426.097 532.899C425.366 536.154 422.272 536.435 420.472 539.578C419.477 541.696 419.069 544.041 419.291 546.369C419.275 547.955 419.445 549.537 419.797 551.084C419.797 551.645 419.797 552.543 419.797 553.61C419.476 555.163 419.288 556.74 419.234 558.324C419.774 559.914 420.452 561.454 421.26 562.927L421.935 565.34Z" fill="white"/>
<path d="M597.11 491.254C597.11 491.254 598.179 491.254 598.629 491.254C601.353 489.745 604.294 488.666 607.348 488.055C611.553 486.603 616.095 486.427 620.399 487.549C621.791 487.882 623.162 488.295 624.506 488.784C626.506 489.47 628.4 490.433 630.131 491.647C633 494.06 635.475 496.866 638.063 499.504C638.147 499.798 638.147 500.109 638.063 500.402C637.897 506.368 638.792 512.316 640.707 517.97C641.243 520.859 641.525 523.788 641.551 526.726C642.001 532.338 642.563 537.951 642.62 543.564C642.491 547.323 642.134 551.072 641.551 554.789C640.707 563.039 640.763 563.994 640.313 568.203C639.582 574.601 639.244 577.857 639.076 578.53C638.907 579.204 638.232 585.434 637.951 588.633C637.914 589.471 638.151 590.298 638.626 590.99C640.201 593.292 640.032 594.414 638.007 596.603C635.982 598.792 636.038 599.914 633.9 600.251C633.205 600.53 632.45 600.627 631.706 600.532C630.394 600.208 629.186 599.553 628.201 598.629C627.216 597.705 626.486 596.543 626.081 595.256C625.509 592.775 625.077 590.264 624.787 587.735C624.758 584.819 624.495 581.91 624 579.035C623.464 576.503 623.58 573.877 624.337 571.402C625.202 568.396 625.526 565.26 625.293 562.141C625.293 561.075 624.9 561.356 625.293 560.458C625.631 557.427 626.193 554.452 626.475 551.421C626.615 549.89 626.615 548.35 626.475 546.819C626.137 541.206 625.575 535.594 625.35 529.981C625.01 523.265 623.954 516.605 622.199 510.112C622.151 509.451 621.96 508.808 621.64 508.227C621.319 507.646 620.877 507.141 620.343 506.747C619.808 506.352 619.195 506.078 618.545 505.942C617.894 505.806 617.222 505.812 616.574 505.959C615.583 505.85 614.583 505.85 613.592 505.959C610.892 506.52 607.967 507.194 605.548 507.979C603.748 508.541 602.06 509.27 599.923 510.056C597.707 510.747 595.671 511.916 593.96 513.48L591.935 515.837C590.023 518.427 587.937 520.883 585.69 523.19C585.108 523.713 584.631 524.341 584.284 525.042C583.897 525.945 583.724 526.924 583.778 527.904C583.64 529.825 583.223 531.716 582.54 533.517C582.198 534.463 581.953 535.44 581.809 536.436C581.809 543.283 581.809 550.13 582.371 556.978C582.653 561.131 583.834 565.228 584.397 569.438C584.79 572.413 584.397 575.499 585.015 578.53C585.522 582.684 586.197 586.837 586.984 590.934C587.772 595.031 588.672 597.726 589.516 601.093C589.909 602.945 590.247 604.797 590.697 607.099C586.759 608.624 582.47 609.013 578.321 608.221C577.988 607.91 577.703 607.55 577.477 607.155C577.208 606.648 577.037 606.096 576.971 605.527C576.314 603.282 575.409 601.117 574.271 599.073C572.957 595.542 571.977 591.897 571.346 588.184C569.714 580.944 569.264 577.295 568.645 574.545C567.704 570.875 567.194 567.108 567.127 563.32C567.031 562.612 566.862 561.916 566.62 561.243C566.535 560.78 566.535 560.304 566.62 559.84C566.62 559.054 566.62 558.213 566.62 557.427L566.283 539.41C566.283 537.165 566.283 534.864 566.283 532.619C566.065 531.416 565.498 530.303 564.651 529.42C563.389 528.506 562.497 527.172 562.136 525.658C561.775 524.145 561.968 522.552 562.682 521.169C563.708 519.106 564.573 516.967 565.27 514.771C566.366 511.967 567.139 509.049 567.577 506.071C567.914 503.04 567.014 499.897 567.577 496.866C567.873 495.051 568.835 493.411 570.277 492.264C570.563 491.959 570.916 491.722 571.308 491.573C571.7 491.424 572.121 491.367 572.539 491.404C572.956 491.442 573.36 491.575 573.719 491.792C574.077 492.009 574.382 492.305 574.608 492.657C574.608 493.106 576.015 493.274 576.69 493.162C578.325 492.92 579.942 492.564 581.528 492.096C583.609 491.478 584.622 492.938 585.24 494.228C585.859 495.519 586.534 497.203 588.841 495.744C590.645 494.887 592.529 494.21 594.466 493.723C595.424 492.985 596.309 492.159 597.11 491.254Z" fill="white"/>
<path d="M321.297 532.507C321.015 531.496 320.734 530.43 320.34 529.42C319.946 528.409 318.765 525.884 317.978 524.088C317.978 524.088 317.978 523.751 317.978 523.639C317.061 522.448 316.407 521.077 316.058 519.617C315.709 518.156 315.673 516.639 315.952 515.164C315.952 514.097 315.952 513.031 316.29 511.964C316.29 509.551 316.796 507.081 316.965 505.117C318.09 503.826 319.103 502.703 319.946 501.525C322.472 498.43 324.784 495.167 326.866 491.759C329.172 487.381 333.785 486.146 337.048 482.835C338.765 481.864 340.7 481.343 342.673 481.319C345.43 480.814 348.299 480.534 350.999 480.141C353.413 479.52 355.966 479.718 358.256 480.702C358.586 480.929 358.979 481.047 359.381 481.039C361.349 481.167 363.262 481.739 364.977 482.711C366.692 483.683 368.163 485.03 369.281 486.651C370.444 488.319 371.178 490.247 371.419 492.264C371.585 493.831 371.585 495.411 371.419 496.979C371.547 498.246 371.205 499.516 370.459 500.55C369.713 501.584 368.614 502.31 367.369 502.591C364.236 502.995 361.075 503.145 357.918 503.04C355.619 502.981 353.32 503.15 351.055 503.545C348.139 504.31 345.339 505.462 342.729 506.969C341.272 508.115 340.001 509.478 338.96 511.01C337.835 512.357 336.991 513.536 336.373 514.322L335.473 519.934C335.839 520.973 336.35 521.956 336.991 522.853C340.475 525.937 344.473 528.387 348.805 530.093C351.73 531.272 354.43 532.843 357.299 534.303C357.742 534.601 358.239 534.811 358.762 534.92C364.387 534.583 368.213 539.129 373.05 540.982C378.069 542.753 382.256 546.31 384.808 550.972C386.202 554.233 386.874 557.756 386.776 561.299C386.578 569.066 383.964 576.578 379.295 582.796C378.113 584.592 377.269 586.668 376.088 588.408C374.977 590.16 373.716 591.813 372.319 593.348C370.35 595.424 368.213 597.276 366.131 599.241C365.794 599.241 365.344 599.746 364.837 600.083C362.8 601.297 360.604 602.222 358.312 602.833C354.824 603.899 355.33 604.853 351.055 606.144C348.411 606.707 345.815 607.476 343.292 608.446C337.646 610.955 331.261 611.255 325.403 609.287C321.987 607.769 318.879 605.638 316.234 603.001C315.072 602.233 314.139 601.166 313.533 599.914C311.565 595.536 315.334 589.755 318.428 586.837C320.558 584.703 323.318 583.306 326.303 582.852C327.962 582.626 329.651 582.76 331.254 583.245C332.891 583.91 334.614 584.345 336.373 584.536C338.183 584.366 339.962 583.95 341.661 583.301L352.461 580.102C352.799 580.102 353.249 580.102 353.586 580.102C355.387 579.765 357.243 579.597 359.212 579.091C360.918 578.516 362.558 577.764 364.106 576.846C365.01 576.177 365.774 575.338 366.356 574.377C367.699 572.461 368.939 570.475 370.069 568.427C370.253 567.614 370.253 566.771 370.069 565.958C370.069 565.284 370.069 564.386 370.069 563.937C370.3 563.613 370.46 563.244 370.537 562.853C370.614 562.463 370.607 562.061 370.517 561.674C370.426 561.286 370.254 560.922 370.012 560.606C369.77 560.29 369.464 560.029 369.113 559.84C366.356 557.876 363.487 556.192 360.562 554.227C360.18 554.09 359.762 554.09 359.381 554.227C357.393 554.397 355.408 553.882 353.755 552.768C349.807 550.455 345.62 548.573 341.267 547.156C335.135 545.696 330.972 541.15 325.628 538.568C325.171 538.262 324.787 537.86 324.503 537.39C323.265 535.874 322.14 534.359 320.959 532.843L321.297 532.507Z" fill="white"/>
<path d="M981.832 591.159C981.631 591.687 981.346 592.18 980.989 592.618C978.12 595.817 973.901 595.368 969.738 595.873C968.961 595.877 968.186 595.971 967.431 596.154C966.557 596.634 965.562 596.855 964.566 596.79C963.57 596.725 962.613 596.377 961.808 595.787C961.004 595.197 960.385 594.389 960.026 593.46C959.667 592.53 959.582 591.517 959.781 590.541C959.781 588.97 958.937 587.23 958.768 584.929C958.625 582.881 958.757 580.823 959.162 578.811C959.295 578.013 959.541 577.238 959.893 576.51C961.131 574.714 963.606 574.321 965.519 573.423C966.451 573.014 967.484 572.891 968.486 573.071C969.488 573.251 970.413 573.725 971.144 574.433C971.973 575.131 973.044 575.474 974.126 575.387C974.831 575.188 975.58 575.199 976.279 575.419C976.978 575.638 977.598 576.056 978.063 576.622C978.825 577.278 979.471 578.055 979.976 578.923C980.186 579.385 980.319 579.878 980.37 580.382C981.214 585.153 983.183 587.903 981.832 591.159Z" fill="white"/>
<path d="M540.18 570.224C540.18 571.739 540.18 572.693 540.574 574.04C541.53 581.561 541.024 581.225 541.643 583.75C542.384 585.865 543.003 588.02 543.499 590.205C543.843 591.682 543.843 593.218 543.499 594.695C542.973 596.279 541.975 597.666 540.638 598.669C539.301 599.672 537.689 600.244 536.018 600.308C534.828 600.315 533.653 600.046 532.586 599.522C529.918 597.782 527.839 595.277 526.623 592.338C526.116 591.532 525.773 590.636 525.61 589.7C525.407 588.681 525.407 587.632 525.61 586.613C525.472 581.402 524.425 576.255 522.516 571.402C520.716 565.79 519.591 566.127 519.816 563.208C519.713 560.422 519.221 557.664 518.354 555.013C518.354 554.115 517.96 553.161 517.679 552.319C517.107 550.406 516.412 548.531 515.597 546.707C514.022 543.676 512.222 540.757 510.422 537.67V533.629C510.432 531.711 511.13 529.859 512.391 528.41C513.212 527.5 514.26 526.822 515.428 526.445C516.633 525.738 517.944 525.226 519.31 524.93C522.767 524.437 526.292 524.984 529.436 526.501C530.786 527.119 531.517 529.083 532.305 530.542C532.726 531.542 533.065 532.575 533.317 533.629C534.161 535.65 534.386 537.895 536.411 539.242C537.255 539.859 537.143 541.768 537.368 543.059C537.529 544.953 537.849 546.83 538.324 548.671C539.636 551.948 540.396 555.418 540.574 558.942C540.628 559.858 540.628 560.777 540.574 561.693V564.555C540.068 566.239 540.068 568.035 540.18 570.224Z" fill="white"/>
<path d="M528.818 504.387C528.01 505.306 526.924 505.937 525.724 506.183C525.185 506.287 524.632 506.287 524.093 506.183C523.653 506.046 523.182 506.046 522.743 506.183C521.614 506.722 520.389 507.032 519.139 507.095C517.889 507.158 516.639 506.973 515.462 506.55C514.284 506.127 513.202 505.475 512.28 504.632C511.357 503.788 510.611 502.77 510.085 501.637C508.814 499.699 507.758 497.629 506.935 495.463C506.493 494.192 506.395 492.827 506.652 491.507C506.909 490.186 507.511 488.956 508.398 487.942C509.769 487.104 511.346 486.66 512.954 486.66C514.563 486.66 516.14 487.104 517.511 487.942C517.995 488.584 518.663 489.063 519.428 489.313C520.192 489.564 521.015 489.575 521.786 489.346C522.236 489.191 522.714 489.132 523.188 489.172C523.662 489.212 524.123 489.35 524.54 489.577C524.958 489.804 525.324 490.115 525.615 490.491C525.906 490.866 526.116 491.298 526.23 491.759C526.23 492.208 526.793 492.881 527.187 492.994C527.809 493.181 528.397 493.465 528.931 493.836C530.899 494.734 531.687 501.076 528.818 504.387Z" fill="white"/>
<path d="M290.244 584.985C286.1 591.536 280.425 596.987 273.705 600.868C270.669 602.858 267.448 604.55 264.085 605.92C260.183 607.84 256.067 609.29 251.822 610.241C246.085 611.392 240.176 611.392 234.439 610.241C230.593 609.387 226.946 607.806 223.695 605.583C218.553 602.719 214.352 598.43 211.6 593.235C209.577 590.143 208.005 586.779 206.931 583.245C206.55 580.701 205.986 578.187 205.244 575.724L204.85 574.433C204.097 571.877 203.663 569.237 203.556 566.575C203.904 563.479 204.43 560.406 205.131 557.37C205.637 553.666 205.131 553.835 205.694 551.477C206.265 547.875 207.505 544.41 209.35 541.262C211.33 538.097 213.006 534.752 214.357 531.272C215.276 529.16 216.309 527.099 217.451 525.098C221.726 516.342 221.895 514.546 224.932 509.551C225.945 507.867 225.439 508.877 229.377 503.265C231.09 500.426 232.969 497.69 235.002 495.07C238.458 491.738 242.634 489.241 247.209 487.774C248.88 486.92 250.689 486.369 252.553 486.146C255.731 486.062 258.91 486.231 262.06 486.651C264.881 487.072 267.678 487.634 270.442 488.335C273.279 488.751 276.055 489.504 278.712 490.58C280.537 491.762 282.013 493.409 282.987 495.351C285.795 500.146 286.978 505.716 286.362 511.235C286.025 514.658 284.449 518.026 284.112 521.45C283.57 525.047 282.161 528.458 280.005 531.391C277.849 534.325 275.012 536.691 271.736 538.288C267.236 541.038 262.342 543.114 257.56 545.416C254.86 546.707 251.934 547.885 249.291 549.12C244.468 551.28 239.009 551.561 233.989 549.906C232.59 549.4 231.057 549.4 229.658 549.906C229.005 550.259 228.461 550.783 228.083 551.421C225.346 555.887 223.582 560.879 222.907 566.07C222.907 567.529 222.907 568.652 222.907 569.325C222.918 571.21 223.106 573.089 223.47 574.938C224.022 578.371 225.184 581.679 226.901 584.704C228.241 586.718 230.223 588.221 232.527 588.97C236.112 590.631 239.892 591.837 243.778 592.562C247.913 592.893 252.06 592.077 255.76 590.204C257.785 589.25 259.979 588.633 262.004 587.623C263.993 586.723 265.879 585.613 267.629 584.311C271.011 581.294 274.798 578.763 278.88 576.79C280.967 575.754 282.979 574.572 284.899 573.254C286.218 572.644 287.699 572.478 289.119 572.782C290.54 573.086 291.823 573.843 292.775 574.938C294.238 577.632 291.819 582.01 290.244 584.985ZM235.677 530.71C236.127 532.282 244.846 534.246 250.472 529.756C252.336 528.054 254.569 526.805 256.997 526.108C260.343 525.276 263.458 523.703 266.111 521.506C267.513 520.562 268.53 519.148 268.98 517.521C269.156 516.611 269.148 515.675 268.955 514.769C268.762 513.862 268.387 513.004 267.854 512.245C267.185 511.393 266.331 510.704 265.357 510.227C264.383 509.751 263.314 509.501 262.229 509.495C260.114 509.373 258.014 509.902 256.21 511.01C247.04 516.005 245.409 524.031 240.234 526.22C238.48 526.988 236.979 528.233 235.902 529.812C235.677 530.43 235.677 530.598 235.677 530.71Z" fill="white"/>
</svg>
