<svg width="475" height="127" viewBox="0 0 475 127" fill="none" xmlns="http://www.w3.org/2000/svg">
<path d="M400.701 86.3923C400.935 87.2446 401.107 88.1129 401.214 88.9902C401.214 89.6548 401.214 90.2892 401.214 90.833C401.249 91.5202 401.371 92.2002 401.577 92.8569C401.855 93.5147 402.087 94.191 402.271 94.8809C402.271 95.2132 402.271 95.4246 402.271 95.7267C402.242 96.5396 402.058 97.3394 401.728 98.083C401.395 99.4121 401.728 99.6236 401.123 101.104C401.04 101.431 400.939 101.754 400.821 102.07C400.448 103.714 400.306 105.402 400.398 107.085C400.398 108.444 400.398 110.408 399.009 111.586C397.619 112.764 396.29 113.822 395.505 114.365C394.876 114.791 394.298 115.287 393.783 115.846C393.385 116.201 393.048 116.619 392.786 117.084C392.363 117.839 391.215 118.232 390.853 119.017C390.768 119.228 390.633 119.415 390.46 119.561C390.001 120.062 389.4 120.409 388.738 120.558C385.515 122.569 382.013 124.096 378.346 125.089C375.216 126.054 371.955 126.523 368.68 126.479C366.021 126.237 363.303 126.177 360.674 125.693C357.697 125.166 354.908 123.875 352.578 121.948C351.188 120.867 350.188 119.361 349.73 117.661C349.272 115.96 349.381 114.156 350.041 112.523C350.787 109.958 351.674 107.437 352.699 104.97C353.57 102.681 355.26 100.797 357.442 99.684C357.774 99.684 357.986 99.11 358.318 98.959C358.65 98.8079 359.738 98.3548 360.07 98.5965C360.402 98.8382 361.248 99.9861 361.067 100.409C360.191 102.463 361.581 104.155 361.611 106.028C361.656 106.792 361.656 107.559 361.611 108.324C361.46 110.589 361.611 112.372 364.45 112.402C366.565 112.402 368.71 112.946 370.824 113.036C372.203 113.013 373.578 112.871 374.933 112.613C378.629 111.938 382.183 110.641 385.445 108.777C386.129 108.471 386.769 108.074 387.348 107.599C388.785 106.354 389.943 104.82 390.744 103.097C391.546 101.374 391.974 99.5001 392.001 97.5996C391.911 95.0659 391.639 92.5419 391.185 90.0475C390.707 87.5287 390.092 85.0378 389.342 82.586C388.881 82.8907 388.446 83.2343 388.043 83.6131C385.674 86.045 382.81 87.9405 379.645 89.1715C376.842 90.3893 373.821 91.0264 370.764 91.0444C367.913 91.2651 365.069 90.5434 362.668 88.9902C360.837 87.7188 359.31 86.0579 358.197 84.1267C356.188 80.8662 355.006 77.1639 354.753 73.3422C354.292 70.3442 354.191 67.3018 354.451 64.2797C354.633 63.3432 354.451 62.3464 354.602 61.2589C355.079 59.543 355.78 57.8976 356.687 56.3651C357.08 55.4588 356.687 55.5494 357.049 54.9151C357.412 54.2807 357.835 53.163 360.433 50.5348C361.583 49.2841 362.836 48.1322 364.179 47.0911C364.928 46.5829 365.644 46.028 366.323 45.4296C366.716 45.1275 366.958 44.614 367.381 44.4025C369.829 42.9092 372.384 41.5967 375.023 40.4754C376.444 39.8351 377.979 39.4889 379.536 39.4578C381.094 39.4266 382.641 39.7111 384.086 40.2942C386.025 41.0707 388.189 41.0707 390.128 40.2942C391.177 39.9736 392.294 39.9449 393.358 40.211C394.422 40.4771 395.394 41.028 396.169 41.8046C397.13 42.7863 397.908 43.9322 398.465 45.188C400.033 47.9319 400.589 51.1389 400.036 54.2505C400.036 54.4922 400.036 54.7641 400.036 55.0057C400.036 56.8182 400.036 58.6307 400.036 60.4432C400.036 61.0172 399.432 61.5308 399.281 62.1349C398.948 63.4037 398.918 64.7932 398.465 66.0318C397.926 68.0096 397.926 70.0957 398.465 72.0735C398.797 74.2183 398.979 76.3933 399.22 78.5683C399.254 78.9004 399.336 79.2259 399.462 79.535C399.93 80.9683 400.165 82.4677 400.157 83.9756C400.131 84.3679 400.131 84.7615 400.157 85.1538C400.234 85.6047 400.421 86.0299 400.701 86.3923ZM366.897 79.2933V79.535C367.441 79.8371 367.955 80.1996 368.498 80.4412C369.487 81.0414 370.569 81.4703 371.7 81.71C374.424 82.0438 377.176 81.3666 379.434 79.8068C379.887 79.4745 380.431 79.2329 380.884 78.9006C382.696 77.5702 384.43 76.1381 386.08 74.611C386.649 74.049 387.071 73.3552 387.308 72.5912C387.545 71.8271 387.59 71.0164 387.439 70.2308C387.489 68.6536 387.317 67.0772 386.925 65.5484C386.343 63.849 385.919 62.0996 385.657 60.3224C385.657 60.0807 385.657 59.688 385.657 58.9026C385.657 58.1172 385.657 57.4828 385.475 56.5765C385.509 56.4172 385.509 56.2526 385.475 56.0932C385.371 55.0739 385.19 54.064 384.932 53.0724C384.795 52.5042 384.45 52.0081 383.965 51.6828C383.344 51.2975 382.627 51.0934 381.896 51.0934C381.165 51.0934 380.448 51.2975 379.827 51.6828C376.144 52.9575 372.783 55.0192 369.979 57.7245C369.797 57.9661 369.465 58.0266 369.284 58.238C368.163 59.1238 367.149 60.1376 366.263 61.2589C365.219 62.6332 364.356 64.1357 363.695 65.7297C363.997 67.7839 364.118 69.4755 364.179 70.6839C364.166 71.6949 364.237 72.7052 364.39 73.7047C364.758 75.2613 365.348 76.7568 366.142 78.1454C366.357 78.5511 366.61 78.9355 366.897 79.2933Z" fill="#F26837"/>
<path d="M0.495434 76.0615C0.495434 75.4875 0.64648 75.125 0.676689 75.0042C1.32015 71.8971 2.67465 68.9812 4.63399 66.4854L6.02357 64.8542C6.92983 63.7364 7.80588 62.5583 8.74234 61.4708C10.0388 59.82 11.4307 58.2464 12.9111 56.7583C14.5122 55.2781 14.6028 55.4896 16.2642 53.9187C16.9509 53.2247 17.7105 52.6069 18.5299 52.076C19.1079 51.7243 19.7142 51.4212 20.3424 51.1697C25.7837 49.3867 31.4468 48.37 37.1685 48.1489C37.4102 48.1489 38.256 48.1489 38.5279 47.8166C38.7997 47.4843 38.5279 47.0312 38.3164 46.0645C38.1997 45.4352 38.119 44.7998 38.0747 44.1614C38.0747 43.2249 37.7122 41.503 37.0477 37.878L36.5341 33.1353C36.5341 32.5009 36.5341 31.504 36.2925 30.2655C35.8695 26.4592 35.7487 26.0363 35.5675 23.9821C35.5675 22.9248 35.5675 21.8071 35.5675 20.7498C35.5115 19.9293 35.4106 19.1124 35.2654 18.3029C35.0841 17.2456 34.8727 16.1883 34.6914 15.2821C34.3878 14.7341 34.0445 14.2091 33.6643 13.7112C33.205 13.2037 32.7103 12.7293 32.1841 12.2914C31.2526 11.4989 30.4208 10.5961 29.707 9.60289C29.0387 7.84775 28.6217 6.00699 28.4685 4.13517C28.3449 3.46532 28.4514 2.77336 28.7706 2.17162C29.397 1.33904 30.2945 0.751371 31.3081 0.510144C32.4116 0.0139304 33.6428 -0.124704 34.8291 0.113639C36.0154 0.351983 37.0974 0.955375 37.9237 1.83932C39.2038 3.08623 40.0866 4.68373 40.4612 6.431C41.2164 9.45184 41.4581 8.87789 42.3039 12.2008C42.9189 14.4815 43.2935 16.8203 43.4216 19.179C43.4216 19.3904 43.4216 19.3904 43.4216 20.1456C43.4216 20.1456 43.4216 22.9852 43.6935 25.1904C43.9654 27.3957 44.2675 28.2113 45.3248 34.253C45.7477 36.6092 46.1706 38.9353 46.5331 41.2916C46.8956 43.6478 47.0467 45.4603 47.3185 47.5145C47.304 47.6854 47.304 47.8572 47.3185 48.028C47.307 49.8317 47.4689 51.6324 47.8019 53.4051C48.1644 55.6103 48.4363 60.9875 48.6175 66.0927C48.6175 68.9323 48.6175 71.8021 48.6175 74.6417C48.3346 76.5221 48.7656 78.4403 49.8258 80.0188C50.3998 80.7136 50.9133 80.5323 51.2456 81.1365C51.9404 82.4657 50.2185 83.4928 49.7352 86.6647C49.7144 88.0526 49.5216 89.4325 49.1613 90.773C48.8597 91.328 48.5972 91.9033 48.3758 92.4949C48.235 92.9861 47.9796 93.437 47.6307 93.8104C47.2819 94.1839 46.8494 94.4693 46.3689 94.6432C45.8883 94.8171 45.3734 94.8747 44.8663 94.811C44.3593 94.7474 43.8745 94.5645 43.4518 94.2772C42.824 93.9283 42.1097 93.7657 41.3927 93.8085C40.6757 93.8513 39.9858 94.0977 39.4039 94.5188C36.3831 96.2407 33.5133 97.872 30.3414 99.2918C25.8028 101.5 20.7479 102.43 15.7205 101.98C13.8927 101.841 12.0878 101.486 10.3434 100.923C9.39747 100.41 8.57322 99.699 7.92672 98.8387C5.93296 96.7543 3.96941 94.6699 1.88503 92.5553C1.68844 92.2604 1.54527 91.9332 1.4621 91.5887C1.31106 91.1053 1.19024 90.622 1.0694 90.1386L0.344394 87.6313C-0.160817 83.7874 -0.10995 79.8908 0.495434 76.0615ZM40.1289 72.2552C40.305 71.096 40.3658 69.9222 40.3102 68.751C40.3102 67.6031 40.3102 66.4854 40.0685 65.3677C39.9935 64.3445 39.8113 63.332 39.5248 62.3469C39.2274 61.5901 38.7381 60.9238 38.105 60.4135C36.8664 59.5073 35.3862 59.9906 32.3653 60.4135C30.6115 60.7781 28.9005 61.3248 27.2601 62.0448C26.0555 62.5312 24.8935 63.1173 23.7862 63.7968C22.0039 64.9146 20.3122 66.0927 18.6205 67.3312C16.8252 68.5492 15.1098 69.8811 13.4851 71.3188C12.1903 72.4513 11.1592 73.8536 10.4642 75.4271C9.32634 78.8565 9.47668 82.5829 10.8871 85.9095C11.6568 87.8759 12.89 89.6273 14.4819 91.0147C14.5987 91.1897 14.75 91.339 14.9267 91.4533C15.1033 91.5676 15.3015 91.6445 15.509 91.6793C17.6604 92.2226 19.8964 92.3456 22.0945 92.0418C22.8879 91.7659 23.708 91.5735 24.5414 91.4678C26.6911 91.1975 28.7543 90.4547 30.5831 89.2928C33.0299 88.0542 35.4164 86.6949 37.7727 85.3053C38.9043 84.4183 39.7372 83.2059 40.1591 81.8313C41.1862 78.8105 39.6456 77.5417 40.1289 72.2552Z" fill="#F26837"/>
<path d="M462.682 58.4794C462.682 58.9627 461.988 59.3856 461.897 59.8992C461.821 60.7332 461.821 61.5724 461.897 62.4065C461.973 63.0891 461.973 63.778 461.897 64.4606C461.383 66.0919 460.689 67.6929 460.084 69.3242C459.48 70.9554 459.239 71.7107 458.755 72.8888C458.475 73.332 458.14 73.738 457.758 74.0971C456.266 75.8633 454.884 77.7196 453.62 79.6555C452.744 81.1659 451.143 81.6493 450.085 82.8878C449.105 84.0151 448 85.0285 446.793 85.9086C445.131 87.1774 443.319 88.2649 441.536 89.3826C440.181 90.2881 438.757 91.0861 437.277 91.7691C432.504 93.642 427.641 95.3639 422.445 93.7628C419.773 93.0464 417.289 91.758 415.164 89.9868C412.015 87.4653 409.734 84.0219 408.639 80.1388C407.986 77.5019 407.691 74.7889 407.763 72.0732C407.657 70.8066 407.657 69.5335 407.763 68.2669C408.194 65.8921 408.789 63.5503 409.546 61.2585C410.054 60.1145 410.671 59.022 411.388 57.996C412.275 56.2648 413.285 54.5991 414.409 53.0116C416.07 51.0078 417.845 49.1015 419.726 47.3023C420.642 46.363 421.655 45.5226 422.747 44.7949C424.167 43.8887 425.768 43.1939 427.187 42.2876C428.263 41.6717 429.223 40.8745 430.027 39.9314C431.534 38.1752 433.607 37 435.887 36.6084C436.763 36.397 437.67 35.8834 438.576 36.6084C438.654 36.6388 438.74 36.6388 438.818 36.6084C441.023 35.4907 442.594 37.3334 444.436 37.847C446.727 38.5966 448.888 39.6972 450.841 41.1095C451.316 41.4674 451.699 41.9334 451.958 42.4689C452.563 43.5555 453.573 44.3591 454.768 44.7043C455.4 44.8435 456.026 45.0149 456.641 45.2179C456.754 45.2612 456.854 45.3348 456.928 45.4307C457.003 45.5265 457.049 45.641 457.064 45.7616C457.245 47.6043 458.544 48.5408 459.843 49.5679C460.417 50.0512 460.598 50.9877 460.991 51.7127C461.109 52.0465 461.306 52.347 461.565 52.5887C462.353 54.4501 462.734 56.4586 462.682 58.4794ZM429.997 55.1262C429.459 55.4715 428.849 55.6885 428.215 55.7606C426.976 55.7606 426.372 55.3981 425.526 55.7606C424.68 56.1231 425.133 56.1231 424.408 56.9689C423.503 58.1259 422.385 59.0999 421.116 59.8387C420.904 59.8387 420.693 60.3523 420.209 60.5033C419.726 60.6544 420.058 60.9565 419.907 61.1679C419.75 61.4348 419.546 61.6704 419.303 61.8627C418.374 62.9602 417.699 64.2502 417.329 65.6396C416.958 67.0291 416.899 68.4835 417.158 69.8982C417.442 70.536 417.596 71.2241 417.611 71.9221C417.625 72.523 417.511 73.1199 417.279 73.6742V73.9159C417.279 74.3992 417.279 74.8826 417.279 75.3961C417.366 76.5133 417.527 77.6234 417.762 78.719L418.82 80.4107C419.266 80.6667 419.691 80.9598 420.088 81.2868C420.602 81.7399 420.995 82.2534 421.478 82.7368C421.857 83.1185 422.271 83.4625 422.717 83.7638C423.181 84.1591 423.699 84.4847 424.257 84.7305C425.57 85.1732 426.951 85.3778 428.335 85.3347C432.534 85.6066 435.676 83.2201 439.029 81.4378C441.081 80.21 443.022 78.805 444.829 77.2388C445.814 76.425 446.715 75.5141 447.518 74.5201C448.424 73.4628 449.179 72.2846 449.965 71.1669C450.862 70.044 451.671 68.8521 452.381 67.6023C452.958 66.8465 453.36 65.9723 453.558 65.0426C453.757 64.1128 453.747 63.1507 453.529 62.2252L452.895 60.4731C452.895 60.2919 452.744 60.0502 452.895 59.9294C453.469 58.8419 452.895 58.2981 451.958 57.8148C451.807 57.6332 451.685 57.4295 451.596 57.2106C451.453 56.7755 451.238 56.3672 450.961 56.0023C449.602 54.8241 448.182 53.7064 446.763 52.5887C446.3 52.1902 445.816 51.817 445.312 51.471C444.587 51.0481 443.983 50.3533 443.017 50.595C442.715 50.595 442.835 50.2325 442.564 49.9908C442.239 49.7044 441.818 49.553 441.385 49.5679C441.053 49.5679 440.842 49.7793 440.449 50.2929C440.075 50.8378 439.533 51.2453 438.905 51.4526C438.278 51.6599 437.6 51.6558 436.975 51.4408C436.7 51.3508 436.404 51.3508 436.129 51.4408C435.737 51.5963 435.422 51.9003 435.253 52.2866L429.997 55.1262Z" fill="#F26837"/>
<path d="M326.506 34.6754C327.239 34.5013 327.956 34.269 328.651 33.9807C329.025 33.8078 329.38 33.5951 329.708 33.3463C330.566 33.1896 331.435 33.0988 332.306 33.0744C333.397 33.0883 334.482 33.2303 335.539 33.4973C337.419 33.8515 339.26 34.3877 341.037 35.0984C343.638 35.8133 345.944 37.3367 347.622 39.4484C348.375 40.2711 348.866 41.2993 349.033 42.4022C349.2 43.505 349.035 44.6325 348.559 45.6411C348.265 46.0476 348.06 46.5105 347.954 47.0005C347.731 49.2656 346.896 51.4273 345.538 53.2537C343.879 55.877 341.761 58.1795 339.285 60.0506C336.886 61.882 334.293 63.4422 331.551 64.7027C330.116 65.2636 328.642 65.718 327.141 66.062C324.948 66.725 322.664 67.031 320.374 66.9683C319.788 66.8295 319.178 66.8295 318.592 66.9683C317.323 67.4516 316.779 68.7204 315.994 70.6235C315.994 70.6235 315.359 73.6443 314.846 76.2121C314.739 76.577 314.739 76.9649 314.846 77.3298C314.887 77.7472 314.958 78.161 315.057 78.5683C315.335 79.8161 315.837 81.0032 316.538 82.0725C317.59 83.6726 318.97 85.0316 320.586 86.0601C323.571 88.0722 327.223 88.8416 330.766 88.2048C332.473 87.6194 334.016 86.6356 335.267 85.335C336.878 83.6898 338.758 82.3311 340.825 81.3173C341.397 81.0549 342.025 80.9395 342.653 80.9817C343.281 81.0239 343.888 81.2224 344.42 81.559C344.645 81.7333 344.804 81.9779 344.873 82.2538C345.172 82.9243 345.405 83.6224 345.568 84.3382C345.623 84.7741 345.516 85.2152 345.266 85.5767C343.688 87.6919 341.983 89.7094 340.161 91.6184C338.36 93.6034 336.235 95.2684 333.877 96.5424C331.545 97.8872 328.855 98.4781 326.174 98.2341C323.878 97.963 321.636 97.3416 319.528 96.3913C318.302 95.6489 316.933 95.1752 315.51 95.0017C315.51 95.0017 315.239 95.0017 315.178 94.8507C311.723 91.9543 308.529 88.7601 305.632 85.3048C305.239 84.7724 304.934 84.181 304.726 83.5527C304.235 82.2155 303.812 80.8544 303.457 79.4746C302.99 78.4377 302.675 77.3389 302.521 76.2121C302.638 75.5321 302.719 74.8465 302.763 74.1579C302.573 72.9212 302.624 71.6595 302.914 70.4423C303.518 68.7506 303.518 66.8475 303.971 65.0954C304.424 63.3433 305.089 61.3495 305.723 59.5068C306.116 58.2985 306.81 57.6943 306.901 56.486C306.909 55.9165 307.022 55.3533 307.233 54.8245C307.417 54.4241 307.65 54.0486 307.928 53.7068C308.243 53.3189 308.586 52.9554 308.955 52.6193C309.861 51.4411 310.647 50.1724 311.493 48.9338C312.075 48.0117 312.711 47.1241 313.396 46.2755C315.291 43.8051 317.393 41.5008 319.679 39.388C321.662 37.4306 323.973 35.8357 326.506 34.6754ZM320.646 55.5797C320.673 55.7896 320.747 55.9908 320.862 56.1685C320.977 56.3462 321.13 56.496 321.311 56.6068C321.703 56.6068 322.126 56.4558 322.277 56.4558C324.946 56.8512 327.669 56.3065 329.98 54.9151C331.062 54.2191 332.192 53.6033 333.364 53.0724C335.519 51.9701 337.312 50.2713 338.529 48.1786C338.648 48.0771 338.733 47.9411 338.771 47.7895C338.809 47.6378 338.8 47.478 338.743 47.3321C338.687 47.1863 338.587 47.0615 338.456 46.975C338.326 46.8885 338.172 46.8447 338.016 46.8494C336.114 46.1542 334.027 46.1542 332.125 46.8494C331.737 47.0974 331.321 47.3002 330.887 47.4537C328.585 48.507 326.489 49.9592 324.694 51.7432C323.244 52.9516 321.975 54.3109 320.646 55.5797Z" fill="#F26837"/>
<path d="M201.385 59.0229C201.348 59.4047 201.348 59.7891 201.385 60.1708C201.682 61.5981 201.904 63.04 202.049 64.4907C202.412 66.4844 202.774 68.4178 203.197 70.5323C203.134 71.1349 203.134 71.7423 203.197 72.3448C203.273 72.7403 203.395 73.1256 203.56 73.4928L203.288 75.0032C203.53 75.6678 203.771 76.3928 204.043 77.1178C204.315 77.8428 204.406 77.7824 204.496 78.1147C204.708 78.9907 204.859 79.8667 205.07 80.7126C205.226 81.1362 205.407 81.5498 205.614 81.9511L207.88 86.7241L209.662 90.8324C209.602 91.2228 209.602 91.6202 209.662 92.0106C209.779 92.7139 209.971 93.4026 210.236 94.0647C210.81 95.5449 211.686 95.8772 213.257 95.4241C213.789 95.2378 214.355 95.1658 214.917 95.2126C215.479 95.2595 216.025 95.4242 216.519 95.6959C217.667 96.3303 216.912 97.448 217.516 98.2033C217.72 98.5304 217.802 98.9192 217.746 99.3008C217.691 99.6823 217.503 100.032 217.214 100.288C216.368 101.194 215.824 102.312 215.039 103.308C214.167 104.317 212.94 104.951 211.613 105.081C210.286 105.21 208.96 104.824 207.91 104.003C206.393 102.934 204.959 101.753 203.62 100.469C203.124 99.8216 202.718 99.1103 202.412 98.3543C201.898 97.5085 201.415 97.1158 200.901 96.1793C200.66 95.7704 200.467 95.3344 200.327 94.8804C199.3 92.7658 198.243 90.7418 197.307 88.6574C196.37 86.573 195.917 84.7907 195.283 82.8574C194.799 81.4678 194.437 80.048 193.984 78.6584C193.984 78.2053 193.41 77.5105 193.168 77.5407C192.659 77.6474 192.208 77.9377 191.899 78.3563C191.174 79.172 190.57 80.1084 189.845 80.8938C187.135 84.2047 183.677 86.8242 179.755 88.5366C179.12 88.9142 178.395 89.1135 177.656 89.1135C176.917 89.1135 176.192 88.9142 175.556 88.5366C175.164 88.2647 174.439 88.5366 173.835 88.5366C172.383 88.4498 170.992 87.9229 169.847 87.0261C168.7 86.3555 167.727 85.4241 167.008 84.3074C166.309 83.0249 165.683 81.7037 165.135 80.3501C164.028 78.5165 163.376 76.4451 163.231 74.3084C163.257 74.0775 163.257 73.8445 163.231 73.6136C163.231 72.1032 163.231 70.5927 163.231 69.0823C163.231 68.7802 163.231 68.4782 163.382 68.1761C163.564 66.5448 164.017 64.974 164.168 63.3125C164.366 61.3142 164.802 59.3467 165.467 57.4521C166.664 54.3781 168.325 51.5052 170.391 48.9333C170.391 48.9333 171.327 47.6343 172.898 45.9124C173.469 45.2554 174.096 44.649 174.771 44.1C175.038 43.787 175.366 43.5318 175.734 43.35C176.103 43.1682 176.505 43.0636 176.916 43.0426C177.906 42.9443 178.864 42.6353 179.725 42.1364C182.216 40.9574 185.049 40.7213 187.7 41.4718C188.727 41.7135 189.452 41.6531 190.026 40.6864C190.293 40.2992 190.69 40.0206 191.144 39.901C193.259 39.5687 195.373 39.2666 197.488 39.0249C198.24 38.9739 198.991 39.1369 199.653 39.4951C200.316 39.8533 200.864 40.392 201.234 41.0489C202.254 42.6786 202.691 44.6063 202.472 46.5166C202.472 49.326 202.17 52.1656 201.959 54.975C201.844 55.4197 201.692 55.8542 201.506 56.274C201.394 56.7607 201.324 57.2558 201.294 57.7541C201.445 58.1468 201.415 58.5093 201.385 59.0229ZM173.955 77.148C174.619 77.6142 175.254 78.1185 175.859 78.6584C177.037 79.8667 177.852 80.1084 179.302 79.2323C180.598 78.4981 181.804 77.6162 182.897 76.6042C184.483 75.1257 185.911 73.4856 187.157 71.7105C188.422 70.4821 189.36 68.9576 189.888 67.2749C190.415 65.5923 190.515 63.8047 190.177 62.074C189.966 60.05 189.634 58.026 189.483 56.0323C189.505 54.9091 189.278 53.7949 188.818 52.7698C188.425 52.0448 188.033 51.6218 187.308 51.7729C185.435 52.226 183.592 52.6791 181.749 53.2531C181.085 53.4344 181.417 53.4948 180.088 54.2802C179.332 54.6504 178.655 55.1633 178.094 55.7906L177.671 56.3343C177.031 57.1307 176.531 58.0295 176.191 58.9927C176.191 59.3552 176.191 59.3552 176.191 59.6875C175.798 61.4396 174.137 61.5906 173.17 63.2823C172.635 64.422 172.416 65.6843 172.536 66.9375C172.527 67.7911 172.619 68.6426 172.808 69.475C172.808 69.7771 172.808 70.2604 172.808 70.8344C172.635 71.6702 172.534 72.5191 172.505 73.3719C172.795 74.2276 173.159 75.0565 173.593 75.849L173.955 77.148Z" fill="#F26837"/>
<path d="M268.026 37.2738C268.026 37.2738 268.6 37.2738 268.841 37.2738C270.304 36.4618 271.883 35.881 273.524 35.5519C275.782 34.7704 278.22 34.6757 280.532 35.28C281.279 35.4592 282.015 35.6811 282.737 35.9446C283.812 36.3136 284.829 36.8323 285.758 37.4853C287.299 38.7842 288.628 40.2946 290.018 41.7144C290.063 41.8723 290.063 42.0398 290.018 42.1978C289.929 45.4086 290.409 48.6099 291.437 51.653C291.725 53.2077 291.877 54.7845 291.89 56.3655C292.132 59.3864 292.434 62.4072 292.464 65.4281C292.395 67.4517 292.203 69.4693 291.89 71.4698C291.437 75.9104 291.468 76.424 291.226 78.6896C290.833 82.1334 290.652 83.8854 290.561 84.2479C290.471 84.6104 290.108 87.9636 289.957 89.6855C289.937 90.1365 290.065 90.5817 290.32 90.9542C291.165 92.1928 291.075 92.7969 289.987 93.9751C288.9 95.1532 288.93 95.7573 287.782 95.9386C287.409 96.0887 287.003 96.1407 286.604 96.0896C285.899 95.9155 285.251 95.5628 284.722 95.0654C284.193 94.5681 283.8 93.9429 283.583 93.25C283.276 91.9148 283.044 90.5634 282.888 89.2021C282.873 87.6325 282.731 86.0667 282.465 84.5198C282.178 83.157 282.24 81.7436 282.647 80.4114C283.111 78.7934 283.285 77.1058 283.16 75.4271C283.16 74.8531 282.949 75.0041 283.16 74.5208C283.341 72.8895 283.643 71.2885 283.795 69.6572C283.87 68.8333 283.87 68.0041 283.795 67.1802C283.613 64.1593 283.311 61.1385 283.19 58.1176C283.008 54.5031 282.441 50.9182 281.499 47.4238C281.473 47.0679 281.37 46.7217 281.198 46.4091C281.026 46.0965 280.789 45.8247 280.502 45.6124C280.215 45.4001 279.885 45.2523 279.536 45.1792C279.187 45.106 278.826 45.1091 278.478 45.1884C277.946 45.1296 277.409 45.1296 276.877 45.1884C275.427 45.4905 273.856 45.853 272.557 46.2759C271.59 46.578 270.684 46.9707 269.536 47.3936C268.346 47.7653 267.253 48.3945 266.334 49.2363L265.247 50.5051C264.22 51.8989 263.1 53.2211 261.893 54.4624C261.581 54.7439 261.325 55.0822 261.138 55.4593C260.931 55.9452 260.838 56.4723 260.866 56.9999C260.792 58.0337 260.569 59.0513 260.202 60.0207C260.018 60.5297 259.886 61.056 259.809 61.5916C259.809 65.277 259.809 68.9625 260.111 72.6479C260.262 74.8833 260.897 77.0885 261.199 79.3542C261.41 80.9552 261.199 82.6167 261.531 84.2479C261.803 86.4834 262.165 88.7188 262.588 90.924C263.011 93.1292 263.494 94.5792 263.948 96.3917C264.159 97.3886 264.34 98.3855 264.582 99.624C262.467 100.445 260.164 100.655 257.936 100.228C257.757 100.061 257.604 99.8672 257.483 99.6543C257.339 99.3817 257.246 99.0846 257.211 98.7782C256.859 97.5699 256.372 96.4047 255.761 95.3042C255.055 93.4042 254.53 91.4421 254.19 89.4438C253.314 85.5469 253.073 83.5833 252.74 82.1031C252.235 80.1277 251.961 78.1002 251.925 76.0614C251.874 75.6803 251.782 75.3057 251.653 74.9437C251.607 74.6941 251.607 74.4381 251.653 74.1885C251.653 73.7656 251.653 73.3125 251.653 72.8896L251.472 63.1926C251.472 61.9843 251.472 60.7458 251.472 59.5374C251.355 58.89 251.05 58.2911 250.595 57.8155C249.918 57.3238 249.439 56.6056 249.245 55.791C249.051 54.9764 249.155 54.1193 249.538 53.3749C250.089 52.2643 250.554 51.113 250.928 49.9311C251.516 48.4221 251.932 46.8513 252.166 45.2488C252.348 43.6176 251.864 41.9259 252.166 40.2946C252.325 39.3176 252.842 38.4346 253.616 37.8176C253.77 37.6531 253.96 37.5259 254.17 37.4458C254.381 37.3656 254.607 37.3345 254.831 37.3549C255.055 37.3753 255.272 37.4466 255.465 37.5634C255.657 37.6802 255.821 37.8395 255.942 38.029C255.942 38.2707 256.698 38.3613 257.06 38.3009C257.938 38.1706 258.807 37.9788 259.658 37.7269C260.776 37.3946 261.319 38.18 261.652 38.8748C261.984 39.5696 262.347 40.4759 263.585 39.6905C264.554 39.2293 265.566 38.8651 266.606 38.603C267.12 38.2058 267.596 37.7607 268.026 37.2738Z" fill="#F26837"/>
<path d="M119.914 59.4762C119.763 58.9325 119.612 58.3585 119.401 57.8148C119.189 57.271 118.555 55.9116 118.132 54.945C118.132 54.945 118.132 54.7637 118.132 54.7033C117.64 54.0624 117.289 53.3248 117.101 52.5387C116.914 51.7526 116.894 50.9359 117.044 50.1418C117.044 49.5679 117.044 48.9939 117.226 48.4199C117.226 47.121 117.498 45.7918 117.588 44.7345C118.192 44.0397 118.736 43.4355 119.189 42.8012C120.546 41.1353 121.787 39.3791 122.905 37.5449C124.143 35.1886 126.621 34.524 128.373 32.7417C129.295 32.2195 130.334 31.9389 131.393 31.9261C132.874 31.6543 134.414 31.5032 135.864 31.2918C137.161 30.9579 138.532 31.0642 139.761 31.5939C139.939 31.7161 140.15 31.7795 140.365 31.7751C141.422 31.8442 142.45 32.1518 143.371 32.675C144.291 33.1983 145.082 33.9234 145.682 34.7959C146.306 35.6937 146.701 36.731 146.83 37.8168C146.919 38.6603 146.919 39.5108 146.83 40.3543C146.899 41.0365 146.715 41.7202 146.315 42.2766C145.914 42.833 145.324 43.2237 144.655 43.3751C142.973 43.5926 141.275 43.6734 139.58 43.6168C138.346 43.5847 137.111 43.6758 135.895 43.8887C134.329 44.3005 132.825 44.9202 131.424 45.7314C130.641 46.3481 129.959 47.0817 129.4 47.9064C128.796 48.6314 128.342 49.2658 128.01 49.6887L127.527 52.7095C127.724 53.2688 127.998 53.7977 128.342 54.2804C130.213 55.9402 132.36 57.2592 134.686 58.1773C136.257 58.8116 137.707 59.6575 139.248 60.4429C139.485 60.6037 139.752 60.7166 140.033 60.7752C143.054 60.5939 145.108 63.0408 147.706 64.0377C150.401 64.9909 152.65 66.9057 154.02 69.4148C154.769 71.1697 155.129 73.0658 155.077 74.9732C154.971 79.1533 153.566 83.1967 151.059 86.543C150.425 87.5097 149.972 88.6274 149.337 89.5638C148.741 90.5069 148.064 91.3963 147.313 92.2222C146.256 93.3399 145.108 94.3368 143.99 95.3941C143.809 95.3941 143.567 95.6659 143.296 95.8472C142.202 96.5006 141.022 96.9988 139.791 97.3274C137.919 97.9014 138.19 98.4149 135.895 99.1097C134.475 99.4124 133.081 99.8266 131.726 100.348C128.694 101.699 125.265 101.861 122.119 100.801C120.285 99.9839 118.616 98.8372 117.196 97.418C116.572 97.0044 116.071 96.4305 115.745 95.7566C114.688 93.4003 116.712 90.2888 118.374 88.718C119.518 87.5693 121 86.8176 122.603 86.5732C123.494 86.4517 124.401 86.5238 125.261 86.7847C126.141 87.143 127.066 87.3769 128.01 87.4795C128.982 87.3879 129.938 87.1643 130.85 86.8149L136.65 85.093C136.831 85.093 137.073 85.093 137.254 85.093C138.221 84.9117 139.217 84.8211 140.275 84.5493C141.191 84.2396 142.072 83.8346 142.903 83.3409C143.388 82.9805 143.799 82.5291 144.111 82.0117C144.832 80.9807 145.498 79.9118 146.105 78.8096C146.204 78.3721 146.204 77.918 146.105 77.4804C146.105 77.1179 146.105 76.6346 146.105 76.3929C146.229 76.2185 146.315 76.0197 146.356 75.8096C146.398 75.5996 146.394 75.3831 146.345 75.1746C146.297 74.966 146.205 74.7702 146.075 74.6001C145.945 74.4299 145.78 74.2894 145.591 74.1877C144.111 73.1304 142.571 72.2242 141 71.1669C140.795 71.0931 140.57 71.0931 140.365 71.1669C139.298 71.2583 138.232 70.9811 137.345 70.3815C135.224 69.1366 132.976 68.1238 130.638 67.3606C127.346 66.5752 125.11 64.1283 122.24 62.7388C121.995 62.5739 121.789 62.3574 121.636 62.1044C120.972 61.2887 120.367 60.4731 119.733 59.6575L119.914 59.4762Z" fill="#F26837"/>
<path d="M474.617 91.0446C474.509 91.329 474.356 91.5941 474.164 91.83C472.623 93.5519 470.357 93.3102 468.122 93.5821C467.705 93.5839 467.289 93.6346 466.883 93.7331C466.414 93.9918 465.88 94.1107 465.345 94.0757C464.81 94.0407 464.296 93.8534 463.864 93.5357C463.432 93.2181 463.1 92.7834 462.907 92.2831C462.714 91.7828 462.668 91.2377 462.775 90.7123C462.775 89.8665 462.322 88.93 462.231 87.6914C462.154 86.5894 462.225 85.4819 462.443 84.3987C462.514 83.9694 462.646 83.5523 462.835 83.1602C463.5 82.1935 464.829 81.982 465.856 81.4987C466.357 81.2787 466.912 81.2129 467.45 81.3097C467.988 81.4066 468.485 81.6617 468.877 82.0425C469.322 82.4184 469.898 82.603 470.478 82.556C470.857 82.4491 471.259 82.4551 471.635 82.5731C472.01 82.6912 472.343 82.9162 472.593 83.2206C473.001 83.5736 473.349 83.9922 473.62 84.4592C473.733 84.7077 473.804 84.973 473.831 85.2446C474.284 87.8123 475.342 89.2925 474.617 91.0446Z" fill="#F26837"/>
<path d="M237.458 79.7775C237.458 80.5931 237.458 81.1066 237.67 81.8316C238.183 85.8795 237.911 85.6983 238.244 87.0577C238.641 88.1959 238.974 89.3557 239.24 90.5317C239.425 91.3267 239.425 92.1533 239.24 92.9483C238.958 93.8011 238.422 94.5473 237.704 95.0872C236.986 95.627 236.12 95.9347 235.223 95.9692C234.584 95.9734 233.953 95.8286 233.38 95.5463C231.947 94.6097 230.831 93.2619 230.178 91.6796C229.906 91.2463 229.721 90.764 229.634 90.2598C229.525 89.7113 229.525 89.1468 229.634 88.5983C229.56 85.7937 228.998 83.0235 227.973 80.4118C227.006 77.391 226.402 77.5722 226.523 76.0014C226.467 74.5019 226.203 73.0174 225.737 71.5909C225.737 71.1076 225.526 70.5941 225.375 70.141C225.068 69.1109 224.695 68.1018 224.257 67.1201C223.411 65.4889 222.445 63.918 221.478 62.2565V60.0815C221.483 59.0488 221.858 58.0521 222.535 57.2722C222.976 56.7823 223.539 56.4176 224.166 56.2149C224.814 55.834 225.517 55.5587 226.251 55.3992C228.107 55.134 230 55.4285 231.688 56.245C232.413 56.5773 232.806 57.6346 233.229 58.4201C233.455 58.9581 233.637 59.5138 233.773 60.0815C234.226 61.169 234.347 62.3774 235.434 63.1024C235.887 63.4347 235.827 64.4618 235.948 65.1566C236.034 66.1761 236.206 67.1866 236.461 68.1774C237.166 69.9411 237.574 71.8089 237.67 73.7055C237.698 74.1985 237.698 74.6928 237.67 75.1858V76.7264C237.398 77.6326 237.398 78.5993 237.458 79.7775Z" fill="#F26837"/>
<path d="M231.355 44.343C230.921 44.8375 230.338 45.1769 229.694 45.3097C229.404 45.3651 229.107 45.3651 228.818 45.3097C228.582 45.2355 228.329 45.2355 228.093 45.3097C227.487 45.5998 226.829 45.7666 226.158 45.8005C225.486 45.8343 224.815 45.7346 224.183 45.5069C223.551 45.2793 222.97 44.9283 222.474 44.4744C221.979 44.0205 221.578 43.4727 221.296 42.8628C220.613 41.8196 220.046 40.7055 219.604 39.5398C219.367 38.8557 219.314 38.1211 219.452 37.4102C219.59 36.6994 219.914 36.0376 220.39 35.4919C221.126 35.0406 221.973 34.8017 222.837 34.8017C223.7 34.8017 224.547 35.0406 225.283 35.4919C225.543 35.8373 225.902 36.0948 226.313 36.2298C226.723 36.3649 227.165 36.3709 227.579 36.2471C227.821 36.1642 228.077 36.1324 228.332 36.1539C228.586 36.1753 228.834 36.2494 229.058 36.3716C229.283 36.4937 229.479 36.6613 229.635 36.8635C229.792 37.0656 229.904 37.2981 229.966 37.5461C229.966 37.7877 230.268 38.1502 230.479 38.2107C230.813 38.3116 231.129 38.4645 231.416 38.6638C232.473 39.1471 232.896 42.5607 231.355 44.343Z" fill="#F26837"/>
<path d="M103.239 87.7223C101.014 91.2485 97.9666 94.1821 94.3581 96.2713C92.728 97.3422 90.998 98.2527 89.1924 98.9901C87.0971 100.023 84.8864 100.804 82.607 101.316C79.5263 101.935 76.3532 101.935 73.2725 101.316C71.2069 100.856 69.2484 100.005 67.5027 98.8088C64.7414 97.2673 62.4856 94.959 61.0079 92.1629C59.9215 90.4985 59.0773 88.688 58.5006 86.7858C58.2962 85.4165 57.9933 84.0637 57.5943 82.7379L57.3829 82.0431C56.9788 80.6672 56.7455 79.2468 56.6881 77.8139C56.8753 76.1477 57.1577 74.4936 57.5339 72.8597C57.8058 70.866 57.5339 70.9566 57.836 69.6879C58.1426 67.749 58.8086 65.8844 59.7996 64.1899C60.8629 62.4861 61.763 60.6857 62.4881 58.8128C62.982 57.6762 63.5367 56.5669 64.1496 55.4899C66.4454 50.7773 66.5361 49.8107 68.1673 47.1221C68.7111 46.2159 68.4392 46.7596 70.5538 43.7388C71.474 42.2111 72.4827 40.7384 73.5746 39.3284C75.4303 37.5348 77.673 36.1912 80.1299 35.4013C81.0271 34.9417 81.9988 34.6451 82.9997 34.5252C84.7059 34.4801 86.4131 34.5711 88.1049 34.7971C89.6195 35.0235 91.1218 35.326 92.606 35.7034C94.1292 35.927 95.6201 36.3327 97.0466 36.9117C98.0271 37.5476 98.8197 38.4342 99.3424 39.4794C100.85 42.06 101.486 45.0579 101.155 48.0284C100.974 49.8711 100.128 51.6836 99.9466 53.5263C99.6558 55.4623 98.899 57.2986 97.7414 58.8772C96.5837 60.4559 95.0597 61.7296 93.3007 62.5889C90.8841 64.0691 88.2559 65.1868 85.6882 66.4253C84.2382 67.1201 82.6674 67.7545 81.2476 68.4191C78.6578 69.5819 75.7264 69.7328 73.0309 68.842C72.2794 68.5697 71.4563 68.5697 70.7048 68.842C70.3543 69.0324 70.062 69.3143 69.859 69.6576C68.3891 72.0614 67.4422 74.7479 67.0798 77.542C67.0798 78.3275 67.0798 78.9316 67.0798 79.2941C67.0855 80.3083 67.1866 81.3197 67.3819 82.315C67.6781 84.1628 68.3022 85.9429 69.2246 87.5713C69.944 88.6552 71.0085 89.4642 72.2455 89.8671C74.1708 90.7611 76.2005 91.4106 78.2872 91.8004C80.5079 91.9788 82.7347 91.5397 84.7215 90.5317C85.8091 90.0181 86.9872 89.6858 88.0747 89.1421C89.1425 88.6578 90.1553 88.0603 91.0955 87.3598C92.9114 85.7361 94.9449 84.3736 97.1372 83.3119C98.258 82.7541 99.3381 82.1182 100.37 81.4087C101.077 81.0803 101.873 80.9912 102.636 81.1546C103.399 81.3181 104.088 81.7254 104.599 82.315C105.384 83.765 104.085 86.1212 103.239 87.7223ZM73.9371 58.5107C74.1788 59.3565 78.8611 60.4138 81.8819 57.9972C82.8828 57.081 84.0822 56.4089 85.3861 56.0336C87.1827 55.586 88.8554 54.7393 90.2799 53.5565C91.0329 53.0483 91.5794 52.2876 91.8205 51.4117C91.9156 50.9221 91.9111 50.4184 91.8073 49.9305C91.7035 49.4426 91.5025 48.9807 91.2164 48.5721C90.8569 48.1138 90.3984 47.7426 89.8753 47.4863C89.3523 47.23 88.778 47.0952 88.1955 47.0919C87.06 47.0267 85.9318 47.3114 84.9632 47.9076C80.0392 50.5961 79.1632 54.9159 76.384 56.0941C75.4423 56.507 74.6361 57.1771 74.058 58.0274C73.9371 58.3597 73.9371 58.4503 73.9371 58.5107Z" fill="#F26837"/>
</svg>
