<svg width="182" height="123" viewBox="0 0 182 123" fill="none" xmlns="http://www.w3.org/2000/svg">
<g clip-path="url(#clip0_102_1021)">
<path d="M33.8809 97.8008C33.6186 98.328 33.7356 98.7969 33.9304 99.242C34.2432 99.9557 34.3773 100.697 34.4602 101.471C34.5551 102.368 34.7926 103.25 34.9669 104.138C34.9943 104.277 35.0148 104.419 35.0344 104.559C35.1865 105.656 35.3899 106.748 35.4702 107.85C35.5206 108.55 35.3771 109.264 35.3386 109.973C35.3113 110.486 35.3224 110.999 35.3018 111.513C35.2079 113.959 35.1116 116.406 35.0131 118.854C34.9806 119.683 34.4508 120.189 33.7732 120.434C33.0512 120.691 32.2472 120.742 31.6072 120.146C31.0945 119.674 30.9475 119.01 30.9236 118.359C30.8988 117.568 31.0091 116.772 31.0279 115.977C31.0373 115.473 30.9792 114.969 30.9424 114.465C30.9185 114.123 30.8638 113.789 30.857 113.45C30.816 112.002 30.7997 110.553 30.7425 109.105C30.728 108.747 30.5912 108.394 30.5118 108.039C30.4579 107.798 30.3084 107.526 30.3716 107.321C30.6698 106.353 30.4904 105.419 30.3153 104.461C30.1521 103.568 30.1136 102.652 29.9854 101.751C29.9342 101.396 29.7872 101.054 29.6847 100.707C29.6166 100.523 29.5637 100.333 29.5266 100.14C29.4745 99.7118 29.4634 99.2882 29.0942 98.9732C29.0088 98.8971 28.984 98.7225 28.9626 98.5881C28.8669 98.0062 28.7875 97.4209 28.6901 96.8389C28.6698 96.7266 28.618 96.6224 28.5405 96.5386C27.6006 95.5724 27.3144 94.2365 26.6043 93.1403C26.0917 92.3538 25.5628 91.5999 24.7972 91.0333C24.3409 90.6962 23.8991 90.3402 23.4625 89.9782C22.5858 89.2516 21.5246 88.9435 20.4668 88.6277C20.1964 88.5392 19.9096 88.5121 19.6275 88.5485C19.3453 88.5849 19.0748 88.6839 18.8356 88.8383C18.3553 89.1448 17.8308 89.3757 17.2805 89.5229C16.7986 89.6401 16.4953 89.9183 16.1501 90.2203C15.0393 91.1951 14.5164 92.5309 13.8841 93.8026C13.8503 93.8809 13.8318 93.9648 13.8294 94.05C13.7704 94.9571 13.6491 95.8659 13.6781 96.7696C13.7164 97.5999 13.4869 98.4205 13.0236 99.1102C12.4511 99.9796 12.5878 100.86 12.998 101.735C13.2868 102.35 13.7003 102.933 13.4252 103.669C13.411 103.725 13.411 103.784 13.4252 103.84C13.7063 105.328 13.5226 106.847 13.7089 108.335C13.7943 109.033 13.931 109.719 13.9011 110.426C13.8967 110.455 13.8996 110.484 13.9097 110.512C14.736 112.115 14.3805 113.89 14.6385 115.577C14.7838 116.53 14.8282 117.501 14.8812 118.466C14.9068 118.933 15.0666 119.295 15.4434 119.557C15.898 119.873 15.9655 120.287 15.7382 120.755C15.5099 121.239 15.2552 121.711 14.9752 122.167C14.4565 122.986 13.6704 123.131 12.7998 122.9C11.959 122.677 11.2686 122.2 11.0549 121.32C10.7866 120.215 10.6277 119.086 10.4184 117.965C10.3927 117.826 10.4184 117.664 10.3603 117.545C9.92536 116.696 10.0014 115.788 9.95869 114.875C9.92195 114.093 9.65621 113.322 9.48874 112.547C9.4708 112.461 9.41012 112.385 9.41012 112.304C9.41695 110.751 8.62744 109.293 8.88121 107.707C8.93419 107.379 8.93931 107 8.83079 106.693C8.38391 105.434 8.41212 104.11 8.24721 102.814C8.14297 101.998 8.01565 101.194 7.85843 100.385C7.62089 99.1684 7.62345 97.9035 7.55595 96.6566C7.50639 95.7478 7.53545 94.8356 7.47564 93.9276C7.44634 93.5585 7.34318 93.199 7.1723 92.8707C6.73226 92.0149 6.61946 91.0907 6.52804 90.1596C6.48532 89.7214 6.54087 89.3038 6.94759 89.0171C7.08276 88.912 7.20318 88.7891 7.3056 88.6517C8.11819 87.653 9.19053 87.5392 10.3167 87.8627C10.902 88.0338 11.231 87.9423 11.6266 87.4647C12.4571 86.4618 13.497 85.7703 14.8154 85.4657C15.7272 85.24 16.6086 84.9049 17.4403 84.4678C18.1278 84.123 18.8946 83.9679 19.6619 84.0185C21.5118 84.1246 23.3361 84.4464 24.9467 85.4734C25.1061 85.5878 25.2914 85.661 25.4859 85.6864C26.0686 85.713 26.5001 85.9971 26.8932 86.3925C27.0871 86.5998 27.3031 86.7852 27.5374 86.9453C27.9203 87.1816 28.2349 87.5141 28.45 87.9098C28.808 88.5447 29.3301 89.0941 29.835 89.6307C29.9641 89.7685 30.3323 89.819 30.5186 89.7385C30.884 89.5901 31.2122 89.3628 31.4799 89.0728C32.2258 88.1956 33.0367 87.4091 34.0509 86.8477C34.103 86.8243 34.1513 86.7935 34.1945 86.7562C35.4608 85.4665 37.0996 84.9308 38.7744 84.4456C39.6382 84.1948 40.508 83.9603 41.3651 83.6754C42.2692 83.3806 43.246 83.3987 44.1386 83.7267C44.3241 83.796 44.5172 83.9278 44.6983 83.9158C46.1509 83.8149 47.2258 84.7083 48.3648 85.3604C48.8775 85.6522 49.262 86.2324 49.5867 86.7553C50.1104 87.5991 50.6231 88.4711 50.9752 89.3954C51.2101 90.0115 51.1588 90.7381 51.2375 91.415C51.262 91.7523 51.3048 92.0879 51.3656 92.4206C51.61 93.4877 51.6168 94.56 51.5237 95.6451C51.4998 95.919 51.4733 96.2442 51.5955 96.4675C51.8518 96.9399 51.78 97.3935 51.7202 97.8787C51.5818 99.0058 51.4442 100.135 51.3639 101.267C51.2648 102.657 51.2118 104.051 51.164 105.445C51.1375 106.215 51.1452 106.98 51.1699 107.746C51.1831 108.457 51.2327 109.167 51.3186 109.873C51.5109 111.275 51.0179 112.512 50.4642 113.736C49.9336 114.905 48.0896 115.105 47.3505 114.059C46.6994 113.135 46.6413 112.068 46.7405 110.978C46.7815 110.533 46.767 110.082 46.7652 109.634C46.7652 109.462 46.7293 109.291 46.7131 109.12C46.6379 108.33 46.5482 107.54 46.4952 106.749C46.4602 106.214 46.4713 105.677 46.4722 105.139C46.4722 104.484 46.4858 103.829 46.4918 103.171C46.4918 102.715 46.4012 102.229 46.5191 101.808C46.8917 100.471 46.7268 99.0896 46.9353 97.7443C47.0387 97.0811 47.0558 96.4367 46.7157 95.8308C46.5747 95.5801 46.5747 95.3653 46.7746 95.1308C47.1301 94.7123 47.0199 94.222 46.9276 93.7462C46.7806 92.9956 46.6405 92.2425 46.4704 91.4972C46.2876 90.6979 46.0774 89.9046 45.8723 89.1113C45.8588 89.071 45.8374 89.0338 45.8092 89.002C45.781 88.9703 45.7467 88.9445 45.7083 88.9264C44.9794 88.6149 44.2642 88.2529 43.508 88.033C43.0227 87.8918 42.5032 88.0142 42.0794 88.4027C41.8894 88.5651 41.6533 88.6639 41.4044 88.6851C39.9868 88.7895 38.8333 89.4493 37.6884 90.24C36.3212 91.1814 35.677 92.5198 35.3113 94.0508C35.2557 94.2819 35.2455 94.6088 35.3676 94.7825C35.8564 95.4757 35.6522 96.3409 35.9854 97.0717C36.0478 97.2095 35.8478 97.6168 35.6864 97.6776C35.3053 97.8205 34.8755 97.8487 34.4619 97.8847C34.268 97.9104 34.0774 97.8359 33.8809 97.8008Z" fill="#F15A2B"/>
<path d="M25.6302 41.3331C25.4542 41.4392 25.4183 41.4486 25.4081 41.4692C24.9219 42.5218 24.5416 43.6317 23.7436 44.5132C23.6966 45.3373 22.9617 45.7797 22.6567 46.4712C22.3517 47.1627 21.9108 47.8139 21.5211 48.4763C21.3502 48.7707 21.099 49.03 20.9726 49.3406C20.2967 50.9957 19.0988 52.3187 18.0674 53.7222C17.0164 55.1539 15.7091 56.4324 14.3574 57.5963C13.4927 58.3408 12.3853 58.8577 11.3095 59.2813C10.6147 59.5427 9.85913 59.5971 9.13408 59.4379C7.47046 59.0391 5.8564 58.4478 4.68067 57.0777C4.5713 56.9502 4.438 56.8047 4.28847 56.7576C3.50151 56.5095 3.14265 55.8591 2.77951 55.2078C2.36339 54.4624 1.93529 53.7222 1.54737 52.9623C1.39698 52.6679 1.34232 52.3239 1.24576 52.0021C1.21415 51.8943 1.22525 51.7453 1.16032 51.6812C0.609192 51.1437 0.592941 50.4745 0.652753 49.7771C0.659137 49.6629 0.641689 49.5486 0.601499 49.4416C0.0888249 47.9936 0.0452502 46.4883 0.048668 44.9753C0.048668 44.4618 -0.0367793 43.9424 0.025596 43.4349C0.12215 42.6219 0.309275 41.82 0.452824 41.0122C0.799733 39.0576 1.5243 37.2416 2.46591 35.5053C2.56384 35.3315 2.6495 35.151 2.72224 34.9653C3.15716 33.804 3.84158 32.7976 4.64306 31.8665C5.29159 31.1143 6.04609 30.4374 6.59978 29.6218C7.39527 28.4502 8.51546 27.6082 9.4528 26.5855C10.203 25.7674 11.0378 24.9912 12.0068 24.3827C12.6453 23.967 13.2371 23.4836 13.7721 22.9407C14.1181 22.6094 14.51 22.3298 14.9359 22.1106C15.8826 21.5972 16.8011 21.0238 17.7205 20.4573C18.6937 19.8582 19.6704 19.3114 20.8538 19.207C21.7202 19.1317 22.5738 18.9229 23.4496 18.7705C23.6983 17.7513 24.4494 16.9999 25.244 16.418C25.8566 15.9696 26.6838 15.7188 27.528 16.3324C27.9748 16.6576 28.4508 16.8519 28.52 17.468C29.4026 18.2665 29.4966 19.4363 29.8632 20.4633C30.1324 21.2146 30.1648 22.073 30.1845 22.8868C30.2366 25.0203 30.2246 27.1546 30.2374 29.288C30.2374 29.4019 30.2699 29.5328 30.2263 29.6304C29.8205 30.5152 30.1503 31.3975 30.2041 32.2833C30.2169 32.4818 30.1725 32.7616 30.0426 32.8755C29.6658 33.2024 29.6359 33.6012 29.6607 34.0393C29.7128 34.9482 29.7598 35.857 29.8162 36.765C29.8178 36.9067 29.8468 37.0468 29.9016 37.1775C30.3656 38.1051 30.2938 39.1141 30.3801 40.1034C30.4442 40.8325 30.6262 41.5513 30.7074 42.2805C30.8518 43.5821 31.1517 44.8478 31.5225 46.0972C31.7233 46.775 31.7105 47.5255 31.9617 48.1776C32.389 49.2901 32.9469 50.3564 33.463 51.4347C33.5527 51.6133 33.676 51.7728 33.8262 51.9045C34.2066 52.2479 34.4911 52.6848 34.6516 53.1719C34.9002 53.8882 35.0566 53.9421 35.7991 53.7795C36.4374 53.6366 37.0697 53.4552 37.7148 53.367C38.0258 53.3251 38.4667 53.3482 38.6607 53.5382C38.9589 53.8266 38.8529 54.2665 38.6496 54.6507C38.5479 54.8433 38.4385 55.0872 38.4693 55.2866C38.6 56.1098 38.1941 56.6969 37.7003 57.2643C37.5294 57.4577 37.385 57.6699 37.2158 57.8633C37.1227 57.9668 37.0099 58.1115 36.8928 58.126C35.9315 58.2433 34.9737 58.6335 34.0005 58.1389C33.7031 57.9874 33.3554 57.9343 33.0307 57.8333C31.8498 57.4671 31.2252 56.4727 30.5878 55.5467C29.9897 54.6841 29.5804 53.6982 29.025 52.8082C28.15 51.403 27.8151 49.813 27.3853 48.2563C27.0315 46.9727 26.6342 45.6976 26.2745 44.413C26.1903 44.0611 26.1332 43.7032 26.1036 43.3425C26.0472 42.8624 26.0352 42.3763 25.9515 41.9013C25.9224 41.7037 25.7507 41.5359 25.6302 41.3331ZM24.3314 28.8516C24.5528 27.1589 23.9666 25.8427 23.477 24.5085C23.3428 24.1423 22.9934 24.0952 22.6858 24.2449C21.9236 24.6172 21.1665 25.0066 20.4343 25.4345C19.5268 25.9642 18.6852 26.6206 17.7436 27.0741C16.6482 27.6022 15.7783 28.4109 14.8103 29.1041C14.0113 29.68 13.332 30.4279 12.2998 30.6504C12.0333 30.7078 11.7684 30.9928 11.5966 31.2384C10.8276 32.338 10.0142 33.3846 8.78803 34.0213C8.69512 34.0879 8.61423 34.1698 8.54879 34.2635C7.75501 35.1595 7.00052 36.0752 6.60747 37.2399C6.47161 37.6404 6.2392 38.0101 6.02473 38.3798C5.25572 39.7071 5.09678 41.2253 4.69091 42.6656C4.68211 42.7222 4.67983 42.7796 4.68409 42.8367C4.65931 43.7199 4.6294 44.603 4.61488 45.4896C4.61488 45.6822 4.59437 45.9363 4.70032 46.057C5.09679 46.5071 5.08055 47.0642 5.14806 47.588C5.2617 48.4703 5.75984 49.2876 5.59066 50.2178C5.57784 50.2888 5.6368 50.3804 5.6761 50.454C6.23834 51.445 6.75955 52.4633 7.37903 53.4175C8.43001 55.0341 10.3372 55.2532 11.7906 54.0106C12.3204 53.5579 12.6527 52.9751 13.0637 52.4368C13.8507 51.4099 14.9059 50.5943 15.5041 49.4048C15.5647 49.285 15.7151 49.2148 15.8065 49.1061C16.1364 48.7176 16.4713 48.3359 16.7806 47.9277C17.0899 47.5195 17.3787 47.0985 17.6675 46.6757C18.0948 46.0467 18.5357 45.4237 18.9364 44.7768C19.2355 44.2941 19.4645 43.7678 19.7533 43.2783C20.1121 42.6698 20.5334 42.0956 20.8641 41.4752C21.2913 40.6793 21.663 39.8492 22.0603 39.0371C22.2611 38.6288 22.4995 38.236 22.6704 37.815C23.2138 36.4714 23.7077 35.1073 24.2708 33.7723C24.6784 32.807 24.7083 31.7878 24.8005 30.7771C24.827 30.4836 24.6826 30.1721 24.6032 29.8717C24.5092 29.4669 24.3895 29.0681 24.328 28.8516H24.3314Z" fill="#F15A2B"/>
<path d="M84.7236 33.0528C84.6621 32.4195 84.6835 32.0138 84.575 31.6467C84.3579 30.9142 84.0623 30.2039 83.8128 29.4816C83.7581 29.3267 83.6735 29.1461 83.7077 29.0015C83.841 28.4367 83.6812 27.9412 83.4625 27.432C83.3428 27.1522 83.3249 26.8278 83.2728 26.5215C83.125 25.6537 82.8849 24.7885 82.8601 23.9165C82.8208 22.5806 82.2449 21.3825 82.0406 20.0903C81.8296 18.7519 81.4109 17.4459 81.0837 16.1263C80.9982 15.7669 80.8273 15.4075 80.8273 15.0481C80.8273 13.7858 80.2198 12.6878 79.9472 11.5009C79.7439 10.6151 79.491 9.7371 79.2107 8.87191C79.0278 8.30881 78.821 7.73459 78.5117 7.23652C77.9897 6.39615 77.6624 5.42655 76.8883 4.74279C76.7498 4.62127 76.6969 4.3149 76.7225 4.11122C76.8174 3.35044 76.9045 2.58109 77.1019 1.84427C77.3334 0.979936 78.0418 0.484441 78.8159 0.175505C79.5303 -0.110324 80.2634 -0.081226 80.8666 0.535789C81.3443 1.02529 81.8467 1.48998 82.3448 1.95809C82.7225 2.31238 82.9199 2.7514 82.8823 3.25802C82.7892 4.5006 83.3095 5.59514 83.6727 6.72819C83.8008 7.1287 84.064 7.4924 83.9452 7.9511C83.9363 8.03647 83.953 8.12257 83.9931 8.19842C84.7245 9.88858 84.6596 11.7507 85.1423 13.4957C85.4217 14.5046 85.7781 15.5145 85.8797 16.5448C86.0139 17.9004 86.6906 19.0959 86.8401 20.4232C86.9119 21.0667 86.8401 21.7317 87.1144 22.341C87.4485 23.077 87.4459 23.9259 87.9193 24.6208C88.0654 24.8347 88.0979 25.1539 88.1081 25.4278C88.1577 26.72 88.3645 27.9737 88.8344 29.1855C89.0378 29.7127 89.2796 30.2604 88.8729 30.7687L89.4804 32.0464C89.5291 32.1491 89.6513 32.2808 89.6188 32.3484C89.3385 32.9954 89.8803 33.5996 89.7043 34.2423C89.665 34.3852 89.753 34.5641 89.7854 34.7258C89.829 34.9432 89.9418 35.1708 89.9085 35.3745C89.7752 36.1986 90.2366 36.8293 90.4622 37.6277C91.2542 37.0937 91.9506 36.6239 92.6462 36.1532C92.7871 36.0574 92.9102 35.9265 93.0631 35.8597C93.6194 35.615 93.9919 35.8537 94.0765 36.4587C94.2013 37.3436 93.8321 38.0608 93.3716 38.7642C92.982 39.359 92.6333 39.9811 92.236 40.5708C91.9703 40.9661 91.9797 41.3033 92.3103 41.6379C92.9777 42.3071 92.9674 43.0739 92.506 43.809C91.9875 44.6214 91.4226 45.4032 90.8142 46.1504C90.463 46.5894 90.2007 46.5989 89.6923 46.3413C89.3394 46.1633 89.0087 45.9459 88.5661 45.6892C87.9971 46.2523 87.4323 46.841 86.8359 47.3964C85.7652 48.3926 85.0415 49.7319 83.7436 50.5063C83.6241 50.5847 83.5215 50.6862 83.442 50.805C82.8748 51.6164 82.0565 52.218 81.1136 52.5166C80.9683 52.5636 80.8427 52.7194 80.7419 52.8503C80.0651 53.7292 79.0475 54.0724 78.111 54.5422C78.0628 54.5734 78.006 54.5887 77.9487 54.5858C76.9541 54.306 75.8416 54.6543 74.9171 54.0107C74.8962 53.991 74.8718 53.9754 74.8453 53.9645C73.9515 53.7617 73.2509 53.1764 72.481 52.7348C72.111 52.5267 71.7874 52.2451 71.53 51.9072C70.6396 50.6886 69.9176 49.3801 69.5408 47.8962C69.199 46.5518 68.8017 45.2219 68.4437 43.8818C68.0284 42.326 68.2036 40.771 68.4821 39.2195C69.0298 38.5109 68.9547 37.5978 69.2708 36.8088C69.745 35.6269 70.5525 34.6642 71.2455 33.6244C71.5018 33.247 71.7761 32.8867 72.0452 32.5213C72.3725 32.07 72.7898 31.6917 73.2706 31.4102C73.7514 31.1287 74.2852 30.9502 74.8384 30.8859C75.8218 30.749 76.8184 30.7354 77.8051 30.8457C79.0014 30.9955 80.2318 31.0023 81.3622 31.4807C81.6237 31.5919 81.8492 31.8615 82.0176 32.1088C82.285 32.5016 82.5396 32.7421 83.0677 32.5444C83.2574 32.4734 83.5385 32.618 83.7701 32.6899C84.0204 32.7652 84.264 32.8739 84.7236 33.0528ZM83.7478 41.6234C83.4983 41.3495 83.2907 41.0757 83.0361 40.8532C82.8054 40.6546 82.5439 40.445 82.2602 40.3637C81.5813 40.16 80.9529 39.815 80.4163 39.3513C80.1651 39.1425 79.8447 39.0167 79.5559 38.8541C79.4337 38.7856 79.2713 38.7488 79.1953 38.647C78.6365 37.9007 77.7376 37.6791 77.0011 37.211C76.8344 37.1049 76.5106 37.0441 76.3679 37.1348C75.5869 37.6346 74.7043 38.1001 74.5693 39.1442C74.5197 39.5344 74.383 39.7732 74.0976 39.9786C73.7704 40.2156 73.6892 40.534 73.6618 40.9353C73.6242 41.495 73.561 42.0906 73.3372 42.5938C72.8672 43.6507 72.8151 44.6537 73.3295 45.6986C73.6713 46.3832 73.8421 47.1876 74.2976 47.7721C74.8102 48.4276 75.5434 48.9189 76.2124 49.4392C76.7396 49.8491 77.3087 49.8534 77.8624 49.4392C78.7689 48.7546 79.6986 48.1033 80.5872 47.3981C81.3853 46.764 82.1526 46.0888 82.913 45.4085C83.2941 45.0662 83.6086 44.6528 83.988 44.3105C84.5134 43.8373 85.0868 43.4179 85.6063 42.9413C85.8069 42.7582 85.9462 42.5176 86.0053 42.2524C86.0617 41.9143 85.7592 41.7971 85.4756 41.6918C84.9125 41.4813 84.3596 41.2656 83.7478 41.6234Z" fill="#F15A2B"/>
<path d="M63.6774 32.6959C63.8381 34.279 64.0192 35.8622 64.1517 37.448C64.232 38.4107 64.1987 39.3829 64.2824 40.3457C64.3798 41.4642 64.5575 42.5758 64.6831 43.6926C64.7457 44.2009 64.7802 44.7123 64.7865 45.2244C64.7865 46.1341 64.6934 47.0472 64.7447 47.9527C64.7856 48.6509 64.9151 49.341 65.13 50.0065C65.5205 51.2149 64.8181 52.7407 63.6117 53.119C63.2921 53.2183 63.0264 53.1926 62.8059 52.8537C62.5855 52.5148 62.2932 52.2452 62.0121 51.9654C61.2492 51.2231 60.7793 50.2301 60.6886 49.1687C60.5852 48.1238 60.6253 47.0455 60.375 46.0391C60.0169 44.598 60.3348 43.0722 59.7307 41.6747C59.6453 41.4787 59.7008 41.2245 59.6735 40.9995C59.5994 40.3827 59.5194 39.7663 59.4334 39.1501C59.4094 38.979 59.3274 38.8181 59.3249 38.6512C59.3001 37.3145 59.3009 35.9786 59.2659 34.6428C59.2539 34.1678 59.1625 33.6946 59.1087 33.2205C59.0617 32.8003 58.9378 32.3647 58.9873 31.9625C59.136 30.8422 58.9771 29.752 58.8062 28.6574C58.7712 28.4332 58.6925 28.2082 58.6994 27.9857C58.7292 27.1611 58.6242 26.3373 58.3884 25.5467C58.2106 24.9579 58.2687 24.2998 58.0996 23.7068C57.8748 22.9203 57.5433 22.1664 57.228 21.4064C57.1897 21.331 57.1345 21.2655 57.0668 21.2149C56.9991 21.1643 56.9206 21.13 56.8375 21.1146C56.3248 21.0907 55.9386 20.8108 55.5131 20.5892C54.8748 20.2563 54.2143 20.5224 53.5914 20.6345C51.2844 21.0513 49.2534 22.163 47.3129 23.4073C46.6396 23.8394 46.1483 24.5643 45.5954 25.1744C45.0042 25.8265 44.4462 26.5086 43.8583 27.1633C43.479 27.586 43.2602 28.0507 43.297 28.6309C43.3499 29.5398 43.3747 30.4503 43.4311 31.3591C43.4397 31.5863 43.4962 31.8091 43.5969 32.013C43.8353 32.4554 43.8045 32.8687 43.6174 33.3189C43.3294 34.0163 43.3721 34.2654 43.9549 34.7258C44.3599 35.045 44.4752 35.3958 44.4676 35.8965C44.4616 36.4322 44.5727 36.9593 44.3761 37.4942C44.3052 37.6868 44.3496 37.9555 44.4214 38.1626C44.8563 39.4248 45.2383 40.6965 45.3895 42.0324C45.4579 42.6417 45.4963 43.263 45.9791 43.7611C46.1167 43.9023 46.0645 44.2488 46.0645 44.5005C46.0534 45.0139 45.9697 45.5274 46.3106 45.9827C46.3522 46.0579 46.3742 46.1423 46.3747 46.2283C46.4865 47.1851 46.6757 48.1313 46.9404 49.0575C47.1394 49.7763 47.3214 50.4695 47.7162 51.0985C47.8666 51.3373 48.0161 51.6068 48.2349 51.7686C48.8885 52.2512 48.8185 52.9598 48.6792 53.5554C48.5544 54.0886 48.0571 54.5199 47.4898 54.6791C47.0207 54.7973 46.5379 54.8517 46.0543 54.8408C45.7843 54.8408 45.4416 54.7689 45.2571 54.5961C44.641 54.0184 43.9634 53.5007 43.5678 52.7039C42.88 51.3201 42.5544 49.8182 42.0571 48.3728C41.9367 48.0228 41.7923 47.6814 41.6761 47.3305C41.6162 47.1482 41.5009 46.9069 41.5693 46.7717C41.8256 46.2711 41.5265 45.9279 41.3608 45.5017C41.1155 44.8719 41.0036 44.1881 40.8481 43.5232C40.6584 42.6973 40.496 41.8647 40.3021 41.0414C40.0953 40.1617 39.8754 39.2856 39.6424 38.4133C39.3442 37.2905 38.9956 36.1814 38.7342 35.051C38.5513 34.2602 38.4778 33.4447 38.3556 32.6394C38.3351 32.5033 38.3377 32.351 38.2745 32.2355C37.7891 31.3472 37.4696 30.3656 36.6356 29.6801C36.1768 29.3036 36.0862 28.7028 36.1571 28.1055C36.2212 27.5706 36.3237 27.0357 36.3229 26.5009C36.3229 26.2108 36.1418 25.9215 36.0435 25.6306C35.8196 24.9682 35.5906 24.3075 35.377 23.6417C35.3087 23.4286 35.2916 23.1993 35.236 22.9802C35.1711 22.7081 35.1301 22.4231 35.0181 22.1707C34.7436 21.5594 34.7172 20.8651 34.9446 20.2347C35.172 19.6043 35.6353 19.0873 36.2366 18.7929C36.564 18.6274 36.9076 18.496 37.2619 18.401C38.1514 18.187 39.0084 18.2298 39.7612 18.8477C40.091 19.119 40.4371 19.3706 40.7866 19.6119C41.019 19.7702 41.1053 19.9371 41.0993 20.2426C41.089 20.822 41.5744 21.1463 42.0751 20.8588C43.3568 20.1245 44.7068 19.5323 45.9321 18.6791C47.1078 17.8601 48.3519 17.0908 49.8053 16.7793C50.4317 16.6449 51.0161 16.3693 51.6518 16.2153C53.3813 15.7951 55.097 16.0005 56.8196 16.0621C57.0614 16.0707 57.3066 16.2076 57.5339 16.3189C57.9936 16.5439 58.4319 16.8152 58.901 17.0266C60.2639 17.6444 61.0081 18.7886 61.5439 20.1074C61.7361 20.5815 61.8532 21.0872 62.0651 21.5502C62.6581 22.8519 62.9964 24.2339 63.2656 25.6212C63.4365 26.5069 63.3613 27.4388 63.4322 28.3477C63.486 29.0323 63.6142 29.7024 63.6783 30.3818C63.7501 31.146 63.7885 31.9137 63.8406 32.6796L63.6774 32.6959Z" fill="#F15A2B"/>
<path d="M56.4658 106.591C56.5333 105.579 56.5274 104.66 56.6709 103.767C56.8555 102.622 57.1597 101.496 57.4177 100.362C57.4493 100.224 57.533 100.098 57.5629 99.9607C58.0602 97.6895 59.2283 95.6895 60.14 93.586C60.3476 93.0922 60.5051 92.5787 60.6099 92.0533C60.7552 91.3747 61.0654 90.7089 61.4114 90.0996C61.901 89.2395 62.5222 88.4565 63.0263 87.6033C63.7558 86.3459 64.6897 85.2193 65.7897 84.27C66.4732 83.6881 67.3832 83.5041 68.2676 83.4647C69.0545 83.4297 69.85 83.4759 70.5968 83.843C70.9719 84.0278 71.4367 84.0338 71.8059 84.2272C72.533 84.6081 73.2815 84.9889 73.9155 85.5015C75.9534 87.1523 77.4966 89.1856 78.6672 91.5561C79.2926 92.7932 79.7355 94.1146 79.9822 95.479C80.1953 96.7411 80.2424 98.0257 80.1223 99.3C79.9711 100.913 79.977 102.528 79.866 104.139C79.8455 104.446 79.725 104.745 79.6592 105.05C79.1704 107.322 78.3262 109.443 77.0035 111.366C76.5515 112.022 76.1687 112.726 75.7099 113.377C75.3348 113.91 74.8973 114.404 74.4786 114.902C74.0599 115.4 73.6968 115.971 73.1969 116.373C72.3724 117.039 71.6777 117.854 70.6096 118.256C69.2622 118.757 67.9959 119.474 66.692 120.093C66.5211 120.178 66.3262 120.284 66.1451 120.279C65.3496 120.258 64.5558 120.201 63.7612 120.154C63.6753 120.154 63.5901 120.139 63.51 120.108C62.7768 119.751 61.9472 119.509 61.3371 118.996C60.3382 118.166 59.3812 117.254 58.8412 116.007C58.5473 115.329 58.0346 114.718 57.8731 114.018C57.651 113.059 57.0366 112.24 57.0187 111.205C57.0084 110.479 56.7435 109.76 56.6547 109.031C56.5615 108.189 56.5222 107.34 56.4658 106.591ZM68.2744 93.4525C67.9873 93.604 67.6003 93.8462 67.185 94.0182C66.5869 94.2689 66.2374 94.7174 66.0289 95.3087C65.8725 95.7537 65.6675 96.185 65.5538 96.6403C65.3342 97.5209 64.7455 98.1653 64.1927 98.8208C63.956 99.1015 63.786 99.3454 63.7996 99.7134C63.8287 100.46 63.5125 101.029 62.8965 101.445C62.6615 101.603 62.4556 101.811 62.2129 101.949C62.0582 102.023 61.9306 102.144 61.8476 102.295C61.7646 102.445 61.7304 102.618 61.7498 102.789C61.7677 103.131 61.7976 103.474 61.7942 103.816C61.7942 104.005 61.8028 104.28 61.6908 104.369C61.3354 104.65 61.3815 105.018 61.3704 105.381C61.2944 107.85 61.5815 110.259 62.5231 112.57C62.9042 113.506 63.3955 114.356 64.1286 115.062C64.7267 115.637 65.7452 115.814 66.4613 115.383C67.3584 114.842 68.2001 114.203 69.1203 113.706C70.42 113.005 71.3641 111.989 72.099 110.738C72.6621 109.78 73.2217 108.82 73.8079 107.878C74.3342 107.036 74.8768 106.216 75.2365 105.273C75.645 104.205 75.9987 103.153 75.8628 101.979C75.7885 101.333 75.7987 100.674 75.7979 100.021C75.7979 99.484 75.8833 98.9432 75.8457 98.4118C75.7817 97.5637 75.6185 96.7233 75.545 95.8761C75.48 95.1017 75.172 94.3677 74.6649 93.7794C74.1522 93.1855 73.7814 92.5317 73.3952 91.8693C73.2439 91.6126 73.0363 91.3148 72.7808 91.1976C72.1366 90.9015 71.6632 90.4376 71.2095 89.9139C70.9882 89.6572 70.7677 89.3362 70.2901 89.3534C70.3241 89.5362 70.3486 89.7208 70.3636 89.9062C70.3824 90.756 70.6002 91.4928 71.218 92.1466C71.6974 92.6532 72.0648 93.2908 72.1169 94.0447C72.14 94.3819 72.0622 94.6438 71.7905 94.8714C71.0668 95.4867 70.6062 95.4927 69.8483 94.838C69.3544 94.4076 68.8657 93.9711 68.2744 93.4508V93.4525Z" fill="#F15A2B"/>
<path d="M117.8 117.602C116.58 117.602 115.381 117.532 114.196 117.119C113.538 116.89 112.924 116.715 112.512 116.11C112.427 115.98 112.249 115.888 112.095 115.824C110.949 115.355 110.17 114.436 109.345 113.578C109.11 113.33 108.911 113.051 108.753 112.749C107.966 111.267 107.336 109.707 106.873 108.094C106.649 107.301 106.281 106.543 106.109 105.741C105.8 104.3 105.326 102.886 105.363 101.376C105.375 100.908 105.23 100.435 105.142 99.9668C105.054 99.4987 104.926 99.0314 104.854 98.5582C104.748 97.853 105.149 97.3875 105.734 97.1581C106.145 96.9973 106.332 96.7679 106.393 96.3734C106.762 93.961 107.845 91.8207 109.026 89.742C109.539 88.84 110.288 88.0664 110.968 87.2671C111.428 86.7254 111.895 86.1597 112.464 85.7489C113.288 85.1629 114.158 84.6432 115.065 84.1948C116.814 83.3117 118.558 83.6677 120.242 84.4096C121.229 84.8452 122.168 85.3895 123.119 85.9055C124.212 86.4994 124.464 87.8165 123.74 88.8195C123.176 89.5999 122.683 90.4309 122.148 91.2327C121.581 92.0817 121 92.9212 120.43 93.7676C120.161 94.1664 119.901 94.5711 119.64 94.9759C119.549 95.1171 119.491 95.2883 119.376 95.4038C118.417 96.3751 117.456 97.3447 116.477 98.2963C116.257 98.5103 115.964 98.6481 115.708 98.8278C115.431 99.0237 115.17 99.2445 114.882 99.4225C113.967 99.9882 113.044 100.541 112.12 101.092C112.051 101.134 111.949 101.119 111.871 101.149C110.839 101.535 110.719 101.696 110.695 102.814C110.652 104.412 110.947 106.001 111.56 107.477C111.581 107.528 111.645 107.579 111.639 107.625C111.566 108.427 112.157 108.97 112.408 109.644C112.817 110.733 113.69 111.441 114.497 112.197C114.616 112.308 114.794 112.354 114.944 112.434C115.291 112.619 115.628 112.823 115.984 112.987C116.229 113.1 116.511 113.251 116.757 113.223C117.542 113.131 118.324 112.987 119.098 112.821C120.576 112.501 121.718 111.622 122.727 110.548C122.749 110.53 122.767 110.508 122.783 110.483C123.265 109.462 124.281 109.001 125.062 108.294C125.61 107.799 126.136 107.278 126.664 106.76C126.948 106.481 127.199 106.167 127.496 105.904C127.673 105.737 127.891 105.619 128.128 105.561C128.364 105.504 128.612 105.509 128.846 105.576C129.317 105.717 129.242 106.215 129.258 106.603C129.294 107.524 129.045 108.372 128.705 109.231C128.121 110.706 127.141 111.938 126.385 113.305C126.343 113.379 126.313 113.476 126.248 113.519C124.619 114.579 123.288 116.059 121.439 116.826C120.258 117.319 119.082 117.656 117.8 117.602ZM118.134 89.1849C117.256 88.9915 117.137 88.9521 116.168 89.7899C114.73 91.0299 113.321 92.3042 111.905 93.5716C111.78 93.6878 111.68 93.827 111.608 93.9815C111.352 94.5215 111.104 95.0666 110.865 95.6152C110.738 95.9053 110.665 96.2022 110.931 96.471C111.044 96.4496 111.147 96.4615 111.203 96.4153C112.543 95.3199 113.945 94.287 115.193 93.0932C116.107 92.2177 116.826 91.136 117.612 90.1305C117.808 89.8729 117.931 89.5554 118.134 89.1849Z" fill="#F15A2B"/>
<path d="M85.778 103.975C85.8907 102.879 86.0522 101.785 86.1009 100.687C86.1445 99.7245 86.0582 98.7566 86.0369 97.7904C86.0317 97.5662 85.9736 97.277 86.0839 97.1272C86.682 96.2851 86.541 95.2685 86.7948 94.3485C86.9605 93.7495 87.1408 93.1547 87.3074 92.5557C87.4339 92.0944 87.6202 91.6331 87.645 91.1642C87.6781 90.6251 87.8145 90.0975 88.0465 89.6101C88.7301 88.1056 89.3906 86.5943 90.0605 85.0856C90.1186 84.9555 90.2032 84.8288 90.2177 84.6902C90.339 83.5152 91.1286 82.6928 91.7498 81.79C92.1386 81.2309 92.567 80.7004 93.0314 80.2025C93.6159 79.5692 94.3473 79.2612 95.2342 79.2706C96.3399 79.2868 97.4661 79.1054 98.5111 79.6249C99.5253 80.1298 100.546 80.6056 101.376 81.4374C102.033 82.0963 102.835 82.6098 103.554 83.208C104.409 83.9229 105.078 84.8358 105.501 85.8678C105.666 86.2606 105.548 86.5704 105.117 86.6559C104.513 86.7766 103.882 86.7792 103.263 86.7852C103.148 86.7852 102.982 86.5892 102.921 86.4488C102.611 85.6906 101.928 85.3791 101.269 85.0539C100.531 84.6902 99.7748 84.3599 99.0169 84.0381C98.4999 83.8052 97.9688 83.6051 97.4268 83.4391C96.3604 83.137 95.6324 83.4836 95.0744 84.4378C94.4661 85.4647 93.95 86.5104 93.7987 87.7325C93.7364 88.246 93.4134 88.7423 93.1263 89.1942C92.7221 89.8283 92.3966 90.4701 92.2949 91.2283C92.2419 91.6194 92.0821 91.9985 91.9805 92.3811C91.93 92.5711 91.8036 92.8235 91.8779 92.9519C92.4162 93.8864 91.8412 94.7824 91.8224 95.6904C91.8138 96.1131 91.6874 96.5333 91.6814 96.9561C91.6535 98.2289 91.4815 99.4944 91.1687 100.728C90.9363 101.681 91.1602 102.581 91.4721 103.475C91.6874 104.093 91.8993 104.714 92.0873 105.341C92.2624 105.924 92.6854 106.303 93.128 106.661C93.2673 106.773 93.4886 106.795 93.6774 106.832C94.0071 106.902 94.3407 106.954 94.6763 106.986C95.2889 107.034 95.6546 107.358 95.8853 107.913C95.981 108.143 96.1818 108.328 96.3339 108.534C96.7287 109.071 96.7458 109.586 96.2177 109.956C95.1496 110.705 94.0576 111.438 92.9041 112.04C92.2001 112.407 91.4618 112.034 90.8116 111.634C90.5813 111.476 90.341 111.333 90.0921 111.206C87.9876 110.265 86.7401 108.673 86.2812 106.409C86.1206 105.607 85.7771 104.836 85.778 103.975Z" fill="#F15A2B"/>
<path d="M172.106 116.84C171.166 116.901 170.534 116.454 170.104 115.657C169.901 115.283 169.677 114.919 169.501 114.53C169.396 114.298 169.341 114.045 169.341 113.789C169.341 113.534 169.396 113.281 169.501 113.048C169.668 112.632 169.801 112.203 169.897 111.765C169.969 111.46 170.126 111.294 170.391 111.13C171.167 110.649 172.046 110.557 172.903 110.373C173.595 110.225 174.28 110.037 174.976 109.919C175.981 109.747 176.994 109.623 178.004 109.484C178.451 109.422 178.903 109.385 179.351 109.32C180.284 109.188 181.024 109.563 181.619 110.232C182.12 110.798 182.117 111.412 181.641 112.003C181.431 112.265 181.189 112.539 180.901 112.693C180.04 113.153 179.205 113.634 178.266 113.986C177.235 114.37 176.145 114.724 175.222 115.434C174.512 115.98 173.665 116.353 172.857 116.761C172.65 116.868 172.36 116.818 172.106 116.84Z" fill="#F15A2B"/>
<path d="M153.35 116.661C152.953 116.49 152.543 116.292 152.121 116.128C151.108 115.734 150.423 115.069 150.094 113.995C149.807 113.061 150.294 111.652 151.216 111.348C152.368 110.969 153.511 110.551 154.775 110.558C155.732 110.563 156.69 110.328 157.65 110.215C158.032 110.172 158.131 109.873 158.3 109.61C158.556 109.211 158.79 109.169 159.113 109.51C159.483 109.897 159.91 110.225 160.378 110.485C160.754 110.702 161.008 111.208 161.196 111.639C161.281 111.824 161.116 112.186 160.965 112.394C159.825 113.965 158.06 114.631 156.425 115.475C155.471 115.408 154.79 116.003 154.042 116.448C153.855 116.56 153.614 116.583 153.35 116.661Z" fill="#F15A2B"/>
<path d="M139.117 114.499C138.268 114.691 137.705 114.306 137.288 113.597C136.988 113.083 136.604 112.618 136.348 112.089C135.916 111.207 135.975 110.279 136.525 109.491C136.795 109.105 137.306 108.833 137.764 108.654C138.02 108.553 138.403 108.725 138.718 108.812C139.581 109.051 140.42 109.279 141.347 109.317C142.475 109.363 143.542 109.214 144.623 108.975C145.363 108.813 146.007 109.22 146.678 109.412C147.035 109.514 147.059 109.909 146.912 110.213C146.532 110.999 146.289 111.881 145.507 112.407C145.253 112.582 144.987 112.736 144.709 112.869C144.323 113.047 143.914 113.177 143.528 113.354C143.029 113.581 142.535 113.735 141.965 113.66C141.72 113.629 141.427 113.755 141.196 113.88C140.541 114.236 139.91 114.636 139.117 114.499Z" fill="#F15A2B"/>
</g>
<defs>
<clipPath id="clip0_102_1021">
<rect width="182" height="123" fill="white"/>
</clipPath>
</defs>
</svg>
