<svg width="322" height="320" viewBox="0 0 322 320" fill="none" xmlns="http://www.w3.org/2000/svg">
<path d="M288.513 38.828C286.966 38.1443 286.117 37.9391 285.46 37.4605C281.951 35.0674 278.548 35.2315 275.19 37.7203C273.852 38.7084 272.657 38.0622 272.191 36.893C271.406 35.0251 270.913 33.0476 270.73 31.0298C270.514 27.6111 270.661 27.6829 267.307 26.8589C263.179 25.8822 258.957 25.3572 254.716 25.2932C250.999 25.1974 247.315 24.0727 243.604 23.471C237.385 22.4454 231.185 21.2146 224.928 20.5924C216.599 19.7616 208.226 19.4061 199.87 18.9206C198.62 18.8488 197.351 19.1668 196.019 19.3104C196.046 21.8471 197.73 22.8556 198.949 24.0727C202.732 27.8333 206.857 31.2726 210.338 35.2793C213.664 39.131 217.309 42.6957 221.234 45.9356C222.263 46.7861 223.192 47.7507 224.003 48.8108C225.492 50.7492 227.375 50.9988 229.532 50.3663C230.692 50.0244 231.818 49.5458 232.993 49.245C236.217 48.4211 237.604 49.4843 237.583 52.7971C237.556 56.5577 237.326 60.2943 237.443 64.0379C237.494 65.655 238.093 67.2857 238.637 68.8241C239.322 70.7455 237.61 73.6583 235.485 73.9523C232.376 74.3865 229.275 74.8651 226.163 75.2583C224.97 75.466 223.755 75.5143 222.549 75.4019C221.073 75.1899 219.656 74.5266 219.437 72.8001C219.026 69.5797 218.468 66.3387 218.485 63.1114C218.506 58.8653 218.66 54.65 217.718 50.462C217.382 48.7998 216.494 47.2992 215.199 46.2023C213.107 44.3698 211.036 42.4416 209.342 40.2536C205.919 35.8093 201.934 31.9426 197.792 28.1923C195.464 26.0863 193.448 23.6385 191.209 21.4266C190.285 20.5172 189.255 19.4505 188.081 19.0984C182.35 17.389 176.421 16.8728 170.468 16.9446C167.853 16.9753 167.316 17.8676 167.75 20.4146C167.853 21.0095 168.113 21.577 168.226 22.1684C168.75 24.9034 167.884 26.1103 165.162 26.2333C161.667 26.394 158.169 26.5957 154.677 26.5137C153.835 26.4932 152.658 25.6077 152.257 24.8043C151.456 23.1975 150.997 21.3855 150.545 19.6385C149.519 15.6694 147.348 14.6814 143.655 16.8078C140.82 18.4386 138.177 20.4249 135.326 22.0009C126.515 26.8521 119.401 33.8401 111.812 40.2536C106.879 44.4211 102.159 48.7629 98.1606 53.8261C96.5962 55.8124 95.3536 58.0585 94.0528 60.2431C93.8029 60.667 94.0151 61.3644 94.0151 62.3354C95.1037 62.096 96.0348 62.0209 96.8495 61.679C97.7327 61.3063 98.4824 60.6328 99.3382 60.185C100.571 59.5388 101.734 58.2158 103.295 59.2995C105.007 60.4755 104.805 62.2055 104.377 63.9046C104.126 64.9663 103.783 66.0038 103.35 67.0054C101.324 71.5421 100.759 76.3181 100.954 81.2137C101.098 84.8068 100.612 85.1179 96.8701 85.2444C94.3609 85.3299 91.879 86.1265 89.3664 86.4444C85.1593 86.9743 80.942 87.4119 76.7212 87.8119C75.9945 87.8231 75.2771 87.6489 74.6366 87.3059C72.6272 86.3692 72.1924 84.7419 73.9142 83.3846C75.3794 82.2291 75.3177 81.0633 75.1226 79.5761C74.907 77.8941 74.9686 76.1574 74.6366 74.5129C74.3045 72.8685 73.904 71.2002 73.0824 69.7951C70.45 65.2858 72.3977 61.1388 77.6455 60.7696C79.7952 60.6192 82.0134 60.9029 84.1495 61.2585C86.2856 61.614 87.7439 61.0021 89.0961 59.2072C93.957 52.7116 98.6398 45.9732 105.041 40.8382C114.106 33.57 122.126 24.9684 132.427 19.2591C133.454 18.6984 134.285 17.854 135.258 17.1019C133.97 15.1532 132.245 15.56 130.773 15.5087C120.581 15.1463 110.388 14.8318 100.194 14.5651C90.9719 14.3361 81.743 14.001 72.521 14.1002C61.6011 14.2164 50.6811 14.6198 39.7749 15.1531C34.3423 15.4164 28.9269 16.1788 23.5217 16.8625C20.5059 17.242 19.9205 18.2847 20.588 21.283C20.6907 21.7513 20.9303 22.1889 21.0502 22.6505C21.6526 25.3 20.4442 26.8863 17.7913 26.9991C16.0797 27.0743 14.4023 27.1359 12.7181 27.2863C10.7703 27.4641 9.51747 28.3769 9.66467 30.5444C9.73998 31.6247 9.51404 32.6743 8.24747 32.5956C7.40194 32.5375 6.16275 32.0657 5.85125 31.4264C5.20041 30.0075 4.83853 28.4735 4.78664 26.9137C4.68098 23.2768 4.75865 19.6369 5.0194 16.0078C5.20082 13.6762 4.79688 11.9771 2.48966 10.9994C1.33263 10.5105 0.343361 9.74125 0.678832 8.23016C1.02115 6.66095 2.32537 6.7943 3.53375 6.57892C4.47093 6.43336 5.34334 6.01198 6.03949 5.36867C7.30607 4.03877 8.63084 3.80287 10.3219 4.29517C11.3658 4.59662 12.45 4.73616 13.5363 4.70887C15.8504 4.65075 17.0279 5.80972 17.8153 7.87806C19.229 11.6045 19.3112 11.5156 23.3437 11.4028C35.9581 11.0609 48.5691 10.5891 61.1835 10.4524C75.7422 10.2917 90.3112 10.2438 104.867 10.4968C116.755 10.7053 128.634 11.5395 140.519 11.8301C143.357 11.8985 146.253 11.0233 149.05 10.3054C149.7 10.1378 150.354 8.87975 150.484 8.04216C150.686 6.7567 150.463 5.39946 150.371 4.07299C150.193 1.46448 150.672 0.558515 153.109 0.360227C156.827 0.0593766 160.575 -0.0466047 164.31 0.0183516C166.456 0.0491204 167.791 1.58411 168.076 3.74476C168.111 4.22939 168.119 4.71562 168.099 5.20115C168.141 9.74809 168.38 9.98743 173.063 10.1789C176.219 10.2934 179.316 11.0655 182.155 12.4455C184.245 13.3878 186.492 13.936 188.782 14.0626C201.253 14.9138 213.747 15.4301 226.208 16.4044C232.236 16.8728 238.189 18.1138 244.214 18.9206C249.503 19.6044 254.805 20.2061 260.111 20.777C262.877 21.0744 265.657 21.4163 268.429 21.3992C271.654 21.3753 272.037 20.7531 270.737 17.6694C269.963 15.8438 270.685 14.7395 272.072 14.0968C274.246 13.0339 276.527 12.2031 278.877 11.6182C281.345 11.0609 283.923 10.9344 286.466 10.7669C289.465 10.5789 290.605 11.5498 290.386 14.5275C290.136 17.9018 289.465 21.2488 288.951 24.5992C288.438 27.9495 287.582 31.2179 289.047 34.6161C289.489 35.5973 288.804 37.0503 288.513 38.828ZM98.5611 66.1165C96.5072 66.4139 94.9839 66.6977 93.464 66.8276C92.1256 66.9438 91.1705 67.4395 90.6809 68.7421C90.2394 69.9181 89.4999 71.2446 88.1889 70.8788C87.2783 70.6258 86.6621 69.2994 85.9432 68.4276C85.8244 68.2161 85.7466 67.9841 85.7139 67.7438C85.2244 66.0345 84.0914 65.443 82.4003 65.7712C80.7743 66.0857 79.874 66.9712 79.7987 68.7216C79.6754 71.6036 79.4289 74.4822 79.2646 77.3642C79.2406 77.9679 79.2855 78.5723 79.3982 79.1659C79.85 81.7607 80.5483 82.3898 83.0507 81.7266C87.2372 80.6155 91.3553 79.265 95.7814 79.9966C95.867 79.9966 95.98 79.8804 96.4935 79.5522C97.1062 75.5249 97.7909 71.1729 98.5611 66.1165ZM286.22 15.8608C281.273 15.7138 277.241 17.9121 276.748 21.1907C276.32 24.0009 275.861 26.7598 275.005 29.4607C274.961 29.5974 275.252 29.8401 275.396 30.0418H283.895C284.672 25.3 285.422 20.7291 286.22 15.8506V15.8608ZM224.527 56.0072C223.973 56.9645 223.267 57.7166 223.124 58.5371C222.725 60.7978 222.471 63.0816 222.364 65.3746C222.268 67.4772 223.024 68.4002 225.102 68.3011C227.361 68.1951 229.621 67.6584 231.839 67.1284C233.284 66.7866 233.424 65.5387 233.362 64.2259C233.236 61.4533 233.219 58.6773 233.088 55.9047C233.065 55.4021 232.715 54.9132 232.315 53.915L228.957 58.7422L224.527 56.0072ZM16.3193 21.6112C16.3193 17.7104 15.8811 14.6335 14.4228 11.7925C13.6184 10.2233 12.1362 9.99427 11.3043 11.3857C9.95219 13.6489 8.5966 16.0454 8.98342 18.8283C9.08954 19.6044 9.86662 20.7155 10.5478 20.9001C12.232 21.3582 14.036 21.3684 16.3193 21.6112ZM162.907 21.0437C163.612 17.6762 163.358 16.5993 161.808 16.3531C160.255 16.1328 158.682 16.0984 157.121 16.2506C156.615 16.2984 155.985 17.0745 155.793 17.6454C155.673 17.9873 156.163 18.8864 156.563 19.0335C158.563 19.7685 160.62 20.3394 162.907 21.0437ZM157.881 9.41992C159.288 9.22847 160.805 9.18403 162.222 8.78062C163.423 8.43874 163.762 6.54817 162.804 6.30202C161.739 6.03194 160.483 6.20288 159.381 6.47296C158.186 6.76355 157.176 7.45756 157.881 9.41992Z" fill="#F26837"/>
<path d="M161.992 158.419C161.825 158.361 161.328 158.348 161.184 158.115C159.788 155.835 157.888 156.833 155.988 157.151C149.053 158.313 142.107 159.428 135.144 160.423C133.775 160.618 132.279 160.252 130.862 160.04C129.256 159.797 128.414 159.066 128.295 157.165C128.202 155.746 127.398 154.136 126.419 153.062C119.682 145.582 112.757 138.269 104.89 131.938C103.449 130.779 103.179 129.709 103.699 127.89C108.033 112.943 115.201 99.4015 123.772 86.5025C126.723 82.0581 129.27 77.3608 132.019 72.7899C135.391 67.1832 138.828 61.6174 142.131 55.973C143.158 54.2329 143.819 52.2876 144.671 50.4483C144.878 49.89 145.175 49.3692 145.551 48.9065C146.8 47.6313 148.128 46.4347 149.422 45.204C151.052 43.6655 152.626 44.0211 153.243 46.1681C154.27 49.7509 154.954 53.45 156.265 56.9337C157.443 60.0892 159.23 63.0225 160.75 66.0481C165.946 76.3796 172.916 85.5863 179.235 95.2135C181.487 98.6528 183.48 102.263 185.684 105.74C186.612 107.147 187.642 108.485 188.765 109.743C190.939 112.27 191.072 113.736 188.765 115.989C184.188 120.434 180.998 125.866 177.424 131.032C174.942 134.618 172.32 138.115 170.044 141.825C168.3 144.718 166.785 147.743 165.511 150.871C164.998 152.105 165.241 153.684 165.258 155.107C165.272 155.541 165.198 155.974 165.04 156.379C164.882 156.784 164.642 157.153 164.337 157.463C164.031 157.773 163.666 158.017 163.263 158.182C162.86 158.346 162.428 158.427 161.992 158.419ZM144.134 62.0755C143.832 61.9251 143.531 61.7747 143.233 61.6208C140.994 64.0755 139.201 66.9131 137.523 69.7541C134.021 75.6958 131.019 81.9351 127.36 87.7777C121.832 96.6357 116.485 105.579 112.298 115.128C110.651 118.888 109.597 122.892 108.272 126.786C107.697 128.475 108.231 129.688 109.508 130.974C117.19 138.723 124.806 146.535 132.358 154.409C133.576 155.681 134.819 156.296 136.496 156.119C138.893 155.859 141.32 155.65 143.706 155.26C148.727 154.437 153.729 153.483 158.747 152.631C160.644 152.307 161.828 151.233 162.304 149.445C163.423 145.23 166.103 141.924 168.489 138.416C173.165 131.521 178.759 125.169 181.391 117.018C181.706 116.037 182.538 115.172 183.278 114.389C184.356 113.247 184.37 112.201 183.702 110.789C180.279 103.538 175.955 96.8442 171.396 90.2768C163.841 79.412 156.933 68.178 151.459 56.0893C151.353 55.8568 150.932 55.7713 150.545 55.556C147.375 62.8345 147.143 70.4788 146.437 78.0377C146.013 82.5573 146.598 86.9709 147.642 91.3708C148.063 93.1452 148.765 94.5503 150.408 95.3844C151.127 95.713 151.752 96.2157 152.226 96.8468C152.701 97.4778 153.01 98.2173 153.126 98.998C153.294 99.9074 153.989 100.707 154.294 101.61C154.715 102.841 155.214 104.109 155.293 105.371C155.635 110.81 152.312 113.743 147.872 115.904C144.524 117.531 141.446 116.844 138.667 114.769C135.887 112.694 134.99 109.74 135.692 106.355C136.531 102.335 138.273 98.7041 141.361 95.9964C143.415 94.2118 143.788 92.2939 143.315 89.8427C142.288 84.5538 142.47 79.2445 143.086 73.9078C143.528 70.0207 143.784 66.0413 144.134 62.0755ZM146.797 102.417C142.85 102.417 139.779 106.273 140.635 110.003C141.241 112.653 143.35 113.856 145.801 112.704C147.32 111.977 148.722 111.028 149.96 109.887C151.51 108.465 151.576 106.977 150.61 104.94C149.826 103.289 148.738 102.126 146.797 102.424V102.417Z" fill="#F26837"/>
<path d="M193.746 225.726C192.839 227.268 191.986 228.844 191.007 230.345C188.039 234.926 183.534 234.892 180.683 230.294C180.214 229.538 179.786 228.759 179.129 227.627C178.533 228.834 178.102 229.699 177.684 230.564C175.907 234.178 173.621 237.425 170.516 240.017C166.1 243.706 161.273 242.331 159.627 236.854C157.682 230.359 158.973 224.226 162.3 218.492C162.975 217.455 164 216.695 165.189 216.349C169.852 215.118 174.008 215.921 176.739 220.451C177.191 221.207 177.687 221.938 178.379 223.015C178.957 221.104 179.327 219.597 179.878 218.123C180.861 215.528 182.192 214.732 184.609 215.921C186.478 216.841 188.067 218.427 189.573 219.925C190.066 220.417 189.915 221.566 190.162 223.132L184.722 221.032C182.774 223.282 182.566 225.747 183.565 228.359C184.411 230.574 186.177 231.022 187.769 229.268C191.021 225.685 192.873 221.494 192.561 216.537C192.506 215.634 192.219 214.687 192.421 213.839C192.519 213.482 192.69 213.149 192.922 212.86C193.155 212.571 193.444 212.333 193.773 212.161C194.15 211.993 195.081 212.503 195.426 212.961C195.984 213.67 196.351 214.509 196.494 215.398C196.998 219.911 197.699 224.438 197.716 228.964C197.737 233.371 197.179 237.801 196.549 242.174C196.262 244.143 195.279 246.041 194.44 247.897C191.959 253.401 183.589 256.102 177.325 251.873C174.299 249.822 174.501 246.119 178.078 243.555C178.598 244.581 179.142 245.494 179.57 246.475C180.471 248.526 182.09 249.21 184.233 249.176C188.556 249.128 191.233 247.087 192.489 242.94C194.197 237.36 195.307 231.75 193.746 225.726ZM171.464 224.085C171.119 223.948 170.782 223.792 170.454 223.617C168.151 222.185 167.798 222.284 166.689 224.663C166.11 225.89 165.789 227.432 164.847 228.263C162.451 230.396 162.752 232.896 163.358 235.49C164.128 238.796 165.987 239.542 168.387 237.101C170.667 234.79 172.412 231.931 174.275 229.237C175.894 226.885 175.144 224.762 173.272 222.653L171.464 224.085Z" fill="#F26837"/>
<path d="M13.2234 227.083C14.8597 226.861 16.5097 226.687 18.1357 226.4C19.2551 226.201 20.3299 225.774 21.4459 225.576C24.7047 224.998 28.0971 227.343 26.8682 231.22C24.6363 238.256 21.617 244.847 15.2533 249.192C13.5582 250.329 11.7015 251.205 9.74545 251.791C8.83146 252.068 7.47246 251.62 6.57558 251.073C4.99408 250.112 5.20632 248.252 6.83575 247.251C7.39373 246.909 8.05441 246.738 9.02316 246.345C8.19133 242.584 7.38689 238.946 6.58929 235.309C5.53838 230.523 4.50802 225.757 3.43999 220.988C3.27919 220.1 3.00419 219.237 2.62184 218.42C0.567937 214.499 1.51955 210.154 5.20631 207.774C9.90633 204.738 14.9418 204.902 19.9568 206.82C22.2126 207.682 23.0684 210.321 22.0997 212.919C20.7715 216.485 18.5875 219.524 15.9757 222.277C14.8357 223.48 13.8122 224.796 12.7339 226.061L13.2234 227.083ZM13.0146 244.939C15.4793 244.235 17.208 243.018 18.3034 241.073C19.8028 238.413 21.2713 235.726 22.5413 232.953C22.9555 232.047 23.0925 230.635 22.668 229.815C21.9833 228.523 20.5353 228.967 19.2824 229.196C16.6329 229.682 13.9662 230.078 11.3099 230.512L9.25596 230.854C10.5568 235.63 10.7621 240.485 13.0077 244.939H13.0146ZM7.89693 222.752L8.99579 223.234C11.8747 220.157 14.7947 217.152 17.6154 214.041C19.5084 211.955 18.8614 209.887 16.2084 209.145C11.8028 207.911 6.7844 211.579 6.91448 216.119C6.97267 218.335 7.54437 220.54 7.89011 222.742L7.89693 222.752Z" fill="#F26837"/>
<path d="M27.3016 293.223C26.4321 298.837 22.03 302.926 20.0514 308.331C21.3282 308.481 22.3689 308.433 23.2658 308.772C23.7553 308.956 24.2072 309.753 24.2927 310.331C24.3441 310.673 23.7039 311.394 23.2828 311.483C22.19 311.723 21.0667 311.795 19.9521 311.695C18.8353 311.536 17.6977 311.612 16.6116 311.916C15.5254 312.22 14.5146 312.747 13.6432 313.462C11.6435 314.947 9.36711 316.017 6.94749 316.611C2.54528 317.688 -0.675948 314.707 0.121652 310.334C0.747275 307.102 1.66384 303.932 2.86019 300.864C4.12334 297.541 5.15374 294.259 5.40706 290.659C5.60802 287.944 6.21375 285.274 7.20422 282.738C9.0322 278.03 14.3552 275.829 19.1134 277.463C21.2461 278.194 21.8691 279.808 20.5443 281.705C19.6319 283.012 18.5538 284.194 17.3368 285.223C14.4203 287.685 12.3424 290.792 10.1687 293.852C8.92605 295.599 8.62823 297.394 9.48403 299.322C10.4014 301.374 11.1682 303.582 12.4793 305.37C14.0574 307.524 15.146 307.483 16.8131 305.397C19.5071 302.023 21.9855 298.468 24.5597 294.994C25.128 294.225 25.7167 293.469 26.2987 292.707L27.3016 293.223ZM11.3463 310.679L6.12249 303.767C4.43486 305.927 3.55853 309.544 4.06858 311.496C4.38694 312.696 5.18795 313.151 6.32444 313.127C8.25169 313.083 9.79898 312.252 11.3463 310.679ZM16.1969 281.596C11.9384 280.57 10.6513 282.04 10.0112 288.153L16.1969 281.596Z" fill="#F26837"/>
<path d="M315.081 287.989C309.152 288.628 307.163 287.548 304.812 282.501C303.98 280.717 304.302 279.493 305.794 278.758C307.163 278.074 308.338 278.525 309.392 280.337C310.104 281.561 310.583 282.919 311.257 284.413C313.483 283.26 314.219 281.589 314.304 279.565C314.373 277.975 314.249 276.379 314.328 274.779C314.427 272.727 315.509 271.449 317.005 271.397C318.422 271.346 319.678 272.717 319.815 274.662C319.913 275.916 319.882 277.176 319.723 278.423C318.727 285.862 320.195 293.124 321.133 300.443C321.622 304.043 321.835 307.675 321.77 311.308C321.722 313.13 320.825 315 320.024 316.716C319.714 317.401 319.216 317.984 318.588 318.398C317.96 318.812 317.227 319.04 316.474 319.055C312.11 319.195 307.687 319.219 304.538 315.503C303.635 314.364 303.08 312.989 302.939 311.544C302.751 309.493 304.712 308.542 306.458 309.677C307.109 310.104 307.591 310.785 308.17 311.325C308.92 312.009 309.601 312.843 310.467 313.335C314.763 315.776 317.57 314.361 317.371 309.458C317.097 302.658 316.262 295.882 315.632 289.1C315.605 288.693 315.259 288.324 315.081 287.989Z" fill="#F26837"/>
<path d="M100.768 226.13C100.597 224.297 100.556 222.967 100.333 221.668C99.6247 217.521 98.8134 213.391 98.1185 209.241C97.9244 207.89 97.826 206.527 97.8241 205.163C97.7967 204.021 98.3342 202.94 99.5357 203.074C100.368 203.169 101.247 203.966 101.84 204.674C102.206 205.115 102.127 205.966 102.161 206.639C102.639 215.049 104.415 223.335 107.426 231.203C108.258 233.401 108.155 235.036 106.522 236.759C104.493 238.902 102.784 241.36 100.686 243.425C97.7009 246.369 94.0826 245.972 91.6042 242.629C87.9038 237.627 88.6466 232.919 91.8028 228.051C93.1207 226.02 95.4108 225.361 97.8173 225.49C98.5807 225.531 99.3372 225.819 100.768 226.13ZM102.678 235.155C100.624 233.989 99.2003 233.104 97.7215 232.366C96.6569 231.822 95.712 232.137 95.1233 233.19C94.0278 235.152 93.6445 237.248 94.4695 239.377C95.2568 241.429 96.8656 241.836 98.4232 240.304C99.8301 238.906 100.987 237.23 102.678 235.155Z" fill="#F26837"/>
<path d="M204.125 229.261C204.57 223.405 206.35 218.595 208.897 214.147C211.098 210.304 214.946 209.385 218.961 211.272C223.172 213.251 225.911 216.673 226.53 221.186C227.417 227.624 226.164 233.682 221.169 238.393C220.189 239.335 219.038 240.081 217.777 240.591C211.516 242.984 207.042 240.769 205.08 234.341C204.526 232.506 204.362 230.56 204.125 229.261ZM211.869 220.468C211.153 221.651 210.609 222.766 209.863 223.73C207.196 227.148 207.857 230.858 209.226 234.417C210.797 238.488 213.854 239.254 217.373 236.639C220.071 234.688 222.127 231.98 223.278 228.858C224.459 225.6 224.274 222.325 222.518 219.285C220.67 216.099 216.955 215.07 214.282 216.841C215.432 219.74 215.432 219.74 214.724 221.825L211.869 220.468Z" fill="#F26837"/>
<path d="M240.145 303.804C239.891 304.69 239.826 305.691 239.351 306.437C236.506 310.905 228.615 311.965 225.172 307.37C224.181 306.124 223.374 304.742 222.775 303.268C220.236 296.379 220.441 289.64 224.511 283.326C225.328 282.097 226.384 281.045 227.616 280.232C229.817 278.765 232.066 279.206 234.493 281.193C237.232 283.452 237.868 284.933 236.656 287.644C234.787 291.822 232.48 295.753 228.841 298.714C226.534 300.591 226.171 301.733 227.205 303.883C228.167 305.886 230.707 307.151 232.97 306.468C234.473 306.016 235.859 305.158 237.286 304.454C237.971 304.112 238.611 303.715 239.272 303.343L240.145 303.804ZM225.767 295.165C229.735 292.953 232.662 288.215 232.1 285.22C228.225 285.723 224.973 290.669 225.767 295.165Z" fill="#F26837"/>
<path d="M58.194 237.395C56.9137 238.803 55.6779 240.253 54.3429 241.607C52.5423 243.429 50.4507 244.417 47.8696 243.316C45.2885 242.215 44.0494 240.044 43.9775 237.388C43.8742 234.819 44.3338 232.258 45.3241 229.885C46.3145 227.512 47.8118 225.383 49.7113 223.648C50.7965 222.622 52.7922 222.469 54.4148 222.157C56.1777 221.816 57.9988 221.816 59.7857 221.587C61.7232 221.33 63.3048 222.157 63.5855 224.062C63.8422 225.833 64.1332 227.822 63.5855 229.446C62.5345 232.646 62.9008 235.716 63.4382 238.861C63.8011 240.957 64.1537 243.053 63.8901 245.231C61.0968 245.778 60.9359 243.716 60.4019 242.246C59.8679 240.776 59.5837 239.241 59.1901 237.733L58.194 237.395ZM47.6334 236.345C48.277 237.422 48.6775 238.868 49.6223 239.494C51.0361 240.431 52.2033 239.128 52.9975 238.062C54.6064 235.901 56.0784 233.644 57.5504 231.371C58.1734 230.4 58.5978 229.224 57.4374 228.335C56.2769 227.446 54.6989 226.602 53.3809 227.556C50.5363 229.645 48.0237 232.127 47.6334 236.345Z" fill="#F26837"/>
<path d="M211.817 294.067C211.444 291.613 211.132 289.411 210.79 287.23C210.105 282.847 209.311 278.478 208.736 274.081C208.55 272.614 208.628 271.125 208.965 269.685C209.119 269.025 210.098 268.187 210.786 268.098C211.913 267.958 212.69 268.854 212.71 270.033C212.748 271.852 212.368 273.722 212.666 275.503C213.604 281.114 214.655 286.71 215.914 292.255C216.277 293.862 217.479 295.281 218.311 296.785L219.173 296.72C218.629 298.166 218.386 299.842 217.482 301.007C215.399 303.714 213.122 306.267 210.67 308.645C208.082 311.134 206.323 310.86 204.07 308.135C201.41 304.918 201.332 299.107 204.228 296.112C205.309 294.997 207.124 294.505 208.678 293.978C209.424 293.684 210.4 293.989 211.817 294.067ZM208.123 305.941C209.674 304.17 210.92 302.748 212.252 301.233C210.54 299.835 209.099 299.824 207.973 300.997C206.795 302.218 206.682 303.766 208.123 305.941Z" fill="#F26837"/>
<path d="M85.7038 244.577C83.4479 244.543 83.2459 242.94 82.931 241.754C81.904 237.918 81.0756 234.034 80.1925 230.167C79.9426 229.084 79.7509 227.986 79.4599 226.537C77.7483 227.795 77.6114 229.412 77.2862 230.834C76.581 233.936 75.9729 237.057 75.4617 240.198C75.1988 242.144 74.2728 243.941 72.8395 245.285C70.2858 244.516 70.2961 242.208 69.9709 240.331C69.2863 236.42 68.9439 232.468 68.4133 228.516C68.1087 226.27 67.7048 224.038 67.3419 221.798C67.27 221.354 66.9996 220.862 67.1228 220.479C67.335 219.771 67.6089 218.803 68.1498 218.554C68.6906 218.304 69.8135 218.667 70.1592 219.138C70.9457 220.229 71.5482 221.44 71.9427 222.725C72.3979 224.219 72.5485 225.802 72.9251 227.853C74.5921 226.359 74.9585 224.68 75.7253 223.248C76.4921 221.815 77.0705 219.829 79.1826 219.976C81.2947 220.123 82.2635 221.915 82.6264 223.737C83.8793 229.846 85.0226 235.979 86.0974 242.116C86.2207 242.875 85.8442 243.747 85.7038 244.577Z" fill="#F26837"/>
<path d="M137.235 296.532C137.423 295.08 137.556 294.112 137.673 293.144C137.834 291.845 138.108 290.481 139.727 290.539C141.199 290.594 141.852 291.78 141.962 293.127C142.153 294.822 142.199 296.529 142.099 298.232C141.757 302.037 142.39 305.705 143.235 309.37C143.287 309.589 143.362 309.807 143.417 310.026C143.646 310.949 143.828 312.078 142.671 312.259C142.027 312.354 140.976 311.681 140.569 311.055C139.723 309.749 139.199 308.242 138.32 306.396C137.491 307.421 136.848 308.279 136.153 309.086C135.381 310.07 134.537 310.995 133.627 311.852C129.796 315.144 124.945 313.589 124.001 308.607C123.536 306.365 123.581 304.047 124.132 301.824C124.684 299.601 125.728 297.53 127.188 295.763C129.878 292.423 132.689 292.416 135.852 295.507C136.295 295.872 136.756 296.214 137.235 296.532ZM136.961 300.82C135.3 299.845 134.311 299.073 133.195 298.693C132.603 298.495 131.367 298.765 131.141 299.209C129.872 301.467 128.779 303.819 127.872 306.245C127.472 307.36 127.708 309.028 129.111 309.37C129.954 309.575 131.419 308.98 131.983 308.262C133.681 306.071 135.088 303.643 136.961 300.82Z" fill="#F26837"/>
<path d="M59.2804 306.348C62.5495 298.991 65.8323 291.647 69.0706 284.263C69.5156 283.237 69.8956 282.276 71.2307 282.724C72.3843 283.114 72.7129 284.092 72.4562 285.206C72.2759 285.862 72.047 286.503 71.7716 287.124C68.5641 295.141 65.3942 303.175 62.1045 311.158C61.4849 312.662 60.3929 313.975 59.5303 315.373C57.1615 314.57 56.1071 313.124 55.6039 311.329C54.577 307.729 53.5294 304.122 52.814 300.457C51.9685 296.133 52.0609 291.63 50.1303 287.514C49.5312 286.235 49.9249 285.022 51.2496 284.328C52.4683 283.688 54.4058 284.328 54.9159 285.883C55.5414 287.941 55.9577 290.056 56.1584 292.198C56.5487 295.575 56.6514 298.991 57.0622 302.368C57.2299 303.753 57.8906 305.079 58.3288 306.433L59.2804 306.348Z" fill="#F26837"/>
<path d="M255.815 303.623C254.422 301.736 254.446 299.407 254.165 297.233C253.641 293.175 253.371 289.083 252.96 285.008C252.816 283.558 252.895 281.708 251.139 281.339C249.304 280.95 248.106 282.478 247.613 283.979C246.846 286.324 246.096 288.799 246.062 291.23C246.007 295.079 246.555 298.936 246.846 302.789C246.935 303.999 247.024 305.206 247.106 306.361C245.343 307.096 244.611 306.139 244.176 305.093C243.57 303.63 242.889 302.095 242.776 300.549C242.341 294.648 242.136 288.731 241.814 282.823C241.698 280.683 242.547 279.432 244.724 278.939C246.151 278.597 247.462 277.828 248.883 277.418C252.443 276.392 255.627 278.194 256.267 281.89C256.869 285.353 257.116 288.888 257.383 292.399C257.575 294.893 257.631 297.396 257.55 299.896C257.506 301.168 257.013 302.426 256.722 303.691L255.815 303.623Z" fill="#F26837"/>
<path d="M144.226 239.001C145.291 238.317 146.28 237.634 147.307 237.001C149.132 235.849 150.895 234.567 152.829 233.637C153.548 233.295 155.044 233.432 155.526 233.955C156.457 234.981 155.4 235.75 154.544 236.369C152.048 238.16 149.608 240.034 147.051 241.733C144.158 243.651 140.772 242.83 139.348 239.593C138.267 237.135 137.353 234.406 137.219 231.757C136.822 223.819 136.832 215.863 136.733 207.911C136.755 207.119 136.925 206.337 137.233 205.607C137.408 205.057 137.764 204.583 138.243 204.262C138.723 203.941 139.297 203.792 139.872 203.839C140.457 203.831 141.022 204.05 141.447 204.451C141.872 204.852 142.124 205.403 142.149 205.986C142.316 208.803 142.433 211.661 142.149 214.458C141.639 219.299 140.071 224.031 140.666 228.984C141.074 232.465 141.337 235.993 144.226 239.001Z" fill="#F26837"/>
<path d="M113.413 312.85C115.285 312.167 115.651 310.867 115.754 309.459C116.138 304.057 117.644 298.645 115.477 293.257C115.237 292.656 115.884 291.698 116.12 290.905C116.846 291.298 117.894 291.507 118.253 292.116C121.454 297.606 122.806 307.1 118.233 313.92C116.124 317.066 113.211 317.534 110.479 314.946C109.415 313.928 108.566 312.709 107.98 311.36C105.769 306.232 105.187 300.83 105.731 295.312C105.844 294.177 105.68 292.577 107.443 292.399C108.757 292.259 109.801 294.037 109.733 295.982C109.654 298.375 109.486 300.768 109.603 303.131C109.757 306.727 110.732 310.071 113.413 312.85Z" fill="#F26837"/>
<path d="M97.8812 305.271C96.0361 304.884 94.9646 304.635 93.8795 304.44C89.1487 303.582 86.9167 300.645 88.2963 296.17C89.2171 293.189 90.7986 290.314 92.5547 287.705C94.3108 285.096 96.8097 285.206 98.8533 287.493C99.7536 288.498 99.627 289.934 98.357 290.228C95.5465 290.854 94.3348 293.141 92.9313 295.117C90.8774 297.992 91.9282 300.324 95.3514 301.103C96.5632 301.38 97.8641 301.407 99.004 301.855C101.869 302.98 102.557 305.028 101.157 307.913C99.3155 311.705 96.0497 314.245 93.0305 316.99C92.534 317.459 91.9889 317.874 91.4045 318.228C90.2064 318.911 88.9022 319.031 88.0361 317.834C87.1701 316.638 88.1217 315.783 88.9809 314.949C91.3771 312.679 93.746 310.402 96.0669 308.067C96.6522 307.462 97.0048 306.638 97.8812 305.271Z" fill="#F26837"/>
<path d="M44.2642 219.918C43.4118 219.85 42.6622 219.918 41.9775 219.716C39.1534 218.95 37.2741 219.58 36.7743 222.297C35.4769 229.316 33.9604 236.41 36.8085 243.439C37.3425 244.752 37.8595 245.962 36.7161 247.22C35.8261 248.198 34.7204 248.683 33.7825 247.637C32.4508 246.15 31.0645 244.56 30.2943 242.748C29.0208 239.778 28.9558 236.519 29.6096 233.357C30.3456 229.805 31.0987 226.229 32.2489 222.8C32.9506 220.718 34.0871 218.561 35.6138 217.022C38.7357 213.884 42.7101 215.221 44.2642 219.918Z" fill="#F26837"/>
<path d="M295.449 283.227L299.499 284.307C299.964 285.886 299.133 286.43 298.095 286.789C295.138 287.815 294.087 289.866 294.617 292.902C294.987 295.028 295.069 297.206 295.439 299.336C295.781 301.291 296.497 303.028 298.653 303.814C299.228 304.026 299.93 304.891 299.934 305.459C299.934 306.652 298.937 307.226 297.811 307.223C295.36 307.223 293.871 305.674 292.742 303.746C291.03 300.809 290.595 297.531 290.434 294.208C290.321 291.927 290.643 289.497 288.038 288.522C288.131 287.948 288.083 287.637 288.213 287.514C291.636 284.201 291.468 279.685 292.177 275.493C292.413 274.095 292.42 272.611 293.994 272.177C294.417 272.099 294.852 272.105 295.272 272.197C295.692 272.288 296.09 272.463 296.442 272.711C297.839 273.757 297.644 275.275 297.127 276.762C296.61 278.249 296.072 279.753 295.614 281.271C295.449 281.791 295.511 282.372 295.449 283.227Z" fill="#F26837"/>
<path d="M270.139 283.254C270.793 283.325 271.441 283.447 272.076 283.62C273.952 284.338 274.236 285.805 272.46 286.741C269.834 288.109 269.379 290.16 269.81 292.734C270.3 295.644 270.779 298.546 271.357 301.449C272.011 304.72 272.206 304.833 275.667 304.768C276.3 306.095 275.814 307.131 274.719 307.958C274.285 308.328 273.753 308.564 273.187 308.638C272.622 308.712 272.047 308.621 271.532 308.375C269.444 307.486 268.321 305.931 267.859 303.787C266.996 299.797 266.116 295.811 265.233 291.757C264.145 291.288 262.793 290.97 261.779 290.204C260.328 289.107 260.41 287.623 262.122 287.069C265.545 285.955 265.689 283.357 265.754 280.553C265.774 279.644 265.812 278.735 265.856 277.818C265.915 276.598 266.199 275.459 267.684 275.425C269.321 275.37 269.783 276.557 269.865 277.914C269.93 279.049 269.865 280.187 269.885 281.333C269.938 281.977 270.022 282.618 270.139 283.254Z" fill="#F26837"/>
<path d="M154.116 311.352C153.52 310.211 152.835 309.106 152.346 307.934C149.833 301.876 148.776 295.465 148.077 289.007C147.54 284.03 147.276 279.018 146.931 274.023C146.881 272.997 146.905 271.969 147.002 270.946C147.091 269.811 147.156 268.43 148.714 268.505C150.162 268.577 150.85 269.698 150.908 271.107C151.004 273.38 151.001 275.657 151.131 277.927C151.648 286.919 152.678 295.831 155.105 304.546C155.479 305.976 155.67 307.447 155.673 308.925C155.673 309.701 155.184 310.484 154.91 311.267L154.116 311.352Z" fill="#F26837"/>
<path d="M194.372 309.633C191.819 308.85 191.497 307.343 191.36 305.873C191.038 302.481 190.805 299.079 190.631 295.678C190.34 290.01 190.124 284.334 189.871 278.659C189.83 277.753 189.662 276.84 189.71 275.924C189.813 274.023 190.798 272.947 192.301 272.933C193.944 272.933 195.095 273.777 195.218 275.613C195.406 278.328 195.56 281.083 195.259 283.781C194.46 291.016 194.292 298.307 194.756 305.572C194.831 306.843 194.526 308.115 194.372 309.633Z" fill="#F26837"/>
<path d="M76.7181 300.392C76.5435 297.807 76.3757 295.223 76.1943 292.638C76.0985 291.312 76.2252 290.071 77.6869 289.561C78.9705 289.117 79.8366 289.828 80.552 290.826C81.442 292.067 81.8939 293.158 81.2915 294.871C80.5589 296.963 80.4425 299.315 80.2645 301.551C80.1036 303.582 80.2439 305.633 80.2028 307.677C80.1789 308.809 80.2029 310.228 78.7788 310.412C77.1049 310.621 76.9063 309.045 76.6188 307.869C76.4016 306.872 76.2869 305.856 76.2765 304.836C76.2217 303.363 76.2593 301.889 76.2593 300.413L76.7181 300.392Z" fill="#F26837"/>
<path d="M281.103 300.368C279.087 299.055 279.172 297.076 279.104 295.353C278.95 291.613 279.073 287.862 279.104 284.115C279.104 283.664 279.083 283.09 279.343 282.799C279.922 282.194 280.73 281.274 281.332 281.353C282.154 281.463 283.085 282.242 283.564 282.991C283.924 283.558 283.691 284.533 283.646 285.322C283.441 289.175 283.194 293.021 282.999 296.874C282.931 298.269 282.862 299.616 281.103 300.368Z" fill="#F26837"/>
<path d="M277.412 273.989C278.552 273.261 279.164 272.622 279.88 272.468C281.136 272.194 282.276 273.295 282.341 274.577C282.406 275.859 281.194 277.746 280.547 277.312C279.459 276.615 278.692 275.408 277.412 273.989Z" fill="#F26837"/>
<path d="M78.0481 276.738C80.9305 278.406 80.9304 278.406 80.3758 281.216C76.9903 280.895 76.2544 279.599 78.0481 276.738Z" fill="#F26837"/>
</svg>
