<svg width="211" height="339" viewBox="0 0 211 339" fill="none" xmlns="http://www.w3.org/2000/svg">
<path d="M23.54 299.53C23.0342 299.798 22.7378 300.091 22.4608 300.079C18.0278 299.846 15.3345 302.385 13.118 305.808C12.071 307.423 10.5697 308.776 9.73528 310.475C8.70757 312.581 7.68309 314.88 7.48012 317.167C7.01621 322.754 8.67858 327.824 12.9215 331.661C15.7243 334.203 19.0201 335.253 22.6315 333.234C26.0884 331.296 29.5452 329.359 32.8764 327.204C33.5207 326.788 33.7784 325.509 33.917 324.585C34.3776 321.556 34.426 318.449 35.138 315.484C36.1431 311.285 38.772 309.945 42.8441 311.479C44.6805 312.17 46.2945 313.562 47.8602 314.822C48.7204 315.516 49.2681 316.598 49.9672 317.496C51.9002 319.98 52.6186 322.696 51.6489 325.79C50.9047 328.17 50.5278 330.709 49.4936 332.947C46.955 338.437 41.8873 339.209 37.7153 334.836C36.4041 333.46 35.4601 331.742 34.1715 329.924C32.7829 329.349 31.7649 330.34 30.6631 331.432C29.1569 332.977 27.542 334.411 25.8306 335.724C20.4795 339.69 14.6483 339.222 9.75783 334.61C7.94751 332.946 6.485 330.938 5.45522 328.702C4.42544 326.467 3.84892 324.049 3.75913 321.588C3.35642 312.145 6.98077 304.064 13.3306 297.227C15.502 294.885 20.5085 295.131 22.6283 297.443C23.1051 297.96 23.234 298.796 23.54 299.53ZM47.5832 321.026C46.3106 320.506 45.1412 320.38 44.6837 319.757C43.991 318.788 43.5754 317.658 42.1515 318.142C40.6727 318.63 40.0703 319.796 40.2185 321.349C40.3667 322.902 40.1573 324.188 38.9008 325.351C38.3886 325.825 38.1502 327.13 38.4144 327.808C39.0233 329.349 39.7997 330.941 40.9047 332.143C42.8377 334.251 44.5323 334.042 46.2075 331.684C48.5561 328.367 48.5722 324.714 47.5832 321.026Z" fill="#F26837"/>
<path d="M10.6463 270.644C8.74232 270.105 7.79516 268.687 7.12828 267.111C6.16178 264.808 5.0181 262.502 4.50908 260.08C2.91436 252.516 1.56127 244.9 0.169518 237.298C-0.0334452 236.19 0.0309863 235.037 0.00199151 233.894C-0.0334466 232.434 0.398254 231.249 1.76423 230.454C2.43274 230.031 3.02436 229.497 3.51359 228.875C7.70173 223.856 12.7436 222.264 17.9691 224.331C20.6932 225.417 22.9816 227.378 24.4766 229.906C25.9717 232.435 26.5892 235.388 26.2326 238.305C25.2468 246.764 21.6676 253.695 13.5297 257.541C11.049 258.717 11.1392 258.833 11.6193 261.417C11.9414 263.093 12.1122 264.792 12.3731 266.481C12.6341 268.17 12.0767 269.562 10.6463 270.644ZM11.819 252.558C12.618 252.503 12.8692 252.558 13.0561 252.458C13.4601 252.254 13.8498 252.023 14.2223 251.767C17.8886 249.37 20.0213 245.856 21.7771 241.926C23.5329 237.995 23.0239 234.365 20.7945 230.897C19.3866 228.7 17.1701 227.754 14.6379 227.954C12.1057 228.155 10.1727 229.569 9.09992 231.946C8.2753 233.714 8.04905 235.703 8.45559 237.611C9.14503 240.947 9.6186 244.329 10.3113 247.665C10.6528 249.328 11.2906 250.898 11.819 252.58V252.558Z" fill="#F26837"/>
<path d="M156.57 294.605C154.467 295.896 152.669 296.865 151.061 298.057C147.112 301.002 145.733 305.052 146.712 309.8C147.394 313.265 148.309 316.681 149.451 320.022C150.179 322.076 151.616 323.878 152.853 325.994C149.631 326.84 146.783 326.084 144.389 322.964C143.139 323.591 141.906 324.098 140.784 324.789C136.232 327.605 132.924 327.25 129.228 323.384C123.839 317.748 122.759 311.079 124.795 303.774C125.394 301.691 126.182 299.668 127.15 297.731C128.217 295.567 130.05 294.178 132.534 294.091C135.298 294.001 137.469 295.528 138.706 297.728C139.351 298.874 139.08 300.912 138.542 302.275C136.931 306.344 134.476 309.894 130.949 312.61C128.793 314.267 128.626 315.022 129.808 317.474C132.015 322.06 135.54 323.562 140.153 321.876C143.033 320.826 143.243 320.426 142.994 317.335C142.724 313.934 142.195 310.504 142.392 307.119C142.737 301.187 145.33 296.462 151.01 293.878C152.927 292.986 154.67 293.103 156.57 294.605ZM128.864 308.747C131.835 306.981 133.185 304.358 134.609 301.829C134.808 301.471 134.628 300.515 134.331 300.34C134.052 300.183 133.743 300.086 133.425 300.053C133.106 300.021 132.784 300.055 132.479 300.153C130.25 301.158 128.378 305.411 128.868 308.754L128.864 308.747Z" fill="#F26837"/>
<path d="M150.149 242.223C149.45 239.035 148.896 236.513 148.345 233.99C147.308 229.214 146.264 224.44 145.246 219.661C145.167 219.097 145.125 218.528 145.12 217.958C145.001 216.315 145.487 214.942 147.198 214.509C148.831 214.099 150.152 214.926 150.909 216.302C151.609 217.574 151.979 219.024 152.198 219.631C151.476 221.54 150.587 222.751 150.655 223.895C151.061 229.931 152.179 235.844 154.904 241.335C155.14 241.709 155.416 242.056 155.726 242.371L158.567 239.952C157.775 246.819 155.822 252.8 149.672 256.391C147.043 257.925 144.84 257.829 142.465 255.91C138.277 252.538 138.174 248.211 139.978 243.899C140.9 241.696 142.965 240.844 145.697 241.257C146.924 241.419 148.116 241.761 150.149 242.223ZM151.219 249.955C149.418 248.928 148.1 248.114 146.725 247.41C144.872 246.463 143.445 247.109 143.503 249.128C143.535 250.332 144.282 251.689 145.091 252.655C146.058 253.795 147.436 253.339 148.5 252.574C149.363 251.941 150.059 251.082 151.219 249.948V249.955Z" fill="#F26837"/>
<path d="M170.566 301.164C170.763 300.263 170.889 299.62 171.047 298.984C171.333 297.844 172.113 296.995 173.221 297.408C174.007 297.699 174.626 298.661 175.109 299.449C175.367 299.869 175.202 300.56 175.196 301.129C175.099 309.506 176.507 317.642 179.107 325.587C179.236 325.977 179.107 326.449 179.107 326.879C177.847 327.644 176.971 326.975 176.452 326.123C175.488 324.595 174.682 322.972 174.049 321.278C173.305 319.163 172.873 316.938 172.116 314.037C170.898 315.943 170.048 317.358 169.114 318.717C168.179 320.077 167.313 321.672 166.098 322.77C163.521 325.102 160.338 324.592 158.634 321.572C157.727 319.993 157.116 318.26 156.833 316.46C156.166 311.751 156.491 307.142 159.313 303.031C161.42 299.963 163.579 299.155 167.213 300.153C168.263 300.447 169.32 300.786 170.566 301.164ZM169.999 306.851C168.582 306.151 167.635 305.521 166.591 305.211C165.36 304.846 164.172 305.027 163.205 306.118C160.489 309.187 159.774 314.603 161.675 318.239C162.036 318.934 162.38 319.634 162.857 320.584C167.226 316.35 167.925 311.531 169.999 306.851Z" fill="#F26837"/>
<path d="M133.341 249.994C132.855 254.515 128.596 259.876 125.055 260.232C121.134 260.626 117.71 259.121 115.181 255.978C110.152 249.735 110.119 242.817 112.697 235.657C113.504 233.528 114.497 231.475 115.664 229.521C117.803 225.803 121.482 224.441 124.504 226.075C128.096 228.013 129.494 232.415 127.023 236.058C124.124 240.353 121.949 245.243 117.803 248.653C117.381 248.996 117.107 249.522 116.753 249.984C117.146 251.923 118.265 253.637 119.881 254.773C122.194 256.475 124.678 256.944 127.12 255.119C128.644 253.982 129.968 252.584 131.411 251.334C132.032 250.855 132.676 250.408 133.341 249.994ZM116.617 243.967C119.965 239.917 123.061 236.306 124.884 231.639C122.252 230.461 120.493 231.381 119.188 233.086C117.958 234.701 116.981 236.516 115.996 238.299C115.039 240.03 115.197 241.758 116.617 243.967Z" fill="#F26837"/>
<path d="M95.6195 309.245C95.7709 307.414 95.8031 306.189 95.99 304.988C96.1833 303.719 96.5473 302.353 98.1871 302.459C99.9526 302.572 99.8849 304.006 99.798 305.288C99.4146 310.081 99.5563 314.851 100.671 319.538C101.538 323.177 102.636 326.762 103.625 330.373C103.735 330.774 103.812 331.181 103.918 331.649C100.996 331.387 99.1633 328.529 96.6923 320.532C94.9397 321.466 94.3212 323.21 93.4062 324.657C92.6201 325.903 92.1176 327.344 91.2348 328.51C88.6156 331.991 83.2451 331.232 81.586 327.163C80.5196 324.544 80.5615 321.76 81.2445 319.089C82.0015 316.113 82.9782 313.199 84.1665 310.369C85.7967 306.493 88.6511 305.579 92.4526 307.43C93.3418 307.872 94.1891 308.431 95.6195 309.245ZM84.9107 321.995C85.0428 322.806 84.9784 323.581 85.3006 324.124C85.787 324.947 86.4732 326.1 87.1981 326.197C87.923 326.294 89.1472 325.438 89.5241 324.686C90.9989 321.742 92.3204 318.724 93.4835 315.643C93.9829 314.322 93.5641 312.797 92.1949 312.126C90.7516 311.425 89.5113 312.184 88.7284 313.466C87.6406 315.196 86.6469 316.983 85.7516 318.821C85.2683 319.819 85.1588 320.997 84.9107 321.995Z" fill="#F26837"/>
<path d="M76.1318 235.764C74.1988 238.638 73.3998 241.9 73.0229 245.307C72.6717 248.476 72.3785 251.66 71.8341 254.793C71.5119 256.634 70.7065 258.387 70.0654 260.354C67.3012 259.424 66.7149 257.557 66.3766 255.487C65.8193 252.115 65.336 248.731 64.6208 245.394C64.1956 243.402 63.3708 241.499 62.7587 239.549C62.3914 238.37 61.7117 236.965 63.3805 236.319C64.7529 235.802 66.0383 236.254 66.847 237.685C67.6105 239.029 68.4771 240.317 69.624 242.152C70.9385 238.961 72.0016 236.39 73.0583 233.819C73.2344 233.277 73.4497 232.748 73.7026 232.237C74.4211 231.026 75.2684 229.95 76.9243 230.209C78.4191 230.444 79.4629 231.265 79.798 232.75C80.3972 235.412 80.9256 238.092 81.4346 240.776C82.3817 245.801 83.2967 250.833 84.2181 255.865C84.2986 256.298 84.3212 256.737 84.3792 257.254C82.604 258.31 81.6601 257.167 81.1833 255.923C80.203 253.499 79.4261 250.997 78.8605 248.443C78.2162 245.327 77.9713 242.129 77.5267 238.971C77.3753 237.882 77.1498 236.807 76.9597 235.741L76.1318 235.764Z" fill="#F26837"/>
<path d="M180.871 273.531C180.903 272.059 182.159 271.099 183.645 271.677C185.13 272.256 185.9 273.347 186.022 275.059C186.77 286.627 187.494 298.203 188.435 309.758C188.757 313.808 189.724 317.803 190.291 321.84C190.384 322.502 190.078 323.778 189.75 323.836C189.005 324.004 187.839 323.881 187.382 323.381C186.648 322.52 186.156 321.479 185.954 320.364C185.262 316.679 184.521 312.981 184.195 309.254C183.29 298.836 182.607 288.394 181.773 277.966C181.657 276.515 181.199 275.091 180.871 273.531Z" fill="#F26837"/>
<path d="M206.495 308.133L203.129 307.119C202.162 306.825 201.07 306.719 200.229 306.209C195.519 303.341 194.53 300.889 196.872 296.775C198.386 294.117 199.814 291.384 201.566 288.891C203.821 285.691 206.557 285.791 208.87 288.891C209.405 289.611 209.965 290.315 210.481 291.058C210.571 291.191 210.432 291.475 210.4 291.685C210.203 291.795 210.004 292.008 209.817 291.992C208.177 291.914 206.325 290.984 205.046 292.638C203.477 294.688 201.924 296.807 200.764 299.097C200.071 300.46 201.241 302.003 203.138 302.649C204.527 303.118 206.015 303.273 207.449 303.618C210.348 304.309 211.534 305.666 210.738 308.511C209.772 311.977 208.206 315.294 206.769 318.607C206.193 319.938 205.01 320.348 203.647 319.618C202.359 318.93 202.146 317.755 203.077 316.14C204.479 313.698 205.848 311.247 206.495 308.133Z" fill="#F26837"/>
<path d="M121.505 326.931C120.381 330.344 118.029 331.452 115.123 329.866C113.258 328.842 111.834 327.331 111.469 325.164C110.98 322.249 110.588 319.318 110.294 316.373C110.11 314.525 109.788 312.972 107.536 312.762C107.076 312.742 106.638 312.557 106.302 312.242C105.693 311.496 104.975 310.672 104.83 309.794C104.768 309.429 106.022 308.754 106.763 308.383C107.349 308.089 108.051 308.06 108.883 307.853C109.543 304.908 109.83 302.04 109.095 299.088C108.589 297.072 109.053 296.2 110.548 295.942C112.12 295.671 113.56 296.562 113.77 298.154C113.976 299.608 113.889 301.103 114.018 302.572C114.134 303.89 114.369 305.195 114.543 306.448L118.064 307.291C118.406 309.051 116.972 309.264 116.131 309.875C114.714 310.902 114.037 312.1 114.305 313.938C114.665 316.415 114.707 318.934 115.029 321.418C115.577 325.635 116.74 326.614 120.906 326.65C121.115 326.643 121.318 326.84 121.505 326.931Z" fill="#F26837"/>
<path d="M104.957 238.396C103.324 238.667 101.687 238.909 100.063 239.219C97.2604 239.758 96.9028 240.188 96.8061 243.037C96.7224 245.552 96.8061 248.033 98.0175 250.349C99.1934 252.577 99.5349 252.709 101.951 251.482C102.151 251.379 102.344 251.256 102.554 251.159C102.66 251.139 102.769 251.139 102.876 251.159C103.256 253.016 102.26 255.177 100.621 256.052C99.2643 256.775 97.0317 256.566 95.9073 255.235C94.9499 254.131 94.2529 252.825 93.868 251.414C93.2849 249.002 93.0272 246.502 92.7565 244.025C92.4763 241.441 92.3667 241.28 89.6412 241.044C88.7488 240.97 87.618 241.115 87.0285 240.63C86.2494 239.906 85.7289 238.945 85.5465 237.895C85.4885 237.572 86.8352 236.965 87.5504 236.529C87.7657 236.455 87.9967 236.438 88.2205 236.48C92.3313 236.639 92.5793 236.057 93.1657 232.166C93.3622 230.874 93.7875 229.663 95.3242 229.485C96.9125 229.301 98.4138 229.727 98.9904 231.323C100.079 234.342 101.639 236.813 105.302 237.356L104.957 238.396Z" fill="#F26837"/>
<path d="M61.695 297.944C61.6466 298.406 61.5435 298.968 61.5371 299.536C61.4662 303.848 61.347 308.162 61.3825 312.474C61.4115 316.107 61.4308 319.763 61.8142 323.368C62.1975 326.972 63.0706 330.473 63.6086 334.064C63.7246 334.836 63.3122 335.679 63.1447 336.506C62.2072 336.312 60.9959 336.406 60.4063 335.86C59.6589 335.14 59.166 333.922 58.9952 332.866C58.483 329.611 58.048 326.332 57.8096 323.045C57.1202 313.517 56.5468 303.99 55.9089 294.449C55.7703 292.363 56.3502 291.307 57.8709 291.087C59.4978 290.855 60.5577 291.649 60.9862 293.487C61.2407 294.591 61.4308 295.709 61.6305 296.826C61.6711 297.198 61.6926 297.571 61.695 297.944Z" fill="#F26837"/>
<path d="M46.9422 241.063C46.0515 240.389 45.1256 239.762 44.1684 239.187C41.5911 237.804 39.5711 238.292 38.0956 240.776C36.2625 243.866 35.3314 247.235 35.7277 250.871C35.9403 252.79 36.066 254.747 36.488 256.607C36.7715 257.87 37.5028 259.033 38.073 260.334C39.2361 259.659 40.035 258.965 40.95 258.742C41.5943 258.581 42.6575 258.826 43.0827 259.298C43.4468 259.705 43.4049 260.806 43.1278 261.39C42.4293 262.814 41.5954 264.167 40.6375 265.431C39.3488 267.126 38.0376 267.391 36.1755 266.309C35.0863 265.688 34.1357 264.849 33.3827 263.844C32.6296 262.84 32.09 261.692 31.7973 260.47C30.9307 257.111 30.6923 253.662 31.5718 250.339C32.6533 246.407 33.9438 242.537 35.4377 238.744C36.4042 236.231 38.3372 234.662 41.198 234.785C43.9944 234.904 45.7921 236.496 46.9004 238.983C47.1325 239.57 47.3347 240.168 47.506 240.776L46.9422 241.063Z" fill="#F26837"/>
<path d="M77.5933 330.599C74.4296 332.033 73.3375 331.988 72.3355 329.789C71.5403 327.932 71.1324 325.931 71.1371 323.911C71.0372 314.248 71.1371 304.581 71.1081 294.918C71.0494 293.332 70.8456 291.755 70.4992 290.206C69.987 287.519 70.7022 286.815 73.3117 287.622C73.711 287.787 74.0912 287.995 74.4457 288.242C76.6365 295.897 75.5282 303.645 75.6732 311.315C75.7376 314.716 75.2189 318.123 75.1931 321.53C75.1706 324.66 75.1513 327.874 77.5933 330.599Z" fill="#F26837"/>
<path d="M59.6807 249.716C59.4294 250.859 59.0847 251.744 59.0686 252.623C59.0171 255.436 59.1298 258.249 59.0686 261.058C59.0686 261.633 58.7078 262.496 58.2825 262.673C57.8573 262.851 56.8263 262.583 56.5622 262.179C55.9178 261.165 55.2316 259.999 55.1028 258.836C54.6614 254.899 54.4359 250.937 54.1653 246.984C54.0879 245.85 54.5229 244.933 55.7342 244.723C56.9455 244.513 57.9894 244.687 58.4307 246.095C58.8399 247.391 59.3102 248.644 59.6807 249.716Z" fill="#F26837"/>
<path d="M55.4851 237.765C54.8118 237.471 53.9871 237.333 53.4941 236.855C51.9601 235.389 50.5213 233.825 49.1868 232.175C48.797 231.687 48.6681 230.531 48.9838 230.069C49.2996 229.607 50.3176 229.539 51.0392 229.488C51.2643 229.487 51.487 229.534 51.6928 229.626C51.8987 229.717 52.0832 229.85 52.2345 230.017C53.9871 232.155 55.4561 234.452 56.1746 237.123L55.4851 237.765Z" fill="#F26837"/>
<path d="M162.557 155.148C161.752 156.482 161.12 157.532 160.782 158.087C155.044 158.733 149.828 159.411 144.612 159.902C138.472 160.48 132.315 160.871 126.165 161.388C111.99 162.557 97.8889 164.178 83.8393 166.481C71.6776 168.474 59.4127 170.056 47.0062 169.171C44.8058 169.016 42.2027 166.439 41.6808 163.594C41.3706 161.98 41.2345 160.337 41.2749 158.694C41.8258 142.869 39.4482 127.215 38.5912 111.474C38.2079 104.439 38.8554 97.3535 38.9972 90.2903C39.2678 76.7839 39.8541 63.2743 39.6415 49.7743C39.5062 41.2222 38.2046 32.6862 37.3219 24.1503C37.1834 22.8067 36.5681 21.4923 36.0558 20.2133C35.1183 17.8718 35.2343 17.0192 37.2865 15.8727C38.3649 15.2397 39.5817 14.8815 40.8303 14.8295C47.8599 14.8295 54.8928 15.1331 61.9192 15.0136C66.3425 14.9393 70.7239 14.865 75.0506 15.9017C82.8212 17.762 90.6241 17.087 98.3173 15.7306C106.484 14.2869 114.545 12.2555 122.644 10.4469C130.376 8.71899 138.108 6.92009 145.84 5.21161C147.773 4.78206 149.477 4.24271 150.005 1.98195C150.347 0.538301 151.581 -0.42738 152.808 0.189483C154.993 1.29402 157.261 2.5988 158.862 4.38803C160.592 6.32582 159.699 9.01288 157.183 9.79123C154.944 10.4824 154.645 11.8679 154.583 13.7572C154.11 28.394 153.656 43.0308 153.101 57.6805C152.779 66.5039 152.241 75.3209 151.842 84.1443C151.449 92.8643 151.52 101.529 152.538 110.233C153.639 119.625 154.216 129.085 154.735 138.528C155.009 143.58 156.69 148.088 158.975 152.416C159.538 153.488 161.069 154.053 162.557 155.148ZM49.9282 164.653C51.4843 164.879 52.3348 165.141 53.1724 165.099C56.5616 164.921 59.9604 164.776 63.3303 164.391C70.5822 163.571 77.8277 162.651 85.0603 161.704C95.6659 160.319 106.243 158.697 116.868 157.506C124.368 156.666 131.938 156.469 139.464 155.813C142.844 155.465 146.204 154.939 149.529 154.237C152.003 153.75 152.37 153.075 152.125 150.552C152.074 150.052 151.932 149.561 151.842 149.063C149.835 137.986 148.975 126.798 148.578 115.562C148.53 114.174 148.614 112.765 148.395 111.402C147.284 104.288 146.903 97.0786 147.257 89.8866C147.396 86.7344 147.618 83.5855 147.763 80.4334C148.437 65.6804 149.168 50.9305 149.728 36.1872C149.997 29.1272 150.075 22.0596 149.964 14.9845C149.886 9.86876 148.997 9.19698 143.975 10.3274C131.7 13.0919 119.458 15.9922 107.212 18.8892C97.2252 21.2533 87.1189 22.7034 76.8934 21.1144C66.8205 19.4918 56.5469 19.5814 46.5036 21.3792C44.693 21.7022 43.8168 22.4095 43.8522 24.3053C43.8715 25.3 43.8071 26.4142 43.3851 27.2766C41.8322 30.4384 42.3348 33.6648 42.7407 36.9203C42.8857 38.0474 43.0081 39.1811 43.0983 40.3082C44.503 57.9809 43.4205 75.6406 42.6054 93.2745C42.2027 101.875 42.1415 110.43 43.0629 118.979C44.3516 131.026 45.5564 143.069 45.3696 155.213C45.3878 156.723 45.5791 158.226 45.9398 159.692C46.0344 159.973 46.1956 160.226 46.4094 160.43C46.6232 160.634 46.8833 160.783 47.1673 160.865C47.6086 160.923 48.2691 160.416 48.588 159.98C49.0197 159.382 49.0487 158.42 49.5545 157.974C50.0603 157.528 50.9495 157.548 52.2994 157.196L49.9282 164.653Z" fill="#F26837"/>
<path d="M137.172 120.64C136.83 121.182 136.656 121.686 136.305 121.973C135.744 122.485 135.087 122.881 134.372 123.136C129.073 124.628 123.773 126.117 118.438 127.48C109.185 129.841 99.8459 131.882 90.661 134.488C82.2042 136.885 73.9084 139.846 65.5321 142.562C65.2966 142.651 65.0664 142.754 64.8427 142.869C63.6636 143.434 62.6294 143.321 61.9142 142.126C61.199 140.931 61.5921 139.866 62.6327 139.162C64.0599 138.193 65.5031 137.037 67.114 136.578C77.9806 133.435 88.8826 130.442 99.7943 127.441C103.309 126.472 106.917 125.862 110.426 124.858C117.191 122.92 123.908 120.817 130.629 118.721C132.504 118.14 134.308 117.723 135.964 119.16C136.408 119.618 136.812 120.113 137.172 120.64Z" fill="#F26837"/>
<path d="M110.877 52.2482C107.03 52.8069 103.145 53.1493 99.3433 53.9728C90.5095 55.8912 81.7434 58.1229 72.9258 60.0639C68.641 61.007 64.2789 61.6109 59.9425 62.3247C59.0888 62.4603 58.0289 62.6477 57.3652 62.2666C56.969 62.0176 56.6262 61.6921 56.3568 61.3089C56.0874 60.9257 55.8969 60.4927 55.7963 60.0349C55.7028 59.4632 56.4793 58.5621 57.0849 58.1229C57.6487 57.716 58.5057 57.6804 59.2499 57.5609C64.0823 56.7858 68.9148 56.0398 73.7473 55.2679C74.7466 55.1495 75.7346 54.9497 76.7015 54.6704C86.2763 51.4408 96.1893 49.8259 106.131 48.2789C107.742 48.0303 109.317 47.4263 110.928 47.31C112.091 47.239 113.506 47.4166 114.395 48.0658C115.097 48.5793 115.526 50.0423 115.361 50.9725C115.249 51.6184 114.008 52.2159 113.158 52.5453C112.513 52.7972 111.672 52.5937 110.922 52.5937C110.899 52.471 110.886 52.3612 110.877 52.2482Z" fill="#F26837"/>
<path d="M118.242 87.9069C116.767 90.1677 114.495 90.4325 112.488 90.7652C105.723 91.8826 99.4116 94.3824 93.0811 96.866C90.6294 97.8349 88.1423 98.8264 85.5746 99.3463C78.1842 100.842 70.7551 102.159 63.3163 103.435C60.3556 103.942 59.5309 103.141 58.8994 99.3496C60.8163 99.0524 62.7332 98.6487 64.6726 98.4743C76.1674 97.4344 87.1822 94.5632 97.8813 90.2355C102.414 88.4043 107.131 87.0059 111.805 85.546C114.212 84.7935 116.106 85.5848 118.242 87.9069Z" fill="#F26837"/>
<path d="M56.3538 81.9288C60.8898 81.1311 65.1424 80.2397 69.4401 79.6681C74.2242 79.0221 78.7023 77.5462 83.0709 75.547C85.5709 74.4005 88.1836 73.4865 90.7835 72.5725C91.7145 72.2495 92.8292 71.9266 93.7216 72.1333C94.9587 72.4562 96.692 73.0311 97.0496 73.9516C97.4072 74.872 96.5631 76.503 95.8834 77.5946C95.1102 78.8348 93.8924 78.8122 92.6005 78.0177C90.5999 76.7904 88.6733 77.6689 86.895 78.6152C81.8724 81.2797 76.6437 83.366 71.0445 84.3995C67.346 85.082 63.6325 85.6827 59.904 86.2016C57.8905 86.4665 57.2075 85.672 56.3538 81.9288Z" fill="#F26837"/>
<path d="M56.7648 48.515C55.8144 47.6366 54.8995 46.8259 54.0296 45.9701C52.5799 44.549 52.8247 42.889 54.7094 42.1559C55.6477 41.8046 56.6569 41.686 57.6508 41.8103C63.9813 42.6468 70.183 41.8943 76.3363 40.4861C77.4252 40.2374 78.6462 39.9468 79.6707 40.2116C80.6082 40.4538 81.9613 41.3485 82.0418 42.0816C82.1385 42.9245 81.114 43.9644 80.431 44.7945C80.1765 45.1174 79.5032 45.0916 79.0103 45.1594C73.2951 45.9475 67.5734 46.7 61.8615 47.5171C60.1411 47.7658 58.4368 48.1856 56.7648 48.515Z" fill="#F26837"/>
<path d="M87.9052 116.244C86.5392 119.835 86.5199 119.642 83.4851 119.965C80.7757 120.252 78.1017 120.972 75.431 121.608C72.0225 122.426 68.6655 123.517 65.2312 124.137C64.0714 124.344 62.5025 123.763 61.507 123.02C59.996 121.893 60.4342 120.436 62.3672 119.742C63.9106 119.213 65.4833 118.774 67.0772 118.427C72.2093 117.255 77.3607 116.166 82.4864 114.968C84.4355 114.519 86.2009 114.481 87.9052 116.244Z" fill="#F26837"/>
</svg>
