<svg width="217" height="350" viewBox="0 0 217 350" fill="none" xmlns="http://www.w3.org/2000/svg">
<path d="M186.613 32.8083C187.423 33.1256 188.511 33.2272 188.976 33.8206C189.785 34.8964 189.52 36.1975 188.53 37.1749C187.075 38.6061 187.116 40.3261 187.265 42.1857C187.733 47.6598 187.964 53.1339 187.451 58.6365C187.243 60.8579 187.723 63.165 187.859 65.4371C188.116 69.699 188.334 73.964 188.606 78.2227C188.713 79.9237 188.9 81.6214 189.09 83.3001C189.333 85.4676 189.782 87.6255 189.855 89.7961C190.07 96.2794 191.063 102.642 192.423 108.963C193.056 111.915 193.192 114.933 194.551 117.77C195.111 118.937 194.577 120.737 194.264 122.19C194.049 123.18 193.229 123.65 192.05 123.364C191.27 123.157 190.447 123.177 189.678 123.421C186.405 124.653 183.239 126.192 179.924 127.293C170.323 130.466 161.559 135.249 153.065 140.694C143.018 147.136 132.847 153.382 122.552 159.433C116.688 162.883 110.569 165.929 104.032 168.001C102.469 168.496 101.302 168.246 99.9202 167.116C98.145 165.726 96.1502 164.645 94.0188 163.917C86.4538 161.213 78.7656 158.84 71.2291 156.06C67.7028 154.755 64.4801 152.645 61.0139 151.144C52.1586 147.311 43.2401 143.63 34.3627 139.856C26.8694 136.67 19.3846 133.454 11.9082 130.206C10.8709 129.755 10.0771 129.692 9.00813 130.279C7.1928 131.272 6.361 130.857 5.41855 129.01C5.02955 128.258 4.50774 127.569 4.1725 126.788C3.87838 126.112 3.44827 125.275 3.62221 124.659C4.34961 122.079 3.65065 119.559 3.55894 117.014C3.36602 111.708 3.24269 106.402 3.10037 101.097C2.87899 93.125 2.71136 85.1503 2.41408 77.1819C2.30971 74.4401 1.83532 71.7109 1.62343 68.9691C1.35144 65.4784 1.13957 61.9877 0.968786 58.4969C0.883396 56.7294 1.91757 55.2632 3.46092 55.2378C8.29653 55.168 12.0916 52.5373 15.8235 50.0525C21.0228 46.5967 25.9438 42.722 30.9692 39.0028C36.529 34.8773 42.1142 30.8059 47.6076 26.6011C54.2965 21.4825 60.8621 16.2019 67.5573 11.0928C71.3999 8.16372 75.3531 5.38064 79.3475 2.66421C80.2962 2.02953 81.5992 1.86772 82.7536 1.53768C83.1046 1.43931 83.6391 1.66141 83.8573 1.46784C87.1369 -1.4263 90.7771 1.29014 94.2085 0.807786C94.841 0.718931 95.5716 1.36946 96.2642 1.66776C97.213 2.07396 98.1618 2.60077 99.1454 2.84512C103.541 3.92407 108.001 4.79993 112.365 5.98043C117.425 7.35134 122.52 8.77935 127.482 10.5247C132.906 12.4288 138.207 14.7041 143.536 16.8715C149.307 19.2293 154.991 21.8315 160.832 23.9926C165.512 25.7253 170.408 26.8487 175.136 28.4671C177.194 29.163 179.135 30.1653 180.895 31.4406C182.654 32.7385 184.501 33.0146 186.613 32.8083ZM106.242 161.905C107.526 161.743 108.257 161.785 108.88 161.547C110.999 160.741 113.206 160.055 115.154 158.928C126.217 152.52 137.242 146.047 148.229 139.507C153.118 136.613 157.755 133.23 162.831 130.736C169.867 127.28 177.214 124.462 184.412 121.34C185.451 120.886 186.449 120.342 187.395 119.715C188.66 118.877 188.976 117.779 188.343 116.272C187.711 114.707 187.078 113.044 186.955 111.385C186.553 106.472 186.272 101.547 186.174 96.6157C185.99 87.1273 184.229 77.7309 184.545 68.217C184.545 67.7505 184.371 67.265 184.349 66.808C184.191 63.6854 183.716 60.5311 183.992 57.4529C184.428 52.7562 183.675 48.2024 183.16 43.6042C183.071 42.7918 182.866 41.9889 182.622 40.71L143.561 64.1138C143.814 65.1579 144.007 65.948 144.263 66.9984L141.031 67.3729C140.575 69.223 139.873 71.181 139.633 73.2215C138.95 78.978 138.735 84.7504 139.975 90.4784C140.231 91.6557 139.693 92.2809 138.662 92.6204C137.226 93.0965 135.847 92.3221 135.48 90.672C135.332 89.735 135.299 88.7834 135.379 87.8381C135.547 82.4434 135.756 77.0264 135.907 71.6189C135.93 70.8446 135.743 70.0671 135.591 68.8581C134.158 69.6578 133.156 70.1528 132.217 70.7621C124.778 75.4841 117.324 80.1807 109.939 84.9852C107.391 86.6165 104.955 88.4188 102.65 90.38C100.012 92.6522 98.1491 95.3242 98.5792 99.2274C99.0884 103.845 99.158 108.513 99.4837 113.152C99.7178 116.462 99.9771 119.775 100.369 123.069C100.761 126.363 101.391 129.629 101.815 132.907C102.083 134.976 101.935 137.118 102.374 139.139C103.861 145.959 105.088 152.87 108.273 159.284L106.242 161.905ZM7.02517 96.4951C7.61341 103.68 6.88918 110.871 7.93917 118.074C8.48313 121.825 9.71653 124.227 13.0594 125.719C22.0349 129.724 30.9724 133.824 39.9636 137.778C50.2516 142.322 60.6217 146.663 70.8781 151.284C77.8041 154.403 84.9959 156.713 92.2224 158.951C94.2971 159.585 96.4128 160.106 98.5223 160.623C99.6482 160.899 100.569 160.772 100.793 159.297C101.391 155.416 101.514 151.623 100.316 147.764C99.3667 144.712 98.8512 141.5 98.3895 138.324C97.9278 135.147 98.0985 131.831 97.4122 128.705C95.9732 122.158 95.9859 115.52 95.5874 108.9C95.3408 104.832 94.8758 100.773 94.4046 96.7236C94.1737 94.7593 93.2566 93.1504 91.4128 92.1539C85.0686 88.7267 78.503 86.0198 71.3967 84.468C65.7831 83.2399 60.1315 81.7293 55.1947 78.5845C50.7133 75.7284 45.7607 74.3448 40.7068 73.0406C35.225 71.6295 29.7843 70.0428 24.3847 68.2805C19.2644 66.6145 14.2643 64.6121 9.17255 62.8096C7.11686 62.0765 6.56025 62.4922 6.61085 64.647C6.65197 66.4463 6.83542 68.2456 6.83226 70.0417C6.83226 72.682 6.633 75.3254 6.66463 77.9752C6.69942 80.8313 6.95558 83.6556 7.01251 86.4958C7.06944 89.8501 7.01884 93.1726 7.01884 96.4951H7.02517ZM181.68 36.518C177.828 36.0325 174.871 34.1697 171.819 32.5227C169.514 31.2345 167.147 30.0631 164.725 29.0129C158.273 26.3282 151.686 23.9545 145.297 21.1239C137.947 17.8648 130.553 14.7771 122.903 12.2764C116.144 10.0551 109.199 8.71588 102.267 7.31324C100.151 6.88484 98.0258 6.71984 96.0397 5.74561C95.3091 5.39019 94.3888 5.39335 93.5475 5.29815C90.4608 4.95225 87.371 4.63173 84.7144 4.34613C78.7498 6.59289 74.1576 10.4263 69.439 14.0123C64.7205 17.5982 59.7014 20.8065 55.6153 25.0621C56.289 26.9121 57.671 27.5658 59.0563 28.1751C61.2163 29.1272 63.427 29.9554 65.5744 30.9328C69.6193 32.7766 73.5947 34.7821 77.6713 36.5497C84.2622 39.41 90.8857 42.192 97.5419 44.8958C103.75 47.4345 110.015 49.8336 116.246 52.3183C120.809 54.1367 125.458 55.7868 129.873 57.9193C132.508 59.188 135.231 60.2644 138.02 61.1404C138.683 61.3783 139.391 61.4617 140.091 61.3842C140.791 61.3067 141.464 61.0703 142.059 60.6929C146.951 57.8115 151.885 55.003 156.768 52.1247C162.957 48.4595 169.143 44.7815 175.275 41.0178C177.486 39.6438 179.545 38.019 181.673 36.5148L181.68 36.518ZM135.082 64.3106C132.988 63.4252 131.432 62.762 129.87 62.1051C124.127 59.687 118.38 57.272 112.631 54.8602C111.584 54.4254 110.477 54.1398 109.427 53.7114C105.316 52.0338 101.212 50.3413 97.115 48.634C91.3748 46.2095 85.6252 43.8073 79.9262 41.2813C73.8793 38.6029 67.8894 35.7881 61.8741 33.0304C59.4674 31.9324 56.8614 31.1264 54.7013 29.6761C52.4654 28.1624 50.7671 28.3275 48.9328 30.0157C48.724 30.2061 48.4773 30.3584 48.2496 30.5298C36.9307 39.098 25.8932 48.066 14.0145 55.8852C13.0404 56.5199 12.2687 57.4719 11.2441 58.4239C12.0157 59.0586 12.4427 59.6076 12.9993 59.871C15.5579 61.0832 18.0595 62.5398 20.754 63.3237C28.5593 65.6021 36.431 67.6617 44.3091 69.6704C48.1864 70.6669 51.8993 71.987 55.3402 74.0402C59.1733 76.3219 63.1297 78.2957 67.5194 79.3461C72.3834 80.5076 77.2349 81.7452 82.0262 83.1732C84.24 83.8333 86.3495 84.9662 88.4558 85.9849C90.0655 86.7687 91.5646 87.7778 93.1744 88.5617C94.6387 89.2757 96.1346 89.0726 97.5071 88.2094C108.323 81.4099 119.136 74.5998 129.946 67.7791C131.597 66.7382 133.191 65.5894 135.076 64.3074L135.082 64.3106Z" fill="#F26837"/>
<path d="M212.385 321.458L209.406 323.827C205.724 326.758 201.773 326.107 199.209 322.12C197.027 318.725 196.658 314.953 197.395 311.131C197.75 309.43 198.324 307.778 199.102 306.216C200.957 302.359 204.314 301.033 208.535 302.333C209.265 302.554 209.995 302.785 210.742 303.02L213.46 299.437C215.629 300.518 216.081 302.157 216.198 303.913C216.503 308.564 216.935 313.223 216.975 317.881C217.028 324.397 216.861 330.889 216.603 337.388C216.489 340.56 215.451 343.635 213.61 346.255C213.061 347.041 212.382 347.868 211.558 348.321C206.042 351.344 197.341 349.441 193.746 344.392C191.922 341.832 191.239 338.854 191.285 335.75C191.285 335.192 191.764 334.642 192.216 333.674C192.973 334.616 193.609 335.192 193.974 335.903C195.57 339.014 198.048 341.151 201.064 342.988C203.799 344.659 206.42 344.063 209.098 343.457C209.791 343.301 210.571 342.408 210.815 341.695C211.445 339.851 212.037 337.939 212.208 336.017C212.569 331.915 212.663 327.788 212.83 323.67C212.85 323.168 212.64 322.657 212.385 321.458ZM211.404 310.249C210.768 309.753 210.186 309.271 209.567 308.828C209.207 308.577 208.817 308.37 208.405 308.213C206.557 307.519 204.897 307.783 203.913 309.161C201.904 311.965 201.124 315.057 202.47 318.347C203.671 321.279 206.152 321.579 207.97 318.963C209.841 316.381 211.022 313.386 211.404 310.249Z" fill="#F26837"/>
<path d="M25.2757 302.455C25.3812 309.94 22.8753 316.421 17.6094 321.642C16.1817 323.059 15.9608 324.298 16.4817 326.063C17.1577 328.297 17.6886 330.574 18.2821 332.835C18.4239 333.371 18.8261 334.014 18.6613 334.422C18.1831 335.608 17.7413 337.101 16.8016 337.721C15.5453 338.535 14.5495 337.326 13.5504 336.308C9.97279 332.661 8.20543 328.303 7.7504 323.246C7.54267 320.932 6.93925 318.655 6.504 316.361C5.71681 312.193 5.88835 307.897 7.0052 303.808C7.45693 302.08 7.07775 300.074 6.84693 298.225C6.5172 295.506 7.14041 294.602 9.79147 294.153C10.9604 293.961 12.0963 293.6 13.1646 293.081C19.2845 290.067 24.7943 293.232 25.2691 300.114C25.3219 300.891 25.2757 301.675 25.2757 302.455ZM15.2683 317.382C19.6835 312.462 21.5333 306.779 20.8342 300.282C20.7342 299.621 20.5031 298.987 20.155 298.42C19.0108 296.434 17.339 296.112 15.9608 297.897C14.9097 299.286 14.1572 300.883 13.7516 302.586C12.5612 307.616 14.4803 312.409 15.2683 317.382Z" fill="#F26837"/>
<path d="M148.626 313.372C147.935 314.344 147.305 315.362 146.534 316.27C145.103 317.951 143.779 319.798 142.07 321.154C137.988 324.4 133.845 321.519 133.55 317.941C133.131 312.795 134.716 308.326 138.225 304.639C139.874 302.911 142.284 303.031 144.537 303.578C145.482 303.807 146.397 304.165 147.778 304.609C147.922 303.283 148.062 302.252 148.136 301.217C148.227 299.967 148.314 298.707 149.876 298.399C151.042 298.17 152.188 299.145 152.363 300.965C152.949 307.106 153.633 313.253 153.784 319.407C153.985 326.171 152.488 332.879 149.427 338.93C147.523 342.693 146.055 343.512 141.832 343.317C138.815 343.174 136.134 342.521 133.992 340.24C132.183 338.307 131.874 336.383 133.198 333.532C133.533 332.816 134.713 332.063 135.481 332.086C136.248 332.109 137.431 332.945 137.656 333.665C138.296 335.704 139.469 336.758 141.577 337.196C144.356 337.769 145.083 337.58 146.269 335.004C148.28 330.614 148.951 325.909 149.286 321.168C149.467 318.674 149.319 316.154 149.319 313.648L148.626 313.372ZM139.03 316.937C141.845 316.39 144.057 313.654 144.429 310.063C143.31 310.312 142.026 310.213 141.413 310.803C140.582 311.587 139.937 312.544 139.525 313.605C139.113 314.666 138.944 315.804 139.03 316.937Z" fill="#F26837"/>
<path d="M2.06086 232.699C1.95931 232.035 1.82826 231.398 1.75947 230.741C1.59567 229.199 2.25412 228.28 3.72499 227.779C4.96162 227.402 6.13379 226.834 7.20068 226.097C11.4855 222.909 16.3502 222.853 20.9593 224.365C25.5685 225.878 27.2916 229.521 25.8928 234.762C24.6748 239.346 22.6471 243.669 19.9078 247.521C19.2864 248.427 18.7102 249.365 18.1814 250.33C17.6006 251.395 16.8168 252.333 15.8754 253.088C14.9341 253.844 13.8539 254.403 12.6976 254.733C10.2079 255.496 9.85089 256.06 10.4995 258.538C11.0646 260.547 11.7696 262.514 12.6092 264.423C13.5133 266.579 13.4969 267.627 12.2816 268.175C10.9909 268.762 9.26776 268.085 8.6388 266.28C7.39397 262.869 6.36974 259.38 5.57259 255.834C4.33431 249.906 3.39741 243.911 2.37861 237.94C2.08706 236.218 1.95601 234.47 1.75291 232.735L2.06086 232.699ZM11.2857 249.544C13.8867 248.725 14.234 248.682 15.4592 246.559C17.3002 243.334 18.9545 239.994 20.5531 236.636C21.2173 235.259 21.6692 233.787 21.893 232.271C22.1878 230.131 21.0511 228.724 18.9873 228.167C15.4591 227.218 12.9203 228.184 10.7976 231.216C8.62241 234.318 8.11466 237.426 10.7255 240.504C9.28414 243.726 9.33982 246.708 11.2857 249.531V249.544Z" fill="#F26837"/>
<path d="M99.8577 315.454C98.9306 317.028 98.3523 317.899 97.8838 318.829C96.5944 321.396 95.3748 324.001 94.0721 326.562C93.6413 327.456 93.1035 328.295 92.4703 329.06C90.8087 331 89.3067 331.003 87.9442 328.867C87.0137 327.412 86.1397 325.728 85.9037 324.054C84.5379 314.421 83.3681 304.788 82.1518 295.155C82.0385 294.385 82.0206 293.604 82.0987 292.83C82.3778 290.617 83.6008 289.624 85.6645 289.824C87.5952 290.006 88.4592 291.016 88.4327 293.218C88.4061 295.876 88.3994 298.533 88.2166 301.171C87.778 307.402 88.7517 313.517 89.5924 319.643C89.752 320.795 90.2571 321.898 90.8154 323.808C93.248 316.816 97.3088 311.391 98.339 304.738C98.5949 303.104 99.4091 302.356 100.998 302.496C102.586 302.635 103.224 303.589 103.154 305.213C102.885 311.817 105.148 317.802 107.807 323.688C107.986 324.09 108.249 324.456 108.428 324.861C108.91 325.937 109.133 327.063 108.013 327.851C106.684 328.767 105.607 328.057 104.946 326.934C103.829 325.038 102.816 323.083 101.911 321.078C101.194 319.503 100.712 317.836 99.8577 315.454Z" fill="#F26837"/>
<path d="M43.6384 321.263C42.2586 323.576 41.2867 325.397 40.1287 327.087C39.0295 328.695 37.8945 330.343 36.4887 331.673C32.9758 334.978 28.2267 333.838 26.4752 329.36C23.4842 321.725 26.6057 313.638 30.8524 309.422C33.8173 306.474 37.5259 306.655 41.2117 307.477C42.3109 307.722 43.0871 307.867 44.2124 307.329C46.4956 306.242 48.0058 307.473 47.8003 310.019C47.2165 317.644 48.2439 324.955 51.7959 331.83C52.1221 332.459 52.1808 333.644 51.7959 334.123C50.9577 335.213 49.6236 334.794 48.9811 333.92C47.6817 332.197 46.5871 330.329 45.7193 328.351C44.8419 326.285 44.4179 324.011 43.6384 321.263ZM41.1171 315.001C38.1163 312.623 36.5245 312.311 34.4697 313.69C30.3044 316.497 28.5366 322.259 30.3827 327.018C31.4199 329.698 32.7149 330.091 34.5512 327.844C37.5813 324.146 40.0962 320.081 41.179 315.312C41.2019 315.21 41.1399 315.096 41.1171 315.001Z" fill="#F26837"/>
<path d="M89.5176 250.428C89.6736 252.704 89.1344 254.328 88.0425 255.769C86.0383 258.399 84.102 261.116 81.9181 263.615C78.2963 267.761 73.4198 266.873 71.3411 261.803C70.0875 258.836 69.9271 255.541 70.8867 252.474C71.7073 249.817 73.1893 247.712 76.438 247.488C77.0823 247.446 77.7096 247.16 78.5778 246.89C78.4823 246.139 78.3304 245.396 78.1234 244.667C75.9259 238.8 74.0269 232.862 73.5589 226.581C73.4359 225.392 73.5173 224.192 73.7997 223.029C74.3558 221.037 76.1734 220.662 77.6113 222.247C78.2578 222.99 78.6948 223.883 78.8796 224.838C79.4629 228.067 80.1479 231.31 80.3107 234.568C80.6159 240.596 83.7018 245.565 86.1434 250.961L89.5176 250.428ZM75.953 258.169C75.9903 258.685 75.9836 259.123 76.0582 259.55C76.3973 261.553 77.5028 262.026 78.9813 260.678C80.0011 259.676 80.9187 258.58 81.7214 257.406C82.3996 256.489 82.3725 255.321 81.3246 254.871C80.1387 254.34 78.8213 254.147 77.5265 254.315C76.9229 254.42 76.4888 255.788 76.1192 256.64C75.8954 257.117 75.9768 257.709 75.9361 258.169H75.953Z" fill="#F26837"/>
<path d="M123.842 322.052C122.515 323.8 121.682 325.05 120.683 326.155C118.11 329.008 114.971 329.781 112.183 328.192C111.335 327.724 110.654 327.013 110.231 326.155C108.764 322.679 108.223 319.098 109.687 315.456C110.45 313.552 111.107 311.586 112.08 309.786C114.174 305.92 117.234 305.26 121.137 307.636C121.396 307.791 121.685 307.899 122.067 308.077C122.326 306.81 122.508 305.65 122.807 304.523C123.106 303.395 123.803 302.573 125.13 302.655C126.405 302.729 127.228 303.46 127.327 304.676C127.54 307.246 127.991 309.874 127.659 312.395C127.032 317.383 128.273 322.035 129.564 326.724C129.677 327.136 129.873 327.53 130.029 327.936C130.361 328.819 130.397 329.645 129.438 330.184C129.231 330.324 128.995 330.419 128.747 330.464C128.499 330.508 128.244 330.501 127.999 330.442C127.754 330.383 127.525 330.274 127.326 330.122C127.127 329.97 126.964 329.779 126.846 329.56C125.956 328.087 125.161 326.56 124.466 324.989C124.201 324.332 124.164 323.556 123.842 322.052ZM114.772 324.651C117.297 324.16 118.27 322.701 119.02 321.165C119.873 319.423 120.497 317.591 121.23 315.781C121.665 314.715 121.987 313.455 120.676 313.013C119.823 312.727 118.383 312.954 117.712 313.523C115.203 315.657 113.945 318.513 113.909 321.775C113.912 322.662 114.426 323.553 114.772 324.651Z" fill="#F26837"/>
<path d="M178.445 301.9C179.255 300.718 179.87 299.797 180.516 298.898C181.509 297.508 182.574 295.98 184.587 296.257C186.77 296.554 188.43 297.736 189.034 299.929C189.383 301.203 189.879 302.458 190.051 303.749C191.008 310.96 191.553 318.194 191.148 325.472C191.078 326.723 191.071 327.915 189.328 328.351C187.909 327.671 187.811 326.287 187.661 325.026C187.133 320.549 186.697 316.061 186.215 311.581C185.956 309.174 185.725 306.767 185.376 304.373C185.278 303.696 184.81 303.052 184.167 301.672C183.269 303.448 182.613 304.545 182.148 305.707C180.31 310.283 179.933 315.117 179.315 319.905C179.087 321.685 178.266 323.477 177.362 325.076C176.596 326.419 175.084 326.36 174.326 325.003C173.67 323.848 173.298 322.568 173.235 321.259C173.124 315.662 173.19 310.059 173.183 304.459C173.183 303.917 173.134 303.376 173.096 302.834C172.942 300.668 173.773 300.038 175.933 300.754C176.684 301.018 177.383 301.414 178.445 301.9Z" fill="#F26837"/>
<path d="M42.4321 249.874C42.3493 245.79 43.988 242.3 46.7514 239.263C49.263 236.505 54.1033 235.507 57.7914 236.839C61.4794 238.171 64.2393 241.96 63.8012 245.78C63.1905 251.125 61.1447 256.07 57.4636 260.212C53.9688 264.146 49.2078 263.887 45.7337 259.865C43.4877 257.259 42.5563 254.427 42.4321 249.874ZM47.6726 250.911C47.8727 253.033 47.921 254.932 49.2113 256.602C51.0812 259.022 52.6958 259.282 54.7312 257C57.3995 254.017 59.2244 250.45 60.0373 246.63C60.3823 245.038 59.6923 244.085 57.988 243.428C54.6691 242.131 53.9895 242.193 52.468 245.236C51.9195 246.335 51.7781 247.68 51.7539 248.921C51.7056 250.428 51.019 251.118 49.4803 251.105C48.879 251.071 48.2801 251.006 47.6864 250.911H47.6726Z" fill="#F26837"/>
<path d="M155.471 230.354C158.937 229.873 161.901 227.949 164.832 230.07C164.868 231.947 163.546 232.334 162.396 232.879C160.467 233.794 158.538 234.759 156.571 235.634C154.79 236.433 154.276 237.885 154.568 239.702C154.81 241.464 155.176 243.204 155.664 244.909C157.243 249.966 160.033 251.74 165.154 251.038C166.118 252.648 165.324 253.71 164.067 254.582C162.2 255.875 160.21 255.684 158.21 254.966C153.781 253.36 151.832 249.666 150.762 245.28C150.498 244.205 150.392 243.086 150.068 242.034C149.489 240.163 148.962 239.906 147.245 240.494C146.638 240.701 146.078 241.099 145.464 241.222C144.089 241.506 142.893 241.169 142.25 239.739C141.966 239.018 141.947 238.213 142.199 237.479C142.45 236.745 142.954 236.133 143.613 235.761C144.673 235.229 145.775 234.795 146.908 234.462C148.676 233.911 149.479 232.765 149.627 230.831C149.737 228.838 150.042 226.862 150.537 224.933C151.145 222.718 152.373 222.02 154.073 222.455C155.947 222.939 156.815 224.245 156.526 226.463C156.343 227.625 155.902 228.754 155.471 230.354Z" fill="#F26837"/>
<path d="M111.724 241.682C111.714 242.47 111.754 243.259 111.845 244.042C112.576 248.549 111.137 252.553 108.869 256.305C106.307 260.55 101.51 261.057 98.3128 257.2C96.544 255.076 95.1966 252.641 94.341 250.024C93.1233 246.153 92.5094 242.086 91.7748 238.093C91.3924 236.005 92.3316 234.53 93.9317 234.179C95.7398 233.784 97.2393 234.841 97.8062 236.949C97.9252 237.374 97.9983 237.809 98.0243 238.249C98.1283 240.777 98.1819 243.306 98.3027 245.832C98.4335 248.662 99.2889 251.254 101.214 253.401C103.194 255.612 105.317 255.354 105.783 252.546C106.692 247.081 108.98 241.682 107.249 235.975C107.155 235.643 106.998 235.252 107.118 235.01C107.484 234.295 107.856 233.244 108.46 233.072C109.064 232.899 110.184 233.493 110.537 234.066C111.895 236.31 112.204 238.819 111.724 241.682Z" fill="#F26837"/>
<path d="M118.462 246.877C119.14 239.741 121.23 234.029 125.406 229.122C126.763 227.536 128.459 226.506 130.688 226.625C132.588 226.724 133.66 227.652 133.935 229.38C134.21 231.109 133.114 231.668 131.621 231.98C130.959 232.108 130.35 232.423 129.871 232.887C125.993 237.059 122.879 241.592 123.517 247.606C123.656 248.807 123.993 249.979 124.514 251.076C125.986 254.222 128.281 254.963 131.397 253.298C133.172 252.351 134.837 251.205 136.54 250.126C137.297 249.649 137.972 249.013 138.783 248.659C139.315 248.424 140.248 248.328 140.584 248.609C140.92 248.891 141.083 249.934 140.821 250.361C138.057 254.778 134.284 257.977 128.86 258.696C125.559 259.126 121.373 256.533 120.233 253.431C119.368 251.076 118.91 248.579 118.462 246.877Z" fill="#F26837"/>
<path d="M67.87 307.494C64.9762 310.813 62.3761 314.357 61.1853 318.8C60.4251 321.633 60.9863 324.414 62.0596 327.034C63.0938 329.565 66.0496 330.902 68.6139 330.002C70.1342 329.464 71.5109 328.492 72.9823 327.785C73.9904 327.301 75.0507 326.932 76.0914 326.513L76.6982 327.105C76.372 328.076 76.2643 329.257 75.6575 329.985C71.5076 334.946 66.0333 336.53 60.324 332.455C57.9326 330.746 57.1562 327.948 56.6994 325.132C56.0796 321.291 56.184 317.46 57.8641 313.893C59.4268 310.57 60.9243 307.159 62.9372 304.133C65.5276 300.231 69.5176 300.925 71.3086 305.351C71.7589 306.458 73.4096 307.592 71.7947 308.847C70.4539 309.893 69.7818 308.011 68.7248 307.673C68.6139 307.643 68.5192 307.629 67.87 307.494Z" fill="#F26837"/>
<path d="M26.3628 252.659C26.721 246.744 28.5869 241.024 31.777 236.064C32.3935 235.136 33.1332 234.298 33.9752 233.575C36.9293 231.006 41.0504 231.582 43.1657 234.87C43.4708 235.343 43.6233 236.27 43.368 236.661C43.1127 237.052 42.2573 237.13 41.6539 237.282C41.4326 237.297 41.212 237.244 41.0206 237.13C39.6944 236.55 38.3218 235.879 36.9624 236.917C35.255 238.216 33.6701 239.804 33.4215 242.006C32.9472 245.99 32.6959 249.999 32.6688 254.012C32.6688 256.534 32.944 259.202 35.8385 260.51C36.2629 260.702 36.5513 262.176 36.2894 262.787C35.1555 265.464 32.0787 265.967 29.9899 263.872C27.7056 261.572 26.4357 258.794 26.5087 255.442C26.5518 254.784 26.449 254.113 26.3628 252.659Z" fill="#F26837"/>
<path d="M159.156 317.555C159.394 315.13 159.373 312.643 159.946 310.295C160.532 307.886 162.308 307.368 164.388 308.781C164.725 309.044 165.005 309.371 165.209 309.742C165.413 310.114 165.537 310.521 165.574 310.941C165.618 312.499 165.454 314.056 165.088 315.574C164.309 318.607 164.212 321.768 164.802 324.842C164.858 325.058 164.9 325.277 164.926 325.498C165.019 326.844 164.678 327.967 163.129 328.284C161.58 328.6 160.715 327.769 160.273 326.49C159.878 325.333 159.628 324.134 159.528 322.918C159.404 321.145 159.494 319.355 159.494 317.575L159.156 317.555Z" fill="#F26837"/>
<path d="M163.239 303.72C160.593 303.617 157.996 300.916 158.086 298.92C158.131 297.892 158.628 297.281 159.798 297.295C162.086 297.326 164.687 299.63 164.5 301.787C164.43 302.544 163.562 303.247 163.239 303.72Z" fill="#F26837"/>
</svg>
