<svg width="255" height="324" viewBox="0 0 255 324" fill="none" xmlns="http://www.w3.org/2000/svg">
<path d="M4.03661 246.015C5.65589 250.178 6.23497 250.532 9.92751 248.876C12.7744 247.552 15.5305 246.04 18.1777 244.351C19.4717 243.557 20.4834 242.33 20.0365 240.209C19.293 239.952 18.4136 239.605 17.5092 239.347C16.1544 238.957 14.7569 238.707 13.4236 238.274C8.24041 236.528 5.13413 232.78 3.80796 227.625C2.40315 222.167 7.65063 214.873 13.2734 214.168C15.0143 213.947 16.3225 214.551 16.8229 215.803C17.3233 217.055 16.7979 218.332 15.2286 219.344C14.4136 219.87 13.4664 220.181 12.605 220.639C7.70063 223.222 6.88555 228.04 10.9177 231.835C12.2832 233.119 14.1348 234.003 15.9221 234.697C18.8104 235.809 21.8201 236.607 25.0158 237.616C25.5055 236.775 25.956 235.276 26.9569 234.436C29.334 232.447 31.7897 230.383 34.5529 229.07C37.9523 227.443 41.552 229.152 43.3214 232.536C46.9175 239.426 43.475 250.257 36.5796 253.895C34.8817 254.789 33.2445 254.692 31.5752 253.991C28.6119 252.754 26.6316 250.522 25.309 247.66C24.9015 246.78 24.5762 245.871 24.0508 244.566C21.5486 249.795 17.5701 252.743 12.2904 253.659C9.30117 254.159 6.26617 254.332 3.23948 254.174C0.179637 254.027 -0.960669 251.223 0.901689 248.769C1.6452 247.764 2.78908 247.088 4.03661 246.015ZM29.6628 238.435C27.636 243.217 28.5905 247.127 31.9541 249.47C33.5341 250.568 34.9676 250.654 36.4046 249.47C40.0506 246.48 42.081 242.695 41.8022 237.87C41.8111 237.323 41.6633 236.786 41.3767 236.321C40.6618 235.448 39.9469 234.35 38.9639 233.985C37.6627 233.499 36.4616 234.239 35.7467 235.541C35.1641 236.582 34.4849 237.566 33.8772 238.592C33.1194 239.876 32.1972 240.202 30.9568 239.2C30.5424 238.92 30.1101 238.666 29.6628 238.442V238.435Z" fill="#F26837"/>
<path d="M159.862 226.903C159.446 227.643 159.088 228.415 158.79 229.21C157.674 232.954 156.602 236.709 155.572 240.474C155.355 241.196 155.306 241.958 155.429 242.702C155.851 244.731 154.968 246.337 153.9 247.853C152.831 249.37 151.136 249.213 150.379 247.471C150.063 246.781 149.954 246.014 150.064 245.264C150.65 242.566 149.893 240.109 149.02 237.627C148.23 235.377 147.558 233.08 146.775 230.83C146.434 230.024 146.045 229.239 145.61 228.48C145.142 229.049 144.813 229.264 144.77 229.521C143.991 234.329 143.235 239.14 142.504 243.954C142.425 244.484 142.679 245.117 142.472 245.557C142.175 246.186 141.635 247.084 141.128 247.134C140.413 247.202 139.19 246.748 139.015 246.233C138.547 244.852 138.175 243.271 138.382 241.862C139.312 235.634 140.391 229.425 141.56 223.236C141.953 221.137 142.071 219.255 140.995 217.266C140.062 215.542 140.817 214.684 142.851 214.741C148.434 214.898 148.295 214.92 149.045 220.614C149.539 224.363 150.475 228.058 151.294 231.76C151.494 232.662 151.987 233.499 152.416 234.533C152.87 234.132 153.224 233.975 153.285 233.738C154.357 229.532 155.451 225.329 156.416 221.097C156.831 219.266 157.224 217.549 158.808 216.272C159.426 215.767 159.715 214.841 160.08 214.043C160.673 212.781 161.681 212.255 162.986 212.484C164.441 212.731 164.416 213.997 164.366 215.056C164.008 221.298 165.006 227.404 166.153 233.495C166.65 236.153 167.386 238.768 167.941 241.415C168.173 242.488 168.223 243.629 168.427 245.349C167.165 244.795 166.282 244.695 165.964 244.219C164.891 242.624 163.694 241 163.158 239.19C162.325 236.396 162.003 233.449 161.449 230.569C161.213 229.339 160.945 228.115 160.688 226.888L159.862 226.903Z" fill="#F26837"/>
<path d="M243.568 225.218C243.568 224.077 243.533 222.932 243.568 221.791C243.636 220.045 244.405 219.033 245.681 219.055C247.218 219.083 247.618 220.213 247.793 221.469C247.875 222.006 247.898 222.551 247.861 223.093C247.297 229.857 249.227 236.199 251.204 242.52C251.618 243.85 252.369 245.077 252.991 246.336C253.327 247.016 253.902 247.631 254.035 248.34C254.153 248.973 253.809 249.688 253.677 250.371C253.084 250.246 252.23 250.328 251.933 249.964C250.442 248.136 248.898 246.297 247.758 244.24C246.771 242.452 246.31 240.391 245.588 238.463C245.373 237.891 245.063 237.358 244.648 236.507C243.54 238.077 242.735 239.497 241.667 240.678C239.786 242.749 237.924 244.913 235.722 246.608C231.876 249.577 227.608 248.343 225.602 243.89C223.458 239.168 223.386 234.429 225.913 229.8C226.85 228.094 227.915 226.452 228.97 224.792C230.639 222.195 233.141 221.437 236.029 221.891C238.614 222.295 241.202 222.825 242.696 225.518L243.568 225.218ZM228.469 236.306C228.616 237.605 228.691 238.578 228.827 239.526C228.919 240.167 229.07 240.798 229.277 241.411C230.21 244.072 231.686 244.63 233.924 242.978C237.499 240.374 240.001 236.843 241.91 232.923C242.077 232.538 242.166 232.124 242.171 231.704C242.177 231.285 242.099 230.869 241.942 230.48C241.08 228.691 235.729 227.028 234.024 228.201C231.224 230.104 229.242 232.991 228.469 236.289V236.306Z" fill="#F26837"/>
<path d="M101.157 295.467C102.133 294.394 102.587 293.815 103.13 293.3C104.918 291.568 106.898 291.726 108.335 293.782C108.837 294.492 109.193 295.295 109.382 296.143C109.826 298.264 110.308 300.407 110.437 302.56C110.676 306.57 110.708 310.598 110.759 314.619C110.759 315.899 110.658 317.219 108.95 318.264C108.56 317.366 108.067 316.679 107.981 315.942C107.477 311.628 107.094 307.3 106.608 302.986C106.433 301.402 106.087 299.835 105.74 297.785C104.02 298.941 103.953 300.321 103.624 301.616C102.805 304.757 101.915 307.879 100.975 310.984C100.803 311.557 100.26 312.018 99.856 312.587C97.7899 312.007 97.4359 310.537 97.4109 308.802C97.3537 304.779 97.2739 300.758 97.1714 296.737C97.1357 295.496 96.9748 294.258 96.8354 292.613C94.9994 293.707 93.6533 295.465 93.075 297.524C91.7631 301.874 89.9865 306.109 89.89 310.788C89.8578 312.351 88.7497 313.892 88.0849 315.574C85.84 314.762 85.143 313.374 85.1716 311.639C85.2252 308.166 85.4397 304.7 85.5291 301.226C85.5755 299.502 85.672 297.749 85.4432 296.047C85.0142 292.852 85.7364 291.983 88.8356 292.445C89.3646 292.523 89.8793 292.706 90.6229 292.895C91.4307 291.976 92.26 291 93.1251 290.055C94.5049 288.556 96.0526 287.322 98.251 288.034C100.396 288.725 100.65 290.635 100.864 292.516C100.932 293.264 101.003 294.011 101.157 295.467Z" fill="#F26837"/>
<path d="M4.13635 308.373C4.47236 303.268 7.1819 298.035 12.3579 294.201C15.0317 292.219 17.4195 292.512 19.9003 294.773C21.5661 296.29 23.2926 297.756 24.801 299.423C26.5883 301.398 26.9994 303.923 26.5669 306.452C25.784 311.063 24.4865 315.512 21.9628 319.547C19.214 323.933 15.171 325.081 10.2774 321.965C6.26669 319.408 4.17567 314.987 4.13635 308.373ZM10.1487 304.206C9.50531 305.579 8.60448 306.76 8.40787 308.047C7.81449 311.932 9.0621 315.341 11.8824 318.063C14.474 320.567 17.1692 320.349 18.7599 317.129C20.2812 314.032 21.4181 310.759 22.1451 307.386C22.5025 305.765 21.6518 303.808 21.0727 302.102C20.8511 301.458 19.6928 300.564 19.1995 300.693C17.7018 301.086 15.7895 301.551 15.0102 302.667C13.7198 304.517 12.3721 304.957 10.1487 304.206Z" fill="#F26837"/>
<path d="M37.1397 313.32C36.6106 315.906 37.4971 318.092 38.6159 320.227C39.1342 321.218 39.152 322.094 38.0904 322.731C37.0824 323.35 36.1887 323.089 35.4845 322.259C35.0511 321.773 34.727 321.2 34.5338 320.578C33.9225 318.278 33.2398 315.974 32.8966 313.627C32.4283 310.408 32.2602 307.142 31.9314 303.902C31.8206 302.828 31.7992 301.684 31.4132 300.682C29.7188 296.39 31.556 293.006 34.3084 290.044C36.7928 287.372 40.1387 286.303 43.7455 286.306C48.3138 286.306 51.2521 289.257 51.4523 293.818C51.7883 301.87 46.4478 309.811 38.9233 312.519C38.3228 312.769 37.7509 313.055 37.1397 313.32ZM36.5284 304.635H36.2638C36.2638 304.96 36.2424 305.286 36.2638 305.611C36.4318 307.632 37.2575 308.115 39.027 307.135C40.1887 306.544 41.2953 305.849 42.3335 305.06C45.7508 302.299 47.4094 298.561 47.5953 294.272C47.724 291.321 46.1476 290.162 43.2308 290.541C41.4841 290.735 39.8604 291.535 38.6428 292.803C37.4252 294.071 36.6909 295.727 36.5677 297.481C36.3782 299.856 36.5284 302.249 36.5284 304.635Z" fill="#F26837"/>
<path d="M199.529 232.919C199.211 231.413 199.05 230.469 198.815 229.546C197.194 223.358 195.564 217.172 193.924 210.988C193.603 209.783 193.342 208.563 194.682 207.844C195.69 207.304 197.431 208.316 198.071 209.718C198.264 210.225 198.414 210.746 198.518 211.278C200.019 217.151 201.521 223.025 203.022 228.898C203.257 230.068 203.588 231.217 204.012 232.332C204.609 233.681 205.206 235.165 206.225 236.163C207.451 237.365 207.587 238.456 206.525 239.504C203.833 242.158 201.084 244.766 198.196 247.195C196.28 248.808 193.946 248.908 191.823 247.552C189.699 246.197 188.623 244.047 188.573 241.507C188.596 240.426 188.715 239.348 188.931 238.288C189.646 233.938 192.034 232.136 196.438 232.615L199.529 232.919ZM200.03 240.073C199.905 239.772 199.783 239.468 199.672 239.164C198.425 239.107 197.17 238.953 195.926 239.011C194.682 239.068 193.832 239.923 193.896 241.117C193.955 242.05 194.353 242.93 195.015 243.589C195.916 244.369 196.856 243.589 197.549 242.874C198.411 241.994 199.201 241.007 200.03 240.073Z" fill="#F26837"/>
<path d="M205.182 304.352C205.839 299.909 206.905 294.512 211.115 290.402C214.972 286.639 221.532 288.255 223.301 293.396C224.577 297.087 224.82 300.782 223.405 304.549C222.096 308.015 220.845 311.47 218.175 314.207C214.475 317.984 210.669 317.712 207.555 313.412C205.886 311.084 205.103 308.487 205.182 304.352ZM219.837 297.23C218.797 296.965 217.864 296.722 216.928 296.49C215.237 296.075 213.9 296.575 213.142 298.16C211.834 300.907 210.729 303.704 211.316 306.874C211.502 307.704 211.515 308.563 211.355 309.399C211.058 310.626 211.298 311.545 212.359 312.178C213.51 312.894 214.372 312.268 215.251 311.538C217.796 309.424 218.894 306.502 219.755 303.472C220.313 301.515 220.935 299.512 219.837 297.23Z" fill="#F26837"/>
<path d="M132.277 312.043C133.281 311.825 134.293 311.646 135.283 311.385C137.07 310.912 138.829 310.376 140.606 309.893C141.12 309.753 141.728 309.514 142.167 309.671C142.8 309.9 143.522 310.344 143.808 310.898C143.966 311.206 143.451 312.2 142.997 312.422C138.143 314.833 133.321 317.43 127.669 317.305C124.87 317.247 123.716 314.979 125.335 312.586C127.151 309.897 129.163 307.335 131.011 304.667C132.967 301.841 134.793 298.944 135.601 294.691C134.089 295.624 133.181 296.304 132.18 296.783C130.847 297.416 129.46 298.232 128.055 298.328C127.086 298.396 125.789 297.613 125.088 296.794C123.601 295.095 124.248 293.12 126.461 292.591C130.13 291.655 133.847 290.919 137.596 290.387C139.558 290.141 141.628 290.745 143.522 290.92C144.755 293.228 143.683 294.626 142.554 296.179C138.943 301.158 135.458 306.227 131.923 311.259L132.277 312.043Z" fill="#F26837"/>
<path d="M159.538 292.709C159.863 292.019 159.963 291.357 160.339 291.103C160.986 290.667 161.843 290.198 162.541 290.291C163.084 290.359 163.788 291.185 163.945 291.8C164.209 292.965 164.317 294.159 164.267 295.352C164.202 301.114 165.13 306.844 167.012 312.29C167.248 312.98 167.181 314.236 166.734 314.608C165.726 315.452 164.846 314.432 164.382 313.66C163.525 312.171 162.771 310.626 162.126 309.035C161.797 308.276 161.672 307.428 161.293 306.03C160.535 307.217 160.11 307.908 159.66 308.58C158.691 310.011 157.872 311.592 156.707 312.844C153.636 316.138 148.968 315.051 147.874 310.673C147.259 308.194 146.87 305.425 147.334 302.968C147.888 300.06 149.175 297.177 150.687 294.598C152.432 291.622 154.262 291.242 157.643 292.18L159.538 292.709ZM151.106 306.441C151.195 307.017 151.198 307.918 151.502 308.705C151.745 309.339 152.285 310.201 152.814 310.294C153.343 310.387 154.362 309.879 154.669 309.346C155.956 307.107 157.132 304.792 158.197 302.438C158.598 301.559 158.744 300.585 158.619 299.627C158.28 297.599 156.064 296.866 154.73 298.386C152.796 300.589 151.17 303.029 151.106 306.441Z" fill="#F26837"/>
<path d="M248.641 308.426C246.304 307.997 245.936 306.423 245.607 305.014C244.845 301.737 244.252 298.421 243.573 295.123C243.448 294.522 243.258 293.936 242.965 292.859C240.398 297.931 239.469 302.928 238.486 307.882C237.828 311.22 237.678 311.588 235.326 313.695C233.589 313.337 232.849 311.992 232.617 310.476C232.098 307.053 231.659 303.612 231.383 300.16C231.065 296.164 230.983 292.151 230.744 288.148C230.633 286.299 231.129 285.319 232.445 285.161C232.796 285.116 233.152 285.144 233.492 285.243C233.832 285.342 234.148 285.51 234.419 285.736C234.691 285.963 234.913 286.243 235.072 286.56C235.23 286.876 235.322 287.222 235.34 287.576C235.551 289.611 235.501 291.675 235.537 293.725C235.562 295.309 235.537 296.897 236.059 298.707C236.81 297.112 237.56 295.518 238.311 293.925C239.101 292.258 239.855 290.577 240.702 288.939C241.335 287.726 242.264 286.792 243.787 286.989C244.449 287.049 245.072 287.327 245.558 287.781C246.044 288.234 246.366 288.837 246.472 289.493C247.158 292.895 247.762 296.314 248.305 299.738C248.583 301.563 248.768 303.402 248.86 305.246C248.913 306.233 248.731 307.242 248.641 308.426Z" fill="#F26837"/>
<path d="M186.691 241.207C188.049 242.638 187.881 243.711 187.145 244.591C185.857 246.19 184.443 247.681 182.916 249.052C181.211 250.515 179.377 250.508 177.554 249.241C175.359 247.721 173.643 245.786 173.05 243.082C172.668 241.325 172.221 239.687 170.101 239.261C169.693 239.111 169.331 238.857 169.05 238.525C167.527 237.047 167.899 235.463 169.919 234.88C170.62 234.737 171.331 234.645 172.046 234.604C172.364 232.637 172.596 230.72 172.993 228.838C173.465 226.613 173.904 224.356 174.673 222.224C175.745 219.244 178.644 217.764 181.107 218.647C183.57 219.531 185.375 222.965 184.156 225.694C182.702 228.833 180.944 231.821 178.905 234.615C177.143 237.097 176.314 239.583 177.118 242.531C178.144 246.24 180.056 246.848 182.966 244.409C184.181 243.382 185.379 242.334 186.691 241.207Z" fill="#F26837"/>
<path d="M93.1869 243.794C92.0609 245.385 91.4783 246.426 90.6847 247.274C89.3693 248.705 88.0966 250.264 86.4881 251.27C83.5569 253.101 80.5435 251.928 79.5176 248.633C79.0088 246.985 78.8147 245.256 78.9457 243.536C79.2781 239.426 81.1584 235.846 83.5319 232.569C84.1467 231.665 84.9817 230.932 85.958 230.44C86.9343 229.948 88.0196 229.713 89.1118 229.757C90.8991 229.804 92.6292 230.859 94.5309 229.997C94.8026 229.875 95.9607 230.934 96.1609 231.61C96.5184 232.719 96.4218 233.96 96.5004 235.148C96.7756 239.254 97.0402 243.375 98.8454 247.174C99.0277 247.56 99.2743 248.032 99.2028 248.404C99.0705 249.084 98.8776 250.053 98.4093 250.282C97.9411 250.511 96.9045 250.189 96.4576 249.76C95.782 249.106 95.3602 248.168 94.8955 247.313C94.3951 246.373 93.9698 245.41 93.1869 243.794ZM84.2218 248.086C88.1539 245.543 89.6372 241.855 91.5318 238.514C91.9822 237.713 91.8356 236.575 91.9857 235.445C87.6355 235.223 86.0341 238.024 84.5221 240.768C83.3353 242.914 82.4524 245.221 84.2218 248.075V248.086Z" fill="#F26837"/>
<path d="M63.5888 228.419C63.4029 230.659 62.2518 230.991 60.6289 230.877C56.561 230.591 52.3825 233.198 50.8239 236.911C50.1211 238.516 49.9483 240.303 50.3309 242.012C50.7134 243.721 51.6312 245.264 52.9507 246.415C55.7675 248.951 58.4234 249.037 61.4117 246.619C63.4349 244.981 65.3974 243.271 67.3991 241.611C67.5903 241.514 67.7972 241.451 68.0104 241.425C69.1471 242.048 68.6181 242.956 68.2642 243.668C66.6413 246.948 64.2892 249.67 61.115 251.459C56.8041 253.895 50.3342 251.659 47.6747 246.973C45.8266 243.715 45.3512 240.324 46.5201 236.632C47.8034 232.576 50.452 229.693 53.7121 227.232C54.455 226.668 55.3236 226.293 56.2432 226.139C57.1628 225.985 58.1059 226.057 58.9917 226.348C60.6074 226.835 62.0982 227.725 63.5888 228.419Z" fill="#F26837"/>
<path d="M64.2273 297.223C65.2497 297.642 66.1719 297.896 66.9547 298.375C67.5195 298.733 67.8984 299.377 68.3631 299.892C67.834 300.353 67.3693 300.94 66.7616 301.251C65.5713 301.863 63.5802 301.552 63.3836 303.276C63.1012 305.747 63.3264 308.284 65.0208 310.369C65.7357 311.252 66.6544 311.374 67.6124 310.727C67.9698 310.48 68.3023 310.201 68.6383 309.925C69.4926 309.235 70.5507 308.917 71.1763 309.897C71.498 310.405 71.2192 311.592 70.8188 312.208C69.7465 313.853 68.4167 315.459 66.1719 315.259C63.5231 315.023 61.4177 313.671 60.2953 311.231C59.6733 309.879 59.4553 308.33 59.1407 306.853C58.5759 304.234 58.5865 304.095 55.9806 304.406C54.3685 304.599 53.2175 304.213 52.3525 302.918C51.3981 301.487 51.7519 299.72 53.3604 299.581C58.0467 299.169 59.3837 296.215 59.8198 292.219C59.9518 291.473 60.3027 290.783 60.8278 290.238C62.179 288.76 64.195 289.096 65.0529 290.903C65.7678 292.434 66.0932 293.979 64.9958 295.521C64.6991 295.921 64.5669 296.451 64.2273 297.223Z" fill="#F26837"/>
<path d="M175.565 304.678C174.913 304.378 174.29 304.018 173.703 303.605C172.369 302.532 172.098 301.079 173.427 299.988C176.591 297.388 175.715 294.176 175.122 291.003C174.711 288.792 175.007 287.912 176.72 287.526C178.432 287.14 179.726 287.984 180.119 290.03C180.407 291.414 180.559 292.823 180.573 294.237C180.555 296.061 181.434 296.794 183.118 296.876C183.769 296.909 184.487 296.819 185.048 297.073C185.856 297.431 186.986 297.925 187.193 298.601C187.551 299.785 186.367 300.135 185.406 300.418C184.162 300.775 182.904 301.158 181.692 301.584C180.409 302.031 179.754 302.979 179.876 304.342C180.119 307.042 180.344 309.75 180.72 312.436C180.87 313.485 181.213 314.432 182.864 314.225C184.108 314.06 184.652 315.198 184.294 316.432C183.651 318.546 180.877 319.551 179.358 317.931C178.129 316.584 177.251 314.955 176.802 313.188C176.094 310.455 175.951 307.604 175.565 304.678Z" fill="#F26837"/>
<path d="M97.2527 213.493C97.6101 213.06 98.0035 212.141 98.7077 211.743C99.9373 211.053 101.181 211.658 101.764 212.774C102.453 214.004 102.869 215.368 102.986 216.773C103.369 225.744 105.56 234.372 107.705 243.017C108.182 244.798 108.519 246.614 108.713 248.447C108.774 249.163 108.091 249.914 107.748 250.651C107.079 250.239 106.132 249.982 105.792 249.381C105.092 248.035 104.521 246.625 104.087 245.171C101.228 236.586 99.5976 227.726 98.2643 218.801C98.0248 217.195 97.6602 215.61 97.2527 213.493Z" fill="#F26837"/>
<path d="M194.976 302.996C194.976 300.932 194.976 298.868 194.976 296.808C194.998 294.279 195.927 293.124 197.746 293.335C199.648 293.553 201.321 295.638 200.964 297.538C200.693 299.142 200.283 300.72 199.737 302.252C198.403 305.726 198.323 309.557 199.512 313.083C199.641 313.498 199.898 313.928 199.87 314.328C199.82 314.933 199.723 315.874 199.362 316.035C198.794 316.288 197.793 316.278 197.321 315.92C195.337 314.428 194.851 312.136 194.694 309.839C194.536 307.543 194.662 305.275 194.662 302.993L194.976 302.996Z" fill="#F26837"/>
<path d="M78.4075 317.029C76.4343 317.14 75.8695 315.809 75.7194 314.361C75.362 311.023 75.0974 307.672 74.983 304.32C74.9685 302.368 75.0988 300.418 75.3728 298.486C75.4657 297.656 75.6765 296.697 76.1949 296.1C76.7132 295.503 77.7212 295.113 78.3754 295.263C79.0295 295.413 79.6479 296.286 79.8981 296.984C80.1483 297.681 79.9445 298.486 79.7944 299.216C78.9901 303.075 78.933 306.946 79.2619 310.87C79.4335 312.923 80.1448 315.198 78.4075 317.029Z" fill="#F26837"/>
<path d="M120.452 302.199C120.81 304.556 121.089 306.917 121.507 309.26C121.925 311.603 121.689 312.723 120.481 312.837C118.694 313.03 118.025 311.685 117.571 310.315C117.271 309.277 117.057 308.216 116.931 307.143C116.474 304.149 116.066 301.147 115.605 298.153C115.43 297.034 115.248 295.932 116.599 295.413C117.95 294.895 120.142 295.718 120.413 296.987C120.771 298.665 120.796 300.411 120.964 302.124L120.452 302.199Z" fill="#F26837"/>
<path d="M71.2432 245.221C71.3755 242.627 71.4576 240.027 71.6578 237.437C71.8258 235.266 72.5158 234.55 74.0207 234.715C75.7186 234.894 76.2513 235.824 76.0296 238.074C75.7472 240.982 75.4933 243.894 75.2466 246.802C75.143 247.982 75.3038 249.474 73.6309 249.474C72.1153 249.474 71.4862 248.222 71.2396 246.834C71.1502 246.305 71.1467 245.761 71.1038 245.221H71.2432Z" fill="#F26837"/>
<path d="M214.915 236.797C214.915 238.424 215.051 240.066 214.854 241.668C214.769 242.384 214.089 243.457 213.543 243.536C212.899 243.643 211.995 242.985 211.423 242.434C210.981 241.945 210.745 241.304 210.765 240.645C210.926 237.523 211.187 234.4 211.455 231.284C211.555 230.136 212.249 229.496 213.421 229.6C214.594 229.703 215.14 230.526 215.187 231.596C215.258 233.32 215.205 235.054 215.205 236.782L214.915 236.797Z" fill="#F26837"/>
<path d="M199.397 290.867C196.327 289.826 194.332 287.93 192.573 285.82C192.39 285.619 192.252 285.383 192.166 285.126C192.08 284.868 192.05 284.596 192.077 284.326C192.103 284.056 192.186 283.794 192.321 283.559C192.455 283.323 192.637 283.118 192.856 282.958C196.784 283.713 199.458 286.707 199.397 290.867Z" fill="#F26837"/>
<path d="M76.2996 289.186C74.3836 289.186 71.9636 287.233 71.699 285.855C71.481 284.693 71.9708 283.949 73.1718 283.82C75.0949 283.613 77.4612 285.677 77.3004 287.533C77.2432 288.198 76.5534 288.803 76.2996 289.186Z" fill="#F26837"/>
<path d="M214.774 219.516C213.205 218.708 211.861 218.057 210.559 217.33C209.258 216.604 208.719 215.317 209.326 214.412C210.098 213.267 211.135 213.532 212.186 214C214.613 215.066 215.45 216.712 214.774 219.516Z" fill="#F26837"/>
<path d="M120.116 284.704C118.261 284.589 115.805 280.687 116.459 279.338C116.952 278.326 119.14 278.093 119.816 279.285C120.566 280.601 120.723 282.275 120.984 283.82C121.031 284.099 120.33 284.503 120.116 284.704Z" fill="#F26837"/>
<path d="M72.4951 229.75C71.0867 229.149 69.7821 228.866 68.8813 228.105C68.3344 227.64 68.0233 226.28 68.295 225.601C68.7633 224.442 70.0538 224.527 71.0833 224.96C72.5846 225.586 73.11 227.164 72.4951 229.75Z" fill="#F26837"/>
<path d="M64.5883 26.6932C63.641 26.2425 62.9796 25.8848 62.2861 25.6201C60.7633 25.0013 60.4453 23.896 60.7027 22.3615C61.128 19.7896 61.4426 17.1998 61.775 14.6136C61.8966 13.6013 62.3934 13.0863 63.4014 13.0254C64.6561 12.9539 65.6641 12.378 66.6185 11.5946C67.2295 11.1205 67.928 10.7717 68.6739 10.568C71.723 9.67379 74.7864 8.83318 77.857 8.01405C78.667 7.7601 79.5104 7.6287 80.3592 7.62416C84.6487 7.83163 88.5558 6.30779 92.5486 5.17745C94.785 4.54048 97.0942 4.19424 99.419 4.14727C102.218 4.08646 105.002 3.4319 107.805 3.15647C110.05 2.93827 112.309 2.83094 114.564 2.82379C116.895 2.82379 119.229 2.98473 121.51 2.30868C123.983 1.59327 126.536 1.67912 129.077 1.59327C130.909 1.51845 132.735 1.31769 134.539 0.99236C136.509 0.634658 138.389 0.498747 140.398 0.96376C142.407 1.42877 144.459 1.45024 146.503 1.54681C148.902 1.6577 151.308 1.63265 153.71 1.672C157.374 1.73639 160.923 2.38737 164.008 4.45489C166.51 6.13609 168.966 7.98541 170.314 10.8542C170.587 11.4233 170.826 12.0086 171.028 12.6069C171.947 15.422 172.844 18.2443 173.752 21.063C175.579 26.7218 176.844 32.4808 177.027 38.458C177.066 39.7064 177.456 40.9619 177.677 42.1924C177.988 43.9201 178.392 45.6407 178.582 47.3827C178.875 49.976 179.021 52.5837 179.254 55.1842C179.28 55.6754 179.388 56.1588 179.572 56.615C181.123 60.1097 181.234 63.8906 181.845 67.5785C182.671 72.5863 183.504 77.5942 184.43 82.602C185.045 85.9286 185.834 89.2231 186.539 92.5354C187.475 96.9542 188.407 101.375 189.334 105.799C189.931 108.628 190.599 111.447 191.1 114.294C191.457 116.38 191.665 118.497 191.815 120.608C192.001 122.652 192.075 124.705 192.036 126.757C191.913 131.066 191.262 135.344 190.099 139.494C189.657 141.1 188.887 142.597 187.838 143.889C186.789 145.182 185.484 146.244 184.004 147.006C183.329 147.388 182.675 147.807 182.045 148.262C180.704 149.171 179.208 149.829 177.631 150.204C174.414 151.03 171.307 152.211 168.112 153.098C166.013 153.681 163.822 153.942 161.71 154.45C157.653 155.403 153.516 155.974 149.352 156.156C144.414 156.445 139.535 157.38 134.839 158.936C132.749 159.576 130.625 160.103 128.477 160.513C124.884 161.228 121.281 161.944 117.657 162.48C114.654 162.913 111.608 163.046 108.588 163.342C106.479 163.55 104.373 163.807 102.268 164.058C98.6003 164.476 94.9471 164.687 91.3725 163.41C89.5852 162.766 87.7765 162.133 85.9571 161.557C84.9637 161.272 84.0573 160.743 83.3196 160.018C82.5819 159.294 82.0362 158.397 81.732 157.408C80.6131 153.917 79.6121 150.376 78.8114 146.799C77.26 139.874 76.9634 132.795 76.5595 125.737C76.0233 116.437 75.5622 107.101 74.9403 97.79C74.6579 93.562 74.0357 89.3554 73.6282 85.1345C73.4173 82.9561 73.4353 80.7491 73.1851 78.5743C72.7132 74.4392 72.1519 70.3114 71.5657 66.1871C70.7388 60.3804 69.8797 54.5808 68.9884 48.7884C68.3665 44.7393 67.7552 40.6829 66.9688 36.6624C66.2897 33.257 66.0789 29.7551 64.5883 26.6932ZM63.9304 19.1815C65.2423 19.4319 65.6213 20.1688 65.8643 21.2562C66.4255 23.7958 67.2549 26.264 67.8661 28.8001C68.3809 30.9248 68.7918 33.0925 69.1528 35.2387C69.7284 38.6512 70.2252 42.078 70.7614 45.4976C71.0402 47.2396 71.3941 48.9709 71.6551 50.7165C72.2091 54.4187 72.7096 58.128 73.2636 61.8302C73.8856 66.0189 74.6935 70.1897 75.1439 74.3963C75.8231 80.5774 76.345 86.7764 76.7883 92.9968C77.5723 103.926 78.2872 114.86 78.933 125.798C79.2905 132.011 79.7872 138.203 80.8739 144.341C81.5888 148.387 82.4897 152.372 84.0303 156.196C84.267 156.864 84.6489 157.472 85.1482 157.975C85.6476 158.479 86.2522 158.865 86.9186 159.107C89.0419 159.88 91.1545 160.688 93.2993 161.393C95.2081 162.019 97.1777 162.022 99.1724 161.811C102.683 161.454 106.203 161.193 109.714 160.824C112.795 160.499 115.876 160.145 118.94 159.672C121.86 159.225 124.766 158.649 127.665 158.063C129.946 157.605 132.291 157.272 134.457 156.485C138.316 155.108 142.34 154.246 146.425 153.921C149.449 153.659 152.501 153.502 155.493 153.087C158.843 152.622 162.164 151.928 165.502 151.299C166.053 151.184 166.595 151.033 167.125 150.844C169.466 150.068 171.751 149.024 174.149 148.555C177.584 147.89 180.462 146.273 183.297 144.366C184.976 143.278 186.178 141.589 186.657 139.645C187.557 136.068 188.769 132.491 188.941 128.885C189.184 123.691 188.662 118.458 188.358 113.246C188.28 111.851 187.811 110.478 187.518 109.093C186.303 103.37 185.177 97.6004 183.836 91.8915C183.139 88.9333 182.278 86.0323 182.02 82.9776C181.867 81.1533 181.423 79.3541 181.123 77.5405C180.541 74.0601 179.951 70.5797 179.393 67.0956C179.014 64.7205 179.036 62.2237 178.256 59.9916C176.941 56.1714 176.594 52.2832 176.355 48.3234C176.244 46.4383 175.768 44.5711 175.44 42.7039C175.222 41.4663 174.836 40.243 174.753 38.9982C174.45 34.4088 174.06 29.8553 172.516 25.4592C171.415 22.3293 170.399 19.1529 169.602 15.9371C168.827 12.8144 167.458 10.425 164.83 8.27874C161.341 5.41713 157.474 4.34401 153.295 4.24027C148.566 4.1115 143.855 3.9899 139.154 3.40685C137.992 3.26377 136.781 3.45332 135.597 3.56063C133.42 3.75737 131.254 4.03642 129.081 4.22958C126.975 4.412 124.816 4.28678 122.775 4.7339C119.877 5.38945 116.895 5.58859 113.935 5.32412C111.862 5.13096 109.875 5.3742 107.859 5.68182C105.013 6.15913 102.143 6.4768 99.2617 6.63332C97.2169 6.67486 95.1869 6.99375 93.2277 7.58124C89.8676 8.65435 86.4932 9.68095 82.9187 9.8598C78.8651 10.0637 74.9616 11.1082 71.1475 12.4031C69.0921 13.1185 67.1369 14.1379 65.203 15.143C64.724 15.3934 64.3486 16.0766 64.1842 16.6382C63.959 17.3751 64.0126 18.1764 63.9304 19.1958V19.1815Z" fill="#F26837"/>
<path d="M136.871 16.8107C136.595 16.1418 136.181 15.5122 136.109 14.8469C136.031 14.1315 136.023 13.1657 136.427 12.6792C137.124 11.8386 138.079 10.9444 139.083 10.6868C141.317 10.1109 143.48 8.89831 145.875 9.25602C148.502 9.63876 151.101 9.40627 153.675 9.05573C157.013 8.60145 159.394 10.2576 161.492 12.4002C163.941 14.9041 165.067 18.1234 165.75 21.493C166.393 24.7516 166.719 28.0854 167.537 31.2904C168.831 36.2732 170.497 41.1594 171.887 46.1172C173.474 51.7581 174.926 57.4349 176.448 63.0937C177.038 65.2721 177.91 67.404 178.236 69.6217C178.808 73.5994 179.151 77.6164 179.415 81.6262C179.709 85.9973 179.737 90.3828 180.005 94.7539C180.173 97.4974 180.47 100.245 180.877 102.981C181.721 108.64 182.711 114.277 183.58 119.929C184.137 123.563 184.616 127.208 185.06 130.857C185.134 131.839 185.109 132.827 184.984 133.804C184.877 135.063 184.184 135.872 183.197 136.719C180.895 138.687 178.336 139.967 175.491 140.958C172.77 141.906 170.211 143.323 167.601 144.571C165.814 145.419 164.127 146.385 162.072 146.56C161.067 146.646 160.077 147.236 159.137 147.712C157.069 148.803 154.739 149.299 152.406 149.142C150.217 149.034 148.023 149.172 145.864 149.554C140.86 150.366 135.856 151.299 130.89 152.297C129.171 152.655 127.555 153.589 125.839 153.793C122.705 154.15 119.62 155.112 116.524 155.223C113.353 155.334 110.186 155.309 107.051 155.856C106.016 156.034 105.002 156.322 104.027 156.715C102.43 157.392 100.656 157.529 98.9745 157.104C97.293 156.679 95.7961 155.716 94.7119 154.361C93.2821 152.573 92.0632 150.684 91.5306 148.427C90.1579 142.579 88.764 136.737 87.4449 130.878C86.7908 127.984 86.2188 125.065 85.7255 122.139C85.0535 118.169 84.5066 114.177 83.8847 110.199C83.2234 105.946 82.5334 101.7 81.8614 97.4545C81.5039 95.1509 81.1464 92.8473 80.771 90.5473C80.1991 86.9989 79.6594 83.4433 79.0267 79.9021C77.9257 73.7139 76.5746 67.565 75.6881 61.3445C74.7587 54.8451 74.1725 48.3027 74.6979 41.6924C74.966 38.3264 74.6728 34.9211 74.7372 31.5337C74.7908 28.783 75.0197 26.0358 75.1341 23.2851C75.1269 22.8934 75.2436 22.5094 75.4676 22.1882C75.6917 21.8669 76.0116 21.6248 76.3815 21.4966C77.3645 21.1174 78.3834 20.8277 79.395 20.5308C81.6219 19.8798 83.8632 19.2788 86.0758 18.5777C86.7193 18.3739 87.2519 17.8623 87.8631 17.5511C88.5333 17.1837 89.2571 16.9242 90.0079 16.7821C91.1518 16.6461 91.6378 17.197 91.7451 18.3631C91.8309 19.3396 91.8953 20.3233 92.0704 21.2891C92.4279 23.3495 93.3679 24.1185 95.434 23.979C98.4581 23.7751 101.479 23.5247 104.496 23.21C105.484 23.1452 106.453 22.9029 107.355 22.4946C110.393 20.986 113.65 19.9705 117.007 19.4863C118.11 19.3567 119.22 19.3005 120.331 19.3182C121.246 19.2895 122.168 19.3468 123.08 19.2967C125.822 19.1429 128.563 18.9605 131.301 18.7709C131.788 18.7496 132.269 18.6605 132.731 18.5062C134.05 17.9804 135.337 17.4438 136.871 16.8107ZM87.0946 21.1031C86.6352 21.1638 86.181 21.2595 85.7362 21.3893C83.8238 22.1047 81.9401 22.795 79.8418 22.9167C78.0938 23.0168 77.4575 23.7573 77.3396 25.5136C77.1108 29.4483 77.0107 33.4045 76.8784 37.3499C76.857 37.9795 76.9927 38.6197 76.9427 39.2457C76.4177 46.0162 76.6132 52.8233 77.5255 59.5524C78.1689 64.2383 79.0409 68.8992 79.8774 73.56C80.3671 76.2678 81.0035 78.947 81.5504 81.6477C81.8328 83.0248 82.1331 84.4055 82.3082 85.8006C82.8265 89.8605 83.1232 93.9204 84.1706 97.9338C85.0642 101.357 85.7577 104.941 85.1822 108.575C85.1848 108.849 85.2443 109.12 85.3573 109.37C85.7147 110.579 86.1937 111.766 86.4296 113C87.4627 118.555 88.3813 124.132 89.4394 129.683C90.0185 132.738 90.7907 135.764 91.4841 138.78C92.1026 141.466 92.6458 144.174 93.3786 146.828C94.1208 149.585 95.755 152.017 98.0256 153.746C98.6493 154.273 99.4039 154.622 100.209 154.754C101.015 154.887 101.841 154.8 102.601 154.501C103.577 154.097 104.593 153.798 105.632 153.61C108.281 153.252 110.941 152.998 113.604 152.787C116.195 152.583 118.819 152.716 121.357 151.986C121.707 151.948 122.059 151.934 122.411 151.943C123.873 151.736 125.382 151.671 126.783 151.253C132.198 149.65 137.721 148.436 143.308 147.619C147.076 147.053 150.815 146.349 154.676 146.778C155.262 146.842 155.909 146.528 156.502 146.32C157.299 146.038 158.068 145.669 158.862 145.376C161.303 144.467 163.759 143.609 166.186 142.664C167.169 142.282 168.087 141.738 169.045 141.266C172.728 139.493 176.267 137.436 179.63 135.113C181.864 133.536 183.258 132.062 182.075 129.261C182.066 129.192 182.066 129.123 182.075 129.054C181.807 126.385 181.624 123.688 181.253 121.052C180.495 115.658 179.548 110.292 178.847 104.895C178.311 100.76 177.96 96.5996 177.646 92.4431C177.142 85.8185 176.899 79.1724 176.216 72.5728C175.902 69.5109 174.826 66.5276 174.071 63.5158C172.852 58.6475 171.691 53.7684 170.357 48.9323C169.757 46.761 168.695 44.7221 168.03 42.5652C167.244 40.004 166.568 37.3964 166.004 34.7744C165.046 30.3568 164.216 25.907 163.323 21.4787C162.79 18.8782 161.814 16.4494 160.066 14.4284C158.458 12.5647 156.581 11.1876 153.878 11.3986C151.356 11.6292 148.822 11.7224 146.29 11.6777C144.266 11.6133 142.583 12.3931 140.856 13.1872C140.031 13.5699 139.359 14.1816 139.648 15.1688C140.149 16.8751 139.559 18.3238 138.869 19.819C138.587 19.8939 138.295 19.9253 138.004 19.912C136.406 19.5543 134.973 20.0121 133.475 20.52C132.13 20.9447 130.734 21.1854 129.325 21.2354C126.015 21.4143 122.669 21.2104 119.395 21.6146C116.42 21.9723 113.411 22.3586 110.576 23.6428C108.372 24.5798 106.082 25.2987 103.738 25.789C101.265 26.3626 98.7573 26.776 96.2311 27.0267C94.7119 27.1769 93.1392 26.9623 91.6093 26.7584C90.3475 26.5938 89.4646 25.8498 88.9355 24.6122C88.4529 23.4639 87.7738 22.3801 87.0946 21.0995V21.1031Z" fill="#F26837"/>
<path d="M110.844 12.4357C110.812 9.8173 111.849 8.80502 114.104 9.05184C114.926 9.19746 115.725 9.45502 116.478 9.81732C116.795 9.97167 117.055 10.222 117.221 10.5327C117.847 11.6595 116.581 14.4674 115.152 15.2293C114.805 15.4065 114.427 15.5126 114.039 15.5416C113.651 15.5707 113.261 15.522 112.893 15.3984C112.524 15.2748 112.183 15.0788 111.891 14.8219C111.599 14.565 111.361 14.2524 111.191 13.9022C111.009 13.4314 110.893 12.938 110.844 12.4357Z" fill="#F26837"/>
<path d="M136.709 74.318C138.221 76.1065 139.722 78.0488 141.434 79.8051C143.997 82.4342 146.717 84.9131 149.348 87.4778C149.813 87.9888 150.247 88.5262 150.65 89.0875C149.509 90.1105 148.694 89.5167 148.019 88.973C146.203 87.5136 144.391 86.0363 142.693 84.4409C140.634 82.5094 138.696 80.4418 136.694 78.4494C136.312 78.0703 135.869 77.7591 135.3 77.2869L133.095 82.0265C132.766 82.7419 132.444 83.4358 132.105 84.1369C131.175 86.0613 131.307 86.6658 133.177 87.7139C134.836 88.6475 136.587 89.4166 138.264 90.318C139.064 90.8046 139.839 91.3311 140.587 91.8954C139.318 92.9435 138.324 92.5608 137.37 92.1351C135.254 91.1729 133.17 90.1427 131.068 89.1483C130.821 89.0302 130.553 88.9623 130.056 88.7906C128.859 91.3696 127.672 93.9057 126.507 96.4526C125.038 99.6719 123.593 102.891 122.135 106.11C122.017 106.364 121.931 106.726 121.724 106.826C121.274 107.055 120.695 107.373 120.294 107.255C119.547 107.048 119.497 106.368 119.815 105.696C120.988 103.192 122.192 100.727 123.333 98.2232C124.709 95.197 126.003 92.1422 127.383 89.1161C127.93 87.9214 127.826 87.0593 126.714 86.1901C125.749 85.4389 125.005 84.4016 123.901 83.2069C123.218 84.5876 122.693 85.6321 122.185 86.6873C120.755 89.6812 119.283 92.6609 117.896 95.6835C117.482 96.7166 117.16 97.7844 116.934 98.8742C116.673 99.908 116.148 100.305 115.111 100.133C114.242 99.9867 113.839 99.468 114.142 98.6309C114.475 97.7045 114.982 96.8424 115.404 95.9482C117.313 91.924 119.261 87.9213 121.102 83.8686C122.103 81.6651 121.931 81.5292 120.13 79.9339C116.555 76.736 113.02 73.4702 109.467 70.2366C108.898 69.7215 108.523 69.1313 108.92 68.3766C108.995 68.1961 109.105 68.0325 109.245 67.8955C109.384 67.7584 109.549 67.6507 109.731 67.5787C109.912 67.5066 110.107 67.4718 110.302 67.4761C110.497 67.4804 110.69 67.5239 110.868 67.6039C111.581 67.784 112.304 67.919 113.034 68.0081C113.091 70.1543 114.507 71.4599 115.894 72.762C118.149 74.8867 120.451 76.965 122.893 79.2006C123.213 78.6984 123.505 78.179 123.769 77.6446C124.673 75.4984 125.52 73.32 126.446 71.1773C127.079 69.7108 126.982 68.5089 125.688 67.3929C123.661 65.6437 121.756 63.7658 119.744 61.9844C119.107 61.4228 118.939 60.8362 119.329 60.1244C119.769 59.3195 120.484 59.3338 121.145 59.7667C122.139 60.3926 123.1 60.9829 123.879 61.9844C125.023 63.4582 126.535 64.6421 128.169 66.2053C128.655 64.9247 129.055 64.0591 129.313 63.1398C129.81 61.3728 130.385 59.6021 130.621 57.7743C130.829 56.0645 131.865 54.8125 132.484 53.3388C132.515 53.2753 132.554 53.2164 132.601 53.1635C133.209 52.3551 134.071 52.0904 134.825 52.5053C135.636 52.9489 135.54 53.743 135.332 54.3797C134.657 56.5259 133.928 58.6721 133.12 60.7826C132.362 62.7535 131.436 64.6636 130.671 66.6345C130.573 66.8809 130.526 67.145 130.534 67.4103C130.542 67.6755 130.605 67.9362 130.718 68.1762C131.8 69.8471 133.156 71.3236 134.728 72.5438C135.247 71.4242 135.765 70.5156 136.097 69.5391C137.506 65.3933 138.807 61.2046 140.276 57.0768C140.714 55.9701 141.365 54.9601 142.192 54.1042C142.646 53.6106 143.533 53.5141 144.265 53.2279C144.98 54.5299 144.222 55.4313 143.711 56.1217C141.588 58.9833 140.934 62.428 139.779 65.6759C138.853 68.4123 137.86 71.1344 136.709 74.318ZM129.063 70.6551C127.668 74.0139 126.414 76.9077 125.302 79.8588C125.217 80.1917 125.2 80.5386 125.254 80.8782C125.307 81.2177 125.43 81.5428 125.613 81.8333C126.518 83.2072 127.853 84.2414 129.409 84.7736C130.639 82.0157 131.826 79.4081 132.984 76.7539C133.302 76.0385 133.417 75.2695 132.766 74.6077C131.615 73.3772 130.482 72.1467 129.077 70.648L129.063 70.6551Z" fill="#F26837"/>
</svg>
