<svg width="284" height="320" viewBox="0 0 284 320" fill="none" xmlns="http://www.w3.org/2000/svg">
<path d="M16.7491 241.126C15.9378 244.389 15.3759 247.052 14.5892 249.653C14.1454 250.946 13.5237 252.172 12.7418 253.296C12.0394 254.387 10.8523 254.45 9.96721 253.603C8.80982 252.514 7.78761 251.292 6.92224 249.963C3.79648 245.044 2.00528 239.644 1.19399 233.889C0.579372 229.496 -0.470739 225.142 0.235193 220.641C0.29841 220.223 0.235248 219.787 0.291441 219.365C0.530264 217.382 1.34507 216.576 3.10112 216.576C4.6043 216.576 5.67198 217.399 5.55959 219.261C5.34184 223.231 6.26199 227.31 4.56915 231.169C4.40867 231.664 4.38324 232.192 4.49541 232.7C5.38397 238.407 7.12241 243.796 10.8523 249.039C11.7514 245.842 12.3941 243.029 13.3389 240.324C15.1687 235.095 14.5997 229.628 15.0597 224.263C15.0949 223.841 15.0598 223.413 15.0914 222.991C15.3443 219.853 15.9343 219.459 19.4148 220.401C19.4148 221.025 19.4148 221.732 19.4148 222.437C19.5026 227.317 19.1584 232.24 19.8187 237.037C20.4087 241.314 22.653 245.163 25.4837 248.614C28.6095 245.271 29.08 231.731 26.4741 224.169L24.251 223.472C23.5134 220.993 24.5073 219.47 26.8464 218.117C27.5031 219.072 28.3355 219.892 28.7078 220.882C32.1637 230.057 33.3438 239.383 30.1126 248.875C28.5252 253.543 25.3713 254.143 22.2104 250.27C20.6124 248.318 19.5377 245.94 18.2382 243.751C17.8343 243.092 17.4585 242.384 16.7491 241.126Z" fill="#F26837"/>
<path d="M196.468 275.394C201.343 273.874 202.362 274.031 206.014 276.82C206.32 276.712 206.791 276.67 207.068 276.422C210.738 273.285 217.158 277.329 217.696 281.407C218.186 284.773 218.186 288.19 217.696 291.556C217.299 294.073 216.877 296.59 216.456 299.103C216.368 299.626 216.375 300.25 216.084 300.633C215.609 301.247 214.925 301.7 214.328 302.22C213.91 301.564 213.133 300.905 213.137 300.257C213.137 298.354 213.544 296.457 213.678 294.554C213.924 291.068 214.169 287.581 214.24 284.095C214.261 283.091 213.787 282.035 213.369 281.076C212.912 280.03 211.981 279.243 210.826 279.595C209.863 279.954 209.001 280.536 208.311 281.292C207.925 281.686 207.858 282.478 207.816 283.098C207.458 288.602 207.125 294.109 206.819 299.619C206.766 300.571 206.987 301.826 205.628 301.711C204.908 301.655 203.872 300.794 203.661 300.097C203.287 298.659 203.148 297.171 203.25 295.69C203.415 292.403 203.879 289.129 203.988 285.842C204.047 284.042 203.838 282.243 203.366 280.505C202.759 278.326 201.136 277.611 199.106 278.591C196.518 279.842 194.326 281.596 194.481 284.866C194.709 289.638 195.032 294.404 195.32 299.159C195.362 299.901 195.583 300.668 195.446 301.369C195.341 301.909 194.814 302.764 194.46 302.764C193.848 302.764 192.96 302.415 192.665 301.902C192.198 301.111 192.061 300.104 191.885 299.169C190.416 291.321 190.134 283.3 191.049 275.369C191.158 274.407 191.485 273.107 192.173 272.647C193.332 271.876 194.333 272.975 195.162 273.808C195.604 274.264 195.973 274.791 196.468 275.394Z" fill="#F26837"/>
<path d="M21.6733 304.486C23.6787 302.938 25.5085 301.467 27.4016 300.083C28.3274 299.359 29.3482 298.763 30.436 298.312C30.9733 298.11 32.0516 298.312 32.3361 298.734C32.6205 299.156 32.2342 300.02 32.0797 300.679C32.0446 300.847 31.7601 300.944 31.609 301.098C29.6914 303.046 27.7774 305.002 26.1126 306.7C26.4147 309.405 28.4411 309.524 29.7511 310.312C30.0672 311.476 29.6844 312.159 28.5851 312.138C26.7728 312.103 24.9009 312.166 23.1695 311.734C21.6382 311.35 20.711 311.8 19.8048 312.811C18.7278 313.996 17.6356 315.167 16.5281 316.322C15.9545 316.953 15.3372 317.543 14.6807 318.089C11.8711 320.282 9.19832 319.484 8.33083 316.081C7.46335 312.679 7.75838 309.109 8.6083 305.668C8.69207 305.36 8.80251 305.061 8.93842 304.772C10.6945 300.676 12.0536 296.576 11.9974 291.96C11.9518 288.391 13.7149 285.201 16.6089 282.837C17.1813 282.367 17.796 281.704 18.4492 281.624C19.6504 281.481 21.1676 281.317 22.0315 281.91C22.7164 282.377 22.9868 284.037 22.7901 285.048C22.4951 286.574 21.7365 288.042 20.999 289.447C19.9663 291.55 18.7856 293.578 17.4658 295.516C16.205 297.259 16.3349 298.797 17.3358 300.519C18.3368 302.241 19.5625 303.601 21.6733 304.486ZM18.4316 308.921L13.9291 304.127C11.3442 306.78 10.7086 311.622 12.5735 315.241L18.4316 308.921ZM18.8812 286.745C16.3595 288.091 16.3138 288.168 16.3033 290.747L18.8812 286.745Z" fill="#F26837"/>
<path d="M248.4 215.331C248.969 214.411 249.102 213.996 249.39 213.77C250.008 213.285 250.795 212.462 251.343 212.577C252.137 212.741 252.811 213.581 253.45 214.205C253.64 214.387 253.615 214.808 253.65 215.126C254.564 223.046 255.642 230.988 253.559 238.87C252.945 241.202 251.803 243.402 250.806 245.622C250.504 246.182 250.07 246.66 249.541 247.017C246.756 249.081 241.909 249.255 238.872 247.446C235.918 245.702 235.317 241.62 237.702 239.19C238.029 238.842 238.882 238.493 239.051 238.647C239.711 239.236 240.456 239.94 240.701 240.738C241.667 243.708 244.168 244.74 246.823 243.043C247.556 242.606 248.166 241.994 248.597 241.261C251.192 236.182 251.578 230.803 250.802 224.441C249.548 225.748 248.797 226.553 248.024 227.338C245.116 230.294 241.309 230.008 239.103 226.536C236.294 222.126 236.318 217.472 238.485 212.846C239.405 210.873 240.817 210.193 242.946 210.597C245.362 211.068 247.462 212.026 248.4 215.331ZM242.398 216.443C242.046 217.587 241.906 218.556 241.474 219.375C240.61 221.01 241.172 222.492 241.825 223.907C242.745 225.922 244.259 226.253 245.864 224.699C247.539 223.081 248.867 221.185 249.078 218.72C247.258 216.89 245.12 216.255 242.398 216.443Z" fill="#F26837"/>
<path d="M177.884 239.048C176.83 239.504 176.166 239.933 175.453 240.073C173.22 240.505 171.66 238.968 172.594 236.935C173.529 234.903 173.125 233.031 172.981 231.037C172.731 227.55 172.675 224.04 172.443 220.547C172.155 216.116 171.871 211.682 171.39 207.268C171.147 205.086 171.506 203.496 173.339 201.99C176.222 199.62 179.334 198.563 182.846 199.787C186.632 201.105 188.581 204.246 189.168 207.979C189.799 211.991 189.35 216.097 187.865 219.881C186.008 224.854 183.273 229.458 179.787 233.477C178.428 235.046 177.258 236.656 177.884 239.048ZM176.356 230.179L177.178 230.353C178.337 228.739 179.429 227.066 180.669 225.515C185.048 220.041 186.464 213.829 185.368 207.038C184.946 204.417 181.617 202.422 179.004 203.008C176.623 203.541 175.987 205.176 176.451 208.548C176.704 210.392 176.802 212.358 176.451 214.16C175.397 219.529 175.963 224.845 176.366 230.179H176.356Z" fill="#F26837"/>
<path d="M58.9898 233.083C59.9556 231.72 60.5879 230.912 61.1322 230.047C63.7839 225.864 67.1449 225.78 70.7483 228.945C75.2192 232.871 75.4686 242.468 71.3664 246.752C68.3144 249.939 62.5862 250.964 58.6386 249.022C56.0923 247.763 55.0598 245.295 56.6297 242.97C57.5428 241.621 57.2759 240.701 56.8966 239.484C55.0387 233.498 53.4513 227.446 52.9736 221.175C52.8612 219.714 53.1246 218.225 53.2335 216.751C53.2541 216.433 53.3118 216.118 53.4056 215.813C53.8833 214.359 55.3513 213.533 56.6332 214.07C57.9924 214.631 57.6869 215.66 57.3567 216.747C55.7025 222.21 57.5815 227.3 58.9898 233.083ZM62.0348 244.5C64.0367 245.658 65.3713 244.441 66.6848 243.733C67.9983 243.026 69.354 242.238 70.1196 241.101C71.5666 238.954 70.3796 233.387 68.4198 231.644C66.9448 230.333 65.4626 230.389 64.4336 232.118C63.6367 233.471 63.0941 234.957 62.832 236.503C62.4 239.09 62.2912 241.729 62.0348 244.5Z" fill="#F26837"/>
<path d="M60.9837 310.51C59.6596 311.072 58.6376 311.532 57.5946 311.95C55.2379 312.891 53.7102 311.741 54.1492 309.287C54.2839 308.342 54.6347 307.44 55.1748 306.651C56.3513 305.131 56.2284 303.573 55.9544 301.837C55.2977 297.653 54.806 293.449 54.1984 289.255C54.0649 288.318 54.0333 287.23 53.5275 286.505C52.214 284.636 53.1764 282.59 52.8006 280.673C52.779 280.515 52.7955 280.354 52.8486 280.204C52.9017 280.053 52.9899 279.918 53.1061 279.808C56.0843 278.253 58.2654 274.927 62.4342 276.012C65.4476 276.796 68.0326 279.079 68.6963 282.095C69.3988 285.253 68.6506 288.255 67.4319 291.089C65.8866 294.687 64.1552 298.218 62.2586 301.645C61.0294 303.873 60.1198 305.985 60.9346 308.558C61.1593 309.21 60.9837 309.98 60.9837 310.51ZM59.8213 299.086C61.5773 295.252 63.4527 291.455 64.9524 287.519C65.5213 286.027 65.3703 284.176 65.1982 282.52C65.0296 280.924 63.3825 279.668 61.8793 279.571C60.2321 279.466 59.3154 280.481 58.6973 281.781C58.293 282.528 58.0535 283.351 57.9949 284.197C57.9949 289.14 57.6648 294.119 59.8213 299.086Z" fill="#F26837"/>
<path d="M179.747 284.922C179.104 288.857 177.316 293.264 173.263 296.004C169.674 298.444 169.628 301.327 170.569 304.799C171.04 306.543 171.591 308.251 172.059 309.99C172.28 310.806 172.599 311.681 172.484 312.472C172.382 313.194 171.894 314.093 171.3 314.432C170.91 314.655 169.765 314.202 169.414 313.734C168.613 312.633 167.767 311.395 167.521 310.105C166.566 305.124 165.793 300.107 165.062 295.091C164.532 291.528 164.227 287.934 163.675 284.374C163.433 282.792 163.479 281.697 165.368 281.279C165.979 281.146 166.569 280.491 166.984 279.94C169.639 276.398 171.918 275.492 175.441 276.677C178.272 277.622 179.859 280.313 179.747 284.922ZM169.172 292.751C172.104 291.458 174.257 289.725 175.472 287.027C176.234 285.34 176.414 283.464 175.518 281.822C175.09 281.041 174.025 280.41 173.116 280.135C171.925 279.786 171.11 280.641 170.699 281.704C169.368 285.148 168.424 288.655 169.172 292.751Z" fill="#F26837"/>
<path d="M194.366 233.523C194.577 234.185 194.763 234.994 195.068 235.75C195.971 237.887 196.825 238.588 199.006 237.94C201.947 237.018 204.811 235.865 207.568 234.492C209.271 233.673 209.184 233.498 210.926 234.29C210.926 234.499 211.017 234.785 210.926 234.896C207.663 238.41 203.845 241.042 198.985 241.753C196.087 242.179 193.92 240.906 192.08 238.616C188.943 234.684 188.873 230.291 190.12 225.902C191.145 222.339 192.581 218.904 194.398 215.667C196.305 212.247 198.774 211.943 202.223 214.018C202.862 214.401 203.519 214.764 204.14 215.179C205.345 215.98 205.682 217.002 205.289 218.473C203.649 224.574 200.298 229.419 194.942 232.871C194.729 233.069 194.536 233.287 194.366 233.523ZM193.685 228.415C197.162 226.672 199.459 223.883 201.158 220.596C201.429 220.077 201.088 219.243 201.032 218.557C200.27 218.679 199.276 218.536 198.788 218.965C196.013 221.478 194.5 224.741 193.685 228.415Z" fill="#F26837"/>
<path d="M90.7827 304.019C90.5228 305.414 90.593 306.041 90.3085 306.372C87.6745 309.447 84.4153 311.783 80.3764 312.271C74.5147 312.968 69.0042 307.171 69.2044 301.028C69.3835 295.642 71.3713 290.838 74.2618 286.456C76.7764 282.649 80.0111 282.412 83.9236 285.121C85.0018 285.867 85.1528 286.864 84.7946 288.189C83.8297 291.675 82.1564 294.928 79.8776 297.748C78.6905 299.25 77.6299 300.885 76.211 302.151C74.7113 303.472 74.5954 304.737 75.4138 306.334C76.3129 308.101 77.9003 309.039 79.86 308.774C80.6981 308.636 81.5082 308.364 82.2588 307.969C84.0711 307.063 85.8236 306.031 87.6359 305.128C88.4191 304.737 89.3041 304.532 90.7827 304.019ZM80.4044 288.722C78.3218 289.6 75.4173 292.696 73.6015 296.154C73.2749 296.775 73.3557 297.608 73.2081 298.64C77.2787 296.405 80.5379 291.734 80.4185 288.718L80.4044 288.722Z" fill="#F26837"/>
<path d="M132.927 231.675C134.831 235.858 139.059 237.95 143.2 236.803C144.429 236.454 145.599 235.904 146.828 235.562C147.668 235.328 148.584 235.3 149.792 235.133C149.171 238.065 147.141 239.041 145.286 239.742C138.821 242.182 130.792 238.985 128.78 232.365C128.506 231.462 127.94 230.65 127.614 229.757C127.41 229.193 127.189 228.495 127.343 227.966C128.081 225.445 128.927 222.956 129.774 220.47C129.997 219.648 130.345 218.864 130.806 218.145C133.008 215.213 135.021 214.181 137.497 215.252C140.166 216.406 141.918 220.244 141.072 222.89C139.811 226.854 138.41 228.37 132.927 231.675ZM132.106 227.003C136.232 226.083 137.886 223.252 136.369 220.153C133.942 221.691 132.46 223.754 132.12 227.003H132.106Z" fill="#F26837"/>
<path d="M53.2235 241.861C52.8723 245.619 50.4348 246.672 48.4329 247.903C44.1131 250.556 36.692 249.405 34.943 243.465C34.7854 242.847 34.5431 242.253 34.223 241.701C32.9235 239.661 32.1965 237.904 34.5742 235.865C35.4909 235.074 35.3258 233.076 35.7473 231.682C36.1731 230.045 36.7141 228.44 37.3663 226.878C38.859 223.632 41.6687 222.597 45.0333 223.89C48.3979 225.184 48.7385 225.881 47.6568 229.311C47.3468 230.321 46.8541 231.266 46.2028 232.1C44.5275 234.16 42.6907 236.088 40.9803 238.121C40.3938 238.818 39.7124 239.609 39.5754 240.449C38.8555 244.357 42.1147 246.655 46.0904 245.027C47.5585 244.424 48.8544 243.419 50.3049 242.719C51.0319 242.342 51.9275 242.224 53.2235 241.861ZM44.1904 227.917C40.9979 228.499 39.3086 230.835 39.435 234.153C41.5212 232.477 43.193 230.723 44.1904 227.91V227.917Z" fill="#F26837"/>
<path d="M270.369 217.563C268.873 219.655 267.697 221.311 266.042 223.632C266.394 227.359 265.979 232.072 267.872 236.503C268.037 236.894 268.297 237.326 268.245 237.702C268.164 238.278 267.942 239.215 267.609 239.296C267.008 239.442 265.898 239.296 265.67 238.877C264.69 237.134 263.584 235.328 263.212 233.411C262.077 227.77 261.881 222.032 262.235 216.287C262.299 215.653 262.416 215.026 262.586 214.412C262.857 213.306 263.612 212.641 264.694 213.087C266.587 213.864 268.455 213.547 270.369 213.383C273.751 213.09 276.357 215.011 278.405 219.139C281.106 224.581 280.597 230.524 280.618 236.346C280.618 236.841 279.775 237.343 279.325 237.845C278.753 237.308 277.78 236.841 277.681 236.231C277.232 233.519 277.144 230.744 276.709 228.028C276.305 225.539 275.848 223.015 274.991 220.659C274.289 218.738 272.916 217.12 270.38 217.56C270.282 217.58 270.187 217.64 270.369 217.563Z" fill="#F26837"/>
<path d="M248.083 301.087C245.768 301.394 244.95 300.25 244.402 299.177C243.394 297.313 242.604 295.341 242.046 293.299C240.746 287.979 241.227 282.562 241.445 277.228C243.321 276.2 245.056 275.171 246.854 274.275C250.903 272.26 255.244 273.993 257.039 278.459C257.84 280.425 258.417 282.473 258.76 284.566C259.371 288.443 259.722 292.361 260.165 296.262C260.214 296.681 260.323 297.19 260.14 297.514C259.813 298.093 259.329 298.926 258.834 298.982C258.338 299.037 257.337 298.441 257.165 297.936C256.698 296.42 256.355 294.87 256.14 293.299C255.553 289.743 255.188 286.142 254.408 282.628C254.057 281.049 253.126 279.491 252.104 278.187C250.998 276.792 249.699 276.792 248.592 278.232C246.794 280.568 245.119 283.005 245.192 286.212C245.28 290.179 245.867 294.024 247.3 297.747C247.69 298.738 247.805 299.836 248.083 301.087Z" fill="#F26837"/>
<path d="M239.267 298.758C237.135 300.997 234.494 301.391 231.632 300.714C225.071 299.166 220.548 294.091 221.475 286.703C222 282.68 223.658 278.884 226.258 275.753C228.06 273.543 230.28 273.017 232.148 274.136C234.958 275.813 235.741 278.026 234.473 280.882C232.91 284.406 230.922 287.641 227.86 290.123C226.353 291.347 226.167 292.072 227.245 293.568C228.949 295.928 231.253 297.364 234.287 297.266C235.347 297.184 236.402 297.047 237.448 296.855C238.944 296.646 239.341 297.455 239.267 298.758ZM230.076 279.933C228.527 282.025 225.735 283.249 225.479 286.93C228.032 284.81 229.929 282.966 230.076 279.916V279.933Z" fill="#F26837"/>
<path d="M128.007 302.112C128.122 302.437 128.207 302.772 128.263 303.112C127.417 307.295 123.905 308.69 120.537 309.914C117.727 310.928 115.118 309.809 112.972 307.693C110.018 304.782 108.915 301.373 109.505 297.266C110.109 293.377 111.378 289.62 113.256 286.156C115.114 282.596 118.321 281.624 121.548 283.454C123.097 284.336 123.55 285.284 122.936 286.867C121.25 291.19 118.423 294.766 115.244 298.078C114.773 298.57 113.966 298.734 113.197 299.107C112.536 302.101 114.145 304.109 116.428 305.709C117.079 306.197 117.865 306.477 118.68 306.511C119.496 306.546 120.303 306.333 120.993 305.901C122.472 305.054 123.905 304.127 125.394 303.297C126.135 302.865 126.982 302.568 128.007 302.112ZM114.068 292.103L114.735 292.65C116.017 291.332 117.492 290.147 117.955 288.268L117.348 287.825L114.068 292.103Z" fill="#F26837"/>
<path d="M273.187 278.221C276.176 278.221 278.908 278.197 281.637 278.263C281.9 278.263 282.15 278.842 282.48 279.239C280.885 281.195 278.553 281.488 276.509 282.203C272.551 283.597 272.087 284.172 273.25 288.181C273.864 290.444 274.647 292.658 275.592 294.805C276.18 296.046 277.091 297.108 278.23 297.883C278.915 298.333 280.19 298.05 281.156 297.862C281.693 297.758 282.139 297.165 283.028 296.496C283.21 297.517 283.554 298.218 283.4 298.783C282.564 301.798 279.589 303.255 276.871 301.666C275.115 300.62 273.253 299.11 272.372 297.346C270.865 294.348 269.959 291.022 269.074 287.763C268.617 286.093 268.403 284.594 266.724 283.51C264.796 282.262 264.968 280.822 267.125 280.177C268.797 279.679 268.951 278.668 269.099 277.388C269.306 275.596 269.348 273.749 269.843 272.037C270.25 270.853 270.979 269.804 271.95 269.008C272.404 268.617 273.738 268.718 274.275 269.119C274.714 269.447 274.883 270.691 274.627 271.287C273.629 273.498 272.611 275.694 273.187 278.221Z" fill="#F26837"/>
<path d="M147.192 292.864C147.326 291.281 147.336 289.681 147.617 288.126C148.025 285.86 148.959 283.74 151.319 282.946C153.89 282.084 156.387 282.485 158.452 284.434C165.097 290.709 163.952 296.911 158.621 303.796C156.131 307.014 149.05 303.956 148.246 300.373C147.691 297.911 147.357 295.401 146.929 292.912L147.192 292.864ZM154.378 287.634C153.556 289.419 152.917 291.068 152.064 292.606C150.603 295.238 150.817 298.372 152.766 300.477C154.445 302.304 156.398 302.144 157.307 299.888C158.067 298.024 158.569 296.067 158.8 294.07C159.102 291.121 157.715 289.147 154.378 287.634Z" fill="#F26837"/>
<path d="M100.865 311.939C99.6741 310.841 98.5081 310.165 97.9322 309.15C96.2534 306.218 94.5008 303.269 93.3664 300.118C91.8457 295.934 90.8552 291.577 89.6857 287.282C89.5311 286.71 89.6647 286.065 89.6647 285.483C92.8958 284.618 93.6158 285.023 94.3182 287.871C95.3507 292.075 96.3797 296.279 97.5036 300.459C97.8561 301.627 98.5625 302.658 99.5266 303.412C99.8989 302.018 100.275 300.623 100.643 299.25C101.623 295.565 102.814 291.929 102.551 288.028C102.463 286.759 102.73 285.49 104.285 285.587C105.61 285.654 106.34 286.71 106.203 288.059C105.694 293.002 105.174 297.946 104.556 302.875C104.366 304.455 103.983 306.006 103.414 307.494C102.877 308.836 101.971 310.039 100.865 311.939Z" fill="#F26837"/>
<path d="M221.361 217.786C216.742 215.593 215.59 216.043 213.985 220.195C213.097 222.496 213.613 224.131 215.885 225.169C217.315 225.825 218.927 226.114 220.476 226.473C222.025 226.832 223.675 226.902 225.006 228.722C223.918 230.988 222.748 233.439 221.568 235.882C220.56 237.974 219.485 240.066 218.555 242.182C218.021 243.402 217.213 243.778 216.019 243.412C214.681 243.005 214.453 241.906 214.934 240.857C216.166 238.162 217.564 235.537 218.892 232.884C219.268 232.138 219.629 231.389 220.118 230.399C219.247 229.994 218.53 229.597 217.771 229.328C216.461 228.875 215.085 228.603 213.81 228.077C210.733 226.801 208.605 223.228 209.363 220.094C209.961 217.653 211.025 215.307 212.015 212.971C212.847 211.016 214.474 210.531 216.511 210.88C218.948 211.319 220.349 213.09 221.663 214.833C222.049 215.363 221.512 216.576 221.361 217.786Z" fill="#F26837"/>
<path d="M90.147 235.053C88.8124 234.704 87.9028 234.355 86.965 234.247C82.6311 233.77 80.7416 230.137 81.0928 225.556C81.1635 224.923 81.3097 224.301 81.5283 223.702C83.5583 217.615 87.4989 216.492 92.4615 220.669C92.9708 221.101 93.3782 222.241 93.164 222.809C92.732 223.967 91.6677 224.029 90.4771 223.587C87.7166 222.565 86.6139 223.018 85.4408 225.434C84.4364 227.526 85.1142 229.545 87.3444 230.336C88.7211 230.824 90.2489 230.918 91.724 231.099C94.6495 231.448 95.2642 232.375 94.2773 235.042C93.0902 238.249 91.5835 241.254 89.2655 243.848C88.395 244.91 87.6906 246.096 87.1758 247.366C86.4909 248.886 85.5638 249.666 84.4856 249.293C83.4074 248.92 82.8384 247.55 83.6075 246.034C85.1388 243.022 86.9159 240.132 88.6193 237.204C88.9846 236.58 89.4551 236.039 90.147 235.053Z" fill="#F26837"/>
<path d="M119.677 223.116L122.704 225.12C122.679 226.731 121.461 226.863 120.533 227.264C119.332 227.794 118.851 228.606 118.813 229.98C118.728 232.859 118.591 235.704 119.764 238.434C120.965 241.223 122.391 241.732 125.033 240.257C126.04 239.692 127.038 239.107 128.046 238.542C128.116 238.503 128.25 238.584 128.552 238.653C129.236 239.567 128.955 240.623 128.253 241.393C126.434 243.402 124.327 245.03 121.369 244.768C118.69 244.535 117.113 242.771 116.312 240.477C115.557 238.305 115.178 235.993 114.746 233.724C114.577 232.818 114.717 231.855 114.717 230.834C114.12 230.674 113.625 230.681 113.351 230.44C112.438 229.645 111.044 228.864 110.868 227.892C110.594 226.375 112.227 226.006 113.492 225.734C115.079 225.385 115.708 224.364 116.038 222.861C116.653 220.072 117.443 217.325 119.715 215.254C120.597 214.449 121.492 213.954 122.563 214.397C123.322 214.694 123.946 215.254 124.32 215.973C124.502 216.419 123.968 217.262 123.575 217.817C122.367 219.528 121.099 221.184 119.677 223.116Z" fill="#F26837"/>
<path d="M141.244 306.111C138.698 306.571 138.083 305.019 137.732 303.642C136.956 300.672 136.053 297.66 135.878 294.627C135.463 287.536 135.389 280.425 135.312 273.32C135.295 271.877 135.762 270.395 136.194 268.987C136.34 268.407 136.712 267.908 137.228 267.599C137.744 267.291 138.362 267.198 138.947 267.341C140.496 267.617 140.615 268.851 140.45 270.057C140.046 272.975 139.26 275.868 139.14 278.793C138.81 286.965 139.193 295.112 140.896 303.154C141.107 304.04 141.125 304.974 141.244 306.111Z" fill="#F26837"/>
<path d="M101.062 236.639C101.308 234.844 101.445 232.804 101.891 230.866C102.274 229.182 103.211 228.715 104.7 229.046C106.19 229.378 106.636 230.092 106.028 231.985C105.105 234.921 104.849 238.024 105.28 241.07C105.375 241.486 105.351 241.919 105.21 242.322C104.943 242.841 104.536 243.542 104.075 243.639C103.615 243.737 102.801 243.357 102.481 242.942C101.981 242.264 101.641 241.482 101.487 240.655C101.238 239.404 101.202 238.131 101.062 236.639Z" fill="#F26837"/>
<path d="M231.729 235.921C230.026 236.684 228.825 236.203 228.519 234.502C228.168 232.546 228.126 230.531 227.957 228.544C227.834 227.097 227.662 225.651 227.631 224.204C227.631 223.538 227.697 222.708 228.091 222.258C228.358 221.952 229.292 222.032 229.847 222.206C231.547 222.74 232.203 223.73 232.161 225.905C232.095 229.161 231.887 232.417 231.729 235.921Z" fill="#F26837"/>
<path d="M232.296 215.122C230.358 215.272 227.429 212.257 227.913 210.712C228.092 210.148 229.086 209.499 229.726 209.482C231.19 209.443 233.48 212.752 233.108 214.223C233.02 214.62 232.486 214.92 232.296 215.122Z" fill="#F26837"/>
<path d="M101.509 215.307C104.175 214.568 105.306 214.843 106.289 216.702C106.584 217.263 106.707 218.225 106.412 218.685C106.18 219.034 105.109 219.135 104.522 218.964C101.639 218.131 101.333 217.695 101.509 215.307Z" fill="#F26837"/>
<path d="M158.175 140.355C158.256 145.933 160.686 148.251 164.227 149.44C166.085 150.064 167.974 150.612 169.783 151.347C172.178 152.327 174.524 153.439 176.86 154.54C177.376 154.784 177.773 155.28 178.219 155.66C177.348 157.699 175.911 158.414 173.924 158.337C170.359 158.201 166.791 158.128 163.222 158.023C162.868 157.974 162.509 157.955 162.151 157.967C157.585 158.665 153.048 157.87 148.503 157.619C148.327 157.579 148.145 157.569 147.966 157.587C143.049 159.1 137.819 157.936 132.881 159.63C130.047 160.599 126.949 160.892 123.939 161.255C119.325 161.809 114.692 162.367 110.053 162.517C107.327 162.604 104.556 162.011 101.855 161.471C101.244 161.349 100.837 160.202 100.335 159.526C100.942 159.107 101.497 158.543 102.171 158.292C105.585 157.009 109.111 155.991 112.441 154.523C114.899 153.442 116.392 151.141 117.41 148.76C118.422 146.386 118.946 143.836 118.952 141.258C114.885 141.352 110.994 141.495 107.102 141.52C102.993 141.544 98.8841 141.495 94.7784 141.405C91.9161 141.345 89.0467 141.255 86.1984 141.004C83.6205 140.781 80.9935 140.585 78.5175 139.916C74.0325 138.706 69.4492 138.916 64.9081 138.605C59.0113 138.208 53.0898 138.152 47.1895 137.783C45.9549 137.688 44.7877 137.186 43.8741 136.357C41.535 134.042 40.0108 131.246 40.0284 127.826C40.0775 119.578 38.5708 111.57 36.3406 103.664C36.1264 102.907 35.7295 101.97 35.9894 101.356C37.1203 98.717 35.8314 96.2941 35.4872 93.812C35.2098 91.7839 34.7177 89.7904 34.0191 87.8646C32.379 83.3606 32.228 78.6403 31.6555 73.9724C30.788 66.913 29.7625 59.871 28.8915 52.8151C28.3893 48.7572 28.024 44.6819 27.6693 40.6136C27.1636 34.8615 26.6157 29.1094 26.2645 23.3468C26.0256 19.4493 26.0678 15.5379 25.9835 11.6299C25.9935 10.4729 25.5676 9.35386 24.7894 8.49239C23.518 7.04216 23.9956 5.89871 25.864 5.5745C26.9173 5.37106 27.9871 5.26253 29.0601 5.25027C33.4432 5.24334 37.8173 4.85491 42.1321 4.0894C45.5529 3.52116 49.0966 3.69199 52.5841 3.52814C59.6469 3.17952 66.7098 2.83091 73.7726 2.52762C81.2885 2.1883 88.8067 1.86641 96.3273 1.56195C102.238 1.32838 108.146 1.05646 114.056 0.951881C121.671 0.819407 129.288 0.836813 136.906 0.794979C143.358 0.760118 149.813 0.655558 156.268 0.732252C161.013 0.791517 165.751 1.1959 170.503 1.25168C175.42 1.31095 180.337 1.12269 185.278 1.06691C191.368 0.997185 197.455 0.976265 203.541 0.889111C207.208 0.836819 210.885 0.502168 214.545 0.645099C219.637 0.840323 224.81 0.927474 229.78 1.90708C232.916 2.52412 236.193 3.26318 239.171 4.8668C243.01 6.93408 244.713 10.1727 245.623 14.1782C246.533 18.1838 246.894 22.2521 247.067 26.3414C247.232 30.333 247.277 34.3316 247.484 38.3232C247.636 41.1609 247.983 43.9882 248.208 46.8224C248.471 50.0924 248.703 53.3659 248.932 56.6394C249.051 58.3232 248.932 60.0523 249.283 61.6838C250.459 67.2093 250.435 72.8046 250.688 78.3998C250.846 82.2067 251.488 85.9926 251.79 89.7995C252.019 92.7139 252.05 95.6492 252.163 98.5741C252.279 101.68 252.493 104.79 252.472 107.896C252.444 112.512 252.63 117.18 252.005 121.729C251.464 125.665 250.031 128.618 244.945 129.649C241.293 130.395 237.802 131.877 234.167 132.731C224.652 134.973 215.029 136.566 205.244 137.148C200.967 137.403 196.714 138.044 192.439 138.393C189.423 138.637 186.37 138.525 183.368 138.849C175.992 139.648 168.589 139.714 161.189 139.92C160.177 140.008 159.171 140.154 158.175 140.355ZM221.934 3.6641C217.818 3.6641 213.705 3.66409 209.592 3.69198C201.086 3.77564 192.579 3.8779 184.07 3.99876C179.683 4.06499 175.29 4.44846 170.914 4.24975C158.467 3.68848 146.027 3.38869 133.57 3.78611C128.112 3.96041 122.64 3.65363 117.175 3.74079C110.906 3.84188 104.637 4.08941 98.3748 4.35784C90.1425 4.70413 81.9113 5.09107 73.6813 5.51871C66.8889 5.86732 60.1457 6.91314 53.3111 6.58893C48.5631 6.3484 43.8031 6.68207 39.1363 7.58251C36.597 8.07406 33.9875 8.23788 31.4096 8.46796C29.1514 8.67016 28.9056 8.87235 28.9126 11.2569C28.9126 13.2091 28.9512 15.1614 28.9688 17.1136C29.0004 20.8438 28.8458 24.5844 29.1092 28.2936C29.5061 33.962 30.1347 39.6166 30.7739 45.2641C31.2937 49.8553 32.0032 54.4256 32.5827 59.0134C33.4116 65.5359 34.1631 72.069 35.0201 78.588C35.3081 80.7808 35.7471 82.9596 36.2493 85.1141C36.7516 87.2685 37.4996 89.3707 38.0054 91.5251C38.6165 94.1153 39.1258 96.7264 39.614 99.341C39.7369 99.9999 39.9054 101.014 39.5577 101.332C38.1529 102.618 38.8553 103.883 39.2311 105.246C40.3515 109.266 41.6896 113.265 42.4236 117.35C43.3824 122.698 44.573 127.945 46.6381 132.979C47.5302 135.144 47.7163 135.245 50.0167 135.07C51.5269 134.948 53.1355 134.54 54.5333 134.903C58.5582 135.949 62.6779 135.771 66.7484 136.151C71.0121 136.548 75.4058 136.053 79.5817 136.817C84.1755 137.657 88.7903 138.03 93.3982 138.56C96.4151 138.909 99.4461 139.257 102.477 139.355C104.584 139.428 106.758 138.801 108.851 139.006C114.541 139.561 120.21 137.905 125.882 139.006C126.15 139.024 126.42 139.012 126.686 138.971C135.094 138.661 143.502 138.312 151.913 138.058C158.256 137.866 164.613 137.957 170.949 137.629C177.646 137.281 184.337 136.681 191.013 136.036C198.761 135.287 206.498 134.394 214.232 133.516C217.344 133.167 220.508 132.954 223.518 132.184C228.277 130.964 232.959 129.395 237.612 127.819C239.677 127.122 241.711 126.547 243.892 126.648C244.567 126.691 245.241 126.547 245.839 126.231C246.436 125.915 246.933 125.44 247.274 124.859C247.892 123.901 248.524 122.768 248.622 121.694C248.995 117.451 249.286 113.195 249.367 108.938C249.441 104.943 249.205 100.945 249.114 96.946C249.086 95.7956 249.156 94.6312 249.04 93.4878C248.647 89.5136 248.071 85.5499 247.783 81.5687C247.432 76.6881 247.551 71.7762 246.989 66.9269C246.491 62.5937 245.865 58.3092 246.016 53.9237C246.09 51.7309 245.563 49.5207 245.356 47.3C245.054 44.1241 244.692 40.9483 244.534 37.7654C244.148 29.9635 244.303 22.1336 242.543 14.4083C241.556 10.0716 238.757 7.6069 234.816 6.43905C230.623 5.22239 226.429 3.7408 221.934 3.6641ZM109.635 159.065C109.698 159.309 109.761 159.557 109.828 159.801L119.342 158.794C119.964 158.727 120.582 158.623 121.207 158.581C125.105 158.311 128.964 157.628 132.716 156.545C134.823 155.945 137.078 155.775 139.273 155.499C141.131 155.255 143.003 155.081 144.893 154.938C147.112 154.771 149.416 154.241 151.548 154.621C156.346 155.464 161.09 154.969 166 154.687C159.211 152.18 153.778 148.604 154.175 140.268C153.473 140.23 152.869 140.16 152.261 140.171C147.074 140.258 141.883 140.303 136.695 140.467C133.12 140.578 129.548 140.816 125.98 141.073C124.224 141.189 123.118 141.976 122.496 143.789C121.617 146.379 120.516 148.889 119.205 151.291C117.379 154.607 115.022 157.479 111.046 158.476C110.56 158.633 110.088 158.83 109.635 159.065Z" fill="#F26837"/>
<path d="M153.648 42.1615C153.135 43.0888 152.478 44.6575 151.491 45.9962C149.479 48.7049 147.192 51.2254 145.201 53.9341C143.838 55.7922 142.76 57.863 141.584 59.8606C137.222 67.214 132.871 74.5709 128.533 81.9312C128.051 82.747 127.83 83.7092 127.454 84.5877C127.18 85.2292 126.973 85.9612 126.517 86.4493C124.708 88.3876 123.408 90.4618 123.605 93.2682C123.7 94.6626 122.042 96.3848 120.655 96.695C120.415 96.7496 120.165 96.7465 119.926 96.686C119.687 96.6254 119.466 96.5092 119.282 96.3469C119.098 96.1846 118.955 95.981 118.866 95.7529C118.776 95.5249 118.743 95.279 118.769 95.0356C118.851 94.1506 119.097 93.288 119.493 92.4908C121.449 88.6978 123.373 84.884 125.512 81.1887C129.748 73.8679 133.966 66.547 138.472 59.369C141.766 54.1398 143.923 48.3877 146.785 42.9842C147.365 41.8826 147.874 40.7322 148.541 39.6828C149.387 38.3511 150.455 37.9886 151.72 38.4243C153.11 38.8706 153.799 39.9547 153.648 42.1615Z" fill="#F26837"/>
<path d="M84.0462 63.3678C84.8469 66.0173 86.7189 67.0074 88.4187 68.1125C92.3839 70.6922 96.4158 73.1709 100.36 75.782C101.765 76.7058 102.987 77.8946 104.325 78.9195C105.582 79.8852 106.885 80.7915 108.164 81.7328C108.541 81.9743 108.893 82.251 109.217 82.559C109.832 83.2179 110.556 84.0127 109.878 84.8738C109.562 85.2782 108.648 85.2677 107.995 85.3654C106.625 85.571 105.828 84.8808 104.88 83.8768C101.449 80.2373 97.4378 77.2531 93.2373 74.52C90.9158 73.0175 88.4468 71.7311 86.2131 70.1379C84.485 68.8976 82.8798 67.4969 81.4191 65.9546C79.944 64.4137 80.0143 63.2354 81.7387 61.8967C84.8258 59.4773 87.9832 57.1311 91.2214 54.9244C96.0048 51.637 100.725 48.3008 105.143 44.5113C106.481 43.3679 108.424 42.8729 110.162 42.2907C110.531 42.1687 111.419 42.8659 111.704 43.3818C111.796 43.5397 111.847 43.7182 111.851 43.9007C111.856 44.0832 111.813 44.2639 111.729 44.4259C111.644 44.588 111.519 44.7262 111.366 44.8276C111.213 44.9291 111.037 44.9906 110.854 45.0064C107.542 45.5258 105.424 47.9626 102.906 49.7475C98.0348 53.1918 93.1917 56.678 88.352 60.1641C86.8875 61.1716 85.4932 62.2697 84.0462 63.3678Z" fill="#F26837"/>
<path d="M157.112 79.9512C157.853 79.254 158.517 78.4347 159.349 77.8909C162.946 75.5622 166.679 73.4356 170.205 71.0093C173.489 68.7468 176.573 66.1984 179.79 63.7442C179.611 62.9378 179.252 62.1816 178.739 61.5317C178.225 60.8817 177.572 60.3547 176.825 59.9896C175.396 59.2575 174.04 58.3337 172.544 57.7899C169.408 56.6464 167.097 54.4397 164.818 52.212C164.203 51.6124 163.803 50.7758 163.413 50.0018C162.956 49.1233 163.016 48.2902 163.918 47.6557C164.751 47.07 165.639 47.0386 166.405 47.6557C167.032 48.1502 167.566 48.7509 167.982 49.4301C169.443 51.8704 171.336 53.746 173.974 54.9312C175.59 55.6923 177.16 56.5491 178.673 57.497C180.798 58.7764 182.136 60.7635 183.432 62.8099C184.134 63.9464 184.053 64.8493 183.081 65.5988C180.903 67.2861 178.739 69.0187 176.432 70.5177C171.726 73.5716 166.925 76.4825 162.176 79.4701C161.663 79.8174 161.183 80.2094 160.74 80.6415C159.23 81.9906 159.026 81.9697 157.112 79.9512Z" fill="#F26837"/>
</svg>
