<svg width="46" height="46" viewBox="0 0 46 46" fill="none" xmlns="http://www.w3.org/2000/svg">
<g clip-path="url(#clip0_80_7)">
<path d="M23.0089 46C10.3126 46 -0.00272983 35.6937 5.41903e-07 22.9939C0.00273092 10.294 10.3222 -0.0150033 23.0171 1.63915e-05C35.7119 0.0150361 46.0259 10.335 46 23.0294C45.9902 29.1228 43.564 34.9635 39.2538 39.27C34.9435 43.5764 29.1012 45.9968 23.0089 46ZM10.243 31.0008C10.4269 31.0312 10.6124 31.0508 10.7986 31.0595C13.5727 31.0335 16.3468 31.0308 19.1263 30.9625C21.2997 30.9079 22.8423 29.6135 23.3747 27.5066C23.9072 25.3998 23.0102 23.5469 21.0007 22.6703C20.8983 22.6252 20.8041 22.5638 20.6444 22.4764L21.099 22.1582C21.7721 21.6839 22.2767 21.0074 22.5396 20.227C22.8025 19.4465 22.81 18.6026 22.5611 17.8175C22.0451 16.2213 20.6116 15.103 18.7686 15.043C16.0655 14.9542 13.3584 14.9679 10.6526 14.9433C10.5145 14.9525 10.3775 14.9735 10.243 15.0061V31.0008ZM35.7584 25.7793C35.7584 25.2427 35.7829 24.7853 35.7584 24.332C35.6833 23.2041 35.5194 22.1022 34.856 21.1314C33.7024 19.4478 32.0846 18.6982 30.0778 18.6477C27.5727 18.5849 25.4485 20.0869 24.7154 22.4709C24.3728 23.6518 24.2798 24.891 24.4423 26.1098C24.6962 28.3873 26.0805 30.1569 28.1065 30.7522C29.24 31.0802 30.4335 31.1452 31.5959 30.942C33.3379 30.6512 34.5829 29.6872 35.331 28.0951C35.4676 27.8002 35.5208 27.4643 35.6505 27.0192C34.5488 27.0192 33.5645 27.0123 32.5829 27.0301C32.4887 27.0301 32.3659 27.1666 32.3099 27.2718C31.6519 28.5375 29.6833 28.8789 28.5816 27.8999C28.2782 27.6404 28.0408 27.3127 27.8889 26.9435C27.737 26.5744 27.675 26.1744 27.7078 25.7766L35.7584 25.7793ZM30.0341 17.1771H32.4819C33.1468 17.1771 33.2396 17.0788 33.245 16.4043C33.245 16.2678 33.245 16.1312 33.245 15.9947C33.245 15.6424 33.0689 15.4485 32.7181 15.4485C30.9506 15.4485 29.1832 15.4485 27.4157 15.4485C27.0703 15.4485 26.8833 15.6356 26.8819 15.9947C26.8819 16.1476 26.8819 16.3005 26.8819 16.4535C26.8819 17.0556 27.002 17.1758 27.5904 17.1785C28.4027 17.1771 29.2191 17.1771 30.0341 17.1771Z" fill="white"/>
<path d="M13.9304 28.3286V24.0957C13.9941 24.0661 14.0617 24.0458 14.1311 24.0356C15.4963 24.0657 16.8533 24.0507 18.2089 24.1462C19.6274 24.2459 20.3509 25.2277 20.1584 26.6354C20.0465 27.4547 19.4949 28.0841 18.639 28.1988C17.8198 28.3081 16.9789 28.3026 16.1475 28.3231C15.4212 28.3422 14.6949 28.3286 13.9304 28.3286Z" fill="white"/>
<path d="M13.918 21.2927V17.7057C14.0471 17.6789 14.1781 17.6615 14.3098 17.6538C15.4497 17.6538 16.5896 17.6538 17.7228 17.6838C18.9077 17.7166 19.5521 18.3215 19.6026 19.3961C19.6518 20.4434 18.9801 21.2189 17.8279 21.2777C16.5446 21.3446 15.2559 21.2927 13.918 21.2927Z" fill="white"/>
<path d="M27.7856 23.4788C27.7023 22.1953 28.7631 21.0879 30.0805 21.0593C30.4027 21.0492 30.7235 21.1047 31.0237 21.2223C31.3238 21.3398 31.597 21.517 31.8267 21.7432C32.0564 21.9694 32.2378 22.2398 32.3601 22.5381C32.4823 22.8364 32.5428 23.1564 32.5378 23.4788H27.7856Z" fill="white"/>
</g>
<defs>
<clipPath id="clip0_80_7">
<rect width="46" height="46" fill="white"/>
</clipPath>
</defs>
</svg>
