<svg width="46" height="46" viewBox="0 0 46 46" fill="none" xmlns="http://www.w3.org/2000/svg">
<g clip-path="url(#clip0_80_13)">
<path d="M21.5575 0H24.4328C24.5463 0.0323553 24.6618 0.0572125 24.7785 0.0744117C28.3608 0.342056 31.7139 1.36943 34.7692 3.25014C40.7081 6.90474 44.3661 12.1628 45.647 19.0363C45.8031 19.8765 45.8871 20.7166 46 21.5568V24.4372C45.9327 24.9845 45.8799 25.5342 45.7971 26.0791C44.8883 32.2553 42.0119 37.3214 37.0874 41.1524C32.0332 45.083 26.2611 46.6085 19.92 45.784C14.4997 45.0783 9.88136 42.6851 6.17899 38.6632C1.2857 33.3487 -0.689134 27.0465 0.205247 19.8921C0.777891 15.3013 2.66869 11.2507 5.7444 7.79769C9.31833 3.77703 13.7602 1.27341 19.0701 0.34806C19.8972 0.204037 20.7292 0.115219 21.5575 0ZM23.5984 9.89204V10.5101C23.5984 16.1975 23.5956 21.8856 23.59 27.5746C23.59 27.829 23.59 28.0846 23.5624 28.3367C23.48 29.2934 23.0459 30.1857 22.3439 30.8411C21.642 31.4966 20.7219 31.8687 19.7616 31.8857C18.8016 31.8965 17.8711 31.5547 17.1466 30.925C16.4221 30.2954 15.954 29.4218 15.8311 28.4699C15.7106 27.5162 15.9537 26.552 16.5121 25.7694C17.0705 24.9868 17.9031 24.443 18.8444 24.2464C19.4975 24.112 20.2022 24.2248 20.8961 24.2248V19.8477C19.9501 19.9077 19.0317 19.8837 18.1445 20.0373C13.657 20.8186 10.6581 25.281 11.6317 29.6665C12.6425 34.2201 17.2141 37.0465 21.6884 35.8847C25.4568 34.9066 27.9191 31.732 27.9179 27.8338C27.9179 24.9005 27.8974 21.966 27.8866 19.0315V18.4627C29.9107 19.9233 32.068 20.7094 34.5003 20.695V16.4643C31.3201 16.4031 28.0247 14.0015 27.8326 9.89204H23.5984Z" fill="white"/>
</g>
<defs>
<clipPath id="clip0_80_13">
<rect width="46" height="46" fill="white"/>
</clipPath>
</defs>
</svg>
